<svg width="70" height="28" viewBox="0 0 70 28" fill="none" xmlns="http://www.w3.org/2000/svg">
<g clip-path="url(#clip0)">
<path d="M8.23405 22.3747C3.47081 22.3747 -0.390625 18.6252 -0.390625 14C-0.390625 9.37481 3.47081 5.62531 8.23405 5.62531C12.9973 5.62531 16.8587 9.37481 16.8587 14C16.8587 14.7709 16.2151 15.3958 15.4212 15.3958H2.66534C3.32095 17.8614 5.61161 19.5838 8.23405 19.5832C11.8851 19.5832 12.9 19.0472 14.2886 17.3247C14.7784 16.7181 15.682 16.6118 16.3068 17.0875C16.9315 17.5632 17.0409 18.4405 16.5511 19.0472C14.6205 21.5579 11.4257 22.8361 8.23405 22.3747ZM2.66534 12.6043H13.8026C13.0088 9.61872 9.87274 7.82327 6.79804 8.59413C4.77273 9.10185 3.19104 10.6377 2.66817 12.6043H2.66534Z" fill="#F44336"/>
<path d="M25.4831 22.3746C20.7198 22.3746 16.8584 18.6251 16.8584 13.9999C16.8584 9.37469 20.7198 5.62518 25.4831 5.62518C30.2463 5.62518 34.1078 9.37469 34.1078 13.9999C34.1078 18.6251 30.2463 22.3746 25.4831 22.3746ZM25.4831 8.41683C22.3076 8.41683 19.7332 10.9165 19.7332 14C19.7332 17.0835 22.3076 19.5832 25.4831 19.5832C28.6586 19.5832 31.2329 17.0835 31.2329 14C31.2329 10.9165 28.6586 8.41683 25.4831 8.41683Z" fill="#2196F3"/>
<path d="M18.2959 22.3745C17.502 22.3745 16.8584 21.7495 16.8584 20.9786V1.43776C16.8584 0.666893 17.502 0.0419312 18.2959 0.0419312C19.0898 0.0419312 19.7334 0.666893 19.7334 1.43776V20.9786C19.7332 21.7496 19.0898 22.3745 18.2959 22.3745Z" fill="#2196F3"/>
<path d="M49.9213 22.3744C49.1274 22.3744 48.4838 21.7494 48.4838 20.9785V12.6038C48.4838 9.84294 44.4589 8.4165 42.734 8.4165C40.9444 8.17245 39.1771 8.98716 38.2405 10.4878C37.8488 11.1583 36.9714 11.3933 36.281 11.0129C35.6011 10.6383 35.3542 9.80486 35.7251 9.13672C37.1612 6.74418 39.8938 5.37505 42.7341 5.62498C45.8304 5.62498 51.3588 7.95589 51.3588 12.6038V20.9785C51.3588 21.7495 50.7152 22.3744 49.9213 22.3744Z" fill="#FFC107"/>
<path d="M41.2966 22.3744C35.0437 22.3744 34.1094 18.8766 34.1094 16.7913C34.104 15.8673 34.4958 14.983 35.1903 14.3515C37.3724 12.3164 42.3775 12.3304 47.7709 12.5426C48.6161 12.576 49.355 12.6039 49.9213 12.6039C50.7152 12.603 51.3595 13.2273 51.3604 13.9982C51.3607 14.2448 51.2937 14.4872 51.1662 14.7005C51.3715 15.0451 51.4154 15.4585 51.287 15.8367C49.7165 19.8486 45.7158 22.4667 41.2966 22.3744ZM43.953 15.2421C41.6342 14.9991 39.2915 15.3856 37.1855 16.3587C37.0519 16.464 36.9774 16.6244 36.9843 16.7914C36.9843 18.1705 37.496 19.5829 41.2966 19.5829C44.3165 19.6788 47.1043 18.0172 48.3833 15.3593L47.656 15.3286C46.6784 15.2951 45.3446 15.2421 43.953 15.2421Z" fill="#FFC107"/>
<path d="M58.545 20.9788C58.0641 20.9786 57.6154 20.745 57.349 20.3563L48.7243 7.79432C48.2836 7.153 48.4619 6.28622 49.1225 5.85832C49.7831 5.43043 50.6756 5.60355 51.1163 6.245L59.741 18.807C60.1808 19.4487 60.0016 20.3153 59.3406 20.7424C59.1049 20.8947 58.8281 20.9759 58.545 20.9761V20.9788Z" fill="#4CAF50"/>
<path d="M55.6704 27.9577C54.8765 27.959 54.2318 27.3351 54.2305 26.5642C54.2301 26.3206 54.2953 26.0811 54.4198 25.8695L65.9193 6.32863C66.3163 5.65879 67.1973 5.42809 67.8872 5.81359C68.5771 6.19909 68.8147 7.05448 68.4177 7.72446L56.9181 27.2654C56.6594 27.696 56.1838 27.9598 55.6704 27.9577Z" fill="#4CAF50"/>
</g>
<defs>
<clipPath id="clip0">
<rect width="69" height="28" fill="white" transform="translate(0.125)"/>
</clipPath>
</defs>
</svg>
