<svg width="24" height="24" viewBox="0 0 24 24" fill="none" xmlns="http://www.w3.org/2000/svg">
<g clip-path="url(#clip0)">
<g filter="url(#filter0_d)">
<path d="M21.4746 6.31494C20.9775 6.55542 20.7695 7.15356 21.01 7.65039C21.667 9.00757 22 10.4705 22 12C22 17.5139 17.5139 22 12 22C6.48608 22 2 17.5139 2 12C2 6.48608 6.48608 2 12 2C14.2849 2 16.4314 2.74609 18.208 4.15747C18.6389 4.50146 19.269 4.42944 19.613 3.99707C19.957 3.56494 19.885 2.93555 19.4524 2.59204C17.3491 0.92041 14.7024 0 12 0C5.38354 0 0 5.38354 0 12C0 18.6165 5.38354 24 12 24C18.6165 24 24 18.6165 24 12C24 10.1665 23.5996 8.40942 22.8101 6.77954C22.5701 6.28149 21.97 6.07397 21.4746 6.31494Z" fill="url(#paint0_linear)"/>
<path d="M12 4C11.448 4 11 4.448 11 5V12C11 12.552 11.448 13 12 13H17C17.552 13 18 12.552 18 12C18 11.448 17.552 11 17 11H13V5C13 4.448 12.552 4 12 4Z" fill="url(#paint1_linear)"/>
</g>
</g>
<defs>
<filter id="filter0_d" x="-8" y="-4" width="40" height="40" filterUnits="userSpaceOnUse" color-interpolation-filters="sRGB">
<feFlood flood-opacity="0" result="BackgroundImageFix"/>
<feColorMatrix in="SourceAlpha" type="matrix" values="0 0 0 0 0 0 0 0 0 0 0 0 0 0 0 0 0 0 127 0"/>
<feOffset dy="4"/>
<feGaussianBlur stdDeviation="4"/>
<feColorMatrix type="matrix" values="0 0 0 0 0.0313725 0 0 0 0 0.937255 0 0 0 0 0.498039 0 0 0 0.2 0"/>
<feBlend mode="normal" in2="BackgroundImageFix" result="effect1_dropShadow"/>
<feBlend mode="normal" in="SourceGraphic" in2="effect1_dropShadow" result="shape"/>
</filter>
<linearGradient id="paint0_linear" x1="7.65957" y1="-1.96077e-07" x2="18.4561" y2="4.221" gradientUnits="userSpaceOnUse">
<stop stop-color="#fb0101"/>
<stop offset="1" stop-color="#f74d4d"/>
</linearGradient>
<linearGradient id="paint1_linear" x1="13.234" y1="4" x2="16.5571" y2="5.01047" gradientUnits="userSpaceOnUse">
<stop stop-color="#fb0101"/>
<stop offset="1" stop-color="#f74d4d"/>
</linearGradient>
<clipPath id="clip0">
<rect width="24" height="24" fill="white"/>
</clipPath>
</defs>
</svg>
