<svg width="28" height="20" viewBox="0 0 28 20" fill="none" xmlns="http://www.w3.org/2000/svg">
<rect width="28" height="20" rx="2" fill="white"/>
<rect x="7" y="3" width="14" height="14" rx="2" fill="#FF9A00"/>
<rect x="7" y="4.75" width="14" height="12.25" rx="2" fill="#FF2A00"/>
<path d="M17.5751 8.11256C17.5031 8.35672 17.5476 8.621 17.4875 8.86957C17.3094 9.94926 16.5927 10.9141 15.6222 11.3978C15.1391 11.643 14.6057 11.7703 14.0649 11.7697C13.5241 11.769 12.991 11.6402 12.5086 11.3938C11.5471 10.9114 10.8359 9.95466 10.6532 8.8865C10.5948 8.6367 10.6279 8.37439 10.5685 8.12655C10.4654 7.83209 10.0007 7.8235 9.88878 8.11674C9.81579 8.38813 9.88148 8.67547 9.90898 8.95006C10.1133 10.2849 10.9989 11.4836 12.1988 12.0787C12.7503 12.3539 13.3547 12.504 13.9698 12.5187C14.5849 12.5334 15.1957 12.4122 15.7594 12.1636C17.0569 11.5985 18.0269 10.3365 18.2344 8.92454C18.2595 8.66051 18.3196 8.38543 18.2529 8.1241C18.1483 7.83135 17.6899 7.82326 17.5754 8.11183L17.5751 8.11256Z" fill="white"/>
</svg>
