<svg width="28" height="20" viewBox="0 0 28 20" fill="none" xmlns="http://www.w3.org/2000/svg">
<rect width="28" height="20" rx="2" fill="url(#paint0_linear_1344)"/>
<path d="M16.625 3H11.375C8.95913 3 7 4.95913 7 7.375V12.625C7 15.0409 8.95913 17 11.375 17H16.625C19.0409 17 21 15.0409 21 12.625V7.375C21 4.95913 19.0409 3 16.625 3ZM19.6875 12.625C19.6875 14.3137 18.3137 15.6875 16.625 15.6875H11.375C9.68625 15.6875 8.3125 14.3137 8.3125 12.625V7.375C8.3125 5.68625 9.68625 4.3125 11.375 4.3125H16.625C18.3137 4.3125 19.6875 5.68625 19.6875 7.375V12.625Z" fill="white"/>
<path d="M14 6.5C12.0671 6.5 10.5 8.06712 10.5 10C10.5 11.9329 12.0671 13.5 14 13.5C15.9329 13.5 17.5 11.9329 17.5 10C17.5 8.06712 15.9329 6.5 14 6.5ZM14 12.1875C12.7942 12.1875 11.8125 11.2058 11.8125 10C11.8125 8.79338 12.7942 7.8125 14 7.8125C15.2058 7.8125 16.1875 8.79338 16.1875 10C16.1875 11.2058 15.2058 12.1875 14 12.1875Z" fill="white"/>
<path d="M17.7613 6.70399C18.0189 6.70399 18.2277 6.49519 18.2277 6.23762C18.2277 5.98004 18.0189 5.77124 17.7613 5.77124C17.5037 5.77124 17.2949 5.98004 17.2949 6.23762C17.2949 6.49519 17.5037 6.70399 17.7613 6.70399Z" fill="white"/>
<defs>
<linearGradient id="paint0_linear_1344" x1="2.56314" y1="18.1693" x2="18.0183" y2="-3.46822" gradientUnits="userSpaceOnUse">
<stop stop-color="#FFC107"/>
<stop offset="0.507" stop-color="#F44336"/>
<stop offset="0.99" stop-color="#9C27B0"/>
</linearGradient>
</defs>
</svg>
