<svg width="28" height="20" viewBox="0 0 28 20" fill="none" xmlns="http://www.w3.org/2000/svg">
<rect width="28" height="20" rx="2" fill="#5D6C83"/>
<path fill-rule="evenodd" clip-rule="evenodd" d="M17.4573 4C18.396 4 19.299 4.371 19.9633 5.0367C20.6283 5.701 21 6.597 21 7.535V13.065C21 15.018 19.411 16.6 17.4573 16.6H10.542C8.5883 16.6 7 15.018 7 13.065V7.535C7 5.582 8.5813 4 10.542 4H17.4573ZM18.571 8.57806L18.627 8.52206C18.7943 8.31906 18.7943 8.02506 18.6193 7.82206C18.522 7.71776 18.3883 7.65406 18.249 7.64006C18.102 7.63236 17.962 7.68206 17.8563 7.78006L14.7 10.3001C14.294 10.6368 13.7123 10.6368 13.3 10.3001L10.15 7.78006C9.93225 7.61906 9.63125 7.64006 9.44995 7.82906C9.26095 8.01806 9.23995 8.31906 9.40025 8.52906L9.49195 8.62006L12.677 11.1051C13.069 11.4131 13.5443 11.5811 14.042 11.5811C14.5383 11.5811 15.022 11.4131 15.4133 11.1051L18.571 8.57806Z" fill="url(#paint0_linear)"/>
<defs>
<linearGradient id="paint0_linear" x1="11.4681" y1="4" x2="17.5761" y2="6.65332" gradientUnits="userSpaceOnUse">
<stop stop-color="#08EE7F"/>
<stop offset="1" stop-color="#20CF92"/>
</linearGradient>
</defs>
</svg>
