<svg width="28" height="20" viewBox="0 0 28 20" fill="none" xmlns="http://www.w3.org/2000/svg">
<rect width="28" height="20" rx="2" fill="#0069FF"/>
<g clip-path="url(#clip0)">
<path fill-rule="evenodd" clip-rule="evenodd" d="M5.6438 8.01375C5.14921 7.95966 4.65062 8.06595 4.21657 8.318C3.78251 8.57006 3.4343 8.95551 3.2198 9.42137C3.0053 9.88724 2.93503 10.4106 3.01865 10.9197C3.10228 11.4287 3.33569 11.8983 3.68681 12.264C4.03793 12.6297 4.48952 12.8735 4.97951 12.9619C5.46949 13.0503 5.97382 12.9789 6.42318 12.7577C6.87253 12.5364 7.24484 12.176 7.48895 11.7262C7.73305 11.2763 7.83696 10.7589 7.78639 10.2452C7.73075 9.67425 7.4873 9.1406 7.09705 8.73416C6.70679 8.32771 6.19357 8.0733 5.6438 8.01375ZM5.56579 11.8221C5.29979 11.8591 5.02929 11.8087 4.79231 11.6779C4.55533 11.5471 4.36378 11.3425 4.24459 11.0928C4.1254 10.8431 4.08456 10.5609 4.12781 10.2859C4.17105 10.0109 4.29621 9.75684 4.48569 9.55949C4.67518 9.36214 4.91946 9.23139 5.1842 9.18563C5.44895 9.13987 5.72085 9.18139 5.96169 9.30436C6.20254 9.42733 6.40021 9.62557 6.52694 9.87121C6.65367 10.1168 6.70308 10.3975 6.66823 10.6738C6.63165 10.9645 6.50382 11.2345 6.30453 11.442C6.10523 11.6496 5.84559 11.7832 5.56579 11.8221ZM9.07393 8.11263C8.99044 8.11284 8.90804 8.13237 8.83274 8.1698C8.75743 8.20724 8.69111 8.26163 8.6386 8.32903C8.58609 8.39642 8.54871 8.47513 8.52918 8.55941C8.50965 8.64369 8.50847 8.73143 8.52571 8.81625C8.57853 9.09104 8.82573 9.27879 9.09502 9.27879H10.6578L8.22578 12.6204C8.2078 12.645 8.19678 12.6744 8.19398 12.7052C8.19118 12.736 8.19669 12.767 8.20991 12.7948C8.22312 12.8225 8.24352 12.8459 8.2688 12.8622C8.29409 12.8786 8.32327 12.8873 8.35307 12.8875H12.1679C12.437 12.8875 12.6843 12.6998 12.7372 12.4249C12.7544 12.3401 12.7532 12.2524 12.7337 12.1681C12.7142 12.0838 12.6769 12.0051 12.6244 11.9377C12.5719 11.8703 12.5056 11.8159 12.4303 11.7785C12.355 11.741 12.2727 11.7215 12.1892 11.7212H10.2851L12.7152 8.38222C12.7334 8.35732 12.7445 8.32765 12.7473 8.29654C12.7501 8.26544 12.7446 8.23413 12.7312 8.20614C12.7179 8.17814 12.6973 8.15456 12.6717 8.13804C12.6462 8.12153 12.6167 8.11273 12.5866 8.11263H9.07393ZM24.3176 8.12608C24.1913 8.15727 24.079 8.23227 23.9994 8.33868C23.9197 8.4451 23.8774 8.57656 23.8794 8.71133V10.6529L20.8493 8.14931C20.8255 8.12972 20.7969 8.1175 20.7668 8.11405C20.7366 8.11059 20.7061 8.11605 20.6788 8.12979C20.6515 8.14352 20.6285 8.16498 20.6124 8.1917C20.5963 8.21841 20.5879 8.2493 20.5879 8.2808V12.2898C20.5859 12.4246 20.6282 12.556 20.7079 12.6625C20.7875 12.7689 20.8998 12.8439 21.0261 12.875C21.1081 12.8938 21.1931 12.8932 21.2749 12.8732C21.3566 12.8533 21.433 12.8146 21.4985 12.7599C21.5639 12.7052 21.6166 12.636 21.6528 12.5573C21.689 12.4787 21.7078 12.3926 21.7077 12.3054V10.347L24.7378 12.8506C24.7616 12.8702 24.7902 12.8824 24.8203 12.8859C24.8505 12.8893 24.881 12.8839 24.9082 12.8701C24.9355 12.8564 24.9585 12.835 24.9746 12.8083C24.9907 12.7816 24.9992 12.7507 24.9991 12.7192V8.69557C24.9992 8.6084 24.9804 8.52232 24.9442 8.44368C24.908 8.36504 24.8552 8.29585 24.7898 8.24119C24.7244 8.18654 24.648 8.14783 24.5663 8.1279C24.4846 8.10798 24.3996 8.10736 24.3176 8.12608ZM16.4279 9.16717C17.7096 9.16717 18.6672 9.87041 18.6672 10.4995C18.6672 11.1285 17.7096 11.8317 16.4279 11.8317C15.1462 11.8317 14.1886 11.1285 14.1886 10.4995C14.1886 9.87041 15.1462 9.16717 16.4279 9.16717ZM16.4279 8.00106C14.5727 8.00106 13.0689 9.11964 13.0689 10.4995C13.0689 11.8793 14.5727 12.9978 16.4279 12.9978C18.2831 12.9978 19.7869 11.8793 19.7869 10.4995C19.7869 9.11964 18.283 8.00106 16.4279 8.00106Z" fill="white"/>
</g>
<defs>
<clipPath id="clip0">
<rect width="22" height="5" fill="white" transform="translate(3 8)"/>
</clipPath>
</defs>
</svg>
