<svg width="28" height="20" viewBox="0 0 28 20" fill="none" xmlns="http://www.w3.org/2000/svg">
<rect width="28" height="20" rx="2" fill="#FF0000"/>
<g clip-path="url(#clip0)">
<path fill-rule="evenodd" clip-rule="evenodd" d="M19.4777 5.40529C20.0773 5.56679 20.5502 6.03953 20.7116 6.63927C21.0115 7.73473 20.9999 10.0181 20.9999 10.0181C20.9999 10.0181 20.9999 12.2899 20.7117 13.3855C20.5502 13.9851 20.0774 14.4579 19.4777 14.6193C18.3821 14.9077 14 14.9077 14 14.9077C14 14.9077 9.62926 14.9077 8.52227 14.6079C7.92253 14.4464 7.44978 13.9736 7.28828 13.3739C7 12.2899 7 10.0066 7 10.0066C7 10.0066 7 7.73473 7.28828 6.63927C7.44967 6.03964 7.93406 5.55525 8.52216 5.39386C9.61773 5.10547 13.9999 5.10547 13.9999 5.10547C13.9999 5.10547 18.3821 5.10547 19.4777 5.40529ZM16.2476 10.0066L12.6035 12.1054V7.90771L16.2476 10.0066Z" fill="white"/>
</g>
<defs>
<clipPath id="clip0">
<rect width="14" height="14" fill="white" transform="translate(7 3)"/>
</clipPath>
</defs>
</svg>
