<svg width="41" height="40" viewBox="0 0 41 40" fill="none" xmlns="http://www.w3.org/2000/svg">
<g clip-path="url(#clip0)">
<g filter="url(#filter0_d)">
<path d="M28.3326 0.113281H13.4175C6.55408 0.113281 0.988281 5.67908 0.988281 12.5425V27.4576C0.988281 34.321 6.55408 39.8868 13.4175 39.8868H28.3326C35.196 39.8868 40.7618 34.321 40.7618 27.4576V12.5425C40.7618 5.67908 35.196 0.113281 28.3326 0.113281ZM37.033 27.4576C37.033 32.2552 33.1302 36.158 28.3326 36.158H13.4175C8.61982 36.158 4.71705 32.2552 4.71705 27.4576V12.5425C4.71705 7.74482 8.61982 3.84205 13.4175 3.84205H28.3326C33.1302 3.84205 37.033 7.74482 37.033 12.5425V27.4576Z" fill="url(#paint0_linear)"/>
</g>
<g filter="url(#filter1_d)">
<path d="M20.875 10.0565C15.3838 10.0565 10.9316 14.5087 10.9316 19.9999C10.9316 25.4911 15.3838 29.9433 20.875 29.9433C26.3662 29.9433 30.8184 25.4911 30.8184 19.9999C30.8184 14.5087 26.3662 10.0565 20.875 10.0565ZM20.875 26.2145C17.4495 26.2145 14.6604 23.4254 14.6604 19.9999C14.6604 16.5719 17.4495 13.7853 20.875 13.7853C24.3005 13.7853 27.0896 16.5719 27.0896 19.9999C27.0896 23.4254 24.3005 26.2145 20.875 26.2145Z" fill="url(#paint1_linear)"/>
</g>
<g filter="url(#filter2_d)">
<path d="M31.5632 10.6357C32.295 10.6357 32.8882 10.0425 32.8882 9.31079C32.8882 8.57904 32.295 7.98584 31.5632 7.98584C30.8315 7.98584 30.2383 8.57904 30.2383 9.31079C30.2383 10.0425 30.8315 10.6357 31.5632 10.6357Z" fill="url(#paint2_linear)"/>
</g>
</g>
<defs>
<filter id="filter0_d" x="-109.494" y="-110.369" width="260.737" height="260.737" filterUnits="userSpaceOnUse" color-interpolation-filters="sRGB">
<feFlood flood-opacity="0" result="BackgroundImageFix"/>
<feColorMatrix in="SourceAlpha" type="matrix" values="0 0 0 0 0 0 0 0 0 0 0 0 0 0 0 0 0 0 127 0" result="hardAlpha"/>
<feOffset/>
<feGaussianBlur stdDeviation="55.241"/>
<feColorMatrix type="matrix" values="0 0 0 0 0.905882 0 0 0 0 0.25098 0 0 0 0 0.282353 0 0 0 0.3 0"/>
<feBlend mode="normal" in2="BackgroundImageFix" result="effect1_dropShadow"/>
<feBlend mode="normal" in="SourceGraphic" in2="effect1_dropShadow" result="shape"/>
</filter>
<filter id="filter1_d" x="-99.5503" y="-100.425" width="240.851" height="240.851" filterUnits="userSpaceOnUse" color-interpolation-filters="sRGB">
<feFlood flood-opacity="0" result="BackgroundImageFix"/>
<feColorMatrix in="SourceAlpha" type="matrix" values="0 0 0 0 0 0 0 0 0 0 0 0 0 0 0 0 0 0 127 0" result="hardAlpha"/>
<feOffset/>
<feGaussianBlur stdDeviation="55.241"/>
<feColorMatrix type="matrix" values="0 0 0 0 0.905882 0 0 0 0 0.25098 0 0 0 0 0.282353 0 0 0 0.3 0"/>
<feBlend mode="normal" in2="BackgroundImageFix" result="effect1_dropShadow"/>
<feBlend mode="normal" in="SourceGraphic" in2="effect1_dropShadow" result="shape"/>
</filter>
<filter id="filter2_d" x="-80.2437" y="-102.496" width="223.614" height="223.614" filterUnits="userSpaceOnUse" color-interpolation-filters="sRGB">
<feFlood flood-opacity="0" result="BackgroundImageFix"/>
<feColorMatrix in="SourceAlpha" type="matrix" values="0 0 0 0 0 0 0 0 0 0 0 0 0 0 0 0 0 0 127 0" result="hardAlpha"/>
<feOffset/>
<feGaussianBlur stdDeviation="55.241"/>
<feColorMatrix type="matrix" values="0 0 0 0 0.905882 0 0 0 0 0.25098 0 0 0 0 0.282353 0 0 0 0.3 0"/>
<feBlend mode="normal" in2="BackgroundImageFix" result="effect1_dropShadow"/>
<feBlend mode="normal" in="SourceGraphic" in2="effect1_dropShadow" result="shape"/>
</filter>
<linearGradient id="paint0_linear" x1="4.62917" y1="36.2461" x2="37.1209" y2="3.75392" gradientUnits="userSpaceOnUse">
<stop stop-color="#FFC107"/>
<stop offset="0.507" stop-color="#F44336"/>
<stop offset="0.99" stop-color="#9C27B0"/>
</linearGradient>
<linearGradient id="paint1_linear" x1="12.7521" y1="28.1229" x2="28.9979" y2="11.8768" gradientUnits="userSpaceOnUse">
<stop stop-color="#FFC107"/>
<stop offset="0.507" stop-color="#F44336"/>
<stop offset="0.99" stop-color="#9C27B0"/>
</linearGradient>
<linearGradient id="paint2_linear" x1="30.4809" y1="10.3932" x2="32.6456" y2="8.2284" gradientUnits="userSpaceOnUse">
<stop stop-color="#FFC107"/>
<stop offset="0.507" stop-color="#F44336"/>
<stop offset="0.99" stop-color="#9C27B0"/>
</linearGradient>
<clipPath id="clip0">
<rect x="0.988281" y="0.113281" width="39.7735" height="39.7735" fill="white"/>
</clipPath>
</defs>
</svg>
