<svg width="83" height="22" viewBox="0 0 83 22" fill="none" xmlns="http://www.w3.org/2000/svg">
<path d="M63.4552 19.963C64.6102 20.049 65.7595 20.1466 66.9087 20.2499V0H63.4552V19.963ZM7.90552 12.4517L3.40615 0H0.125V22C1.27426 21.8393 2.42353 21.6787 3.57854 21.5295V9.56547L7.57798 21.036C8.83642 20.8925 10.0949 20.7548 11.3591 20.6228V0H7.90552V12.4517ZM14.6804 20.3073C17.8639 20.0203 21.0588 19.7793 24.271 19.5957V16.1987C22.2196 16.3192 20.1739 16.457 18.134 16.6176V11.4763C19.4729 11.4648 21.237 11.4246 22.8 11.4418V8.04486C21.553 8.03912 19.5476 8.06208 18.134 8.07929V3.4314H24.271V0H14.6804V20.3073ZM26.4834 3.4314H30.0978V19.3203C31.2471 19.2744 32.3963 19.24 33.5514 19.2113V3.4314H37.1658V0H26.4834V3.4314ZM39.3781 19.1137H42.8317V11.2697H47.5149V7.87272H42.8317V3.4314H49.0205V0H39.3781V19.1137ZM82.125 0H78.3324L75.8328 5.78978L73.586 0H69.8509L73.8675 10.3401L69.4831 20.4851C70.6956 20.6056 71.9023 20.7319 73.1148 20.8638L75.6661 14.965L78.1888 21.4664C79.5047 21.6328 80.8148 21.8106 82.125 22H82.1308L77.6314 10.4147L82.125 0ZM54.6863 0H51.2328V19.2859C54.3703 19.3949 57.4963 19.5498 60.6108 19.7564V16.3594C58.6398 16.2274 56.6688 16.1184 54.6863 16.0266V0Z" fill="#E50914"/>
</svg>
