<svg width="83" height="20" viewBox="0 0 83 20" fill="none" xmlns="http://www.w3.org/2000/svg">
<path d="M26.1811 16.224C26.1811 17.3914 26.2399 18.5468 26.3457 19.7142H23.0888C22.9712 19.4283 22.8654 18.9518 22.8419 18.5826H22.7008C22.0541 19.2615 21.2075 19.9167 19.2439 19.9167C16.6572 19.9167 14.917 18.2967 14.917 15.4021C14.917 12.5075 17.1863 10.8041 22.301 10.8041H22.8301V10.006C22.8301 8.46939 22.1011 7.90953 20.502 7.90953C18.7854 7.90953 16.8218 8.64807 15.9282 9.32704V6.52776C16.9394 5.93216 18.6795 5.21745 20.9018 5.21745C24.4409 5.21745 26.1811 6.52776 26.1811 9.98219V16.224ZM22.8419 13.0555H22.3598C19.4908 13.0555 18.3386 13.651 18.3386 15.3306C18.3386 16.6052 19.044 17.4628 20.4432 17.4628C21.619 17.4628 22.4068 16.9506 22.8301 16.3312V13.0555H22.8419ZM32.2482 19.7142H28.909V5.44378H32.1659L32.2482 6.63496H32.4128C33.083 5.95599 34.2706 5.21745 36.2577 5.21745C38.9855 5.21745 40.1025 6.4682 40.1025 9.30322V19.7142H36.7633V9.64866C36.7633 8.56468 36.2342 8.06438 35.0466 8.06438C33.8355 8.06438 32.8596 8.71954 32.2365 9.4819V19.7142H32.2482ZM42.3601 12.6862C42.3601 7.92144 44.6058 5.16981 47.8393 5.16981C49.2973 5.16981 50.5318 5.84878 51.3784 7.12335V6.10352e-05H54.7177V19.7142H51.6253L51.4607 17.8678C50.5671 19.2615 49.2737 20.0001 47.6982 20.0001C44.547 20.0001 42.3601 17.3914 42.3601 12.6862ZM45.8169 12.6862C45.8169 15.9262 46.7105 17.3437 48.5448 17.3437C50.426 17.3437 51.3784 15.9024 51.3784 12.579C51.3784 9.29131 50.4848 7.83806 48.6858 7.83806C46.7693 7.82615 45.8169 9.30322 45.8169 12.6862ZM63.5361 20.0001C59.268 20.0001 56.8576 17.5939 56.8576 12.6266C56.8576 8.31453 58.7977 5.16981 62.8659 5.16981C66.2052 5.16981 68.3687 7.03997 68.3687 12.0072V13.794H60.3145C60.4556 16.1764 61.3844 17.3437 63.8301 17.3437C65.4645 17.3437 67.2046 16.7243 68.2393 16.0096V18.7612C67.2399 19.4402 65.6643 20.0001 63.5361 20.0001ZM60.3027 11.2925H64.9589V11.0066C64.9589 9.21984 64.4533 7.82615 62.7954 7.82615C61.2081 7.82615 60.385 9.01733 60.3027 11.2925ZM75.3529 14.8899L72.5192 19.7142H69.1212L73.5539 12.2812L69.2858 5.44378H73.0483L75.7409 9.75587L78.1513 5.44378H81.4906L77.5046 12.3646L82.1137 19.7142H78.3512L75.3529 14.8899Z" fill="#122839"/>
<path d="M6.6977 19.7141V17.7248C6.6977 15.0328 6.39199 13.6986 5.32202 11.3639L0.125 0H3.72294L8.13217 9.73198C9.42554 12.567 9.98993 14.0441 9.98993 17.3079V19.7141H6.6977Z" fill="#FC3F1D"/>
<path d="M8.80273 9.52954L12.9063 6.10352e-05H16.3513L12.2008 9.52954H8.80273Z" fill="#FC3F1D"/>
</svg>
