<svg width="98" height="24" viewBox="0 0 98 24" fill="none" xmlns="http://www.w3.org/2000/svg">
<path d="M71.6988 5.62293C71.6989 5.7823 71.6684 5.94012 71.609 6.08737C71.5496 6.23463 71.4625 6.36844 71.3527 6.48115C71.2429 6.59387 71.1125 6.68328 70.969 6.74429C70.8255 6.80529 70.6717 6.83669 70.5164 6.83669C70.3611 6.83669 70.2073 6.80529 70.0638 6.74429C69.9203 6.68328 69.7899 6.59387 69.6801 6.48115C69.5703 6.36844 69.4832 6.23463 69.4238 6.08737C69.3644 5.94012 69.3339 5.7823 69.334 5.62293C69.3339 5.46357 69.3644 5.30575 69.4238 5.1585C69.4832 5.01124 69.5703 4.87743 69.6801 4.76472C69.7899 4.652 69.9203 4.56259 70.0638 4.50158C70.2073 4.44058 70.3611 4.40918 70.5164 4.40918C70.6717 4.40918 70.8255 4.44058 70.969 4.50158C71.1125 4.56259 71.2429 4.652 71.3527 4.76472C71.4625 4.87743 71.5496 5.01124 71.609 5.1585C71.6684 5.30575 71.6989 5.46357 71.6988 5.62293Z" fill="#484848"/>
<path d="M92.7255 10.9514H89.7158V14.0228H92.7255V10.9514Z" fill="#484848"/>
<path d="M33.0351 10.9514H30.0254V14.0228H33.0351V10.9514Z" fill="#484848"/>
<path d="M24.0077 10.9514H20.998V14.0228H24.0077V10.9514Z" fill="#484848"/>
<path d="M15.1161 10.9514H12.1064V14.0228H15.1161V10.9514Z" fill="#484848"/>
<path d="M5.91105 10.9514H2.90137V14.0228H5.91105V10.9514Z" fill="#484848"/>
<path d="M10.1282 4.82082H10.4853C12.7916 4.82082 13.8666 6.05462 14.3158 9.34496L15.03 9.31339L14.9347 4.09302H3.19867L3.08301 9.31339L3.77026 9.34496C3.88929 8.11116 4.03205 7.4467 4.34185 6.78224C4.88953 5.54825 6.03252 4.82082 7.4373 4.82082H7.93733V16.1786C7.93733 17.3809 7.86595 17.7606 7.58043 18.0453C7.34219 18.2667 6.8659 18.3617 6.31804 18.3617H5.77036V19.1209H12.2952V18.3617H11.7441C11.1998 18.3617 10.7202 18.2666 10.4855 18.0453C10.1998 17.7606 10.1284 17.3807 10.1284 16.1786V4.82082" fill="#ED008C"/>
<path d="M41.1718 19.121L44.9744 5.85317V16.2649C44.9744 17.4012 44.9097 17.8005 44.6518 18.0769C44.4583 18.2918 44.0096 18.3841 43.5122 18.3841H43.3188V19.121H48.6937V18.3841H48.414C47.9196 18.3841 47.4681 18.292 47.2747 18.0769C47.0165 17.8005 46.952 17.4012 46.952 16.2649V7.38893C46.952 6.25248 47.0165 5.82252 47.2747 5.54616C47.4896 5.36193 47.9196 5.23897 48.414 5.23897H48.6937V4.53247H44.5229L41.3839 15.2512L38.3126 4.53247H34.1633V5.23897H34.5501C35.6897 5.23897 35.9046 5.48469 35.9046 6.95898V15.4048C35.9046 16.7562 35.8401 17.3091 35.6465 17.7084C35.4316 18.1077 34.977 18.3841 34.5071 18.3841H34.1631V19.121H38.5917V18.3841H38.3124C37.7535 18.3841 37.3019 18.169 37.0408 17.739C36.786 17.3091 36.7215 16.9098 36.7215 15.4048V5.85335L40.5022 19.1212H41.1718" fill="#484848"/>
<path d="M53.3183 8.74023C50.6524 8.74023 48.9111 10.8287 48.9111 14.1151C48.9111 17.2786 50.6524 19.4286 53.251 19.4286C55.8735 19.4286 57.615 17.2786 57.615 14.0845C57.615 10.9208 55.8735 8.74023 53.3183 8.74023ZM53.2324 9.44655C54.0033 9.44655 54.6696 9.93798 55.0351 10.7672C55.3791 11.535 55.5295 12.5794 55.5295 14.0843C55.5295 17.1861 54.7771 18.7217 53.2508 18.7217C51.7274 18.7217 50.9933 17.1859 50.9933 14.0535C50.9933 12.5792 51.1467 11.535 51.4907 10.7672C51.8319 9.96881 52.5229 9.44655 53.2324 9.44655Z" fill="#484848"/>
<path d="M61.1858 4.37891L58.1328 4.5325V5.20817H58.2802C59.1833 5.20817 59.3799 5.51536 59.3799 6.95882V16.9405C59.3799 18.2303 59.3369 18.5683 59.165 19.1211H59.8745C60.4087 18.2303 60.5408 18.0769 60.7559 18.0769C60.8603 18.0769 60.9646 18.1075 61.1184 18.2611C62.1747 19.1211 62.6261 19.3053 63.5937 19.3053C65.9123 19.3053 67.5894 17.0632 67.5894 13.8691C67.5894 10.8592 66.0383 8.83223 63.7196 8.83223C62.5157 8.83223 61.6373 9.41578 61.1858 10.4599V4.37891ZM63.4156 9.60002C64.7948 9.60002 65.5041 11.0743 65.5041 13.9612C65.5041 17.0017 64.7731 18.5681 63.3756 18.5681C61.8277 18.5681 61.0136 16.9709 61.0136 14.0533C61.0136 12.5791 61.2073 11.5657 61.6588 10.7978C62.0641 10.0608 62.7552 9.60002 63.4156 9.60002Z" fill="#484848"/>
<path d="M71.5655 8.8938L68.4296 9.07804V9.75371H68.6662C69.5659 9.75371 69.7597 10.0609 69.7597 11.4737V16.6642C69.7597 18.0772 69.5661 18.415 68.6662 18.415H68.3252V19.1211H73.0061V18.415H72.6681C71.762 18.415 71.5656 18.1076 71.5656 16.6642V8.8938" fill="#484848"/>
<path d="M77.0077 4.37891L73.8719 4.5325V5.20817H74.1057C75.0085 5.20817 75.2019 5.51536 75.2019 6.95882V16.6639C75.2019 18.1075 75.0085 18.4147 74.1057 18.4147H73.7646V19.1209H78.4482V18.4147H78.1042C77.1981 18.4147 77.0077 18.1074 77.0077 16.6639V4.37891Z" fill="#484848"/>
<path d="M86.9994 14.0228C86.8948 10.7672 85.3469 8.74023 83.0067 8.74023C80.7461 8.74023 79.1152 10.9515 79.1152 14.0228C79.1152 17.3091 80.7246 19.4284 83.2186 19.4284C84.831 19.4284 85.9489 18.5683 86.8735 16.664L86.2286 16.3262C85.4762 17.9232 84.7237 18.5683 83.5626 18.5683C81.8643 18.5683 81.1365 17.2171 81.1146 14.0228H86.9994ZM81.1363 13.2549C81.1548 10.9515 81.9039 9.50802 83.111 9.50802C84.3149 9.50802 85.0242 10.9208 85.0029 13.2549H81.1363Z" fill="#484848"/>
<path d="M93.8553 8.48975C94.0369 8.48975 94.2142 8.53628 94.3873 8.62952C94.5603 8.72276 94.695 8.85617 94.7914 9.02957C94.8882 9.20297 94.9364 9.38385 94.9364 9.5722C94.9364 9.75868 94.8888 9.93788 94.7935 10.1098C94.6986 10.2819 94.565 10.4155 94.3936 10.5106C94.2219 10.6057 94.0425 10.6533 93.8551 10.6533C93.6677 10.6533 93.4883 10.6059 93.3166 10.5106C93.145 10.4155 93.0113 10.2821 92.916 10.1098C92.8203 9.93788 92.7725 9.75868 92.7725 9.5722C92.7725 9.38385 92.8209 9.20297 92.918 9.02957C93.015 8.85617 93.1501 8.72257 93.3228 8.62952C93.4965 8.53628 93.6738 8.48975 93.8553 8.48975ZM93.8553 8.66988C93.7036 8.66988 93.5556 8.70874 93.4121 8.78666C93.2684 8.86458 93.1559 8.97557 93.0746 9.12019C92.9935 9.26482 92.9531 9.41561 92.9531 9.57201C92.9531 9.72766 92.9929 9.87678 93.0727 10.0195C93.1523 10.1623 93.2639 10.2735 93.407 10.3533C93.5503 10.433 93.6998 10.4728 93.8553 10.4728C94.0111 10.4728 94.1602 10.433 94.3036 10.3533C94.4467 10.2737 94.5579 10.1625 94.6371 10.0195C94.7163 9.87678 94.7561 9.72766 94.7561 9.57201C94.7561 9.41561 94.7158 9.26482 94.635 9.12019C94.5543 8.97576 94.442 8.86458 94.2978 8.78666C94.1537 8.70874 94.0063 8.66988 93.8553 8.66988ZM93.3807 10.169V9.00491H93.7815C93.9181 9.00491 94.0175 9.01574 94.0786 9.03723C94.1401 9.05872 94.1888 9.09628 94.2251 9.14991C94.2615 9.20335 94.2798 9.26034 94.2798 9.32051C94.2798 9.40553 94.2492 9.47971 94.1883 9.54268C94.1277 9.60565 94.0468 9.64115 93.9461 9.64881C93.9874 9.666 94.0203 9.68656 94.0451 9.71048C94.0922 9.75626 94.1496 9.83324 94.2174 9.94124L94.3596 10.1692H94.1292L94.0255 9.98552C93.9442 9.84183 93.879 9.75177 93.8299 9.71515C93.7955 9.68805 93.7452 9.6746 93.6793 9.6746H93.5686V10.1692H93.3807V10.169ZM93.5688 9.51465H93.7979C93.9071 9.51465 93.9816 9.49839 94.0216 9.46569C94.0616 9.43299 94.0812 9.38983 94.0812 9.33601C94.0812 9.30144 94.0717 9.27043 94.0524 9.24315C94.0332 9.21587 94.0068 9.19531 93.9724 9.18186C93.9384 9.16841 93.8753 9.16187 93.7832 9.16187H93.5688V9.51465Z" fill="#484848"/>
</svg>
