<svg width="103" height="23" viewBox="0 0 103 23" fill="none" xmlns="http://www.w3.org/2000/svg">
<g clip-path="url(#clip0)">
<path d="M100.238 0.532959L94.701 12.2806L92.6189 7.82936H90.3672L93.791 15.1105H95.6109L102.474 0.532959H100.238Z" fill="#DB1F35"/>
<path d="M76.4863 22.3457H80.9435V14.2539C80.9435 12.403 82.0231 11.1028 83.6271 11.1028C85.1694 11.1028 85.9713 12.1736 85.9713 13.7185V22.3457H90.4285V12.8772C90.4285 9.66494 88.4853 7.40107 85.339 7.40107C83.334 7.40107 81.9306 8.25767 80.8818 9.81791H80.7893V7.82937H76.4709L76.4863 22.3457ZM67.7262 7.43166C63.0685 7.43166 59.9531 10.751 59.9531 15.1258C59.9531 19.47 63.0685 22.8199 67.7262 22.8199C72.3839 22.8199 75.4993 19.47 75.4993 15.1258C75.5147 10.751 72.3839 7.43166 67.7262 7.43166ZM67.6954 19.5464C65.5824 19.5464 64.4566 17.7873 64.4566 15.1258C64.4566 12.4336 65.567 10.7051 67.6954 10.7051C69.8083 10.7051 70.9804 12.4336 70.9804 15.1258C70.9958 17.7873 69.8237 19.5464 67.6954 19.5464ZM47.2448 22.3457H59.768V18.8581H52.6736V18.7663L59.4596 11.2252V7.81407H47.2448V11.317H54.1079V11.4087L47.2448 19.0111V22.3457ZM41.5229 22.3457H46.0109V7.82937H41.5229V22.3457ZM31.1125 22.3457H35.5851V15.6764C35.5851 12.6477 37.4204 11.3017 40.212 11.6841H40.3045V7.85996C40.0732 7.76819 39.811 7.75289 39.3946 7.75289C37.6518 7.75289 36.4797 8.5483 35.4772 10.2462H35.3846V7.82937H31.1125V22.3457ZM22.9076 19.5617C20.9335 19.5617 19.7305 18.2921 19.4992 16.3342H30.0484C30.0792 13.2137 29.2464 10.7204 27.5036 9.16016C26.2698 8.02823 24.6504 7.40107 22.5837 7.40107C18.1728 7.40107 15.1191 10.7204 15.1191 15.0646C15.1191 19.4394 18.034 22.774 22.8768 22.774C24.7121 22.774 26.1618 22.2845 27.3648 21.4738C28.6449 20.6019 29.5703 19.317 29.817 18.0474H25.5295C25.1131 18.9958 24.2186 19.5617 22.9076 19.5617ZM22.6763 10.5674C24.2494 10.5674 25.329 11.73 25.5141 13.4279H19.53C19.8848 11.7147 20.8255 10.5674 22.6763 10.5674ZM6.20475 22.3457H10.8933L15.9828 7.82937H11.4948L8.64155 17.1602H8.57986L5.72664 7.82937H1.11523L6.20475 22.3457ZM41.5229 2.65918H46.0109V6.60566H41.5229V2.65918Z" fill="#424242"/>
</g>
<defs>
<clipPath id="clip0">
<rect width="101.513" height="22.3328" fill="white" transform="translate(0.959961 0.533081)"/>
</clipPath>
</defs>
</svg>
