<svg width="58" height="54" viewBox="0 0 58 54" fill="none" xmlns="http://www.w3.org/2000/svg">
<g clip-path="url(#clip0)">
<path d="M1.76953 38.69V20.46" stroke="#283446" stroke-linecap="round" stroke-linejoin="round"/>
<path d="M9.82953 51.2299H5.37953C4.42291 51.2273 3.50623 50.8461 2.82979 50.1697C2.15336 49.4932 1.77217 48.5766 1.76953 47.6199V38.6899" stroke="#283446" stroke-linecap="round" stroke-linejoin="round"/>
<path d="M1.7696 11.3198V3.87976C1.76657 3.40481 1.85782 2.93398 2.03806 2.49454C2.2183 2.0551 2.48394 1.6558 2.8196 1.31977C3.49798 0.646109 4.41359 0.265505 5.3696 0.259766H52.7496C53.7062 0.262405 54.6229 0.643589 55.2993 1.32002C55.9758 1.99646 56.357 2.91315 56.3596 3.86977V47.6098C56.3609 48.0863 56.2692 48.5584 56.0896 48.9998C55.9047 49.4349 55.6401 49.8317 55.3096 50.1698C54.6312 50.8434 53.7156 51.224 52.7596 51.2298H48.7596" stroke="#283446" stroke-linecap="round" stroke-linejoin="round"/>
<path d="M1.76953 7.40967H56.3595" stroke="#283446" stroke-linecap="round" stroke-linejoin="round"/>
<path d="M6.49863 5.34967C6.78625 5.35165 7.06797 5.26804 7.30795 5.10948C7.54792 4.95091 7.73532 4.72456 7.84631 4.4592C7.95729 4.19384 7.98685 3.90147 7.93122 3.61927C7.87559 3.33707 7.73729 3.07779 7.5339 2.8744C7.33051 2.67102 7.07123 2.53271 6.78903 2.47708C6.50683 2.42146 6.21446 2.45101 5.9491 2.562C5.68375 2.67298 5.45739 2.86038 5.29883 3.10036C5.14026 3.34033 5.05665 3.62205 5.05863 3.90967C5.05863 4.29159 5.21034 4.65786 5.48039 4.92791C5.75045 5.19796 6.11672 5.34967 6.49863 5.34967V5.34967Z" stroke="#05D89C" stroke-linecap="round" stroke-linejoin="round"/>
<path d="M11.2701 5.34967C11.5577 5.35165 11.8395 5.26804 12.0794 5.10948C12.3194 4.95091 12.5068 4.72456 12.6178 4.4592C12.7288 4.19384 12.7583 3.90147 12.7027 3.61927C12.6471 3.33707 12.5088 3.07779 12.3054 2.8744C12.102 2.67102 11.8427 2.53271 11.5605 2.47708C11.2783 2.42146 10.9859 2.45101 10.7206 2.562C10.4552 2.67298 10.2289 2.86038 10.0703 3.10036C9.91175 3.34033 9.82814 3.62205 9.83011 3.90967C9.83011 4.29159 9.98183 4.65786 10.2519 4.92791C10.5219 5.19796 10.8882 5.34967 11.2701 5.34967V5.34967Z" stroke="#05D89C" stroke-linecap="round" stroke-linejoin="round"/>
<path d="M16.0787 5.34967C16.3663 5.35165 16.648 5.26804 16.888 5.10948C17.128 4.95091 17.3154 4.72456 17.4264 4.4592C17.5374 4.19384 17.5669 3.90147 17.5113 3.61927C17.4557 3.33707 17.3174 3.07779 17.114 2.8744C16.9106 2.67102 16.6513 2.53271 16.3691 2.47708C16.0869 2.42146 15.7945 2.45101 15.5292 2.562C15.2638 2.67298 15.0375 2.86038 14.8789 3.10036C14.7203 3.34033 14.6367 3.62205 14.6387 3.90967C14.6387 4.29159 14.7904 4.65786 15.0605 4.92791C15.3305 5.19796 15.6968 5.34967 16.0787 5.34967V5.34967Z" stroke="#05D89C" stroke-linecap="round" stroke-linejoin="round"/>
<path d="M43.5 3.90967H52.15" stroke="#283446" stroke-linecap="round" stroke-linejoin="round"/>
<path d="M31.9492 3.90967H37.2392" stroke="#283446" stroke-linecap="round" stroke-linejoin="round"/>
<path d="M1.76953 8.76953V27.5095" stroke="#283446" stroke-linecap="round" stroke-linejoin="round"/>
<path d="M9.03016 47.1H7.87016C7.58041 47.1013 7.29325 47.0453 7.02518 46.9354C6.75711 46.8254 6.5134 46.6636 6.30805 46.4591C6.1027 46.2547 5.93976 46.0117 5.82857 45.7442C5.71739 45.4766 5.66015 45.1897 5.66016 44.9V32.42C5.66016 31.8338 5.893 31.2717 6.30745 30.8573C6.72191 30.4428 7.28403 30.21 7.87016 30.21H15.6302C16.2163 30.21 16.7784 30.4428 17.1929 30.8573C17.6073 31.2717 17.8402 31.8338 17.8402 32.42V33" stroke="#05D89C" stroke-linecap="round" stroke-linejoin="round"/>
<path d="M22.9705 33.5496V24.7396C22.9263 24.0827 23.1431 23.4349 23.5737 22.9369C24.0044 22.4388 24.6141 22.1308 25.2705 22.0796H32.8605C33.5151 22.1333 34.1222 22.4424 34.5508 22.9401C34.9793 23.4379 35.1947 24.0843 35.1505 24.7396V33.2096" stroke="#05D89C" stroke-linecap="round" stroke-linejoin="round"/>
<path d="M23.0987 45.5496C23.0144 45.3119 22.9705 45.0618 22.9688 44.8096V41.8096" stroke="#05D89C" stroke-linecap="round" stroke-linejoin="round"/>
<path d="M35.1493 42.3296V44.8096C35.1501 45.0644 35.1095 45.3177 35.0293 45.5596" stroke="#05D89C" stroke-linecap="round" stroke-linejoin="round"/>
<path d="M40.6391 46.1396C40.4172 45.8002 40.2959 45.405 40.2891 44.9996V41.3096" stroke="#05D89C" stroke-linecap="round" stroke-linejoin="round"/>
<path d="M40.2891 33.0997V14.2097C40.2891 13.6421 40.5145 13.0978 40.9159 12.6965C41.3172 12.2952 41.8615 12.0697 42.4291 12.0697H50.3191C50.6034 12.0644 50.886 12.1158 51.1503 12.221C51.4146 12.3261 51.6552 12.4829 51.8582 12.6822C52.0612 12.8814 52.2224 13.1191 52.3324 13.3814C52.4425 13.6437 52.4991 13.9253 52.4991 14.2097V44.9997C52.5004 45.2811 52.4459 45.56 52.3389 45.8202C52.2318 46.0804 52.0742 46.3169 51.8752 46.5159C51.6762 46.7149 51.4398 46.8724 51.1796 46.9795C50.9193 47.0866 50.6405 47.141 50.3591 47.1397H48.8591" stroke="#05D89C" stroke-linecap="round" stroke-linejoin="round"/>
<path d="M38.3787 35.0596C36.2102 35.0666 34.0969 35.7442 32.3287 36.9996C31.0866 37.8715 29.9841 38.9268 29.0587 40.1296C28.8187 39.8296 28.5687 39.5296 28.3187 39.2496C27.2734 37.9759 25.966 36.9423 24.4854 36.2193C23.0048 35.4963 21.3859 35.1007 19.7387 35.0596C17.3252 35.0596 15.0106 36.0183 13.304 37.7249C11.5974 39.4315 10.6387 41.7461 10.6387 44.1596C10.6387 46.573 11.5974 48.8877 13.304 50.5942C15.0106 52.3008 17.3252 53.2596 19.7387 53.2596C21.8906 53.2455 23.9859 52.568 25.7387 51.3196C26.988 50.453 28.0946 49.397 29.0187 48.1896C29.2487 48.4996 29.4987 48.7896 29.7487 49.0696C30.7948 50.3423 32.1024 51.3751 33.5828 52.098C35.0632 52.821 36.6817 53.2171 38.3287 53.2596C40.7421 53.2596 43.0568 52.3008 44.7633 50.5942C46.4699 48.8877 47.4287 46.573 47.4287 44.1596C47.4287 41.7461 46.4699 39.4315 44.7633 37.7249C43.0568 36.0183 40.7421 35.0596 38.3287 35.0596H38.3787ZM42.8987 44.1596C42.9214 44.7746 42.8223 45.388 42.6071 45.9646C42.392 46.5412 42.065 47.0695 41.6449 47.5193C41.2249 47.9691 40.7201 48.3314 40.1596 48.5854C39.599 48.8395 38.9938 48.9802 38.3787 48.9996C37.1687 48.9996 34.1087 48.5196 31.5087 44.2096C34.0787 39.8996 37.1587 39.4296 38.3787 39.4296C39.6024 39.4662 40.7625 39.9829 41.6083 40.868C42.4541 41.7531 42.9176 42.9355 42.8987 44.1596V44.1596ZM26.6087 44.1596C24.0087 48.4696 20.9587 48.9996 19.7387 48.9996C18.5075 48.9433 17.3453 48.4145 16.4939 47.5233C15.6426 46.6322 15.1675 45.4471 15.1675 44.2146C15.1675 42.9821 15.6426 41.797 16.4939 40.9058C17.3453 40.0146 18.5075 39.4859 19.7387 39.4296C20.9587 39.3796 24.0087 39.8496 26.6087 44.1596V44.1596Z" stroke="#283446" stroke-linecap="round" stroke-linejoin="round"/>
</g>
<defs>
<clipPath id="clip0">
<rect width="57" height="54" fill="white" transform="translate(0.5)"/>
</clipPath>
</defs>
</svg>
