<svg width="58" height="54" viewBox="0 0 58 54" fill="none" xmlns="http://www.w3.org/2000/svg">
<g clip-path="url(#clip0)">
<path d="M0.619141 40.4897V21.4897" stroke="#283446" stroke-linecap="round" stroke-linejoin="round"/>
<path d="M0.619167 11.9998V4.28979C0.617311 3.79608 0.712444 3.30682 0.899166 2.84978C1.08818 2.39481 1.36321 1.98057 1.70917 1.62978C2.06073 1.28479 2.47477 1.0099 2.92917 0.819784C3.38178 0.628899 3.86795 0.530306 4.35917 0.529785H53.6292C54.6229 0.532425 55.5752 0.92836 56.2779 1.63105C56.9806 2.33374 57.3765 3.28603 57.3792 4.27979V49.7698C57.3806 50.2615 57.2851 50.7486 57.098 51.2033C56.911 51.658 56.6361 52.0714 56.2892 52.4198C55.9406 52.7709 55.5259 53.0496 55.0692 53.2398C54.6166 53.4307 54.1304 53.5293 53.6392 53.5298H4.36917C3.37542 53.5271 2.42312 53.1312 1.72043 52.4285C1.01774 51.7258 0.621807 50.7735 0.619167 49.7798V47.4398" stroke="#283446" stroke-linecap="round" stroke-linejoin="round"/>
<path d="M0.619141 8H57.3791" stroke="#283446" stroke-linecap="round" stroke-linejoin="round"/>
<path d="M5.51953 6C5.8162 6 6.10621 5.91203 6.35289 5.7472C6.59956 5.58238 6.79182 5.34811 6.90535 5.07402C7.01888 4.79994 7.04859 4.49834 6.99071 4.20737C6.93283 3.91639 6.78997 3.64912 6.58019 3.43934C6.37041 3.22956 6.10314 3.0867 5.81217 3.02882C5.52119 2.97094 5.21959 3.00065 4.94551 3.11418C4.67142 3.22771 4.43715 3.41997 4.27233 3.66665C4.1075 3.91332 4.01953 4.20333 4.01953 4.5C4.01953 4.89783 4.17757 5.27936 4.45887 5.56066C4.74017 5.84196 5.12171 6 5.51953 6Z" stroke="#05D89C" stroke-linecap="round" stroke-linejoin="round"/>
<path d="M10.5195 6C10.8162 6 11.1062 5.91203 11.3529 5.7472C11.5996 5.58238 11.7918 5.34811 11.9053 5.07402C12.0189 4.79994 12.0486 4.49834 11.9907 4.20737C11.9328 3.91639 11.79 3.64912 11.5802 3.43934C11.3704 3.22956 11.1031 3.0867 10.8122 3.02882C10.5212 2.97094 10.2196 3.00065 9.94551 3.11418C9.67142 3.22771 9.43715 3.41997 9.27233 3.66665C9.1075 3.91332 9.01953 4.20333 9.01953 4.5C9.01953 4.89783 9.17757 5.27936 9.45887 5.56066C9.74017 5.84196 10.1217 6 10.5195 6Z" stroke="#05D89C" stroke-linecap="round" stroke-linejoin="round"/>
<path d="M15.5195 6C15.8162 6 16.1062 5.91203 16.3529 5.7472C16.5996 5.58238 16.7918 5.34811 16.9053 5.07402C17.0189 4.79994 17.0486 4.49834 16.9907 4.20737C16.9328 3.91639 16.79 3.64912 16.5802 3.43934C16.3704 3.22956 16.1031 3.0867 15.8122 3.02882C15.5212 2.97094 15.2196 3.00065 14.9455 3.11418C14.6714 3.22771 14.4371 3.41997 14.2723 3.66665C14.1075 3.91332 14.0195 4.20333 14.0195 4.5C14.0195 4.89783 14.1776 5.27936 14.4589 5.56066C14.7402 5.84196 15.1217 6 15.5195 6V6Z" stroke="#05D89C" stroke-linecap="round" stroke-linejoin="round"/>
<path d="M44 4.46973H53" stroke="#283446" stroke-linecap="round" stroke-linejoin="round"/>
<path d="M32 4.46973H37.5" stroke="#283446" stroke-linecap="round" stroke-linejoin="round"/>
<path d="M0.619141 9.37988V28.8599" stroke="#283446" stroke-linecap="round" stroke-linejoin="round"/>
<path d="M13.3688 13.23H7.11883C6.91313 13.2287 6.7092 13.2681 6.51877 13.3459C6.32835 13.4237 6.15519 13.5384 6.00927 13.6834C5.86335 13.8284 5.74755 14.0008 5.66853 14.1907C5.5895 14.3806 5.54882 14.5843 5.54883 14.79V27.3C5.5803 27.6935 5.75883 28.0606 6.04885 28.3284C6.33888 28.5961 6.71911 28.7448 7.11383 28.7448C7.50855 28.7448 7.88878 28.5961 8.1788 28.3284C8.46882 28.0606 8.64735 27.6935 8.67883 27.3V22.61H10.2388C10.4549 22.6273 10.6721 22.5997 10.877 22.5289C11.0818 22.458 11.2698 22.3456 11.429 22.1986C11.5882 22.0516 11.7153 21.8732 11.8022 21.6747C11.8892 21.4761 11.934 21.2617 11.934 21.045C11.934 20.8283 11.8892 20.6139 11.8022 20.4154C11.7153 20.2168 11.5882 20.0385 11.429 19.8914C11.2698 19.7444 11.0818 19.632 10.877 19.5612C10.6721 19.4904 10.4549 19.4627 10.2388 19.48H8.67883V16.35H13.3688C13.7826 16.35 14.1794 16.1857 14.4719 15.8931C14.7645 15.6005 14.9288 15.2038 14.9288 14.79C14.9288 14.3763 14.7645 13.9795 14.4719 13.6869C14.1794 13.3944 13.7826 13.23 13.3688 13.23V13.23Z" stroke="#05D89C" stroke-linecap="round" stroke-linejoin="round"/>
<path d="M23.3486 22.57C24.5283 22.4149 25.6051 21.8173 26.3606 20.898C27.1162 19.9788 27.4941 18.8067 27.4178 17.6193C27.3415 16.4319 26.8168 15.3178 25.9498 14.5028C25.0828 13.6878 23.9385 13.2328 22.7486 13.23H19.6186C19.4137 13.23 19.2109 13.2703 19.0216 13.3487C18.8323 13.4271 18.6604 13.542 18.5155 13.6869C18.3706 13.8318 18.2557 14.0037 18.1773 14.193C18.0989 14.3823 18.0586 14.5851 18.0586 14.79V27.3C18.0586 27.7137 18.223 28.1105 18.5155 28.4031C18.8081 28.6956 19.2049 28.86 19.6186 28.86C20.0323 28.86 20.4291 28.6956 20.7217 28.4031C21.0142 28.1105 21.1786 27.7137 21.1786 27.3V24.82L24.7686 28.4C24.9115 28.5468 25.0826 28.6633 25.2716 28.7423C25.4606 28.8214 25.6637 28.8614 25.8686 28.86C26.1787 28.8619 26.4825 28.772 26.7415 28.6015C27.0006 28.431 27.2034 28.1875 27.3242 27.9019C27.4451 27.6163 27.4787 27.3013 27.4207 26.9966C27.3628 26.6919 27.2159 26.4113 26.9986 26.19L23.3486 22.57ZM21.1786 19.48V16.35H22.7486C23.1421 16.3815 23.5092 16.56 23.777 16.85C24.0447 17.14 24.1934 17.5203 24.1934 17.915C24.1934 18.3097 24.0447 18.6899 23.777 18.98C23.5092 19.27 23.1421 19.4485 22.7486 19.48H21.1786Z" stroke="#05D89C" stroke-linecap="round" stroke-linejoin="round"/>
<path d="M38.3786 25.73H33.6886V22.61H35.2486C35.4646 22.6273 35.6819 22.5997 35.8867 22.5289C36.0916 22.458 36.2795 22.3456 36.4388 22.1986C36.598 22.0516 36.7251 21.8732 36.812 21.6747C36.8989 21.4761 36.9438 21.2617 36.9438 21.045C36.9438 20.8283 36.8989 20.6139 36.812 20.4154C36.7251 20.2168 36.598 20.0385 36.4388 19.8914C36.2795 19.7444 36.0916 19.632 35.8867 19.5612C35.6819 19.4904 35.4646 19.4627 35.2486 19.48H33.6886V16.35H38.3786C38.7923 16.35 39.1891 16.1857 39.4817 15.8931C39.7742 15.6005 39.9386 15.2038 39.9386 14.79C39.9386 14.3763 39.7742 13.9795 39.4817 13.6869C39.1891 13.3944 38.7923 13.23 38.3786 13.23H32.1286C31.9229 13.2287 31.719 13.2681 31.5285 13.3459C31.3381 13.4237 31.165 13.5384 31.019 13.6834C30.8731 13.8284 30.7573 14.0008 30.6783 14.1907C30.5993 14.3806 30.5586 14.5843 30.5586 14.79V27.3C30.5586 27.5057 30.5993 27.7094 30.6783 27.8993C30.7573 28.0892 30.8731 28.2617 31.019 28.4067C31.165 28.5516 31.3381 28.6663 31.5285 28.7441C31.719 28.822 31.9229 28.8613 32.1286 28.86H38.3786C38.7721 28.8285 39.1392 28.65 39.407 28.36C39.6747 28.07 39.8234 27.6897 39.8234 27.295C39.8234 26.9003 39.6747 26.5201 39.407 26.23C39.1392 25.94 38.7721 25.7615 38.3786 25.73V25.73Z" stroke="#05D89C" stroke-linecap="round" stroke-linejoin="round"/>
<path d="M50.8784 25.73H46.1884V22.61H47.7584C48.1518 22.5785 48.519 22.4 48.7867 22.11C49.0545 21.8199 49.2032 21.4397 49.2032 21.045C49.2032 20.6503 49.0545 20.27 48.7867 19.98C48.519 19.69 48.1518 19.5115 47.7584 19.48H46.1884V16.35H50.8784C51.2921 16.35 51.6889 16.1856 51.9814 15.8931C52.274 15.6005 52.4384 15.2037 52.4384 14.79C52.4384 14.3762 52.274 13.9795 51.9814 13.6869C51.6889 13.3943 51.2921 13.23 50.8784 13.23H44.6284C44.4235 13.23 44.2206 13.2703 44.0314 13.3487C43.8421 13.4271 43.6701 13.542 43.5253 13.6869C43.3804 13.8318 43.2655 14.0037 43.1871 14.193C43.1087 14.3823 43.0684 14.5851 43.0684 14.79V27.3C43.0684 27.7137 43.2327 28.1105 43.5253 28.4031C43.8178 28.6956 44.2146 28.86 44.6284 28.86H50.8784C51.0944 28.8773 51.3117 28.8496 51.5165 28.7788C51.7213 28.708 51.9093 28.5956 52.0685 28.4486C52.2278 28.3015 52.3549 28.1232 52.4418 27.9246C52.5287 27.7261 52.5736 27.5117 52.5736 27.295C52.5736 27.0783 52.5287 26.8639 52.4418 26.6653C52.3549 26.4668 52.2278 26.2884 52.0685 26.1414C51.9093 25.9944 51.7213 25.8819 51.5165 25.8111C51.3117 25.7403 51.0944 25.7127 50.8784 25.73V25.73Z" stroke="#05D89C" stroke-linecap="round" stroke-linejoin="round"/>
<path d="M28.999 33.6196C23.6604 33.6222 18.5321 35.7011 14.6988 39.4169C10.8655 43.1326 8.62776 48.1937 8.45898 53.5296H13.629C13.7726 49.5492 15.4548 45.7797 18.3215 43.0145C21.1883 40.2494 25.016 38.7042 28.999 38.7042C32.982 38.7042 36.8097 40.2494 39.6764 43.0145C42.5432 45.7797 44.2254 49.5492 44.369 53.5296H49.539C49.3702 48.1937 47.1325 43.1326 43.2992 39.4169C39.4659 35.7011 34.3376 33.6222 28.999 33.6196V33.6196Z" stroke="#283446" stroke-linecap="round" stroke-linejoin="round"/>
<path d="M28.9984 48.1797C28.2955 48.1784 27.5992 48.3159 26.9495 48.5843C26.2998 48.8527 25.7095 49.2467 25.2125 49.7437C24.7154 50.2408 24.3214 50.8311 24.053 51.4808C23.7846 52.1305 23.6471 52.8268 23.6484 53.5297H34.3484C34.3498 52.8268 34.2123 52.1305 33.9439 51.4808C33.6755 50.8311 33.2815 50.2408 32.7844 49.7437C32.2874 49.2467 31.697 48.8527 31.0474 48.5843C30.3977 48.3159 29.7014 48.1784 28.9984 48.1797Z" stroke="#05D89C" stroke-linecap="round" stroke-linejoin="round"/>
<path d="M31.6484 48.8796L38.0984 38.1396" stroke="#05D89C" stroke-linecap="round" stroke-linejoin="round"/>
<path d="M8.45898 53.5298H49.539" stroke="#283446" stroke-linecap="round" stroke-linejoin="round"/>
<path d="M15.5 38.6797L18.59 42.8497" stroke="#283446" stroke-linecap="round" stroke-linejoin="round"/>
<path d="M39.4082 42.8497L42.4982 38.6797" stroke="#283446" stroke-linecap="round" stroke-linejoin="round"/>
</g>
<defs>
<clipPath id="clip0">
<rect width="58" height="54" fill="white"/>
</clipPath>
</defs>
</svg>
