<svg width="56" height="54" viewBox="0 0 56 54" fill="none" xmlns="http://www.w3.org/2000/svg">
<path d="M38.5605 5.33984H43.2405C44.1352 5.33984 44.9935 5.69457 45.627 6.32628C46.2606 6.958 46.6179 7.81514 46.6205 8.70984V24.9298" stroke="#283446" stroke-linecap="round" stroke-linejoin="round"/>
<path d="M13.4102 5.33984H33.9602" stroke="#283446" stroke-linecap="round" stroke-linejoin="round"/>
<path d="M25.5304 46.4098H4.0004C3.55699 46.4059 3.11871 46.3145 2.71068 46.1409C2.30266 45.9673 1.93291 45.7149 1.62262 45.3981C1.31234 45.0813 1.06763 44.7064 0.90251 44.2949C0.737392 43.8833 0.655115 43.4432 0.660395 42.9998V8.70984C0.66036 7.82124 1.01129 6.96858 1.63681 6.33744C2.26234 5.7063 3.11182 5.34775 4.0004 5.33984H8.5904" stroke="#283446" stroke-linecap="round" stroke-linejoin="round"/>
<path d="M13.3109 2.8C13.3109 1.52974 12.2812 0.5 11.0109 0.5C9.74068 0.5 8.71094 1.52974 8.71094 2.8V7.87C8.71094 9.14026 9.74068 10.17 11.0109 10.17C12.2812 10.17 13.3109 9.14026 13.3109 7.87V2.8Z" stroke="#05D89C" stroke-linecap="round" stroke-linejoin="round"/>
<path d="M38.5609 2.8C38.5609 1.52974 37.5312 0.5 36.2609 0.5C34.9907 0.5 33.9609 1.52974 33.9609 2.8V7.87C33.9609 9.14026 34.9907 10.17 36.2609 10.17C37.5312 10.17 38.5609 9.14026 38.5609 7.87V2.8Z" stroke="#05D89C" stroke-linecap="round" stroke-linejoin="round"/>
<path d="M10.7496 17.5698H5.09961V23.2198H10.7496V17.5698Z" stroke="#283446" stroke-linecap="round" stroke-linejoin="round"/>
<path d="M21.2203 17.5698H15.5703V23.2198H21.2203V17.5698Z" stroke="#283446" stroke-linecap="round" stroke-linejoin="round"/>
<path d="M31.7008 17.5698H26.0508V23.2198H31.7008V17.5698Z" stroke="#283446" stroke-linecap="round" stroke-linejoin="round"/>
<path d="M42.1813 17.5698H36.5312V23.2198H42.1813V17.5698Z" stroke="#283446" stroke-linecap="round" stroke-linejoin="round"/>
<path d="M10.7496 27.2402H5.09961V32.8902H10.7496V27.2402Z" stroke="#283446" stroke-linecap="round" stroke-linejoin="round"/>
<path d="M21.2203 27.2402H15.5703V32.8902H21.2203V27.2402Z" stroke="#283446" stroke-linecap="round" stroke-linejoin="round"/>
<path d="M27.6808 32.8902H26.0508V27.2402H31.7008V28.3402" stroke="#283446" stroke-linecap="round" stroke-linejoin="round"/>
<path d="M10.7496 36.9102H5.09961V42.5602H10.7496V36.9102Z" stroke="#283446" stroke-linecap="round" stroke-linejoin="round"/>
<path d="M21.2203 36.9102H15.5703V42.5602H21.2203V36.9102Z" stroke="#283446" stroke-linecap="round" stroke-linejoin="round"/>
<path d="M26.5808 42.5602H26.0508V36.9102H26.7708" stroke="#283446" stroke-linecap="round" stroke-linejoin="round"/>
<path d="M11.0098 13.7202H46.6198" stroke="#283446" stroke-linecap="round" stroke-linejoin="round"/>
<path d="M0.660156 13.7202H5.49016" stroke="#283446" stroke-linecap="round" stroke-linejoin="round"/>
<path d="M28.4704 43.3701C27.6837 40.0207 28.2225 36.4968 29.9742 33.5355C31.726 30.5742 34.5549 28.4049 37.8692 27.4814C41.1836 26.5579 44.7266 26.9516 47.7573 28.5803C50.788 30.209 53.0716 32.9465 54.1304 36.2201" stroke="#283446" stroke-linecap="round" stroke-linejoin="round"/>
<path d="M54.7109 39.54C54.7109 39.75 54.7109 39.97 54.7109 40.18C54.7147 43.1389 53.7331 46.0148 51.9212 48.354C50.1092 50.6931 47.5699 52.3624 44.704 53.0983C41.8381 53.8343 38.8088 53.5951 36.0939 52.4184C33.3791 51.2417 31.1333 49.1946 29.7109 46.6" stroke="#283446" stroke-linecap="round" stroke-linejoin="round"/>
<path d="M44.7499 38.7798C45.0528 39.4985 45.1162 40.2957 44.9307 41.0533C44.7452 41.8108 44.3206 42.4885 43.7199 42.9859C43.1191 43.4833 42.3741 43.7739 41.5953 43.8148C40.8164 43.8557 40.0451 43.6447 39.3955 43.213C38.746 42.7812 38.2527 42.1518 37.9889 41.4178C37.7251 40.6838 37.7046 39.8844 37.9306 39.138C38.1567 38.3915 38.6171 37.7376 39.2437 37.2733C39.8704 36.8089 40.6299 36.5588 41.4099 36.5598C42.057 36.5581 42.6926 36.7308 43.2499 37.0598M49.8599 38.6398L47.8599 38.1498C47.7308 37.7512 47.5634 37.3661 47.3599 36.9998L48.3599 35.4298C48.4188 35.3292 48.4429 35.212 48.4284 35.0963C48.414 34.9806 48.3617 34.8729 48.2799 34.7898L46.8099 33.3298C46.7294 33.2472 46.6233 33.1944 46.5088 33.1798C46.3944 33.1653 46.2784 33.19 46.1799 33.2498L44.5999 34.1998C44.249 34.0085 43.8806 33.8512 43.4999 33.7298L42.9999 31.7298C42.9712 31.6188 42.9066 31.5203 42.8162 31.4498C42.7258 31.3793 42.6145 31.3406 42.4999 31.3398H40.3699C40.2552 31.3406 40.144 31.3793 40.0535 31.4498C39.9631 31.5203 39.8985 31.6188 39.8699 31.7298L39.3699 33.7298C38.965 33.8593 38.5732 34.0267 38.1999 34.2298L36.5599 33.2298C36.4608 33.1717 36.3452 33.148 36.2312 33.1625C36.1173 33.177 36.0113 33.2288 35.9299 33.3098L34.4599 34.7698C34.3796 34.854 34.3292 34.9623 34.3165 35.078C34.3039 35.1937 34.3297 35.3103 34.3899 35.4098L35.3899 37.0998C35.2238 37.4203 35.0866 37.755 34.9799 38.0998L32.9799 38.5998C32.868 38.6305 32.7693 38.6969 32.6989 38.7891C32.6284 38.8812 32.5901 38.9939 32.5899 39.1098V41.1798C32.5889 41.295 32.6269 41.407 32.6977 41.4978C32.7685 41.5886 32.868 41.6528 32.9799 41.6798L34.9799 42.1798C35.1001 42.5722 35.261 42.9509 35.4599 43.3098L34.5499 44.8198C34.49 44.9184 34.4653 45.0344 34.4798 45.1488C34.4944 45.2632 34.5473 45.3694 34.6299 45.4498L36.0999 46.9998C36.1829 47.0817 36.2906 47.1339 36.4063 47.1484C36.522 47.1629 36.6392 47.1388 36.7399 47.0798L38.2499 46.1698C38.6076 46.3613 38.9826 46.5186 39.3699 46.6398L39.8699 48.6398C39.8985 48.7509 39.9631 48.8493 40.0535 48.9199C40.144 48.9904 40.2552 49.0291 40.3699 49.0298H42.4499C42.5645 49.0291 42.6758 48.9904 42.7662 48.9199C42.8566 48.8493 42.9212 48.7509 42.9499 48.6398L43.4499 46.6398C43.8471 46.5153 44.232 46.3547 44.5999 46.1598L46.1299 47.0798C46.2284 47.1397 46.3444 47.1644 46.4588 47.1499C46.5733 47.1353 46.6794 47.0825 46.7599 46.9998L48.2299 45.5298C48.3125 45.4494 48.3654 45.3432 48.3799 45.2288C48.3944 45.1144 48.3697 44.9984 48.3099 44.8998L47.3699 43.3498C47.5579 43.0022 47.712 42.6371 47.8299 42.2598L49.8299 41.7598C49.9418 41.7328 50.0412 41.6686 50.112 41.5778C50.1828 41.487 50.2208 41.375 50.2199 41.2598V39.1498C50.2216 39.0377 50.1876 38.9279 50.1229 38.8362C50.0582 38.7446 49.9661 38.6758 49.8599 38.6398V38.6398Z" stroke="#05D89C" stroke-linecap="round" stroke-linejoin="round"/>
<path d="M51.2402 35.1802L54.1602 36.3602" stroke="#283446" stroke-linecap="round" stroke-linejoin="round"/>
<path d="M55.3401 33.4399L54.1602 36.3599" stroke="#283446" stroke-linecap="round" stroke-linejoin="round"/>
<path d="M32.7413 46.7902L29.6113 46.4102" stroke="#283446" stroke-linecap="round" stroke-linejoin="round"/>
<path d="M29.2305 49.5402L29.6105 46.4102" stroke="#283446" stroke-linecap="round" stroke-linejoin="round"/>
</svg>
