<svg width="52" height="54" viewBox="0 0 52 54" fill="none" xmlns="http://www.w3.org/2000/svg">
<g clip-path="url(#clip0)">
<path d="M48.9285 19.5806C51.1295 25.0808 51.2855 31.1878 49.3681 36.7932C47.4507 42.3986 43.5871 47.1307 38.4785 50.1306" stroke="#283446" stroke-linecap="round" stroke-linejoin="round"/>
<path d="M7.61914 12.2904C8.59833 11.1939 9.67619 10.1896 10.8391 9.29037C14.8171 6.19023 19.6524 4.38877 24.6891 4.13037" stroke="#283446" stroke-linecap="round" stroke-linejoin="round"/>
<path d="M3.41908 38.8505C2.01062 35.6839 1.28487 32.2562 1.28908 28.7905C1.28908 28.1905 1.28908 27.6005 1.35908 27.0105C1.62043 23.2314 2.75703 19.5648 4.67908 16.3005C4.96125 15.8259 5.36249 15.4332 5.84308 15.1614C6.32367 14.8895 6.86693 14.7479 7.41908 14.7505H7.61908C9.2034 14.835 10.6933 15.5305 11.7754 16.6907C12.8576 17.8509 13.4478 19.3855 13.4219 20.9719C13.396 22.5583 12.756 24.0728 11.6365 25.1971C10.5171 26.3214 9.00531 26.9678 7.41908 27.0005H5.77908C6.28251 31.8009 8.18192 36.3484 11.2424 40.0808C14.3029 43.8131 18.3903 46.5665 22.9991 48.0005V47.5605C22.991 45.8929 23.6424 44.2898 24.8112 43.1003C25.98 41.9109 27.5716 41.2316 29.2391 41.2105C30.844 41.2446 32.3714 41.9068 33.4934 43.0549C34.6153 44.2029 35.2421 45.7453 35.2391 47.3505V49.4205C35.2376 50.1146 35.0106 50.7894 34.5921 51.3432C34.1736 51.897 33.5864 52.2996 32.9191 52.4905C30.6782 53.1499 28.3549 53.4866 26.0191 53.4905C25.0166 53.4848 24.0151 53.4247 23.0191 53.3105C16.8978 52.5549 11.2819 49.5329 7.27908 44.8405" stroke="#05D89C" stroke-linecap="round" stroke-linejoin="round"/>
<path d="M42.3183 17C43.8899 19.1706 45.0129 21.6329 45.6213 24.2427C46.2297 26.8526 46.3114 29.5576 45.8617 32.1994C45.4119 34.8412 44.4397 37.3668 43.0019 39.6283C41.5641 41.8898 39.6897 43.8418 37.4883 45.37" stroke="#283446" stroke-linecap="round" stroke-linejoin="round"/>
<path d="M12.1484 14.1504C15.885 10.6002 20.8442 8.62371 25.9984 8.63039" stroke="#283446" stroke-linecap="round" stroke-linejoin="round"/>
<path d="M38.1181 11.0502C37.9293 11.2698 37.8263 11.5505 37.8281 11.8402C37.8281 12.1717 37.9598 12.4896 38.1943 12.724C38.4287 12.9585 38.7466 13.0902 39.0781 13.0902H46.1381V15.5202C46.1381 15.8517 46.2698 16.1696 46.5043 16.404C46.7387 16.6385 47.0566 16.7702 47.3881 16.7702C47.7197 16.7702 48.0376 16.6385 48.272 16.404C48.5064 16.1696 48.6381 15.8517 48.6381 15.5202V13.0902H49.4581C49.7897 13.0902 50.1076 12.9585 50.342 12.724C50.5764 12.4896 50.7081 12.1717 50.7081 11.8402C50.7081 11.5086 50.5764 11.1907 50.342 10.9563C50.1076 10.7219 49.7897 10.5902 49.4581 10.5902H48.6381V1.75016C48.6414 1.55964 48.6017 1.37084 48.5221 1.19773C48.4425 1.02462 48.3249 0.871655 48.1781 0.750156C48.0508 0.646287 47.9043 0.568541 47.7469 0.521368C47.5895 0.474194 47.4243 0.458518 47.2608 0.475237C47.0974 0.491955 46.9388 0.540739 46.7942 0.618799C46.6496 0.696859 46.5218 0.802663 46.4181 0.930156L38.1181 11.0202V11.0502ZM46.1182 5.24016V10.5902H41.7281L46.1182 5.24016Z" stroke="#05D89C" stroke-linecap="round" stroke-linejoin="round"/>
<path d="M37.6485 15.5103C37.6485 15.1788 37.5168 14.8609 37.2824 14.6265C37.048 14.392 36.73 14.2603 36.3985 14.2603H30.1485C31.101 13.2587 32.1419 12.3451 33.2585 11.5304C34.9985 10.1804 36.4885 9.00035 36.9185 7.44035C37.2671 6.43596 37.3006 5.34909 37.0147 4.32511C36.7288 3.30113 36.137 2.38887 35.3185 1.71035C34.4207 1.03887 33.3528 0.632366 32.2357 0.536922C31.1187 0.441478 29.9972 0.660914 28.9985 1.17035C28.1605 1.62135 27.481 2.31863 27.0518 3.16806C26.6226 4.01749 26.4644 4.97815 26.5985 5.92035C26.629 6.25055 26.7894 6.5551 27.0445 6.76701C27.2995 6.97893 27.6283 7.08085 27.9585 7.05035C28.2887 7.01985 28.5933 6.85943 28.8052 6.60438C29.0171 6.34933 29.119 6.02055 29.0885 5.69035C29.003 5.23448 29.0643 4.76321 29.2638 4.34447C29.4633 3.92572 29.7906 3.58113 30.1985 3.36035C30.7697 3.0786 31.4072 2.95854 32.0418 3.01319C32.6763 3.06783 33.2839 3.2951 33.7985 3.67035C34.2289 4.04819 34.5305 4.55095 34.6614 5.10848C34.7923 5.66601 34.7458 6.25049 34.5285 6.78035C34.3185 7.55035 33.0085 8.57035 31.7485 9.56035C29.8785 11.0003 27.7885 12.6304 26.6485 15.0003C26.5769 15.1481 26.5352 15.3085 26.5256 15.4724C26.516 15.6362 26.5388 15.8004 26.5926 15.9555C26.6465 16.1106 26.7304 16.2535 26.8395 16.3762C26.9486 16.4988 27.0808 16.5988 27.2285 16.6703C27.4009 16.75 27.5886 16.791 27.7785 16.7904H36.3985C36.5652 16.7904 36.7303 16.7571 36.8839 16.6924C37.0376 16.6277 37.1767 16.533 37.2932 16.4137C37.4097 16.2944 37.5011 16.1531 37.5621 15.9979C37.6231 15.8428 37.6525 15.677 37.6485 15.5103V15.5103Z" stroke="#05D89C" stroke-linecap="round" stroke-linejoin="round"/>
<path d="M28.2795 24.6502C27.3926 24.2698 26.4067 24.1852 25.4679 24.4091C24.5292 24.633 23.6875 25.1534 23.0678 25.8932C22.448 26.6329 22.0831 27.5527 22.0271 28.5162C21.9711 29.4796 22.2271 30.4355 22.757 31.2421C23.2869 32.0486 24.0626 32.663 24.9691 32.9941C25.8756 33.3252 26.8647 33.3554 27.7897 33.0803C28.7147 32.8051 29.5265 32.2392 30.1046 31.4665C30.6828 30.6937 30.9966 29.7553 30.9995 28.7902C30.9976 28.4231 30.954 28.0575 30.8695 27.7002" stroke="#283446" stroke-linecap="round" stroke-linejoin="round"/>
<path d="M24.0492 24.8998L21.4492 17.3398" stroke="#283446" stroke-linecap="round" stroke-linejoin="round"/>
<path d="M42.7595 28.79H31.0195" stroke="#283446" stroke-linecap="round" stroke-linejoin="round"/>
</g>
<defs>
<clipPath id="clip0">
<rect width="52" height="54" fill="white"/>
</clipPath>
</defs>
</svg>
