<svg width="46" height="56" viewBox="0 0 46 56" fill="none" xmlns="http://www.w3.org/2000/svg">
<path d="M22.2987 54.5C21.7226 54.3677 21.1956 54.0749 20.7789 53.6556C20.3622 53.2363 20.0728 52.7075 19.9442 52.1305C19.8155 51.5536 19.8529 50.9519 20.052 50.3953C20.251 49.8387 20.6037 49.3498 21.0691 48.9853C21.5344 48.6207 22.0935 48.3954 22.6817 48.3355C23.2698 48.2755 23.8628 48.3833 24.3922 48.6464C24.9216 48.9095 25.3656 49.3172 25.673 49.8222C25.9803 50.3272 26.1383 50.9089 26.1287 51.5C26.1308 52.0057 26.0071 52.5039 25.7687 52.95" stroke="#05D89C" stroke-linecap="round" stroke-linejoin="round"/>
<path d="M23 48.28V43" stroke="#05D89C" stroke-linecap="round" stroke-linejoin="round"/>
<path d="M19.8693 51.4102H1.2793" stroke="#05D89C" stroke-linecap="round" stroke-linejoin="round"/>
<path d="M26.1289 51.4102H44.7189" stroke="#05D89C" stroke-linecap="round" stroke-linejoin="round"/>
<path d="M19.1293 11.9698V11.0898C19.1293 10.2066 18.7785 9.3596 18.154 8.7351C17.5295 8.1106 16.6825 7.75977 15.7993 7.75977H4.6193C3.7352 7.75976 2.88717 8.11028 2.26109 8.73449C1.635 9.3587 1.28194 10.2057 1.2793 11.0898V39.6698C1.28194 40.5539 1.635 41.4008 2.26109 42.025C2.88717 42.6493 3.7352 42.9998 4.6193 42.9998H41.3793C42.2634 42.9998 43.1114 42.6493 43.7375 42.025C44.3636 41.4008 44.7167 40.5539 44.7193 39.6698V18.6698C44.7167 17.7848 44.3639 16.9367 43.7381 16.3109C43.1123 15.6851 42.2643 15.3324 41.3793 15.3298H22.4693C22.029 15.3298 21.593 15.2427 21.1865 15.0736C20.78 14.9045 20.4109 14.6567 20.1005 14.3444C19.7901 14.0322 19.5444 13.6616 19.3778 13.2541C19.2111 12.8465 19.1267 12.4101 19.1293 11.9698V11.9698Z" stroke="#283446" stroke-linecap="round" stroke-linejoin="round"/>
<path d="M29.9793 22.4302H1.2793" stroke="#283446" stroke-linecap="round" stroke-linejoin="round"/>
<path d="M44.719 22.4302H38.459" stroke="#283446" stroke-linecap="round" stroke-linejoin="round"/>
<path d="M5.75977 6.16C5.76769 4.92134 6.26531 3.73611 7.144 2.86304C8.02269 1.98998 9.21108 1.49997 10.4498 1.5H35.5498C36.1665 1.5 36.7772 1.62164 37.3469 1.85796C37.9165 2.09428 38.434 2.44064 38.8696 2.8772C39.3053 3.31377 39.6505 3.83197 39.8856 4.40214C40.1207 4.97232 40.2411 5.58326 40.2398 6.2V13.28" stroke="#283446" stroke-linecap="round" stroke-linejoin="round"/>
<path d="M22.9998 34.34C24.3308 34.34 25.4098 33.261 25.4098 31.93C25.4098 30.599 24.3308 29.52 22.9998 29.52C21.6688 29.52 20.5898 30.599 20.5898 31.93C20.5898 33.261 21.6688 34.34 22.9998 34.34Z" stroke="#283446" stroke-linecap="round" stroke-linejoin="round"/>
<path d="M12.9998 34.34C14.3308 34.34 15.4098 33.261 15.4098 31.93C15.4098 30.599 14.3308 29.52 12.9998 29.52C11.6688 29.52 10.5898 30.599 10.5898 31.93C10.5898 33.261 11.6688 34.34 12.9998 34.34Z" stroke="#283446" stroke-linecap="round" stroke-linejoin="round"/>
<path d="M32.9998 34.34C34.3308 34.34 35.4098 33.261 35.4098 31.93C35.4098 30.599 34.3308 29.52 32.9998 29.52C31.6688 29.52 30.5898 30.599 30.5898 31.93C30.5898 33.261 31.6688 34.34 32.9998 34.34Z" stroke="#283446" stroke-linecap="round" stroke-linejoin="round"/>
<path d="M35.4098 5.24023H10.5898" stroke="#05D89C" stroke-linecap="round" stroke-linejoin="round"/>
<path d="M35.4098 9.24023H21.7598" stroke="#05D89C" stroke-linecap="round" stroke-linejoin="round"/>
<path d="M35.4109 13.2402H22.7109" stroke="#05D89C" stroke-linecap="round" stroke-linejoin="round"/>
</svg>
