<svg width="28" height="20" viewBox="0 0 28 20" fill="none" xmlns="http://www.w3.org/2000/svg">
<rect width="28" height="20" rx="2" fill="#5D6C83"/>
<path d="M19.6793 7.4476L19.0994 3.3873C19.0517 3.05441 18.6425 2.91608 18.4032 3.15539L17.5585 4.00015C16.4722 3.34486 15.2389 3 13.9708 3C10.1572 3 7.09545 5.98484 7.00013 9.79522C6.99493 10.0035 7.14634 10.1821 7.35221 10.2118L8.99122 10.4461C9.23556 10.4817 9.46287 10.2899 9.45948 10.0343C9.42549 7.51954 11.4566 5.46094 13.9708 5.46094C14.5796 5.46094 15.1812 5.5847 15.7372 5.82141L14.9229 6.63571C14.6851 6.87352 14.8201 7.28392 15.1548 7.33185L19.2151 7.91184C19.4826 7.95217 19.7177 7.7195 19.6793 7.4476Z" fill="url(#paint0_linear)"/>
<path d="M20.6473 9.81979L19.0095 9.58587C18.7979 9.55907 18.5413 9.74039 18.5413 10.0273C18.5413 12.515 16.5173 14.539 14.0295 14.539C13.4239 14.539 12.8251 14.4164 12.2712 14.1821L13.0594 13.3938C13.2972 13.156 13.1623 12.7456 12.8275 12.6977L8.76723 12.1173C8.50054 12.0792 8.26438 12.3079 8.30299 12.5815L8.88295 16.6419C8.93069 16.9751 9.33948 17.1125 9.57909 16.8738L10.4443 16.009C11.5253 16.6583 12.7578 16.9999 14.0295 16.9999C17.8247 16.9999 20.886 14.0299 20.9994 10.2384C21.0054 10.0297 20.854 9.84943 20.6473 9.81979Z" fill="url(#paint1_linear)"/>
<defs>
<linearGradient id="paint0_linear" x1="11.0479" y1="3" x2="15.6065" y2="6.034" gradientUnits="userSpaceOnUse">
<stop stop-color="#08EE7F"/>
<stop offset="1" stop-color="#20CF92"/>
</linearGradient>
<linearGradient id="paint1_linear" x1="12.3522" y1="9.58325" x2="16.9004" y2="12.6282" gradientUnits="userSpaceOnUse">
<stop stop-color="#08EE7F"/>
<stop offset="1" stop-color="#20CF92"/>
</linearGradient>
</defs>
</svg>
