<svg width="30" height="36" viewBox="0 0 30 36" fill="none" xmlns="http://www.w3.org/2000/svg">
<path d="M10.0258 36C4.6679 35.9692 0.235962 25.0319 0.235962 19.4618C0.235962 10.3631 7.06155 8.37115 9.69208 8.37115C10.8775 8.37115 12.1434 8.83669 13.2599 9.24865C14.0406 9.53602 14.8481 9.83266 15.2972 9.83266C15.566 9.83266 16.1994 9.58031 16.7587 9.3589C17.9514 8.88408 19.4356 8.29395 21.1638 8.29395C21.1669 8.29395 21.1711 8.29395 21.1741 8.29395C22.4646 8.29395 26.3775 8.57716 28.73 12.1099L29.281 12.938L28.4879 13.5364C27.355 14.3913 25.2878 15.9507 25.2878 19.0396C25.2878 22.698 27.6289 24.105 28.7537 24.7817C29.2501 25.0804 29.764 25.3883 29.764 26.0619C29.764 26.5017 26.2539 35.9455 21.1566 35.9455C19.9093 35.9455 19.0277 35.5706 18.25 35.2399C17.4632 34.9052 16.7844 34.6168 15.6627 34.6168C15.0942 34.6168 14.3752 34.8856 13.6141 35.171C12.574 35.5592 11.3967 36 10.0608 36H10.0258Z" fill="white"/>
<path d="M21.7038 0C21.8366 4.78659 18.4134 8.10731 14.9942 7.89905C14.4308 4.07918 18.413 0 21.7038 0Z" fill="white"/>
</svg>
