<svg width="36" height="36" viewBox="0 0 36 36" fill="none" xmlns="http://www.w3.org/2000/svg">
<path d="M3.84448 21.75C5.91555 21.75 7.59448 20.0711 7.59448 18C7.59448 15.9289 5.91555 14.25 3.84448 14.25C1.77341 14.25 0.0944824 15.9289 0.0944824 18C0.0944824 20.0711 1.77341 21.75 3.84448 21.75Z" fill="white"/>
<path d="M28.5945 36C30.6655 36 32.3445 34.3211 32.3445 32.25C32.3445 30.1789 30.6655 28.5 28.5945 28.5C26.5234 28.5 24.8445 30.1789 24.8445 32.25C24.8445 34.3211 26.5234 36 28.5945 36Z" fill="white"/>
<path d="M28.5945 7.5C30.6655 7.5 32.3445 5.82107 32.3445 3.75C32.3445 1.67893 30.6655 0 28.5945 0C26.5234 0 24.8445 1.67893 24.8445 3.75C24.8445 5.82107 26.5234 7.5 28.5945 7.5Z" fill="white"/>
<path d="M18.4305 10.383C18.5111 10.5252 18.6364 10.6368 18.787 10.7006C18.9375 10.7643 19.1048 10.7766 19.263 10.7355C23.367 9.69901 27.2325 12.1695 28.3035 15.954C28.3477 16.1113 28.4422 16.2498 28.5724 16.3484C28.7027 16.447 28.8617 16.5002 29.025 16.5H35.1555C35.2639 16.4996 35.3709 16.4757 35.4693 16.4301C35.5676 16.3845 35.6549 16.3182 35.7253 16.2358C35.7956 16.1533 35.8474 16.0566 35.8769 15.9523C35.9065 15.8481 35.9132 15.7386 35.8965 15.6315C35.4609 12.9045 34.2799 10.351 32.484 8.25301C32.3648 8.11376 32.1987 8.02298 32.0172 7.99783C31.8356 7.97268 31.6511 8.0149 31.4985 8.11651C30.6395 8.69242 29.6287 8.99994 28.5945 9.00001C27.217 8.99391 25.8968 8.44818 24.917 7.47989C23.9372 6.51159 23.3759 5.19786 23.3535 3.82051C23.3509 3.63699 23.281 3.46083 23.1571 3.32537C23.0333 3.18992 22.8641 3.10458 22.6815 3.08551C20.3296 2.84145 17.9533 3.15333 15.744 3.99601C15.6428 4.03483 15.5511 4.09515 15.4754 4.17282C15.3997 4.25049 15.3417 4.34365 15.3055 4.44589C15.2693 4.54813 15.2557 4.65701 15.2656 4.76502C15.2755 4.87302 15.3088 4.97759 15.363 5.07151L18.4305 10.383Z" fill="white"/>
<path d="M35.1555 19.5H29.025C28.8617 19.4998 28.7027 19.5531 28.5724 19.6516C28.4422 19.7502 28.3477 19.8887 28.3035 20.046C27.2325 23.8305 23.3685 26.301 19.263 25.2645C19.1048 25.2247 18.9379 25.2376 18.7877 25.3012C18.6375 25.3648 18.5121 25.4757 18.4305 25.617L15.363 30.93C15.3088 31.0239 15.2755 31.1285 15.2656 31.2365C15.2557 31.3445 15.2693 31.4534 15.3055 31.5556C15.3417 31.6579 15.3997 31.751 15.4754 31.8287C15.5511 31.9064 15.6428 31.9667 15.744 32.0055C17.9516 32.8548 20.3296 33.1669 22.6815 32.916C22.8641 32.8969 23.0333 32.8116 23.1571 32.6761C23.281 32.5407 23.3509 32.3645 23.3535 32.181C23.3755 30.8034 23.9366 29.4893 24.9164 28.5207C25.8963 27.552 27.2168 27.0061 28.5945 27C29.6295 27 30.633 27.306 31.4985 27.882C31.6511 27.9836 31.8356 28.0258 32.0172 28.0007C32.1987 27.9755 32.3648 27.8848 32.484 27.7455C34.2798 25.6481 35.4608 23.0951 35.8965 20.3685C35.913 20.2612 35.9063 20.1517 35.8771 20.0472C35.8479 19.9427 35.7967 19.8457 35.727 19.7625C35.6562 19.6803 35.5685 19.6143 35.4699 19.569C35.3713 19.5237 35.264 19.5002 35.1555 19.5Z" fill="white"/>
<path d="M15.7169 23.2215C14.3489 21.813 13.5944 19.9575 13.5944 18C13.5944 16.0425 14.3489 14.187 15.7169 12.7785C15.831 12.6614 15.9036 12.5102 15.9237 12.348C15.9437 12.1857 15.9101 12.0214 15.8279 11.88L12.7664 6.57752C12.7127 6.48279 12.639 6.40097 12.5502 6.33782C12.4615 6.27467 12.3601 6.23172 12.253 6.21199C12.1459 6.19226 12.0358 6.19622 11.9304 6.22361C11.825 6.251 11.7269 6.30115 11.6429 6.37052C9.46605 8.13998 7.82863 10.4841 6.91645 13.137C6.8664 13.2816 6.86185 13.438 6.90342 13.5853C6.94499 13.7325 7.03068 13.8635 7.14895 13.9605C8.38495 14.973 9.09445 16.4445 9.09445 18C9.09445 19.5555 8.38495 21.027 7.14895 22.0395C7.0305 22.1364 6.94469 22.2674 6.9031 22.4147C6.86152 22.562 6.86618 22.7185 6.91645 22.863C7.82956 25.5154 9.46682 27.8593 11.6429 29.6295C11.7274 29.6976 11.8255 29.7467 11.9307 29.7734C12.0359 29.8001 12.1455 29.8037 12.2522 29.784C12.3589 29.7644 12.4601 29.7219 12.5489 29.6595C12.6376 29.5971 12.7118 29.5163 12.7664 29.4225L15.8279 24.1185C15.9097 23.9773 15.9432 23.8133 15.9231 23.6514C15.9031 23.4894 15.8307 23.3385 15.7169 23.2215Z" fill="white"/>
</svg>
