<svg width="40" height="40" viewBox="0 0 40 40" fill="none" xmlns="http://www.w3.org/2000/svg">
<path d="M22.0231 13.264V12.9345L20.999 13.0048C20.7091 13.0231 20.4913 13.0848 20.3449 13.1888C20.1985 13.2938 20.1252 13.4393 20.1252 13.6252C20.1252 13.8064 20.1975 13.9509 20.343 14.0578C20.4875 14.1657 20.6821 14.2187 20.9249 14.2187C21.08 14.2187 21.2254 14.1946 21.3593 14.1474C21.4933 14.1002 21.6108 14.0337 21.7091 13.9489C21.8073 13.8651 21.8844 13.7649 21.9393 13.6484C21.9952 13.5318 22.0231 13.4037 22.0231 13.264ZM20 0C8.84393 0 0 8.8343 0 20C0.00963391 31.1561 8.84393 40 20 40C31.1561 40 40 31.1561 40 20C40 8.84393 31.1561 0 20 0ZM23.8805 11.8497C23.975 11.5848 24.1079 11.3574 24.2803 11.1686C24.4528 10.9798 24.6599 10.8343 24.9027 10.7322C25.1455 10.6301 25.4162 10.579 25.7139 10.579C25.9827 10.579 26.2254 10.6195 26.4412 10.6994C26.658 10.7794 26.843 10.8873 26.9981 11.0231C27.1532 11.159 27.2765 11.317 27.3671 11.4981C27.4576 11.6792 27.5116 11.8709 27.5299 12.0723H26.7274C26.7071 11.9615 26.6705 11.8574 26.6185 11.762C26.5665 11.6667 26.4981 11.5838 26.4133 11.5135C26.3276 11.4432 26.2274 11.3882 26.1127 11.3487C25.9971 11.3083 25.868 11.289 25.7225 11.289C25.552 11.289 25.3969 11.3237 25.2592 11.3921C25.1204 11.4605 25.0019 11.5578 24.9037 11.683C24.8054 11.8083 24.7293 11.9615 24.6753 12.1407C24.6204 12.3208 24.5934 12.5202 24.5934 12.7399C24.5934 12.9672 24.6204 13.1715 24.6753 13.3507C24.7293 13.5308 24.8064 13.6821 24.9066 13.8064C25.0058 13.9306 25.1262 14.026 25.2659 14.0915C25.4056 14.157 25.5597 14.1908 25.7274 14.1908C26.0019 14.1908 26.2254 14.1262 26.3988 13.9971C26.5723 13.868 26.684 13.6792 26.736 13.4306H27.5395C27.5164 13.6503 27.4557 13.8507 27.3574 14.0318C27.2592 14.2129 27.132 14.3671 26.9759 14.4952C26.8189 14.6233 26.6349 14.7225 26.4229 14.7919C26.211 14.8613 25.9778 14.8969 25.7245 14.8969C25.4239 14.8969 25.1532 14.8468 24.9094 14.7476C24.6667 14.6484 24.4576 14.5048 24.2842 14.3189C24.1108 14.1329 23.9769 13.9066 23.8825 13.6397C23.7881 13.3728 23.7408 13.0732 23.7408 12.7389C23.7389 12.4123 23.7861 12.1156 23.8805 11.8497ZM12.4624 10.6339H13.2659V11.3478H13.2813C13.3304 11.2293 13.395 11.1224 13.474 11.0299C13.553 10.9364 13.6435 10.8574 13.7476 10.7909C13.8507 10.7245 13.9653 10.6744 14.0886 10.6397C14.2129 10.605 14.3439 10.5877 14.4807 10.5877C14.7755 10.5877 15.025 10.658 15.2274 10.7987C15.4306 10.9393 15.5751 11.1416 15.6599 11.4056H15.6802C15.7341 11.2784 15.8054 11.1647 15.8931 11.0645C15.9807 10.9644 16.0819 10.8776 16.1956 10.8064C16.3092 10.7351 16.4345 10.6811 16.5703 10.6435C16.7062 10.606 16.8487 10.5877 16.999 10.5877C17.2062 10.5877 17.394 10.6204 17.5636 10.6869C17.7331 10.7534 17.8776 10.8459 17.9981 10.9663C18.1185 11.0867 18.211 11.2331 18.2755 11.4046C18.3401 11.5761 18.3728 11.7669 18.3728 11.9769V14.8478H17.5347V12.1773C17.5347 11.9008 17.4634 11.6859 17.3208 11.5347C17.1792 11.3834 16.9759 11.3073 16.7119 11.3073C16.5829 11.3073 16.4644 11.3304 16.3565 11.3757C16.2495 11.421 16.1561 11.4846 16.079 11.5665C16.001 11.6474 15.9403 11.7457 15.8969 11.8593C15.8526 11.973 15.8304 12.0973 15.8304 12.2322V14.8487H15.0039V12.1089C15.0039 11.9875 14.9846 11.8776 14.947 11.7794C14.9094 11.6811 14.8565 11.5973 14.7861 11.527C14.7168 11.4566 14.631 11.4037 14.5318 11.3661C14.4316 11.3285 14.3198 11.3092 14.1956 11.3092C14.0665 11.3092 13.947 11.3333 13.8362 11.3815C13.7264 11.4297 13.632 11.4961 13.553 11.5809C13.474 11.6667 13.4123 11.7669 13.369 11.8834C13.3266 11.999 13.2572 12.1262 13.2572 12.263V14.8487H12.4624V10.6349V10.6339ZM14.2929 30.8073C10.6089 30.8073 8.29672 28.2466 8.29672 24.1599C8.29672 20.0732 10.6089 17.5048 14.2929 17.5048C17.9769 17.5048 20.2813 20.0751 20.2813 24.1599C20.2813 28.2447 17.9788 30.8073 14.2929 30.8073ZM21.1156 14.8382C20.9798 14.8728 20.841 14.8902 20.6985 14.8902C20.4884 14.8902 20.2967 14.8603 20.1224 14.8006C19.947 14.7408 19.7977 14.657 19.6724 14.5482C19.5472 14.4393 19.4489 14.3083 19.3796 14.1541C19.3092 14 19.2746 13.8285 19.2746 13.6397C19.2746 13.2697 19.4123 12.9807 19.6879 12.7726C19.9634 12.5645 20.3622 12.4432 20.8854 12.4094L22.0222 12.3439V12.0183C22.0222 11.7755 21.9451 11.5896 21.7909 11.4634C21.6368 11.3372 21.4191 11.2736 21.1368 11.2736C21.0231 11.2736 20.9162 11.2881 20.8179 11.316C20.7197 11.3449 20.6329 11.3854 20.5578 11.4383C20.4827 11.4913 20.42 11.5549 20.3719 11.6291C20.3227 11.7023 20.289 11.7852 20.2707 11.8757H19.4827C19.4875 11.6898 19.5337 11.5173 19.6204 11.3593C19.7071 11.2013 19.8247 11.0645 19.974 10.948C20.1233 10.8314 20.2977 10.7408 20.5 10.6763C20.7023 10.6118 20.922 10.579 21.1599 10.579C21.4162 10.579 21.6484 10.6108 21.8565 10.6763C22.0645 10.7418 22.2428 10.8333 22.3902 10.9538C22.5376 11.0742 22.6513 11.2187 22.7312 11.3882C22.8112 11.5578 22.8516 11.7476 22.8516 11.9566V14.8468H22.0491V14.1445H22.0289C21.9692 14.2582 21.894 14.3613 21.8025 14.4528C21.71 14.5443 21.6069 14.6233 21.4923 14.6879C21.3767 14.7524 21.2514 14.8025 21.1156 14.8372V14.8382ZM26.4181 30.8073C23.6089 30.8073 21.6975 29.3353 21.5645 27.0231H23.394C23.5366 28.3439 24.8131 29.2197 26.5617 29.2197C28.2389 29.2197 29.4441 28.3449 29.4441 27.1503C29.4441 26.1156 28.7119 25.4904 27.0164 25.0617L25.3651 24.6513C22.9913 24.0626 21.9123 22.9827 21.9123 21.2062C21.9123 19.0212 23.8218 17.5029 26.5443 17.5029C29.2033 17.5029 31.0588 19.0289 31.1301 21.2235H29.3189C29.1936 19.9027 28.1146 19.0906 26.5077 19.0906C24.9104 19.0906 23.8044 19.9114 23.8044 21.0983C23.8044 22.0347 24.5 22.5886 26.1956 23.0164L27.5877 23.3642C30.2389 24.0067 31.3256 25.0511 31.3256 26.9249C31.3247 29.316 29.4335 30.8054 26.4162 30.8054L26.4181 30.8073ZM14.2871 19.1503C11.763 19.1503 10.183 21.0867 10.183 24.1638C10.183 27.2331 11.762 29.1696 14.2871 29.1696C16.8035 29.1696 18.3911 27.2331 18.3911 24.1638C18.3911 21.0809 16.8112 19.1541 14.2948 19.1541L14.2871 19.1503Z" fill="white"/>
</svg>
