<svg width="32" height="32" viewBox="0 0 32 32" fill="none" xmlns="http://www.w3.org/2000/svg">
<path d="M30 22.5H26.5V3C26.5 1.6215 25.3785 0.5 24 0.5H8C6.6215 0.5 5.5 1.6215 5.5 3V22.5H2C1.173 22.5 0.5 23.173 0.5 24V28C0.5 28.827 1.173 29.5 2 29.5H3V30.5H2V31.5H8V30.5H7V29.5H8C8.827 29.5 9.5 28.827 9.5 28V26.5H11.5V28C11.5 28.827 12.173 29.5 13 29.5H14V30.5H13V31.5H19V30.5H18V29.5H19C19.827 29.5 20.5 28.827 20.5 28V26.5H22.5V28C22.5 28.827 23.173 29.5 24 29.5H25V30.5H24V31.5H30V30.5H29V29.5H30C30.827 29.5 31.5 28.827 31.5 28V24C31.5 23.173 30.827 22.5 30 22.5ZM30.5 24V26.5H23.5V24C23.5 23.7245 23.724 23.5 24 23.5H30C30.276 23.5 30.5 23.7245 30.5 24ZM23.5 8.5H21.5H20.5H19.5H18.5H17.5H16.5H8.5V3.5H23.5V8.5ZM8.5 9.5H16.5H17.5H18.5H19.5H20.5H21.5H23.5V14.5H8.5V9.5ZM8.5 15.5H23.5V20.5H8.5V15.5ZM6.5 3C6.5 2.173 7.173 1.5 8 1.5H24C24.827 1.5 25.5 2.173 25.5 3V22.5H24.5V3.5C24.5 2.9485 24.0515 2.5 23.5 2.5H8.5C7.9485 2.5 7.5 2.9485 7.5 3.5V22.5H6.5V3ZM2 23.5H8C8.276 23.5 8.5 23.7245 8.5 24V26.5H1.5V24C1.5 23.7245 1.724 23.5 2 23.5ZM6 30.5H4V29.5H6V30.5ZM8 28.5H2C1.724 28.5 1.5 28.2755 1.5 28V27.5H8.5V28C8.5 28.2755 8.276 28.5 8 28.5ZM19.5 26.5H12.5V24C12.5 23.7245 12.724 23.5 13 23.5H19C19.276 23.5 19.5 23.7245 19.5 24V26.5ZM17 30.5H15V29.5H17V30.5ZM19 28.5H13C12.724 28.5 12.5 28.2755 12.5 28V27.5H19.5V28C19.5 28.2755 19.276 28.5 19 28.5ZM20.5 25.5V24C20.5 23.173 19.827 22.5 19 22.5H13C12.173 22.5 11.5 23.173 11.5 24V25.5H9.5V24C9.5 23.349 9.0805 22.799 8.5 22.592V21.5H23.5V22.592C22.9195 22.799 22.5 23.349 22.5 24V25.5H20.5ZM28 30.5H26V29.5H28V30.5ZM30 28.5H24C23.724 28.5 23.5 28.2755 23.5 28V27.5H30.5V28C30.5 28.2755 30.276 28.5 30 28.5Z" fill="#38527A"/>
<path d="M13 4H9V8H13V4ZM11.6667 6.66667H10.3333V5.33333H11.6667V6.66667Z" fill="url(#paint0_linear)"/>
<path d="M17.5 4.5H18.5V5.5H17.5V4.5Z" fill="url(#paint1_linear)"/>
<path d="M21.5 4.5H22.5V5.5H21.5V4.5Z" fill="url(#paint2_linear)"/>
<path d="M19.5 4.5H20.5V5.5H19.5V4.5Z" fill="url(#paint3_linear)"/>
<path d="M21.5 6.5H22.5V7.5H21.5V6.5Z" fill="url(#paint4_linear)"/>
<path d="M19.5 6.5H20.5V7.5H19.5V6.5Z" fill="url(#paint5_linear)"/>
<path d="M17.5 6.5H18.5V7.5H17.5V6.5Z" fill="url(#paint6_linear)"/>
<path d="M19.5 10.5V13.5H22.5V10.5H19.5ZM21.5 12.5H20.5V11.5H21.5V12.5Z" fill="url(#paint7_linear)"/>
<path d="M13.5 12.5H14.5V13.5H13.5V12.5Z" fill="url(#paint8_linear)"/>
<path d="M9.5 12.5H10.5V13.5H9.5V12.5Z" fill="url(#paint9_linear)"/>
<path d="M11.5 12.5H12.5V13.5H11.5V12.5Z" fill="url(#paint10_linear)"/>
<path d="M9.5 10.5H10.5V11.5H9.5V10.5Z" fill="url(#paint11_linear)"/>
<path d="M13.5 10.5H14.5V11.5H13.5V10.5Z" fill="url(#paint12_linear)"/>
<path d="M11.5 10.5H12.5V11.5H11.5V10.5Z" fill="url(#paint13_linear)"/>
<path d="M9.5 19.5H12.5V16.5H9.5V19.5ZM10.5 17.5H11.5V18.5H10.5V17.5Z" fill="url(#paint14_linear)"/>
<path d="M17.5 18.5H18.5V19.5H17.5V18.5Z" fill="url(#paint15_linear)"/>
<path d="M21.5 18.5H22.5V19.5H21.5V18.5Z" fill="url(#paint16_linear)"/>
<path d="M19.5 18.5H20.5V19.5H19.5V18.5Z" fill="url(#paint17_linear)"/>
<path d="M19.5 16.5H20.5V17.5H19.5V16.5Z" fill="url(#paint18_linear)"/>
<path d="M21.5 16.5H22.5V17.5H21.5V16.5Z" fill="url(#paint19_linear)"/>
<path d="M17.5 16.5H18.5V17.5H17.5V16.5Z" fill="url(#paint20_linear)"/>
<path d="M28.5 12C28.5 11.7245 28.724 11.5 29 11.5H29.5C30.327 11.5 31 10.827 31 10C31 9.173 30.327 8.5 29.5 8.5H29C28.724 8.5 28.5 8.2755 28.5 8C28.5 7.7245 28.724 7.5 29 7.5H30C30.827 7.5 31.5 6.827 31.5 6C31.5 5.173 30.827 4.5 30 4.5H27.5V5.5H30C30.276 5.5 30.5 5.7245 30.5 6C30.5 6.2755 30.276 6.5 30 6.5H29C28.173 6.5 27.5 7.173 27.5 8C27.5 8.827 28.173 9.5 29 9.5H29.5C29.776 9.5 30 9.7245 30 10C30 10.2755 29.776 10.5 29.5 10.5H29C28.173 10.5 27.5 11.173 27.5 12C27.5 12.827 28.173 13.5 29 13.5H31.5V12.5H29C28.724 12.5 28.5 12.2755 28.5 12Z" fill="url(#paint21_linear)"/>
<path d="M2.5 10.5H2C1.173 10.5 0.5 11.173 0.5 12C0.5 12.827 1.173 13.5 2 13.5H4.5V12.5H2C1.724 12.5 1.5 12.2755 1.5 12C1.5 11.7245 1.724 11.5 2 11.5H2.5C3.327 11.5 4 10.827 4 10C4 9.173 3.327 8.5 2.5 8.5H2C1.724 8.5 1.5 8.2755 1.5 8C1.5 7.7245 1.724 7.5 2 7.5H3C3.827 7.5 4.5 6.827 4.5 6C4.5 5.173 3.827 4.5 3 4.5H0.5V5.5H3C3.276 5.5 3.5 5.7245 3.5 6C3.5 6.2755 3.276 6.5 3 6.5H2C1.173 6.5 0.5 7.173 0.5 8C0.5 8.827 1.173 9.5 2 9.5H2.5C2.776 9.5 3 9.7245 3 10C3 10.2755 2.776 10.5 2.5 10.5Z" fill="url(#paint22_linear)"/>
<defs>
<linearGradient id="paint0_linear" x1="10.2766" y1="4" x2="12.076" y2="4.7035" gradientUnits="userSpaceOnUse">
<stop stop-color="#08EE7F"/>
<stop offset="1" stop-color="#20CF92"/>
</linearGradient>
<linearGradient id="paint1_linear" x1="17.8191" y1="4.5" x2="18.269" y2="4.67587" gradientUnits="userSpaceOnUse">
<stop stop-color="#08EE7F"/>
<stop offset="1" stop-color="#20CF92"/>
</linearGradient>
<linearGradient id="paint2_linear" x1="21.8191" y1="4.5" x2="22.269" y2="4.67587" gradientUnits="userSpaceOnUse">
<stop stop-color="#08EE7F"/>
<stop offset="1" stop-color="#20CF92"/>
</linearGradient>
<linearGradient id="paint3_linear" x1="19.8191" y1="4.5" x2="20.269" y2="4.67587" gradientUnits="userSpaceOnUse">
<stop stop-color="#08EE7F"/>
<stop offset="1" stop-color="#20CF92"/>
</linearGradient>
<linearGradient id="paint4_linear" x1="21.8191" y1="6.5" x2="22.269" y2="6.67587" gradientUnits="userSpaceOnUse">
<stop stop-color="#08EE7F"/>
<stop offset="1" stop-color="#20CF92"/>
</linearGradient>
<linearGradient id="paint5_linear" x1="19.8191" y1="6.5" x2="20.269" y2="6.67587" gradientUnits="userSpaceOnUse">
<stop stop-color="#08EE7F"/>
<stop offset="1" stop-color="#20CF92"/>
</linearGradient>
<linearGradient id="paint6_linear" x1="17.8191" y1="6.5" x2="18.269" y2="6.67587" gradientUnits="userSpaceOnUse">
<stop stop-color="#08EE7F"/>
<stop offset="1" stop-color="#20CF92"/>
</linearGradient>
<linearGradient id="paint7_linear" x1="20.4574" y1="10.5" x2="21.807" y2="11.0276" gradientUnits="userSpaceOnUse">
<stop stop-color="#08EE7F"/>
<stop offset="1" stop-color="#20CF92"/>
</linearGradient>
<linearGradient id="paint8_linear" x1="13.8191" y1="12.5" x2="14.269" y2="12.6759" gradientUnits="userSpaceOnUse">
<stop stop-color="#08EE7F"/>
<stop offset="1" stop-color="#20CF92"/>
</linearGradient>
<linearGradient id="paint9_linear" x1="9.81915" y1="12.5" x2="10.269" y2="12.6759" gradientUnits="userSpaceOnUse">
<stop stop-color="#08EE7F"/>
<stop offset="1" stop-color="#20CF92"/>
</linearGradient>
<linearGradient id="paint10_linear" x1="11.8191" y1="12.5" x2="12.269" y2="12.6759" gradientUnits="userSpaceOnUse">
<stop stop-color="#08EE7F"/>
<stop offset="1" stop-color="#20CF92"/>
</linearGradient>
<linearGradient id="paint11_linear" x1="9.81915" y1="10.5" x2="10.269" y2="10.6759" gradientUnits="userSpaceOnUse">
<stop stop-color="#08EE7F"/>
<stop offset="1" stop-color="#20CF92"/>
</linearGradient>
<linearGradient id="paint12_linear" x1="13.8191" y1="10.5" x2="14.269" y2="10.6759" gradientUnits="userSpaceOnUse">
<stop stop-color="#08EE7F"/>
<stop offset="1" stop-color="#20CF92"/>
</linearGradient>
<linearGradient id="paint13_linear" x1="11.8191" y1="10.5" x2="12.269" y2="10.6759" gradientUnits="userSpaceOnUse">
<stop stop-color="#08EE7F"/>
<stop offset="1" stop-color="#20CF92"/>
</linearGradient>
<linearGradient id="paint14_linear" x1="10.4574" y1="16.5" x2="11.807" y2="17.0276" gradientUnits="userSpaceOnUse">
<stop stop-color="#08EE7F"/>
<stop offset="1" stop-color="#20CF92"/>
</linearGradient>
<linearGradient id="paint15_linear" x1="17.8191" y1="18.5" x2="18.269" y2="18.6759" gradientUnits="userSpaceOnUse">
<stop stop-color="#08EE7F"/>
<stop offset="1" stop-color="#20CF92"/>
</linearGradient>
<linearGradient id="paint16_linear" x1="21.8191" y1="18.5" x2="22.269" y2="18.6759" gradientUnits="userSpaceOnUse">
<stop stop-color="#08EE7F"/>
<stop offset="1" stop-color="#20CF92"/>
</linearGradient>
<linearGradient id="paint17_linear" x1="19.8191" y1="18.5" x2="20.269" y2="18.6759" gradientUnits="userSpaceOnUse">
<stop stop-color="#08EE7F"/>
<stop offset="1" stop-color="#20CF92"/>
</linearGradient>
<linearGradient id="paint18_linear" x1="19.8191" y1="16.5" x2="20.269" y2="16.6759" gradientUnits="userSpaceOnUse">
<stop stop-color="#08EE7F"/>
<stop offset="1" stop-color="#20CF92"/>
</linearGradient>
<linearGradient id="paint19_linear" x1="21.8191" y1="16.5" x2="22.269" y2="16.6759" gradientUnits="userSpaceOnUse">
<stop stop-color="#08EE7F"/>
<stop offset="1" stop-color="#20CF92"/>
</linearGradient>
<linearGradient id="paint20_linear" x1="17.8191" y1="16.5" x2="18.269" y2="16.6759" gradientUnits="userSpaceOnUse">
<stop stop-color="#08EE7F"/>
<stop offset="1" stop-color="#20CF92"/>
</linearGradient>
<linearGradient id="paint21_linear" x1="28.7766" y1="4.5" x2="30.7903" y2="4.84989" gradientUnits="userSpaceOnUse">
<stop stop-color="#08EE7F"/>
<stop offset="1" stop-color="#20CF92"/>
</linearGradient>
<linearGradient id="paint22_linear" x1="1.7766" y1="4.5" x2="3.79027" y2="4.84989" gradientUnits="userSpaceOnUse">
<stop stop-color="#08EE7F"/>
<stop offset="1" stop-color="#20CF92"/>
</linearGradient>
</defs>
</svg>
