<svg width="24" height="24" viewBox="0 0 24 24" fill="none" xmlns="http://www.w3.org/2000/svg">
<g clip-path="url(#clip0)">
<path d="M12 1.00037C6.47963 1.00624 2.0061 5.31194 2 10.6252C2 17.8281 11.2669 22.7133 11.6615 22.9179C11.8732 23.0279 12.1282 23.0279 12.3401 22.9179C12.7333 22.7133 22 17.8281 22 10.6252C21.9939 5.31194 17.5204 1.00624 12 1.00037ZM12 21.5194C10.3697 20.5896 3.42857 16.294 3.42857 10.6252C3.42857 6.06891 7.26611 2.37534 12 2.37534C16.7339 2.37534 20.5714 6.06891 20.5714 10.6252C20.5714 16.2846 13.6286 20.5879 12 21.5194Z" fill="url(#paint0_linear)"/>
<path fill-rule="evenodd" clip-rule="evenodd" d="M1.5 10.6246C1.50644 5.01786 6.22152 0.506515 11.9995 0.500366L12 1.00037L12.0005 0.500366C17.7785 0.506515 22.4936 5.01786 22.5 10.6246C22.5 14.4418 20.0512 17.59 17.6535 19.7661C15.2416 21.9553 12.7833 23.2509 12.5708 23.3615C12.2147 23.5462 11.7875 23.5466 11.4314 23.3618C11.2175 23.2509 8.75887 21.9552 6.34675 19.7662C3.94882 17.59 1.5 14.4419 1.5 10.6246ZM12 1.50037C6.73756 1.50624 2.50592 5.60603 2.5 10.6255C2.50012 14.011 4.68469 16.9074 7.01879 19.0256C9.33876 21.1311 11.7109 22.3803 11.8917 22.474C11.9587 22.5088 12.0418 22.5091 12.1093 22.4744C12.29 22.3803 14.6617 21.131 16.9815 19.0257C19.3153 16.9075 21.4998 14.0112 21.5 10.6258C21.4942 5.60618 17.2625 1.50624 12 1.50037ZM12 2.87534C7.52406 2.87534 3.92857 6.3629 3.92857 10.6252C3.92857 13.2561 5.54549 15.6246 7.45273 17.4922C9.17624 19.1798 11.0701 20.3927 11.9997 20.9411C12.9288 20.3916 14.8227 19.1767 16.5465 17.4881C18.4543 15.6193 20.0714 13.2512 20.0714 10.6252C20.0714 6.3629 16.4759 2.87534 12 2.87534ZM12 21.5194L12.2483 21.9535C13.0791 21.4782 15.2634 20.1449 17.2463 18.2024C19.2172 16.2718 21.0714 13.6585 21.0714 10.6252C21.0714 5.77492 16.9918 1.87534 12 1.87534C7.00816 1.87534 2.92857 5.77492 2.92857 10.6252C2.92857 13.6631 4.7822 16.2768 6.75309 18.2067C8.73595 20.1483 10.9204 21.4793 11.7523 21.9538L12 21.5194Z" fill="url(#paint1_linear)"/>
<path d="M9.74999 7.5C9.33581 7.5 9 7.83581 9 8.24999V13.4999C9 13.9141 9.33581 14.2499 9.74999 14.2499C10.1642 14.2499 10.5 13.9141 10.5 13.4999V8.24999C10.5 7.83581 10.1642 7.5 9.74999 7.5Z" fill="url(#paint2_linear)"/>
<path d="M13.5 7.5H12C11.5858 7.5 11.25 7.83581 11.25 8.24999V13.4999C11.25 13.9141 11.5858 14.2499 12 14.2499C12.4142 14.2499 12.75 13.9141 12.75 13.4999V11.9999H13.5C14.7427 11.9999 15.7499 10.9925 15.7499 9.74996C15.7499 8.50743 14.7427 7.5 13.5 7.5ZM13.5 10.5H12.75V8.99998H13.5C13.9141 8.99998 14.2499 9.33579 14.2499 9.74996C14.2499 10.1641 13.9141 10.5 13.5 10.5Z" fill="url(#paint3_linear)"/>
</g>
<defs>
<linearGradient id="paint0_linear" x1="8.20213" y1="0.500366" x2="17.8622" y2="3.94865" gradientUnits="userSpaceOnUse">
<stop stop-color="#08EE7F"/>
<stop offset="1" stop-color="#20CF92"/>
</linearGradient>
<linearGradient id="paint1_linear" x1="8.20213" y1="0.500366" x2="17.8622" y2="3.94865" gradientUnits="userSpaceOnUse">
<stop stop-color="#08EE7F"/>
<stop offset="1" stop-color="#20CF92"/>
</linearGradient>
<linearGradient id="paint2_linear" x1="9.47872" y1="7.5" x2="10.2508" y2="7.56708" gradientUnits="userSpaceOnUse">
<stop stop-color="#08EE7F"/>
<stop offset="1" stop-color="#20CF92"/>
</linearGradient>
<linearGradient id="paint3_linear" x1="12.6861" y1="7.5" x2="14.8714" y2="8.06957" gradientUnits="userSpaceOnUse">
<stop stop-color="#08EE7F"/>
<stop offset="1" stop-color="#20CF92"/>
</linearGradient>
<clipPath id="clip0">
<rect width="24" height="24" fill="white" transform="translate(0 0.00012207)"/>
</clipPath>
</defs>
</svg>
