<svg width="32" height="32" viewBox="0 0 32 32" fill="none" xmlns="http://www.w3.org/2000/svg">
<path d="M28.6636 3.39233H25.996C25.7371 3.39233 25.5273 3.60215 25.5273 3.86108C25.5273 4.12002 25.7371 4.32983 25.996 4.32983H28.6636C29.9864 4.32983 31.0625 5.40877 31.0625 6.7349V24.6375C31.0625 25.9636 29.9863 27.0425 28.6636 27.0425H3.33644C2.01362 27.0426 0.9375 25.9637 0.9375 24.6375V21.3191C0.9375 21.0601 0.727625 20.8503 0.46875 20.8503C0.209875 20.8503 0 21.0601 0 21.3191V24.6375C0 26.4806 1.49669 27.9801 3.33644 27.9801H12.8529L11.909 31.0625H9.83012C9.57125 31.0625 9.36137 31.2723 9.36137 31.5312C9.36137 31.7901 9.57125 32 9.83012 32H22.1698C22.4286 32 22.6385 31.7901 22.6385 31.5312C22.6385 31.2723 22.4286 31.0625 22.1698 31.0625H20.0909L19.1471 27.9801H28.6634C30.5032 27.9801 31.9999 26.4807 31.9999 24.6376V6.73496C32 4.89183 30.5033 3.39233 28.6636 3.39233ZM12.8895 31.0625L13.8334 27.9801H18.1667L19.1105 31.0625H12.8895Z" fill="#38527A"/>
<path d="M0.46875 19.6075C0.727625 19.6075 0.9375 19.3976 0.9375 19.1387V6.7349C0.9375 5.40871 2.01362 4.32983 3.33644 4.32983H4.69763C4.9565 4.32983 5.16638 4.12002 5.16638 3.86108C5.16638 3.60215 4.9565 3.39233 4.69763 3.39233H3.33644C1.49669 3.39227 0 4.89177 0 6.7349V19.1387C0 19.3976 0.209875 19.6075 0.46875 19.6075Z" fill="#38527A"/>
<path d="M30.1309 6.6571C30.1309 5.83866 29.466 5.17285 28.6488 5.17285H26.9805C26.7216 5.17285 26.5117 5.38266 26.5117 5.6416C26.5117 5.90054 26.7216 6.11035 26.9805 6.11035H28.6488C28.9491 6.11035 29.1934 6.35566 29.1934 6.6571V15.8485C29.1934 16.1075 29.4033 16.3173 29.6622 16.3173C29.921 16.3173 30.1309 16.1075 30.1309 15.8485V6.6571Z" fill="#38527A"/>
<path d="M30.1286 22.7785V18.0554C30.1286 17.7964 29.9188 17.5866 29.6599 17.5866C29.401 17.5866 29.1911 17.7964 29.1911 18.0554V22.7785C29.1911 23.08 28.9468 23.3253 28.6465 23.3253H3.35127C3.05095 23.3253 2.80664 23.08 2.80664 22.7785V6.6571C2.80664 6.35566 3.05095 6.11035 3.35127 6.11035H4.23408C4.49295 6.11035 4.70283 5.90054 4.70283 5.6416C4.70283 5.38266 4.49295 5.17285 4.23408 5.17285H3.35127C2.53402 5.17285 1.86914 5.83866 1.86914 6.6571V22.7785C1.86914 23.597 2.53402 24.2628 3.35127 24.2628H28.6465C29.4638 24.2628 30.1286 23.597 30.1286 22.7785Z" fill="#38527A"/>
<path d="M4.00391 25.186C3.74503 25.186 3.53516 25.3958 3.53516 25.6548C3.53516 25.9137 3.74503 26.1235 4.00391 26.1235H5.91884C6.17772 26.1235 6.38759 25.9137 6.38759 25.6548C6.38759 25.3958 6.17772 25.186 5.91884 25.186H4.00391Z" fill="#38527A"/>
<path d="M7.75391 25.186C7.49503 25.186 7.28516 25.3958 7.28516 25.6548C7.28516 25.9137 7.49503 26.1235 7.75391 26.1235H9.66884C9.92771 26.1235 10.1376 25.9137 10.1376 25.6548C10.1376 25.3958 9.92771 25.186 9.66884 25.186H7.75391Z" fill="#38527A"/>
<path d="M16.0277 21.4903C17.9319 21.4903 19.803 20.9864 21.4389 20.0329C23.026 19.1079 24.3589 17.7834 25.2934 16.2027C25.4252 15.9798 25.3513 15.6924 25.1285 15.5606C24.9056 15.4289 24.6182 15.5027 24.4864 15.7256C23.9144 16.6931 23.179 17.5554 22.3198 18.2733C21.9344 18.0999 21.5343 17.9436 21.1214 17.8051C22.1215 15.9692 22.6953 13.6637 22.7603 11.2141H25.8334C25.7902 12.1326 25.6199 13.034 25.3256 13.9002C25.2423 14.1453 25.3735 14.4116 25.6186 14.4949C25.6686 14.5118 25.7194 14.5199 25.7695 14.5199C25.9647 14.5199 26.1469 14.3969 26.2132 14.2018C26.5906 13.0914 26.7819 11.9285 26.7819 10.7453C26.7819 4.82025 21.9576 0 16.0277 0C14.3132 0 12.6744 0.39125 11.1567 1.16288C9.822 1.8415 8.62619 2.8085 7.67819 3.97269C7.53019 3.92606 7.37275 3.90094 7.2095 3.90094C6.34763 3.90094 5.6465 4.60169 5.6465 5.463C5.6465 5.89794 5.82531 6.29187 6.11325 6.57538C5.55581 7.89494 5.27344 9.29581 5.27344 10.7451C5.27344 16.6701 10.0978 21.4903 16.0277 21.4903ZM6.22206 11.2139H9.29506C9.36006 13.6636 9.93388 15.9691 10.9339 17.8049C10.5226 17.943 10.1239 18.0986 9.73981 18.2713C7.69644 16.5644 6.356 14.0443 6.22206 11.2139ZM10.6106 18.9208C10.8779 18.8148 11.1521 18.7172 11.4324 18.6281C11.7513 19.1019 12.0946 19.5208 12.4582 19.8818C11.8056 19.6264 11.1868 19.3032 10.6106 18.9208ZM15.5589 20.5206C14.4005 20.3612 13.3029 19.6132 12.3908 18.3626C13.3926 18.1237 14.4578 17.9863 15.5589 17.9559V20.5206ZM15.5589 17.0181C14.2673 17.0519 13.0194 17.2255 11.8544 17.5307C10.8677 15.8041 10.2991 13.5872 10.2329 11.2139H15.559V12.4991C14.9254 12.6986 14.4647 13.2912 14.4647 13.9894C14.4647 14.6876 14.9254 15.2803 15.559 15.4797V17.0181H15.5589ZM16.4964 20.5206V17.9559C17.5976 17.9863 18.6628 18.1237 19.6646 18.3626C18.7524 19.6132 17.6549 20.3612 16.4964 20.5206ZM21.4492 18.9226C21.2915 19.0272 21.1306 19.1274 20.9668 19.2229C20.5264 19.4796 20.0674 19.7005 19.5944 19.8844C19.959 19.5228 20.3033 19.1031 20.6229 18.6281C20.9048 18.7177 21.1805 18.8159 21.4492 18.9226ZM21.9787 8.04475C21.6338 8.04475 21.3532 7.76456 21.3532 7.42019C21.3532 7.07581 21.6339 6.79563 21.9787 6.79563C22.3237 6.79563 22.6043 7.07581 22.6043 7.42019C22.6043 7.76456 22.3237 8.04475 21.9787 8.04475ZM25.8333 10.2764H22.7602C22.7471 9.78875 22.7137 9.30338 22.6603 8.82581C23.1816 8.57231 23.5418 8.0375 23.5418 7.42019C23.5418 6.57862 22.8725 5.89038 22.0379 5.85925C21.7883 5.07413 21.4802 4.34462 21.1216 3.68537C21.5329 3.54731 21.9315 3.39175 22.3156 3.21913C24.3589 4.92588 25.6993 7.44606 25.8333 10.2764ZM21.4448 2.5695C21.1774 2.6755 20.9033 2.77306 20.6229 2.86219C20.358 2.46925 20.0724 2.10969 19.7686 1.78769C19.7101 1.72569 19.651 1.66525 19.5914 1.60631C20.2462 1.862 20.8669 2.186 21.4448 2.5695ZM16.4964 0.9705C17.6613 1.13462 18.764 1.9045 19.6619 3.12838C18.6608 3.36681 17.5966 3.504 16.4964 3.53437V0.9705ZM16.4964 4.47219C17.7878 4.43837 19.0353 4.26487 20.2001 3.95988C20.5631 4.59456 20.8784 5.31487 21.1329 6.10712C20.7017 6.3855 20.4157 6.87006 20.4157 7.42013C20.4157 8.19763 20.9871 8.84425 21.7323 8.96275C21.7798 9.39538 21.8099 9.83469 21.8224 10.2764H16.4964V4.47219ZM16.4964 11.2139H21.8224C21.7562 13.5871 21.1877 15.8041 20.201 17.5307C19.0359 17.2256 17.7881 17.0519 16.4964 17.0181V15.4797C17.13 15.2803 17.5907 14.6876 17.5907 13.9894C17.5907 13.2912 17.1299 12.6986 16.4964 12.4991V11.2139ZM16.0277 13.3649C16.3726 13.3649 16.6532 13.6451 16.6532 13.9894C16.6532 14.3338 16.3726 14.6139 16.0277 14.6139C15.6828 14.6139 15.4021 14.3338 15.4021 13.9894C15.4021 13.6451 15.6828 13.3649 16.0277 13.3649ZM15.5589 0.969875V3.53437C14.4561 3.50394 13.3894 3.36613 12.3863 3.12669C13.2821 1.9005 14.3842 1.13238 15.5589 0.969875ZM11.5816 1.99863C11.8751 1.84938 12.1736 1.71575 12.4768 1.59775C12.1043 1.96369 11.7548 2.38713 11.4335 2.86256C11.1514 2.773 10.8756 2.67475 10.6068 2.56806C10.9208 2.35944 11.2463 2.16906 11.5816 1.99863ZM7.20944 4.83844C7.55437 4.83844 7.835 5.11862 7.835 5.463C7.835 5.80737 7.55437 6.08756 7.20944 6.08756C6.8645 6.08756 6.58394 5.80737 6.58394 5.463C6.58394 5.11862 6.86456 4.83844 7.20944 4.83844ZM6.95031 7.00362C7.03463 7.01775 7.12119 7.02513 7.20944 7.02513C8.07131 7.02513 8.7725 6.32437 8.7725 5.46306C8.7725 5.10537 8.65156 4.77544 8.44844 4.51181C8.83638 4.04213 9.26863 3.60831 9.73644 3.21762C10.1216 3.39094 10.5215 3.547 10.934 3.6855C10.477 4.52437 10.0979 5.48556 9.8175 6.547C9.75138 6.79731 9.90075 7.05375 10.151 7.11987C10.1911 7.1305 10.2314 7.13556 10.271 7.13556C10.4786 7.13556 10.6684 6.99656 10.7239 6.78638C11.0051 5.72156 11.3891 4.76969 11.8503 3.95869C13.0166 4.2645 14.2657 4.43844 15.5588 4.47225V10.2765H10.2329C10.2467 9.7895 10.2819 9.305 10.338 8.83062C10.3684 8.57356 10.1847 8.34044 9.92762 8.31C9.67112 8.28025 9.4375 8.46338 9.407 8.72038C9.3465 9.231 9.309 9.75263 9.295 10.2764H6.22175C6.27444 9.14306 6.51875 8.04569 6.95031 7.00362Z" fill="url(#paint0_linear)"/>
<path d="M6.81936 18.668H4.81055C4.55167 18.668 4.3418 18.8778 4.3418 19.1367C4.3418 19.3957 4.55167 19.6055 4.81055 19.6055H6.81936C7.07823 19.6055 7.28811 19.3957 7.28811 19.1367C7.28811 18.8778 7.07823 18.668 6.81936 18.668Z" fill="#38527A"/>
<path d="M4.3418 21.3242C4.3418 21.5832 4.55167 21.793 4.81055 21.793H8.06743C8.3263 21.793 8.53618 21.5832 8.53618 21.3242C8.53618 21.0653 8.3263 20.8555 8.06743 20.8555H4.81055C4.55167 20.8555 4.3418 21.0653 4.3418 21.3242Z" fill="#38527A"/>
<defs>
<linearGradient id="paint0_linear" x1="12.1379" y1="-1.75573e-07" x2="21.8114" y2="3.78516" gradientUnits="userSpaceOnUse">
<stop stop-color="#08EE7F"/>
<stop offset="1" stop-color="#20CF92"/>
</linearGradient>
</defs>
</svg>
