<svg width="60" height="60" viewBox="0 0 60 60" fill="none" xmlns="http://www.w3.org/2000/svg">
<path d="M32.3896 24.29V24.54" stroke="url(#paint0_linear)" stroke-linecap="round" stroke-linejoin="round"/>
<path d="M31.8797 27.33L31.4197 30.09C31.3701 30.401 31.4074 30.7196 31.5273 31.0108C31.6473 31.3019 31.8454 31.5543 32.0997 31.74C32.3536 31.9237 32.6537 32.0331 32.9662 32.0561C33.2788 32.079 33.5916 32.0146 33.8697 31.87L33.9897 31.81C34.7225 31.4635 35.5303 31.3054 36.3397 31.35C36.7593 31.3495 37.1746 31.4344 37.5603 31.5996C37.946 31.7648 38.2941 32.0068 38.5832 32.3109C38.8723 32.615 39.0965 32.9748 39.242 33.3684C39.3875 33.7619 39.4514 34.181 39.4297 34.6C39.3919 35.2693 39.1376 35.9082 38.705 36.4203C38.2724 36.9324 37.685 37.2899 37.0314 37.4389C36.3778 37.5879 35.6935 37.5203 35.0817 37.2463C34.4699 36.9724 33.9638 36.5069 33.6397 35.92C33.4726 35.6198 33.2195 35.3765 32.913 35.2215C32.6064 35.0664 32.2605 35.0067 31.9197 35.05C31.6494 35.088 31.3923 35.1909 31.1705 35.3499C30.9486 35.5089 30.7686 35.7192 30.6457 35.9629C30.5229 36.2067 30.4609 36.4765 30.465 36.7494C30.4692 37.0224 30.5394 37.2902 30.6697 37.53C31.224 38.55 32.0434 39.4015 33.0413 39.9946C34.0393 40.5878 35.1788 40.9006 36.3397 40.9H36.4797C38.1115 40.8621 39.6689 40.2097 40.8406 39.0732C42.0123 37.9368 42.7119 36.4 42.7997 34.77C42.8449 33.8938 42.7083 33.0177 42.3985 32.1968C42.0888 31.3759 41.6125 30.628 40.9997 30V30C40.3938 29.3669 39.6658 28.8632 38.8596 28.5194C38.0535 28.1756 37.186 27.9989 36.3097 28C35.8897 28 35.5197 28 35.1697 28.05L35.6597 25.05H41.0397C41.2724 25.0516 41.503 25.0059 41.7176 24.9157C41.9321 24.8255 42.1261 24.6928 42.2879 24.5254C42.4496 24.3581 42.5757 24.1596 42.6585 23.9421C42.7413 23.7246 42.7791 23.4926 42.7697 23.26C42.7418 22.8302 42.5518 22.427 42.2381 22.1319C41.9244 21.8367 41.5104 21.6717 41.0797 21.67H34.2597C33.8594 21.6693 33.4719 21.8105 33.1661 22.0687C32.8602 22.327 32.656 22.6853 32.5897 23.08L32.3897 24.3" stroke="url(#paint1_linear)" stroke-linecap="round" stroke-linejoin="round"/>
<path d="M17.5001 23.1C17.5001 22.3047 16.8554 21.66 16.0601 21.66C15.2648 21.66 14.6201 22.3047 14.6201 23.1C14.6201 23.8953 15.2648 24.54 16.0601 24.54C16.8554 24.54 17.5001 23.8953 17.5001 23.1Z" stroke="white" stroke-linecap="round" stroke-linejoin="round"/>
<path d="M5.18957 28.34C5.18957 27.5447 4.54486 26.9 3.74957 26.9C2.95428 26.9 2.30957 27.5447 2.30957 28.34C2.30957 29.1353 2.95428 29.78 3.74957 29.78C4.54486 29.78 5.18957 29.1353 5.18957 28.34Z" stroke="white" stroke-linecap="round" stroke-linejoin="round"/>
<path d="M8.59973 33.58C8.59973 32.7847 7.95502 32.14 7.15973 32.14C6.36444 32.14 5.71973 32.7847 5.71973 33.58C5.71973 34.3753 6.36444 35.02 7.15973 35.02C7.95502 35.02 8.59973 34.3753 8.59973 33.58Z" stroke="white" stroke-linecap="round" stroke-linejoin="round"/>
<path d="M16.7198 38.81C16.7198 38.0147 16.0751 37.37 15.2798 37.37C14.4846 37.37 13.8398 38.0147 13.8398 38.81C13.8398 39.6053 14.4846 40.25 15.2798 40.25C16.0751 40.25 16.7198 39.6053 16.7198 38.81Z" stroke="white" stroke-linecap="round" stroke-linejoin="round"/>
<path d="M23.3999 32.14H11.6099C10.8146 32.14 10.1699 32.7847 10.1699 33.58C10.1699 34.3753 10.8146 35.02 11.6099 35.02H23.3999C24.1952 35.02 24.8399 34.3753 24.8399 33.58C24.8399 32.7847 24.1952 32.14 23.3999 32.14Z" stroke="white" stroke-linecap="round" stroke-linejoin="round"/>
<path d="M21.94 40.26H19.73C19.3472 40.2574 18.981 40.1034 18.7112 39.8318C18.4414 39.5601 18.29 39.1928 18.29 38.81V38.81C18.2927 38.4289 18.4452 38.0641 18.7147 37.7947C18.9842 37.5252 19.3489 37.3726 19.73 37.37H26C26.3811 37.3726 26.7459 37.5252 27.0154 37.7947C27.2849 38.0641 27.4374 38.4289 27.44 38.81V38.81C27.44 39.1928 27.2887 39.5601 27.0189 39.8318C26.7491 40.1034 26.3829 40.2574 26 40.26H25.12" stroke="white" stroke-linecap="round" stroke-linejoin="round"/>
<path d="M28.6401 21.66H20.5201C19.7248 21.66 19.0801 22.3047 19.0801 23.1C19.0801 23.8953 19.7248 24.54 20.5201 24.54H28.6401C29.4354 24.54 30.0801 23.8953 30.0801 23.1C30.0801 22.3047 29.4354 21.66 28.6401 21.66Z" stroke="white" stroke-linecap="round" stroke-linejoin="round"/>
<path d="M17.8498 26.9001H25.9998C26.1889 26.9001 26.3761 26.9373 26.5508 27.0097C26.7255 27.082 26.8843 27.1881 27.018 27.3218C27.1517 27.4555 27.2578 27.6143 27.3302 27.789C27.4025 27.9637 27.4398 28.151 27.4398 28.3401V28.3401C27.4371 28.7212 27.2846 29.0859 27.0151 29.3554C26.7456 29.6249 26.3809 29.7774 25.9998 29.7801H8.20977C7.82693 29.7801 7.45962 29.6287 7.18798 29.3589C6.91634 29.0891 6.76241 28.7229 6.75977 28.3401V28.3401C6.75976 28.1501 6.79734 27.962 6.87033 27.7867C6.94332 27.6113 7.05028 27.4521 7.18506 27.3183C7.31984 27.1844 7.47976 27.0786 7.65563 27.0068C7.83149 26.935 8.01982 26.8987 8.20977 26.9001H13.3298" stroke="white" stroke-linecap="round" stroke-linejoin="round"/>
<path d="M55.4796 39.36C54.4643 40.3833 53.0908 40.9714 51.6496 41C47.8696 41 44.8096 36.71 44.8096 31.42C44.8096 26.13 47.8696 21.85 51.6496 21.85C55.4296 21.85 58.4896 26.13 58.4896 31.42C58.5102 33.3528 58.0787 35.2636 57.2296 37" stroke="url(#paint2_linear)" stroke-linecap="round" stroke-linejoin="round"/>
<path d="M51.6502 36.8899C53.8097 36.8899 55.5602 34.4409 55.5602 31.42C55.5602 28.399 53.8097 25.95 51.6502 25.95C49.4908 25.95 47.7402 28.399 47.7402 31.42C47.7402 34.4409 49.4908 36.8899 51.6502 36.8899Z" stroke="url(#paint3_linear)" stroke-linecap="round" stroke-linejoin="round"/>
<defs>
<linearGradient id="paint0_linear" x1="32.7088" y1="24.29" x2="32.8593" y2="24.5254" gradientUnits="userSpaceOnUse">
<stop stop-color="#08EE7F"/>
<stop offset="1" stop-color="#20CF92"/>
</linearGradient>
<linearGradient id="paint1_linear" x1="34.4042" y1="21.67" x2="40.4264" y2="23.1813" gradientUnits="userSpaceOnUse">
<stop stop-color="#08EE7F"/>
<stop offset="1" stop-color="#20CF92"/>
</linearGradient>
<linearGradient id="paint2_linear" x1="49.1758" y1="21.85" x2="55.7574" y2="23.6882" gradientUnits="userSpaceOnUse">
<stop stop-color="#08EE7F"/>
<stop offset="1" stop-color="#20CF92"/>
</linearGradient>
<linearGradient id="paint3_linear" x1="50.236" y1="25.95" x2="53.9978" y2="27.0012" gradientUnits="userSpaceOnUse">
<stop stop-color="#08EE7F"/>
<stop offset="1" stop-color="#20CF92"/>
</linearGradient>
</defs>
</svg>
