<svg width="24" height="24" viewBox="0 0 24 24" fill="none" xmlns="http://www.w3.org/2000/svg">
<path d="M2.00002 12V10.6C3.73598 11.522 6.37402 12 9 12C11.626 12 14.264 11.522 16 10.6L18 9.99998V3.99998C18 1.374 13.473 0 9 0C4.527 0 0 1.374 0 3.99998V16C0 18.626 4.527 20 9 20C10.752 20 12.507 19.786 14 19.372V17.286C12.824 17.682 11.149 18 9 18C4.45298 18 2.00002 16.58 2.00002 16V14.6C3.73603 15.522 6.37402 16 9 16C10.754 16 12.508 15.782 14 15.365V13.286C12.824 13.682 11.149 14 9 14C4.45298 14 2.00002 12.58 2.00002 12ZM9 2.00002C13.547 2.00002 16 3.42 16 4.00003C16 4.58002 13.547 6 9 6C4.45298 6 2.00002 4.58002 2.00002 3.99998C2.00002 3.42 4.45298 2.00002 9 2.00002ZM2.00002 6.6C3.73603 7.52198 6.37402 8.00002 9 8.00002C11.626 8.00002 14.264 7.52203 16 6.6V8.00002C16 8.58 13.547 10 9 10C4.45303 10 2.00002 8.58 2.00002 8.00002V6.6Z" fill="url(#paint0_linear)"/>
<path d="M21 17H19C18.449 17 18 16.551 18 16C18 15.449 18.449 15 19 15H23V13H21V12H19V13C17.346 13 16 14.346 16 16C16 17.654 17.346 19 19 19H21C21.551 19 22 19.449 22 20C22 20.5509 21.551 21 21 21H17V23H19V24H21V23C22.654 23 24 21.654 24 20C24 18.346 22.654 17 21 17Z" fill="url(#paint1_linear)"/>
<defs>
<linearGradient id="paint0_linear" x1="5.74468" y1="-1.63397e-07" x2="14.0514" y2="2.92281" gradientUnits="userSpaceOnUse">
<stop stop-color="#fb0101"/>
<stop offset="1" stop-color="#f74d4d"/>
</linearGradient>
<linearGradient id="paint1_linear" x1="18.5532" y1="12" x2="22.4382" y2="13.0126" gradientUnits="userSpaceOnUse">
<stop stop-color="#fb0101"/>
<stop offset="1" stop-color="#f74d4d"/>
</linearGradient>
</defs>
</svg>
