<svg width="31" height="31" viewBox="0 0 31 31" fill="none" xmlns="http://www.w3.org/2000/svg">
<path d="M15.0486 30.3547H0.0527344V15.3585C0.0527344 7.14238 6.82614 0.363525 15.0486 0.363525C23.3945 0.363525 30.043 7.14238 30.043 15.3585C30.043 23.7057 23.3945 30.3547 15.0486 30.3547Z" fill="white"/>
<path d="M8.87305 20.7175C8.46677 20.7175 8.13322 21.0538 8.13322 21.4601V22.1999H8.87305C9.28615 22.1999 9.61561 21.8732 9.61561 21.4601C9.61561 21.0538 9.28615 20.7175 8.87305 20.7175ZM16.4237 20.7175C16.0111 20.7175 15.6812 21.0538 15.6812 21.4601V22.1999H16.4237C16.83 22.1999 17.1609 21.8732 17.1609 21.4601C17.1609 21.0538 16.83 20.7175 16.4237 20.7175ZM1.52637 20.8046V28.8775H4.52651C6.13441 28.853 7.4369 27.5396 7.4369 25.9263C7.4369 24.3057 6.13169 22.9951 4.52379 22.9724H4.47755C3.89786 22.9724 3.35981 23.1388 2.89996 23.4266V20.8046H1.52637ZM11.0082 20.8073V23.1574H10.3391V24.3759H11.0082V28.8829H12.3846V24.3759H13.2087V23.1574H12.3846V20.8073H11.0082ZM16.489 22.9642C14.7667 22.9706 13.4372 24.3681 13.4372 26.0677C13.4372 27.7378 14.8031 29.0896 16.4781 29.0896H16.489C17.6421 29.0824 18.7701 28.3389 19.1791 27.3842H17.577C17.271 27.6352 16.874 27.7868 16.489 27.7868H16.4781C15.8535 27.7868 15.1203 27.3889 14.8978 26.5954H16.489H19.3776C19.4072 26.393 19.4429 26.1891 19.4429 25.9834C19.4429 24.3746 18.1341 22.9642 16.4945 22.9642H16.489H16.489ZM8.13322 23.1574V28.8829H9.51497V23.1574H8.13322ZM4.52651 24.2399C5.44667 24.2403 6.19386 24.9867 6.19386 25.9073C6.19386 26.8265 5.44395 27.5746 4.52379 27.5746H2.851V25.91C2.851 24.9885 3.6 24.2399 4.52651 24.2399ZM16.489 24.2426C17.2526 24.2426 17.8945 24.7526 18.1047 25.4503H14.8733C15.0776 24.7526 15.7264 24.2426 16.489 24.2426Z" fill="#20CF92"/>
</svg>
