<svg width="174" height="42" viewBox="0 0 174 42" fill="none" xmlns="http://www.w3.org/2000/svg">
<path fill-rule="evenodd" clip-rule="evenodd" d="M16.1002 0.0927734C12.8923 0.0927734 9.08899 3.05586 5.95184 8.03739C2.68207 13.1965 0.731445 19.5835 0.731445 25.1299C0.731445 33.2496 5.47406 41.4381 16.101 41.4381C26.7153 41.4381 31.4706 33.2496 31.4706 25.1299C31.4706 19.5835 29.5209 13.1965 26.2669 8.03739C23.1004 3.05586 19.2975 0.0927734 16.1002 0.0927734ZM99.0921 12.2751H109.851V39.2239H121.378V12.2751H132.132V2.30655H99.0921V12.2738V12.2751ZM156.724 12.2751H173.63V2.30655H156.724C141.192 2.30655 132.896 9.72631 132.896 20.764C132.896 31.8016 141.192 39.2239 156.724 39.2239H173.63V29.2558H156.724C149.535 29.2558 144.81 26.7872 144.81 20.7652C144.81 14.7433 149.535 12.2751 156.724 12.2751ZM75.6468 2.30655L69.5034 24.341L63.3599 2.30655H42.9974V39.2239H54.5202V9.19639L62.8944 39.2239H76.1123L84.4909 9.17825V39.2239H96.0181V2.30655H75.6468Z" fill="#EE3023"/>
</svg>
