<svg width="109" height="28" viewBox="0 0 109 28" fill="none" xmlns="http://www.w3.org/2000/svg">
<path d="M33.2207 22.5718V12.1482H33.3823H36.2912V15.4611L38.5537 12.1482H38.7153H42.109L38.5537 16.8348L42.9171 22.5718H42.8363H39.2001L36.2912 18.2892V22.5718H36.1296H33.2207Z" fill="#00A8E0"/>
<path d="M43.7251 12.1482H46.4724V18.2084L50.3509 12.1482H50.5125H53.3406V22.5718H53.2598H50.4317V16.5924L46.634 22.5718H46.4724H43.5635V12.1482H43.7251Z" fill="#00A8E0"/>
<path d="M55.7627 22.5718V12.1482H55.9243H58.8332V22.5718H58.6716H55.7627Z" fill="#00A8E0"/>
<path d="M61.2593 12.1482H66.269C67.2387 12.1482 67.8851 12.3098 68.3699 12.633C68.7739 12.9562 69.0972 13.3602 69.2588 13.7643C69.3396 13.9259 69.3396 14.1683 69.4204 14.3299C69.4204 14.4915 69.4204 14.6531 69.4204 14.8147C69.4204 15.3803 69.2588 15.7843 68.9355 16.1883C68.6123 16.5924 68.2083 16.8348 67.8043 16.9964C67.8851 16.9964 68.0467 17.0772 68.2083 17.158C68.3699 17.2388 68.5315 17.3196 68.6931 17.4004C69.0163 17.562 69.2588 17.8852 69.582 18.2084C69.8244 18.5316 69.986 19.0165 69.986 19.6629C69.986 19.7437 69.986 19.7437 69.986 19.8245C69.986 19.9053 69.986 19.9053 69.986 19.9861C69.9052 20.6325 69.582 21.1981 69.0972 21.7638C68.6123 22.3294 67.7235 22.5718 66.5923 22.5718H66.4307H61.0977V12.1482H61.2593ZM64.1682 20.4709H65.3802C65.461 20.4709 65.5418 20.4709 65.7034 20.4709C65.865 20.4709 65.9458 20.4709 66.1074 20.3901C66.3499 20.3093 66.5115 20.2285 66.6731 20.0669C66.8347 19.9053 66.9155 19.6629 66.9155 19.3397C66.9155 19.0164 66.8347 18.774 66.6731 18.6124C66.5115 18.4508 66.269 18.37 66.1074 18.2892C66.0266 18.2892 65.865 18.2892 65.7842 18.2892C65.7034 18.2892 65.5418 18.2892 65.461 18.2892H64.249V20.4709H64.1682ZM64.1682 16.2691H65.2186C65.6226 16.2691 65.9458 16.1883 66.1074 16.1075C66.269 15.9459 66.4307 15.7843 66.5115 15.6227C66.5115 15.5419 66.5115 15.5419 66.5115 15.4611C66.5115 15.3803 66.5115 15.3803 66.5115 15.2995C66.5115 15.0571 66.4307 14.8147 66.1882 14.5723C66.0266 14.3299 65.6226 14.2491 65.1378 14.2491H64.0874V16.2691H64.1682Z" fill="#00A8E0"/>
<path d="M83.4812 22.5718V15.0571H80.5723V12.1482H80.7339H89.3798V15.0571H86.5517V22.5718H86.3901H83.6428H83.4812Z" fill="#00A8E0"/>
<path d="M88.0059 22.5718L91.7228 12.1482H91.8844H95.4397L99.1567 22.5718H98.9951H95.8438L95.2781 20.7941H91.8844L91.3188 22.5718H91.1572H88.0059ZM93.5813 14.8147L92.45 18.4508H94.7125L93.5813 14.8147Z" fill="#00A8E0"/>
<path d="M99.6396 22.5718V12.1482H99.8013H104.165C105.296 12.1482 106.104 12.3906 106.67 12.8754C107.235 13.3602 107.558 13.8451 107.801 14.4107C107.882 14.6531 107.882 14.8147 107.962 15.0571C107.962 15.2995 108.043 15.7035 108.043 15.8651C108.043 16.0267 108.043 16.2691 107.962 16.4308C107.962 16.6732 107.882 16.8348 107.801 17.0772C107.639 17.6428 107.235 18.2084 106.67 18.6932C106.104 19.1781 105.296 19.4205 104.165 19.4205H102.71V22.5718H102.549H99.6396ZM102.629 14.4915V17.158H103.276C103.68 17.158 104.003 17.0772 104.245 16.9156C104.407 16.754 104.569 16.5924 104.649 16.4308C104.73 16.35 104.73 16.1883 104.73 16.1075C104.73 16.0267 104.73 15.9459 104.73 15.8651C104.73 15.7843 104.73 15.4611 104.73 15.4611C104.73 15.3803 104.73 15.3803 104.73 15.2995C104.649 15.0571 104.569 14.8955 104.326 14.7339C104.165 14.5723 103.761 14.4915 103.276 14.4915H102.629Z" fill="#00A8E0"/>
<path d="M76.1274 22.8952H76.0466H75.9658H75.885C74.1881 22.8144 72.8953 22.3296 72.0065 21.2792C71.1984 20.3903 70.7944 19.3399 70.6328 18.2086V18.1278V18.047V17.9662C70.6328 17.8854 70.6328 17.8046 70.6328 17.8046V17.7238V17.643V17.5622V17.4814V17.4006V17.3198V17.239V17.1582V17.0774V16.9966C70.6328 16.9158 70.6328 16.835 70.6328 16.835V16.7542V16.6734V16.5926C70.7944 15.4613 71.1984 14.4109 72.0065 13.5221C72.8953 12.4716 74.1881 11.906 75.885 11.906H75.9658H76.0466H76.1274H76.289C76.693 11.906 77.0971 11.906 77.4203 11.9868C78.6323 12.2292 79.4403 12.7948 80.1676 13.6837C80.2484 13.7645 80.2484 13.8453 80.3292 13.8453L78.2283 15.5421C78.1475 15.4613 78.1475 15.4613 78.0667 15.3805C77.6627 14.9765 77.2587 14.6533 76.7738 14.4917C76.693 14.4917 76.5314 14.4109 76.4506 14.4109C76.3698 14.4109 76.289 14.4109 76.289 14.4109C76.2082 14.4109 76.0466 14.4109 75.9658 14.4109C75.885 14.4109 75.8042 14.4109 75.7234 14.4917C75.2386 14.6533 74.8346 14.8957 74.4306 15.3805C74.0265 15.8654 73.8649 16.5118 73.8649 17.4006C73.8649 18.2894 74.0265 18.9359 74.4306 19.4207C74.8346 19.9055 75.2386 20.1479 75.7234 20.3095C75.8042 20.3095 75.885 20.3903 75.9658 20.3903C76.0466 20.3903 76.1274 20.3903 76.289 20.3903C76.3698 20.3903 76.3698 20.3903 76.4506 20.3903C76.5314 20.3903 76.693 20.3095 76.7738 20.3095C77.2587 20.1479 77.6627 19.9055 78.0667 19.4207C78.1475 19.3399 78.1475 19.3399 78.2283 19.2591L80.3292 20.9559C80.2484 21.0367 80.2484 21.1175 80.1676 21.1175C79.4403 22.0064 78.6323 22.572 77.4203 22.8144C77.0162 22.8952 76.693 22.8952 76.289 22.8952H76.1274Z" fill="#00A8E0"/>
<path fill-rule="evenodd" clip-rule="evenodd" d="M53.9065 5.52246C55.4417 5.52246 56.6538 6.7345 56.6538 8.26976C56.6538 9.80501 55.4417 11.0171 53.9065 11.0171C52.3712 11.0171 51.1592 9.80501 51.1592 8.26976C51.1592 6.7345 52.3712 5.52246 53.9065 5.52246ZM60.6939 5.52246C62.2292 5.52246 63.4412 6.7345 63.4412 8.26976C63.4412 9.80501 62.2292 11.0171 60.6939 11.0171C59.1587 11.0171 57.9466 9.80501 57.9466 8.26976C58.0274 6.7345 59.2395 5.52246 60.6939 5.52246Z" fill="#FFCC00"/>
<path fill-rule="evenodd" clip-rule="evenodd" d="M14.3065 0.674072C15.3523 0.674072 16.197 1.51875 16.197 2.56455V9.52312C16.197 10.5689 15.3523 11.4136 14.3065 11.4136C13.2607 11.4136 12.416 10.5689 12.416 9.52312V2.56455C12.416 1.51875 13.2607 0.674072 14.3065 0.674072Z" fill="#00A8E0"/>
<path fill-rule="evenodd" clip-rule="evenodd" d="M0.188357 10.9309C0.51014 9.96554 1.55594 9.40242 2.56151 9.7242L9.15807 11.8962C10.1234 12.218 10.6865 13.2638 10.3648 14.2694C10.043 15.2347 8.99718 15.7979 7.9916 15.4761L1.39504 13.3443C0.389471 12.9823 -0.133427 11.9365 0.188357 10.9309Z" fill="#00A8E0"/>
<path fill-rule="evenodd" clip-rule="evenodd" d="M5.57708 27.543C4.7324 26.9397 4.57151 25.7732 5.17485 24.9285L9.27759 19.2973C9.88093 18.4526 11.0474 18.2917 11.8921 18.8951C12.7368 19.4984 12.8977 20.6649 12.2943 21.5096L8.19157 27.1408C7.58823 27.9854 6.38154 28.1463 5.57708 27.543Z" fill="#00A8E0"/>
<path fill-rule="evenodd" clip-rule="evenodd" d="M23.0358 27.5429C22.1911 28.1463 21.0247 27.9452 20.4213 27.1407L16.3186 21.5095C15.7152 20.6648 15.9164 19.4983 16.7208 18.895C17.5655 18.2917 18.732 18.4928 19.3353 19.2972L23.438 24.9284C24.0414 25.7731 23.8805 26.9396 23.0358 27.5429Z" fill="#00A8E0"/>
<path fill-rule="evenodd" clip-rule="evenodd" d="M28.4245 10.9309C28.7463 11.8962 28.1832 12.9822 27.2178 13.304L20.6213 15.4358C19.6559 15.7576 18.5699 15.1945 18.2481 14.2291C17.9263 13.2638 18.4895 12.1778 19.4548 11.856L26.0514 9.72417C27.0569 9.44261 28.1027 9.96551 28.4245 10.9309Z" fill="#00A8E0"/>
</svg>
