<svg width="36" height="19" viewBox="0 0 36 19" fill="none" xmlns="http://www.w3.org/2000/svg">
<path fill-rule="evenodd" clip-rule="evenodd" d="M8.9004 0.936869H6.0591L6 2.94482H8.85449C8.88071 2.19024 8.9004 1.52087 8.9004 0.936869Z" fill="white"/>
<path fill-rule="evenodd" clip-rule="evenodd" d="M3.96643 0.936712H1.15133C1.16446 2.85937 1.00042 7.34776 0.65918 14.3953L3.36274 14.4084C3.36274 12.6695 3.55958 8.18111 3.96643 0.936712Z" fill="white"/>
<path fill-rule="evenodd" clip-rule="evenodd" d="M8.71752 4.45392H5.96806C5.88932 8.88324 5.76466 12.1971 5.60059 14.3953L8.50101 14.4084C8.48132 13.5226 8.55347 10.2088 8.71752 4.45392Z" fill="white"/>
<path fill-rule="evenodd" clip-rule="evenodd" d="M10.2133 4.39485L9.87207 6.41596L11.2829 6.40281L11.0335 14.3953L13.829 14.4084L13.9011 6.42904H15.7385L16.1454 4.37516H13.8552V4.06674C13.8552 3.22686 13.9602 2.72808 14.1636 2.59033C14.413 2.39997 15.2136 2.32129 16.5588 2.34098L16.9328 0.457701C15.8173 0.405169 15.0036 0.405169 14.4917 0.457701C13.514 0.523307 12.7594 0.792347 12.2344 1.29105C11.7291 1.77006 11.4535 2.70847 11.401 4.09959V4.39485H10.2133Z" fill="white"/>
<path fill-rule="evenodd" clip-rule="evenodd" d="M24.7541 5.93703C23.8879 4.84771 22.6477 4.30309 21.0334 4.30309C19.7144 4.27687 18.5792 4.63774 17.6081 5.37926C16.3416 6.35043 15.646 7.69563 15.5214 9.42801C15.4098 10.9766 15.8035 12.23 16.7157 13.1749C17.5556 14.0411 18.7499 14.5004 20.2919 14.5529C21.6634 14.5923 22.9102 14.4742 24.0454 14.2117L24.4456 12.1578C23.5335 12.5581 22.3721 12.7615 20.9744 12.7615C19.6817 12.7615 18.8811 12.3874 18.553 11.6459C18.3562 11.226 18.2577 10.7864 18.2577 10.3204L18.3168 9.7495H25.653L25.6793 9.51984C25.7712 8.03681 25.4628 6.84259 24.7541 5.93703ZM19.242 6.55386C19.6685 6.10108 20.2394 5.87142 20.9744 5.87796C21.7027 5.87142 22.2605 6.15353 22.6411 6.7113C22.9298 7.1707 23.0414 7.68248 22.9823 8.2534L22.9495 8.50275L18.4545 8.48306C18.5005 7.71532 18.763 7.07226 19.242 6.55386Z" fill="white"/>
<path fill-rule="evenodd" clip-rule="evenodd" d="M30.4035 7.14453L30.4692 4.50005H27.3325L27.2734 7.14453H30.4035Z" fill="white"/>
<path fill-rule="evenodd" clip-rule="evenodd" d="M34.1581 2.92505C33.5478 1.40926 33.1082 0.457775 32.8458 0.0705967H31.0215C31.868 1.60608 32.3995 3.29254 32.6292 5.13644C32.7407 6.0354 32.7802 7.33468 32.7342 9.02768C32.7014 11.1669 32.2421 13.3258 31.3562 15.4978C31.0084 16.3575 30.595 17.2236 30.1094 18.0833H32.137C32.6817 17.2565 33.1673 16.3968 33.5807 15.4978C33.7776 15.0713 33.9613 14.6382 34.1253 14.1986C34.7815 12.3809 35.1293 10.6879 35.1621 9.11959C35.2081 6.82944 34.8734 4.76895 34.1581 2.92505Z" fill="white"/>
<path fill-rule="evenodd" clip-rule="evenodd" d="M26.965 11.8362L26.8994 14.4609H30.0623L30.1279 11.8362H26.965Z" fill="white"/>
</svg>
