<svg width="83" height="32" viewBox="0 0 83 32" fill="none" xmlns="http://www.w3.org/2000/svg">
<path d="M0.685547 11.1588V15.6083L12.7142 14.288V9.47202L0.685547 11.1588ZM4.52409 15.879V31.1263H8.9279V15.4299L4.52409 15.879ZM14.3387 9.24425V31.1263H18.9791V8.5932L14.3387 9.24425ZM19.8436 8.47185V13.5056L26.5443 12.7699V7.53236L19.8436 8.47185ZM19.8436 17.2522V22.3777L24.2422 22.1383V16.8744L19.8436 17.2522ZM19.8436 26.0721V31.1263H26.5443V25.8704L19.8436 26.0721ZM43.8731 5.09429V31.1263H49.9563V4.24107L43.8731 5.09429ZM51.0923 4.08156V10.0695L59.9574 9.09684V2.83799L51.0923 4.08156ZM51.0923 14.5728V20.6717L56.9028 20.3551V14.0763L51.0923 14.5728ZM51.0923 25.1295V31.1263H59.9574V24.8624L51.0923 25.1295ZM28.3173 7.28327V31.1263H33.6032V6.54168L28.3173 7.28327ZM34.5898 25.6282V31.126H42.2626V25.3971L34.5898 25.6282ZM79.8324 2.54363C77.9098 0.731016 75.0909 -0.0124707 72.0076 0.429545V7.07091C73.2562 7.00171 74.2679 7.46411 74.7187 8.39506C75.4305 9.86284 74.6962 12.0651 72.9638 14.1055C70.29 17.2541 63.1798 23.6987 63.1798 23.6987L73.3868 23.3639C79.6234 17.2837 81.8631 13.5931 82.2649 8.98687C82.4761 6.54997 81.5897 4.20196 79.8324 2.54363ZM82.6245 31.1263V24.177L61.9218 24.7994L82.6245 31.1263ZM61.9218 24.7992L61.9239 31.126H82.6245L61.9218 24.7992ZM70.8175 0.578621C64.8032 1.85679 61.8498 6.2722 62.1906 13.4769L68.6032 12.9091C68.3111 8.83874 69.5587 7.87318 70.8206 7.34228L70.8175 0.578621Z" fill="white"/>
</svg>
