<svg width="100" height="62" viewBox="0 0 100 62" fill="none" xmlns="http://www.w3.org/2000/svg">
<g clip-path="url(#clip0)">
<path fill-rule="evenodd" clip-rule="evenodd" d="M4.16218 0.748627H62.9128C64.787 0.748627 66.321 2.27209 66.321 4.13333V12.9983C66.321 14.8596 64.787 16.383 62.9128 16.383H4.16218C2.28804 16.383 0.754028 14.8596 0.754028 12.9983V4.13333C0.754028 2.27209 2.28804 0.748627 4.16218 0.748627V0.748627ZM49.2095 4.33462H50.2673C50.4894 4.33462 50.6713 4.51523 50.6713 4.73582V12.3959C50.6713 12.6164 50.4894 12.7971 50.2673 12.7971H49.2095C48.9873 12.7971 48.8055 12.6164 48.8055 12.3959V4.73582C48.8055 4.51523 48.9873 4.33462 49.2095 4.33462V4.33462ZM53.5033 4.33462H54.5611C54.7833 4.33462 54.9651 4.51523 54.9651 4.73582V12.3959C54.9651 12.6164 54.7833 12.7971 54.5611 12.7971H53.5033C53.2812 12.7971 53.0993 12.6164 53.0993 12.3959V4.73582C53.0993 4.51523 53.2812 4.33462 53.5033 4.33462V4.33462ZM57.7972 4.33462H58.855C59.0771 4.33462 59.259 4.51523 59.259 4.73582V12.3959C59.259 12.6164 59.0771 12.7971 58.855 12.7971H57.7972C57.575 12.7971 57.3932 12.6164 57.3932 12.3959V4.73582C57.3932 4.51523 57.575 4.33462 57.7972 4.33462V4.33462ZM17.6948 6.47022C18.9262 6.47022 19.9257 7.46288 19.9257 8.68578C19.9257 9.90869 18.9262 10.9013 17.6948 10.9013C16.4634 10.9013 15.4639 9.90869 15.4639 8.68578C15.4639 7.46288 16.4634 6.47022 17.6948 6.47022V6.47022ZM9.72072 6.47022C10.9521 6.47022 11.9516 7.46288 11.9516 8.68578C11.9516 9.90869 10.9521 10.9013 9.72072 10.9013C8.48935 10.9013 7.48981 9.90869 7.48981 8.68578C7.48981 7.46288 8.48935 6.47022 9.72072 6.47022V6.47022Z" stroke="#f74d4d" stroke-width="2" stroke-miterlimit="22.9256"/>
<path fill-rule="evenodd" clip-rule="evenodd" d="M4.16218 19.0233H62.9128C64.787 19.0233 66.321 20.5467 66.321 22.408V31.273C66.321 33.1342 64.787 34.6577 62.9128 34.6577H4.16218C2.28804 34.6577 0.754028 33.1342 0.754028 31.273V22.408C0.754028 20.5467 2.28804 19.0233 4.16218 19.0233V19.0233ZM49.2095 22.6092H50.2673C50.4894 22.6092 50.6713 22.7899 50.6713 23.0104V30.6705C50.6713 30.8911 50.4894 31.0717 50.2673 31.0717H49.2095C48.9873 31.0717 48.8055 30.8911 48.8055 30.6705V23.0104C48.8055 22.7899 48.9873 22.6092 49.2095 22.6092ZM53.5033 22.6092H54.5611C54.7833 22.6092 54.9651 22.7899 54.9651 23.0104V30.6705C54.9651 30.8911 54.7833 31.0717 54.5611 31.0717H53.5033C53.2812 31.0717 53.0993 30.8911 53.0993 30.6705V23.0104C53.0993 22.7899 53.2812 22.6092 53.5033 22.6092ZM57.7972 22.6092H58.855C59.0771 22.6092 59.259 22.7899 59.259 23.0104V30.6705C59.259 30.8911 59.0771 31.0717 58.855 31.0717H57.7972C57.575 31.0717 57.3932 30.8911 57.3932 30.6705V23.0104C57.3932 22.7899 57.575 22.6092 57.7972 22.6092ZM17.6948 24.7448C18.9262 24.7448 19.9257 25.7375 19.9257 26.9604C19.9257 28.1833 18.9262 29.176 17.6948 29.176C16.4634 29.176 15.4639 28.1833 15.4639 26.9604C15.4639 25.7375 16.4634 24.7448 17.6948 24.7448ZM9.72072 24.7448C10.9521 24.7448 11.9516 25.7375 11.9516 26.9604C11.9516 28.1833 10.9521 29.176 9.72072 29.176C8.48935 29.176 7.48981 28.1833 7.48981 26.9604C7.48981 25.7375 8.48935 24.7448 9.72072 24.7448Z" stroke="#f74d4d" stroke-width="2" stroke-miterlimit="22.9256"/>
<path fill-rule="evenodd" clip-rule="evenodd" d="M4.16218 37.6026H62.9128C64.787 37.6026 66.321 39.126 66.321 40.9873V49.8523C66.321 51.7135 64.787 53.237 62.9128 53.237H4.16218C2.28804 53.237 0.754028 51.7135 0.754028 49.8523V40.9873C0.754028 39.126 2.28804 37.6026 4.16218 37.6026V37.6026ZM49.2095 41.1886H50.2673C50.4894 41.1886 50.6713 41.3692 50.6713 41.5898V49.2498C50.6713 49.4704 50.4894 49.651 50.2673 49.651H49.2095C48.9873 49.651 48.8055 49.4704 48.8055 49.2498V41.5898C48.8055 41.3692 48.9873 41.1886 49.2095 41.1886ZM53.5033 41.1886H54.5611C54.7833 41.1886 54.9651 41.3692 54.9651 41.5898V49.2498C54.9651 49.4704 54.7833 49.651 54.5611 49.651H53.5033C53.2812 49.651 53.0993 49.4704 53.0993 49.2498V41.5898C53.0993 41.3692 53.2812 41.1886 53.5033 41.1886ZM57.7972 41.1886H58.855C59.0771 41.1886 59.259 41.3692 59.259 41.5898V49.2498C59.259 49.4704 59.0771 49.651 58.855 49.651H57.7972C57.575 49.651 57.3932 49.4704 57.3932 49.2498V41.5898C57.3932 41.3692 57.575 41.1886 57.7972 41.1886ZM17.6948 43.3242C18.9262 43.3242 19.9257 44.3168 19.9257 45.5397C19.9257 46.7626 18.9262 47.7553 17.6948 47.7553C16.4634 47.7553 15.4639 46.7626 15.4639 45.5397C15.4639 44.3168 16.4634 43.3242 17.6948 43.3242ZM9.72072 43.3242C10.9521 43.3242 11.9516 44.3168 11.9516 45.5397C11.9516 46.7626 10.9521 47.7553 9.72072 47.7553C8.48935 47.7553 7.48981 46.7626 7.48981 45.5397C7.48981 44.3168 8.48935 43.3242 9.72072 43.3242Z" stroke="#f74d4d" stroke-width="2" stroke-miterlimit="22.9256"/>
<path d="M66.464 8.22806H95.8393C96.9249 8.22806 97.912 8.66924 98.6269 9.37927C99.3419 10.0893 99.7861 11.0696 99.7861 12.1477V21.0127C99.7861 22.0909 99.3419 23.0711 98.6269 23.7811C97.912 24.4912 96.9249 24.9324 95.8393 24.9324H66.464V23.8639H95.8393C96.6279 23.8639 97.3456 23.5426 97.8662 23.0256C98.3868 22.5086 98.7102 21.7958 98.7102 21.0127V12.1477C98.7102 11.3646 98.3868 10.6518 97.8662 10.1348C97.3456 9.61778 96.6279 9.29655 95.8393 9.29655H66.464V8.22806ZM82.1359 11.814H83.1938C83.4534 11.814 83.6894 11.9188 83.8601 12.0884C84.0309 12.258 84.1364 12.491 84.1364 12.7502V20.4102C84.1364 20.668 84.0309 20.9024 83.8601 21.072C83.6894 21.2416 83.4548 21.3464 83.1938 21.3464H82.1359C81.8777 21.3464 81.6431 21.2402 81.471 21.0706L81.4696 21.072C81.2988 20.9024 81.1933 20.6694 81.1933 20.4102V12.7502C81.1933 12.4924 81.2988 12.258 81.4696 12.0884L81.471 12.0898C81.6431 11.9202 81.8777 11.814 82.1359 11.814ZM83.0605 12.8825H82.2706V20.2751H83.0605V12.8825ZM86.4298 11.814H87.4876C87.7472 11.814 87.9832 11.9188 88.154 12.0884C88.3247 12.258 88.4302 12.491 88.4302 12.7502V20.4102C88.4302 20.668 88.3247 20.9024 88.154 21.072C87.9832 21.2416 87.7486 21.3464 87.4876 21.3464H86.4298C86.1716 21.3464 85.9369 21.2402 85.7648 21.0706L85.7634 21.072C85.5927 20.9024 85.4872 20.6694 85.4872 20.4102V12.7502C85.4872 12.4924 85.5927 12.258 85.7634 12.0884L85.7648 12.0898C85.9369 11.9202 86.1716 11.814 86.4298 11.814ZM87.3544 12.8825H86.5644V20.2751H87.3544V12.8825ZM90.7236 11.814H91.7815C92.0411 11.814 92.2771 11.9188 92.4478 12.0884C92.6186 12.258 92.7241 12.491 92.7241 12.7502V20.4102C92.7241 20.668 92.6186 20.9024 92.4478 21.072C92.2771 21.2416 92.0411 21.3464 91.7815 21.3464H90.7236C90.464 21.3464 90.228 21.2416 90.0573 21.072C89.8865 20.9024 89.781 20.6694 89.781 20.4102V12.7502C89.781 12.4924 89.8865 12.258 90.0573 12.0884C90.228 11.9188 90.464 11.814 90.7236 11.814ZM91.6482 12.8825H90.8583V20.2751H91.6482V12.8825Z" fill="#f74d4d" stroke="#f74d4d" stroke-miterlimit="22.9256" stroke-linecap="round" stroke-linejoin="round"/>
<path d="M66.464 26.5041H95.8393C96.9249 26.5041 97.912 26.9452 98.6269 27.6553C99.3419 28.3653 99.7861 29.3456 99.7861 30.4237V39.2887C99.7861 40.3669 99.3419 41.3471 98.6269 42.0571C97.912 42.7672 96.9249 43.2084 95.8393 43.2084H66.464V42.1399H95.8393C96.6279 42.1399 97.3456 41.8186 97.8662 41.3016C98.3868 40.7846 98.7102 40.0718 98.7102 39.2887V30.4237C98.7102 29.6406 98.3868 28.9278 97.8662 28.4108C97.3456 27.8938 96.6279 27.5725 95.8393 27.5725H66.464V26.5041ZM82.1359 30.0901H83.1938C83.4534 30.0901 83.6894 30.1948 83.8601 30.3644L83.8587 30.3658C84.0295 30.5367 84.1364 30.7697 84.1364 31.0262V38.6862C84.1364 38.944 84.0309 39.1784 83.8601 39.348C83.6894 39.5176 83.4548 39.6224 83.1938 39.6224H82.1359C81.8777 39.6224 81.6431 39.5162 81.471 39.3466L81.4696 39.348C81.2988 39.1784 81.1933 38.9454 81.1933 38.6862V31.0262C81.1933 30.7697 81.2988 30.5367 81.4696 30.3672L81.4723 30.3644C81.6431 30.1948 81.8777 30.0901 82.1359 30.0901ZM83.0605 31.1585H82.2706V38.5511H83.0605V31.1585ZM86.4298 30.0901H87.4876C87.7472 30.0901 87.9832 30.1948 88.154 30.3644L88.1526 30.3658C88.3233 30.5367 88.4302 30.7697 88.4302 31.0262V38.6862C88.4302 38.944 88.3247 39.1784 88.154 39.348C87.9832 39.5176 87.7486 39.6224 87.4876 39.6224H86.4298C86.1716 39.6224 85.9369 39.5162 85.7648 39.3466L85.7634 39.348C85.5927 39.1784 85.4872 38.9454 85.4872 38.6862V31.0262C85.4872 30.7697 85.5927 30.5367 85.7634 30.3672L85.7662 30.3644C85.937 30.1948 86.1716 30.0901 86.4298 30.0901ZM87.3544 31.1585H86.5644V38.5511H87.3544V31.1585ZM90.7236 30.0901H91.7815C92.0411 30.0901 92.2771 30.1948 92.4478 30.3644L92.4464 30.3658C92.6172 30.5367 92.7241 30.7697 92.7241 31.0262V38.6862C92.7241 38.944 92.6186 39.1784 92.4478 39.348C92.2771 39.5176 92.0411 39.6224 91.7815 39.6224H90.7236C90.464 39.6224 90.228 39.5176 90.0573 39.348C89.8865 39.1784 89.781 38.9454 89.781 38.6862V31.0262C89.781 30.7697 89.8879 30.5367 90.0587 30.3658L90.0573 30.3644C90.228 30.1948 90.4626 30.0901 90.7236 30.0901ZM91.6482 31.1585H90.8583V38.5511H91.6482V31.1585Z" fill="#f74d4d" stroke="#f74d4d" stroke-miterlimit="22.9256" stroke-linecap="round" stroke-linejoin="round"/>
<path d="M66.464 45.0834H95.8393C96.9249 45.0834 97.912 45.5246 98.6269 46.2346C99.3419 46.9446 99.7861 47.9249 99.7861 49.003V57.8681C99.7861 58.9462 99.3419 59.9265 98.6269 60.6365C97.912 61.3465 96.9249 61.7877 95.8393 61.7877H37.0886C36.003 61.7877 35.016 61.3465 34.301 60.6365C33.5861 59.9265 33.1418 58.9462 33.1418 57.8681V53.4355H34.2177V57.8681C34.2177 58.6512 34.5412 59.3639 35.0618 59.881C35.5824 60.398 36.3001 60.7192 37.0886 60.7192H95.8393C96.6278 60.7192 97.3456 60.398 97.8662 59.881C98.3868 59.3639 98.7102 58.6512 98.7102 57.8681V49.003C98.7102 48.2199 98.3868 47.5072 97.8662 46.9901C97.3456 46.4731 96.6278 46.1519 95.8393 46.1519H66.464V45.0834ZM82.1359 48.6694H83.1938C83.4534 48.6694 83.6894 48.7742 83.8601 48.9438C84.0309 49.1133 84.1364 49.3463 84.1364 49.6055V57.2656C84.1364 57.5234 84.0309 57.7578 83.8601 57.9273C83.6894 58.0969 83.4548 58.2017 83.1938 58.2017H82.1359C81.8777 58.2017 81.6431 58.0955 81.4709 57.926L81.4696 57.9273C81.2988 57.7578 81.1933 57.5248 81.1933 57.2656V49.6055C81.1933 49.3477 81.2988 49.1133 81.4696 48.9438L81.4709 48.9451C81.6431 48.7756 81.8777 48.6694 82.1359 48.6694ZM83.0605 49.7379H82.2706V57.1305H83.0605V49.7379ZM86.4298 48.6694H87.4876C87.7472 48.6694 87.9832 48.7742 88.154 48.9438C88.3247 49.1133 88.4302 49.3463 88.4302 49.6055V57.2656C88.4302 57.5234 88.3247 57.7578 88.154 57.9273C87.9832 58.0969 87.7486 58.2017 87.4876 58.2017H86.4298C86.1716 58.2017 85.9369 58.0955 85.7648 57.926L85.7634 57.9273C85.5927 57.7578 85.4871 57.5248 85.4871 57.2656V49.6055C85.4871 49.3477 85.5927 49.1133 85.7634 48.9438L85.7648 48.9451C85.9369 48.7756 86.1716 48.6694 86.4298 48.6694ZM87.3543 49.7379H86.5644V57.1305H87.3543V49.7379ZM90.7236 48.6694H91.7815C92.0411 48.6694 92.2771 48.7742 92.4478 48.9438C92.6186 49.1133 92.7241 49.3463 92.7241 49.6055V57.2656C92.7241 57.5234 92.6186 57.7578 92.4478 57.9273C92.2771 58.0969 92.0411 58.2017 91.7815 58.2017H90.7236C90.464 58.2017 90.228 58.0969 90.0573 57.9273C89.8865 57.7578 89.781 57.5248 89.781 57.2656V49.6055C89.781 49.3477 89.8865 49.1133 90.0573 48.9438C90.228 48.7742 90.464 48.6694 90.7236 48.6694ZM91.6482 49.7379H90.8583V57.1305H91.6482V49.7379ZM53.3881 53.4342C53.3895 53.4742 53.3908 53.5141 53.3908 53.5555C53.3908 54.3152 53.0813 55.0017 52.5801 55.4995C52.0789 55.9972 51.3862 56.3046 50.6227 56.3046C49.8577 56.3046 49.1664 55.9972 48.6652 55.4995C48.1641 55.0017 47.8545 54.3138 47.8545 53.5555C47.8545 53.5155 47.8559 53.4742 47.8573 53.4342H48.9346C48.9318 53.4742 48.9304 53.5141 48.9304 53.5555C48.9304 54.0201 49.1206 54.4406 49.426 54.7439C49.7328 55.0486 50.1562 55.2361 50.6227 55.2361C51.0905 55.2361 51.5139 55.0472 51.8193 54.7439C52.1261 54.4392 52.3149 54.0187 52.3149 53.5555C52.3149 53.5155 52.3136 53.4742 52.3108 53.4342H53.3881ZM45.414 53.4342C45.4154 53.4742 45.4167 53.5141 45.4167 53.5555C45.4167 54.3152 45.1072 55.0017 44.606 55.4995C44.1048 55.9972 43.4121 56.3046 42.6486 56.3046C41.8836 56.3046 41.1923 55.9972 40.6911 55.4995C40.19 55.0017 39.8804 54.3138 39.8804 53.5555C39.8804 53.5155 39.8818 53.4742 39.8832 53.4342H40.9605C40.9577 53.4742 40.9563 53.5141 40.9563 53.5555C40.9563 54.0201 41.1465 54.4406 41.4519 54.7439C41.7587 55.0486 42.1821 55.2361 42.6486 55.2361C43.1164 55.2361 43.5398 55.0472 43.8452 54.7439C44.152 54.4392 44.3408 54.0187 44.3408 53.5555C44.3408 53.5155 44.3395 53.4742 44.3367 53.4342H45.414Z" fill="#f74d4d" stroke="#f74d4d" stroke-miterlimit="22.9256" stroke-linecap="round" stroke-linejoin="round"/>
</g>
<defs>
<clipPath id="clip0">
<rect width="100" height="62" fill="white"/>
</clipPath>
</defs>
</svg>
