<svg width="50" height="50" viewBox="0 0 50 50" fill="none" xmlns="http://www.w3.org/2000/svg">
<path d="M48.584 41.2109H47.0703V15.1855C47.0703 13.1662 45.4275 11.5234 43.4082 11.5234H39.2416V1.12305C39.2416 0.503809 38.7378 0 38.1186 0H11.8814C11.2622 0 10.7584 0.503809 10.7584 1.12305V11.5234H6.5918C4.57246 11.5234 2.92969 13.1662 2.92969 15.1855V41.2109H1.41602C0.635254 41.2109 0 41.8462 0 42.627V45.523C0 47.9917 2.0083 50 4.47695 50H45.523C47.9917 50 50 47.9917 50 45.523V42.627C50 41.8462 49.3647 41.2109 48.584 41.2109ZM39.2416 12.9883H43.4082C44.6197 12.9883 45.6055 13.974 45.6055 15.1855V41.2109H43.1641V16.5527C43.1641 15.9335 42.6603 15.4297 42.041 15.4297H39.2416V12.9883ZM12.2232 1.46484H37.7768V30.3067C37.7768 30.7113 38.1046 31.0392 38.5092 31.0392C38.9138 31.0392 39.2416 30.7113 39.2416 30.3067V16.8945H41.6992V41.2109H39.2416V33.7247C39.2416 33.3201 38.9138 32.9923 38.5092 32.9923C38.1046 32.9923 37.7768 33.3201 37.7768 33.7247V41.2109H12.2232V1.46484ZM29.3668 42.6758V44.4824C29.3668 44.5093 29.3448 44.5312 29.318 44.5312H20.6821C20.6552 44.5312 20.6333 44.5093 20.6333 44.4824V42.6758H29.3668ZM4.39453 15.1855C4.39453 13.974 5.38018 12.9883 6.5918 12.9883H10.7584V15.4297H7.95898C7.33975 15.4297 6.83594 15.9335 6.83594 16.5527V41.2109H4.39453V15.1855ZM10.7584 16.8945V41.2109H8.30078V16.8945H10.7584ZM48.5352 45.523C48.5352 47.184 47.184 48.5352 45.523 48.5352H4.47695C2.81602 48.5352 1.46484 47.184 1.46484 45.523V42.6758H19.1685V44.4824C19.1685 45.3171 19.8475 45.9961 20.6821 45.9961H29.318C30.1526 45.9961 30.8316 45.3171 30.8316 44.4824V42.6758H48.5352V45.523ZM21.0576 9.78887C21.0555 9.79443 21.0532 9.7999 21.0512 9.80547L18.768 15.8004C18.624 16.1783 18.8137 16.6015 19.1917 16.7455C19.5695 16.8896 19.9929 16.6998 20.1368 16.3217L20.5258 15.3004H23.1831L23.5678 16.3197C23.7119 16.7027 24.1412 16.886 24.5116 16.7463C24.89 16.6035 25.0812 16.181 24.9383 15.8024L22.6759 9.80723C22.6733 9.80049 22.6706 9.79365 22.6679 9.78701C22.533 9.45947 22.2173 9.24805 21.8632 9.24805H21.8621C21.5076 9.24844 21.1918 9.46084 21.0576 9.78887ZM22.6304 13.8355H21.0837L21.8605 11.7957L22.6304 13.8355ZM29.7599 27.5392C30.0603 27.5392 30.3606 27.4248 30.5895 27.1961L32.3035 25.482C32.7609 25.0245 32.7609 24.2803 32.3035 23.8229L31.0831 22.6025H33.7236C34.3429 22.6025 34.8467 22.0987 34.8467 21.4795V7.44141C34.8467 6.82217 34.3429 6.31836 33.7236 6.31836H24.2339C23.8294 6.31836 23.5015 6.64619 23.5015 7.05078C23.5015 7.45537 23.8294 7.7832 24.2339 7.7832H33.3818V21.1377H29.933L30.2441 20.8267C30.5549 20.5159 30.6655 20.0626 30.5332 19.6437C30.4008 19.2246 30.0496 18.9173 29.6167 18.8415L24.3925 17.9272C24.0161 17.8616 23.6307 17.9833 23.3607 18.2533C23.0907 18.5233 22.9688 18.909 23.0347 19.2851L23.3589 21.1377H16.6182V7.7832H20.8159C21.2204 7.7832 21.5483 7.45537 21.5483 7.05078C21.5483 6.64619 21.2204 6.31836 20.8159 6.31836H16.2764C15.6571 6.31836 15.1533 6.82217 15.1533 7.44141V21.4795C15.1533 22.0987 15.6571 22.6025 16.2764 22.6025H23.6153L23.949 24.5093C24.0247 24.9422 24.3321 25.2933 24.7511 25.4257C25.1699 25.5579 25.6233 25.4473 25.9341 25.1366L26.4025 24.6683L28.9304 27.1961C29.1591 27.4248 29.4595 27.5392 29.7599 27.5392ZM26.4025 23.0825C26.0892 23.0825 25.7945 23.2046 25.573 23.4262L25.2951 23.704L24.5491 19.4418L28.8114 20.1878L28.5335 20.4655C28.3119 20.6872 28.1898 20.9817 28.1898 21.2951C28.1898 21.6085 28.3119 21.9031 28.5335 22.1247L31.0614 24.6525L29.7599 25.9541L27.2321 23.4264C27.0106 23.2046 26.7159 23.0825 26.4025 23.0825ZM22.1354 32.0312H15.8854C15.1046 32.0312 14.4693 32.6665 14.4693 33.4473V35.8887C14.4693 36.6694 15.1046 37.3047 15.8854 37.3047H22.1354C22.9161 37.3047 23.5514 36.6694 23.5514 35.8887V33.4473C23.5514 32.6665 22.9161 32.0312 22.1354 32.0312ZM22.0865 35.8398H15.9342V33.4961H22.0865V35.8398ZM29.9196 16.4366C30.0476 16.6502 30.2806 16.7935 30.5477 16.7935C30.9522 16.7935 31.2801 16.4656 31.2801 16.061V10.1956C31.2801 9.79102 30.9522 9.46318 30.5477 9.46318C30.1431 9.46318 29.8152 9.79102 29.8152 10.1956V11.695C29.445 11.5037 29.0255 11.395 28.5809 11.395C27.0926 11.395 25.8817 12.6059 25.8817 14.0942C25.8817 15.5826 27.0925 16.7935 28.5809 16.7935C29.0679 16.7935 29.5247 16.6632 29.9196 16.4366ZM27.3466 14.0942C27.3466 13.4136 27.9003 12.8599 28.5809 12.8599C29.2615 12.8599 29.8152 13.4136 29.8152 14.0942C29.8152 14.7749 29.2615 15.3286 28.5809 15.3286C27.9003 15.3286 27.3466 14.7749 27.3466 14.0942ZM33.4311 32.0312H27.8647C27.0839 32.0312 26.4486 32.6665 26.4486 33.4473V35.8887C26.4486 36.6694 27.0839 37.3047 27.8647 37.3047H33.4311C34.2118 37.3047 34.8471 36.6694 34.8471 35.8887V33.4473C34.8471 32.6665 34.2118 32.0312 33.4311 32.0312ZM33.3822 35.8398H27.9135V33.4961H33.3822V35.8398Z" fill="#424F63"/>
<path d="M21.0566 9.78887C21.0545 9.79443 21.0522 9.7999 21.0502 9.80547L18.767 15.8004C18.623 16.1783 18.8127 16.6015 19.1907 16.7455C19.5686 16.8896 19.9919 16.6998 20.1358 16.3217L20.5248 15.3004H23.1821L23.5668 16.3197C23.7109 16.7027 24.1402 16.886 24.5106 16.7463C24.8891 16.6035 25.0802 16.181 24.9373 15.8024L22.6749 9.80723C22.6724 9.80049 22.6696 9.79365 22.6669 9.78701C22.532 9.45947 22.2163 9.24805 21.8622 9.24805H21.8611C21.5066 9.24844 21.1908 9.46084 21.0566 9.78887ZM22.6294 13.8355H21.0827L21.8596 11.7957L22.6294 13.8355ZM29.7589 27.5392C30.0593 27.5392 30.3597 27.4248 30.5885 27.1961L32.3025 25.482C32.76 25.0245 32.76 24.2803 32.3025 23.8229L31.0821 22.6025H33.7227C34.3419 22.6025 34.8457 22.0987 34.8457 21.4795V7.44141C34.8457 6.82217 34.3419 6.31836 33.7227 6.31836H24.2329C23.8284 6.31836 23.5005 6.64619 23.5005 7.05078C23.5005 7.45537 23.8284 7.7832 24.2329 7.7832H33.3809V21.1377H29.932L30.2432 20.8267C30.5539 20.5159 30.6646 20.0626 30.5322 19.6437C30.3998 19.2246 30.0486 18.9173 29.6157 18.8415L24.3915 17.9272C24.0151 17.8616 23.6297 17.9833 23.3598 18.2533C23.0897 18.5233 22.9679 18.909 23.0337 19.2851L23.3579 21.1377H16.6172V7.7832H20.8149C21.2194 7.7832 21.5474 7.45537 21.5474 7.05078C21.5474 6.64619 21.2194 6.31836 20.8149 6.31836H16.2754C15.6562 6.31836 15.1523 6.82217 15.1523 7.44141V21.4795C15.1523 22.0987 15.6562 22.6025 16.2754 22.6025H23.6144L23.948 24.5093C24.0237 24.9422 24.3312 25.2933 24.7501 25.4257C25.1689 25.5579 25.6224 25.4473 25.9331 25.1366L26.4016 24.6683L28.9294 27.1961C29.1581 27.4248 29.4585 27.5392 29.7589 27.5392ZM26.4016 23.0825C26.0882 23.0825 25.7936 23.2046 25.5721 23.4262L25.2941 23.704L24.5481 19.4418L28.8104 20.1878L28.5325 20.4655C28.3109 20.6872 28.1889 20.9817 28.1889 21.2951C28.1889 21.6085 28.3109 21.9031 28.5325 22.1247L31.0604 24.6525L29.7589 25.9541L27.2312 23.4264C27.0097 23.2046 26.7149 23.0825 26.4016 23.0825ZM29.9187 16.4366C30.0466 16.6502 30.2796 16.7935 30.5467 16.7935C30.9513 16.7935 31.2791 16.4656 31.2791 16.061V10.1956C31.2791 9.79102 30.9513 9.46318 30.5467 9.46318C30.1421 9.46318 29.8143 9.79102 29.8143 10.1956V11.695C29.444 11.5037 29.0245 11.395 28.5799 11.395C27.0916 11.395 25.8808 12.6059 25.8808 14.0942C25.8808 15.5826 27.0915 16.7935 28.5799 16.7935C29.0669 16.7935 29.5237 16.6632 29.9187 16.4366ZM27.3456 14.0942C27.3456 13.4136 27.8993 12.8599 28.5799 12.8599C29.2605 12.8599 29.8143 13.4136 29.8143 14.0942C29.8143 14.7749 29.2605 15.3286 28.5799 15.3286C27.8993 15.3286 27.3456 14.7749 27.3456 14.0942Z" fill="#6CEF85"/>
</svg>
