<svg width="47" height="50" viewBox="0 0 47 50" fill="none" xmlns="http://www.w3.org/2000/svg">
<g filter="url(#filter0_ii)">
<path d="M0.286146 26.2047L10.9022 34.4981C11.0357 34.6024 11.1941 34.653 11.3513 34.653C11.5689 34.653 11.7842 34.5563 11.9283 34.371C12.1766 34.052 12.1198 33.5918 11.8014 33.3431L2.86221 26.3596H44.1368L27.0016 39.7461H19.9976L14.5075 35.457C14.1889 35.2082 13.7294 35.265 13.4813 35.5842C13.233 35.9032 13.2899 36.3634 13.6083 36.6121L19.072 40.8805L20.3924 48.8168C20.5065 49.5024 21.0929 50 21.7867 50H25.2126C25.9065 50 26.4929 49.5023 26.607 48.8168L27.9274 40.8805L46.7131 26.2047C46.7576 26.1787 46.8813 26.0987 46.9519 25.9375C47.0112 25.802 47.0019 25.68 46.9947 25.6271V22.0972C46.9947 21.3164 46.3605 20.6812 45.5811 20.6812H32.9561C33.116 19.9799 33.1992 19.2615 33.2011 18.5346C34.4747 19.1287 35.8666 19.4386 37.2923 19.4386C42.6421 19.4386 46.9945 15.0783 46.9945 9.71885C46.9945 4.35996 42.6421 9.76563e-05 37.2923 9.76563e-05C36.8431 9.76563e-05 36.3914 0.0311523 35.9499 0.0924805C35.5499 0.147949 35.2706 0.517773 35.3261 0.918457C35.3815 1.31924 35.7509 1.5998 36.1507 1.54336C36.526 1.49131 36.9101 1.46484 37.2923 1.46484C41.8357 1.46484 45.5321 5.16748 45.5321 9.71875C45.5321 14.2705 41.8357 17.9736 37.2923 17.9736C35.7878 17.9736 34.3284 17.5678 33.0512 16.7975C32.5955 14.2374 31.1358 12.0212 29.096 10.5732C29.0668 10.2917 29.0517 10.0056 29.0517 9.71875C29.0517 6.75088 30.6549 3.99727 33.2357 2.53242C33.5871 2.33301 33.7105 1.88604 33.5114 1.53408C33.3123 1.18213 32.8661 1.05869 32.5148 1.25791C29.483 2.97861 27.5977 6.21045 27.5896 9.69619C26.346 9.11465 24.9601 8.78906 23.4995 8.78906C22.0749 8.78906 20.6834 9.09893 19.4092 9.69307C19.3951 4.3459 15.0484 0 9.70703 0C4.35711 0 0.00459645 4.35996 0.00459645 9.71904C0.00459645 15.0781 4.35711 19.438 9.70703 19.438C11.1679 19.438 12.554 19.1123 13.7979 18.5306C13.7995 19.2589 13.8828 19.9785 14.043 20.6811H1.41819C0.638765 20.6811 0.00459645 21.3163 0.00459645 22.0971V25.6271C-0.00203283 25.6795 -0.014219 25.8315 0.0744963 25.9891C0.143324 26.1113 0.238961 26.1768 0.286146 26.2047ZM25.1712 48.5352H21.828L20.6094 41.2109H26.3898L25.1712 48.5352ZM23.897 10.2634C28.2552 10.4703 31.7234 14.1071 31.7393 18.4776C31.7421 19.2274 31.6435 19.9661 31.4494 20.6812H26.6989C26.7227 20.1989 26.6367 19.7222 26.4398 19.2971C26.1089 18.5826 25.5034 18.0526 24.6888 17.7646C24.5193 17.7047 24.3462 17.6421 24.1733 17.5771V14.6765C24.4251 14.7507 24.616 14.861 24.7238 14.9333C24.8538 15.0205 25.0053 15.0769 25.1615 15.0715C25.3667 15.0645 25.5658 14.9763 25.7088 14.8179C25.7244 14.8006 25.7392 14.7827 25.753 14.7643C26.0011 14.4336 25.8911 13.9619 25.5502 13.7283C25.4886 13.6861 25.4232 13.6444 25.3536 13.6042C25.0724 13.4416 24.6715 13.2618 24.1734 13.1762V12.6509C24.1734 12.2498 23.8649 11.9001 23.4647 11.8881C23.0507 11.8756 22.711 12.2081 22.711 12.6202V13.2296C22.6338 13.2479 22.5559 13.2681 22.4766 13.292C21.5207 13.5806 20.8065 14.3991 20.6126 15.4282C20.4352 16.3698 20.7378 17.2796 21.4031 17.8031C21.7384 18.0663 22.1515 18.3073 22.711 18.5599V20.6812H15.5497C15.3582 19.9758 15.2597 19.2473 15.2597 18.5078C15.2597 18.2224 15.2747 17.9363 15.3038 17.6538C17.3435 16.206 18.8032 13.9899 19.2589 11.43C20.6497 10.592 22.2546 10.1854 23.897 10.2634ZM25.2346 20.6811H24.1733V19.1355C24.183 19.1389 24.1921 19.1422 24.2019 19.1457C24.643 19.3018 24.9496 19.56 25.1133 19.9134C25.2198 20.1435 25.26 20.4092 25.2346 20.6811ZM22.7108 14.7699V16.9195C22.5607 16.8326 22.4235 16.7432 22.3056 16.6507C22.0752 16.4694 21.9746 16.0962 22.0494 15.6999C22.1124 15.3656 22.3186 14.9696 22.7108 14.7699ZM9.70703 17.9732C5.16344 17.9732 1.46694 14.2704 1.46694 9.71914C1.46694 5.16768 5.16344 1.46484 9.70703 1.46484C14.2506 1.46484 17.9471 5.16768 17.9471 9.71904C17.9472 14.2704 14.2507 17.9732 9.70703 17.9732ZM45.5321 24.8947H1.46694V22.146H45.5321V24.8947Z" fill="#424F63"/>
</g>
<path d="M10.8959 8.9718C10.7261 8.91165 10.5527 8.84895 10.3793 8.78381V5.88332C10.5634 5.93752 10.7126 6.0092 10.8222 6.07248C11.1165 6.24241 11.4931 6.22707 11.749 6.00334C11.7671 5.98762 11.7847 5.97073 11.802 5.95266C11.8052 5.94924 11.8084 5.94582 11.8115 5.94241C12.1121 5.61731 12.0223 5.09836 11.647 4.86389C11.6187 4.84622 11.5897 4.82873 11.5599 4.81155C11.2787 4.64885 10.8775 4.46907 10.3792 4.38332V3.85774C10.3792 3.45666 10.0708 3.10696 9.67057 3.09495C9.25654 3.08245 8.91688 3.41497 8.91688 3.82707V4.43665C8.83987 4.455 8.76217 4.47502 8.68301 4.49895C7.72664 4.78752 7.01223 5.60647 6.81852 6.63616C6.64139 7.57786 6.94428 8.48723 7.60916 9.00969C7.94404 9.27278 8.357 9.51379 8.91688 9.76663V13.5109C8.46512 13.4665 8.1552 13.3415 7.65313 13.0147C7.3203 12.798 6.86288 12.866 6.63407 13.1909C6.39435 13.5315 6.48579 14.0002 6.831 14.2264C7.64543 14.7601 8.21028 14.9314 8.91688 14.9802V15.5727C8.91688 15.9738 9.22534 16.3235 9.62554 16.3355C10.0396 16.348 10.3792 16.0155 10.3792 15.6033V14.9143C11.7761 14.5974 12.6729 13.4193 12.8678 12.2573C13.1168 10.7737 12.3428 9.48411 10.8959 8.9718ZM8.91698 8.1259C8.76685 8.03899 8.62958 7.94934 8.51172 7.85686C8.28164 7.676 8.18103 7.30334 8.25561 6.90725C8.31849 6.57288 8.52459 6.17688 8.91698 5.97707V8.1259ZM11.4259 12.0143C11.336 12.5495 10.9803 13.1156 10.3793 13.3797V10.3424C10.3893 10.3459 10.3985 10.3493 10.4085 10.3529C11.5437 10.7549 11.4741 11.7262 11.4259 12.0143ZM34.4371 14.24C35.2403 14.7629 35.8014 14.9317 36.5019 14.98V15.5725C36.5019 15.9736 36.8104 16.3233 37.2105 16.3353C37.6246 16.3478 37.9642 16.0153 37.9642 15.6031V14.9141C39.3611 14.5972 40.2579 13.4191 40.4528 12.2571C40.7017 10.7737 39.9277 9.48401 38.4807 8.9717C38.3109 8.91155 38.1375 8.84885 37.9641 8.78372V5.88332C38.2161 5.95754 38.4071 6.06799 38.515 6.14036C38.6442 6.22717 38.7941 6.28391 38.9498 6.28362C39.2006 6.28323 39.4384 6.16809 39.5795 5.96711C39.6212 5.90784 39.653 5.84299 39.6751 5.77502C39.7716 5.47668 39.6436 5.14993 39.3884 4.96838C39.3134 4.91506 39.2325 4.86223 39.1448 4.81155C38.8636 4.64885 38.4624 4.46907 37.9641 4.38332V3.85774C37.9641 3.45666 37.6557 3.10696 37.2555 3.09495C36.8415 3.08245 36.5018 3.41497 36.5018 3.82707V4.43665C36.4248 4.455 36.3471 4.47502 36.2679 4.49895C35.3116 4.78752 34.5971 5.60647 34.4034 6.63616C34.2263 7.57786 34.5292 8.48723 35.1941 9.00969C35.529 9.27278 35.9419 9.51379 36.5018 9.76663V13.5109C36.0437 13.4659 35.7312 13.3379 35.2164 13.0006C34.8538 12.7631 34.3584 12.8895 34.1597 13.2907C33.9938 13.6259 34.1237 14.036 34.4371 14.24ZM37.9643 10.3424C37.9743 10.3459 37.9835 10.3493 37.9935 10.3529C39.1287 10.7548 39.0591 11.7261 39.0109 12.0143C38.921 12.5495 38.5654 13.1156 37.9643 13.3797V10.3424ZM36.0967 7.85686C35.8667 7.676 35.766 7.30334 35.8406 6.90725C35.9035 6.57288 36.1096 6.17688 36.502 5.97707V8.1259C36.3518 8.03899 36.2145 7.94944 36.0967 7.85686Z" fill="#6CEF85"/>
<defs>
<filter id="filter0_ii" x="-0.5" y="-0.5" width="48.5" height="51.5" filterUnits="userSpaceOnUse" color-interpolation-filters="sRGB">
<feFlood flood-opacity="0" result="BackgroundImageFix"/>
<feBlend mode="normal" in="SourceGraphic" in2="BackgroundImageFix" result="shape"/>
<feColorMatrix in="SourceAlpha" type="matrix" values="0 0 0 0 0 0 0 0 0 0 0 0 0 0 0 0 0 0 127 0" result="hardAlpha"/>
<feOffset dx="-0.5" dy="-0.5"/>
<feGaussianBlur stdDeviation="0.25"/>
<feComposite in2="hardAlpha" operator="arithmetic" k2="-1" k3="1"/>
<feColorMatrix type="matrix" values="0 0 0 0 1 0 0 0 0 1 0 0 0 0 1 0 0 0 0.1 0"/>
<feBlend mode="normal" in2="shape" result="effect1_innerShadow"/>
<feColorMatrix in="SourceAlpha" type="matrix" values="0 0 0 0 0 0 0 0 0 0 0 0 0 0 0 0 0 0 127 0" result="hardAlpha"/>
<feOffset dx="1" dy="1"/>
<feGaussianBlur stdDeviation="0.5"/>
<feComposite in2="hardAlpha" operator="arithmetic" k2="-1" k3="1"/>
<feColorMatrix type="matrix" values="0 0 0 0 0.113021 0 0 0 0 0.129167 0 0 0 0 0.145312 0 0 0 0.25 0"/>
<feBlend mode="normal" in2="effect1_innerShadow" result="effect2_innerShadow"/>
</filter>
</defs>
</svg>
