<svg width="36" height="32" viewBox="0 0 36 32" fill="none" xmlns="http://www.w3.org/2000/svg">
<g clip-path="url(#clip0)">
<path d="M2.51071 26.4634C1.27286 26.4634 0 27.4736 0 29.2417C0 30.8581 1.11914 31.9998 2.51071 31.9998C3.65939 31.9998 4.17134 31.2146 4.17134 31.2146V31.5568C4.17134 31.7186 4.32152 31.8991 4.50741 31.8991H5.33772V26.5842H4.17133V27.2587C4.17133 27.2587 3.65509 26.4634 2.5107 26.4634L2.51071 26.4634ZM2.71848 27.5502C3.73751 27.5502 4.27204 28.4629 4.27204 29.2413C4.27204 30.1083 3.63738 30.9317 2.72064 30.9317C1.95431 30.9317 1.18667 30.2997 1.18667 29.2298C1.18667 28.2641 1.84727 27.5502 2.71848 27.5502Z" fill="white"/>
<path d="M6.95888 31.8991C6.77968 31.8991 6.6228 31.7683 6.6228 31.5569V26.5843H7.7892V27.242C8.0535 26.8374 8.56987 26.4619 9.36245 26.4619C10.6579 26.4619 11.3477 27.5135 11.3477 28.4968V31.8991H10.5371C10.3246 31.8991 10.1813 31.718 10.1813 31.5368V28.7585C10.1813 28.2135 9.85335 27.5515 9.0949 27.5515C8.2765 27.5515 7.78919 28.3391 7.78919 29.0806V31.8991H6.95888Z" fill="white"/>
<path d="M14.748 26.4635C13.5102 26.4635 12.2373 27.4736 12.2373 29.2417C12.2373 30.8581 13.3564 31.9998 14.748 31.9998C15.8967 31.9998 16.4086 31.2146 16.4086 31.2146V31.5569C16.4086 31.7186 16.5588 31.8991 16.7447 31.8991H17.575V23.9268H16.4086V27.2587C16.4086 27.2587 15.8924 26.4635 14.748 26.4635V26.4635H14.748ZM14.9558 27.5502C15.9748 27.5502 16.5093 28.4629 16.5093 29.2413C16.5093 30.1083 15.8747 30.9317 14.9579 30.9317C14.1916 30.9317 13.424 30.2997 13.424 29.2298C13.424 28.2641 14.0846 27.5502 14.9558 27.5502Z" fill="white"/>
<path d="M19.1959 31.8991C19.0167 31.8991 18.8599 31.7682 18.8599 31.5569V26.5843H20.0263V27.4701C20.227 26.9738 20.6602 26.5239 21.4299 26.5239C21.6444 26.5239 21.845 26.5641 21.845 26.5641V27.7922C21.845 27.7922 21.5945 27.6915 21.2915 27.6915C20.4731 27.6915 20.0263 28.4792 20.0263 29.2207V31.8991L19.1959 31.8991Z" fill="white"/>
<path d="M28.9225 31.8991C28.7433 31.8991 28.5864 31.7682 28.5864 31.5568V26.5842H29.7528V31.8991L28.9225 31.8991Z" fill="white"/>
<path d="M33.1731 26.4635C31.9352 26.4635 30.6624 27.4736 30.6624 29.2417C30.6624 30.8581 31.7815 31.9998 33.1731 31.9998C34.3217 31.9998 34.8337 31.2146 34.8337 31.2146V31.5569C34.8337 31.7186 34.9839 31.8991 35.1698 31.8991H36.0001V23.9268H34.8337V27.2587C34.8337 27.2587 34.3174 26.4635 33.1731 26.4635V26.4635ZM33.3808 27.5502C34.3998 27.5502 34.9344 28.4629 34.9344 29.2413C34.9344 30.1083 34.2997 30.9317 33.383 30.9317C32.6167 30.9317 31.849 30.2997 31.849 29.2298C31.849 28.2641 32.5096 27.5502 33.3808 27.5502Z" fill="white"/>
<path d="M29.1606 25.4379C29.5867 25.4379 29.9321 25.0862 29.9321 24.6523C29.9321 24.2184 29.5867 23.8667 29.1606 23.8667C28.7346 23.8667 28.3892 24.2184 28.3892 24.6523C28.3892 25.0862 28.7346 25.4379 29.1606 25.4379Z" fill="white"/>
<path d="M24.9213 26.4617C23.625 26.4617 22.2007 27.4471 22.2007 29.2322C22.2007 30.8589 23.4138 32 24.9185 32C26.7729 32 27.6783 30.4819 27.6783 29.2425C27.6783 27.7217 26.5124 26.4617 24.9213 26.4617H24.9213ZM24.9256 27.5709C25.822 27.5709 26.4907 28.3067 26.4907 29.2356C26.4907 30.1806 25.7809 30.9098 24.9282 30.9098C24.1367 30.9098 23.3673 30.2538 23.3673 29.2515C23.3673 28.2324 24.0991 27.5709 24.9256 27.5709V27.5709Z" fill="white"/>
<path d="M26.7885 6.1899L29.7728 0.925425C29.9412 0.630297 29.8394 0.255399 29.5535 0.0839045C29.2676 -0.0875867 28.8955 0.0121163 28.7311 0.307245L25.7076 5.63952C23.4008 4.56668 20.8043 3.96845 18.0119 3.96845C15.2195 3.96845 12.6229 4.56668 10.3162 5.63952L7.29274 0.307245C7.12434 0.012113 6.7562 -0.0875912 6.46638 0.0839045C6.17657 0.255399 6.07866 0.630293 6.24707 0.925425L9.23135 6.1899C4.08522 9.02953 0.599634 14.3339 0.0239258 20.5436H35.9999C35.4242 14.3339 31.9386 9.02953 26.7885 6.1899ZM9.75223 15.3987C8.91804 15.3987 8.24442 14.7088 8.24442 13.8633C8.24442 13.0138 8.92196 12.3278 9.75223 12.3278C10.5864 12.3278 11.26 13.0178 11.26 13.8633C11.264 14.7088 10.5864 15.3987 9.75223 15.3987ZM26.2676 15.3987C25.4335 15.3987 24.7598 14.7088 24.7598 13.8633C24.7598 13.0138 25.4374 12.3278 26.2676 12.3278C27.1018 12.3278 27.7754 13.0178 27.7754 13.8633C27.7794 14.7088 27.1018 15.3987 26.2676 15.3987Z" fill="white"/>
</g>
<defs>
<clipPath id="clip0">
<rect width="36" height="32" fill="white"/>
</clipPath>
</defs>
</svg>
