<svg width="37" height="41" viewBox="0 0 37 41" fill="none" xmlns="http://www.w3.org/2000/svg">
<g filter="url(#filter0_d)">
<path d="M10.4 23.1992C9.76348 23.1992 9.15303 22.9463 8.70294 22.4962C8.25286 22.0461 8 21.4357 8 20.7992V15.9992C8 15.7863 8.08455 15.5822 8.23505 15.4317C8.38554 15.2812 8.58966 15.1967 8.8025 15.1967H10.4C11.0365 15.1967 11.647 15.4495 12.0971 15.8996C12.5471 16.3497 12.8 16.9601 12.8 17.5967V20.7992C12.8 21.4357 12.5471 22.0461 12.0971 22.4962C11.647 22.9463 11.0365 23.1992 10.4 23.1992ZM9.5975 16.7942V20.7992C9.61676 20.9976 9.70923 21.1819 9.85689 21.3159C10.0046 21.4499 10.1968 21.5242 10.3962 21.5242C10.5957 21.5242 10.7879 21.4499 10.9356 21.3159C11.0833 21.1819 11.1757 20.9976 11.195 20.7992V17.5967C11.195 17.3838 11.1105 17.1797 10.96 17.0292C10.8095 16.8787 10.6053 16.7942 10.3925 16.7942H9.5975Z" fill="url(#paint0_linear)"/>
<path d="M8.9296 13.5916H8.8021C8.5923 13.5567 8.40494 13.4399 8.28119 13.2669C8.15744 13.0939 8.10741 12.8789 8.1421 12.6691C8.4602 10.7868 9.29013 9.02831 10.541 7.58623C11.7919 6.14416 13.4155 5.0741 15.2339 4.49324C17.0524 3.91238 18.9957 3.84312 20.8509 4.29305C22.7061 4.74297 24.4017 5.69472 25.7521 7.04409C27.2816 8.56717 28.2942 10.5321 28.6471 12.6616C28.6767 12.7699 28.6832 12.8831 28.6663 12.9941C28.6494 13.1051 28.6094 13.2113 28.5488 13.3058C28.4883 13.4003 28.4086 13.4811 28.3149 13.5429C28.2212 13.6048 28.1156 13.6462 28.0049 13.6647C27.8942 13.6831 27.7808 13.6782 27.6721 13.6501C27.5635 13.622 27.4619 13.5714 27.374 13.5016C27.2861 13.4318 27.2138 13.3443 27.1618 13.2449C27.1098 13.1454 27.0792 13.0361 27.0721 12.9241C26.7247 10.875 25.6632 9.01508 24.0755 7.67392C22.4879 6.33276 20.4767 5.59698 18.3983 5.59698C16.32 5.59698 14.3088 6.33276 12.7212 7.67392C11.1335 9.01508 10.072 10.875 9.7246 12.9241C9.69262 13.1115 9.59515 13.2814 9.44956 13.4037C9.30396 13.5259 9.1197 13.5925 8.9296 13.5916Z" fill="url(#paint1_linear)"/>
<path d="M15.1022 8.79913C14.9275 8.79293 14.7597 8.7299 14.6241 8.61962C14.4886 8.50933 14.3928 8.35782 14.3512 8.1881C14.3096 8.01838 14.3245 7.83972 14.3938 7.67928C14.463 7.51883 14.5827 7.38535 14.7347 7.29913C15.8706 6.72502 17.1256 6.4259 18.3984 6.4259C19.6712 6.4259 20.9262 6.72502 22.0622 7.29913C22.1597 7.34579 22.2468 7.41167 22.3182 7.49283C22.3897 7.57398 22.444 7.66874 22.4779 7.77141C22.5118 7.87407 22.5246 7.98253 22.5155 8.09027C22.5065 8.19801 22.4758 8.30281 22.4252 8.39838C22.3746 8.49394 22.3053 8.57831 22.2213 8.6464C22.1373 8.7145 22.0404 8.76492 21.9365 8.79465C21.8325 8.82437 21.7236 8.83278 21.6164 8.81938C21.5091 8.80597 21.4056 8.77102 21.3122 8.71663C20.4058 8.252 19.4019 8.00967 18.3834 8.00967C17.3649 8.00967 16.361 8.252 15.4547 8.71663C15.3451 8.77087 15.2244 8.79911 15.1022 8.79913Z" fill="url(#paint2_linear)"/>
<path d="M28.0099 15.1967H26.4049C25.7684 15.1967 25.158 15.4495 24.7079 15.8996C24.2578 16.3497 24.0049 16.9601 24.0049 17.5967V20.7992C24.0049 21.4357 24.2578 22.0461 24.7079 22.4962C25.158 22.9463 25.7684 23.1992 26.4049 23.1992C26.6392 23.196 26.8718 23.1581 27.0949 23.0867C26.9495 23.5811 26.6483 24.0155 26.2361 24.3249C25.824 24.6344 25.3229 24.8025 24.8074 24.8042H20.6524C20.464 24.2702 20.0928 23.82 19.6045 23.5333C19.1162 23.2466 18.5422 23.1418 17.9841 23.2374C17.4259 23.333 16.9196 23.6228 16.5545 24.0557C16.1895 24.4886 15.9893 25.0367 15.9893 25.6029C15.9893 26.1692 16.1895 26.7172 16.5545 27.1501C16.9196 27.583 17.4259 27.8729 17.9841 27.9685C18.5422 28.0641 19.1162 27.9592 19.6045 27.6725C20.0928 27.3858 20.464 26.9356 20.6524 26.4017H24.8074C25.867 26.3997 26.8827 25.9779 27.6319 25.2286C28.3812 24.4794 28.803 23.4638 28.8049 22.4042V15.9992C28.8049 15.7876 28.7214 15.5846 28.5726 15.4343C28.4237 15.2841 28.2215 15.1986 28.0099 15.1967ZM18.4024 26.4017C18.2437 26.4017 18.0886 26.3546 17.9566 26.2664C17.8246 26.1782 17.7218 26.0529 17.661 25.9063C17.6003 25.7596 17.5844 25.5983 17.6154 25.4426C17.6463 25.2869 17.7228 25.1439 17.835 25.0317C17.9472 24.9195 18.0902 24.843 18.2459 24.8121C18.4016 24.7811 18.5629 24.797 18.7095 24.8578C18.8562 24.9185 18.9815 25.0213 19.0697 25.1533C19.1579 25.2853 19.2049 25.4404 19.2049 25.5992C19.2049 25.812 19.1204 26.0161 18.9699 26.1666C18.8194 26.3171 18.6153 26.4017 18.4024 26.4017ZM27.2074 20.7992C27.1882 20.9976 27.0957 21.1819 26.9481 21.3159C26.8004 21.4499 26.6081 21.5242 26.4087 21.5242C26.2093 21.5242 26.017 21.4499 25.8693 21.3159C25.7217 21.1819 25.6292 20.9976 25.6099 20.7992V17.5967C25.6099 17.3838 25.6945 17.1797 25.845 17.0292C25.9955 16.8787 26.1996 16.7942 26.4124 16.7942H27.2149L27.2074 20.7992Z" fill="url(#paint3_linear)"/>
</g>
<defs>
<filter id="filter0_d" x="0" y="0" width="36.8049" height="40.0029" filterUnits="userSpaceOnUse" color-interpolation-filters="sRGB">
<feFlood flood-opacity="0" result="BackgroundImageFix"/>
<feColorMatrix in="SourceAlpha" type="matrix" values="0 0 0 0 0 0 0 0 0 0 0 0 0 0 0 0 0 0 127 0"/>
<feOffset dy="4"/>
<feGaussianBlur stdDeviation="4"/>
<feColorMatrix type="matrix" values="0 0 0 0 0.0313725 0 0 0 0 0.937255 0 0 0 0 0.498039 0 0 0 0.2 0"/>
<feBlend mode="normal" in2="BackgroundImageFix" result="effect1_dropShadow"/>
<feBlend mode="normal" in="SourceGraphic" in2="effect1_dropShadow" result="shape"/>
</filter>
<linearGradient id="paint0_linear" x1="9.53191" y1="15.1967" x2="11.8915" y2="15.75" gradientUnits="userSpaceOnUse">
<stop stop-color="#08EE7F"/>
<stop offset="1" stop-color="#20CF92"/>
</linearGradient>
<linearGradient id="paint1_linear" x1="14.688" y1="4" x2="20.9958" y2="9.23624" gradientUnits="userSpaceOnUse">
<stop stop-color="#08EE7F"/>
<stop offset="1" stop-color="#20CF92"/>
</linearGradient>
<linearGradient id="paint2_linear" x1="16.942" y1="6.4259" x2="18.4696" y2="8.46431" gradientUnits="userSpaceOnUse">
<stop stop-color="#08EE7F"/>
<stop offset="1" stop-color="#20CF92"/>
</linearGradient>
<linearGradient id="paint3_linear" x1="20.0794" y1="15.1967" x2="25.8435" y2="17.4518" gradientUnits="userSpaceOnUse">
<stop stop-color="#08EE7F"/>
<stop offset="1" stop-color="#20CF92"/>
</linearGradient>
</defs>
</svg>
