<svg width="90" height="90" viewBox="0 0 90 90" fill="none" xmlns="http://www.w3.org/2000/svg">
<rect width="90" height="90" rx="5" fill="#05AB41"/>
<rect x="17" y="25" width="56" height="40" rx="2" fill="#05AB41"/>
<mask id="mask0" style="mask-type:alpha" maskUnits="userSpaceOnUse" x="17" y="25" width="56" height="40">
<rect x="17" y="25" width="56" height="40" rx="2" fill="white"/>
</mask>
<g mask="url(#mask0)">
<path fill-rule="evenodd" clip-rule="evenodd" d="M23.199 45.5597C22.793 45.297 22.793 44.703 23.199 44.4403L44.6385 30.5677C44.8589 30.4251 45.1424 30.4251 45.3628 30.5677L66.8023 44.4403C67.2083 44.703 67.2083 45.297 66.8023 45.5597L45.3628 59.4323C45.1424 59.5749 44.8589 59.5749 44.6385 59.4323L23.199 45.5597Z" fill="#FDD216"/>
<path fill-rule="evenodd" clip-rule="evenodd" d="M44.9993 54.3334C50.154 54.3334 54.3327 50.1547 54.3327 45C54.3327 39.8454 50.154 35.6667 44.9993 35.6667C39.8447 35.6667 35.666 39.8454 35.666 45C35.666 50.1547 39.8447 54.3334 44.9993 54.3334Z" fill="#053087"/>
<mask id="mask1" style="mask-type:alpha" maskUnits="userSpaceOnUse" x="35" y="35" width="20" height="20">
<path fill-rule="evenodd" clip-rule="evenodd" d="M44.9993 54.3334C50.154 54.3334 54.3327 50.1547 54.3327 45C54.3327 39.8454 50.154 35.6667 44.9993 35.6667C39.8447 35.6667 35.666 39.8454 35.666 45C35.666 50.1547 39.8447 54.3334 44.9993 54.3334Z" fill="white"/>
</mask>
<g mask="url(#mask1)">
<path d="M34.5588 42.5605C36.0242 41.3739 40.7529 42.498 45.167 43.6755C49.5811 44.853 54.1849 47.321 55.3571 48.7686" stroke="#05AB41" stroke-width="1.33333" stroke-linecap="square"/>
</g>
</g>
</svg>
