<svg width="90" height="90" viewBox="0 0 90 90" fill="none" xmlns="http://www.w3.org/2000/svg">
<rect width="90" height="90" rx="5" fill="white"/>
<rect width="25" height="90" fill="#FF3131"/>
<rect x="25" width="40" height="90" fill="white"/>
<path fill-rule="evenodd" clip-rule="evenodd" d="M49.207 44.2215C48.9738 44.4547 48.5798 44.2439 48.6445 43.9205L50.1429 36.4286L46.7143 38.1429L45 33L43.2857 38.1429L39.8571 36.4286L41.3555 43.9205C41.4202 44.2439 41.0262 44.4547 40.793 44.2215L38.3786 41.8071C38.2484 41.677 38.0373 41.677 37.9072 41.8071L36.4286 43.2857L33 41.5714L34.7143 45L33.2357 46.4786C33.1055 46.6088 33.1055 46.8198 33.2357 46.95L38.1429 51.8571H43.2857L44.1429 57H45.8571L46.7143 51.8571H51.8571L56.7643 46.95C56.8945 46.8198 56.8945 46.6088 56.7643 46.4786L55.2857 45L57 41.5714L53.5714 43.2857L52.0928 41.8071C51.9627 41.677 51.7516 41.677 51.6214 41.8071L49.207 44.2215Z" fill="#FF3131"/>
<rect x="65" width="25" height="90" fill="#FF3131"/>
</svg>
