<svg width="90" height="90" viewBox="0 0 90 90" fill="none" xmlns="http://www.w3.org/2000/svg">
<rect width="90" height="90" rx="5" fill="#F1361D"/>
<path fill-rule="evenodd" clip-rule="evenodd" d="M30.8203 13.78L33.2068 14.1942L34.9967 15.854L35.4036 13.4241L37.0337 11.6016L34.6472 11.1873L32.8573 9.52759L32.4504 11.9575L30.8203 13.78ZM37.2152 22.279L39.2832 20.9975L41.7035 21.0545L40.4449 18.9488L40.5009 16.4845L38.4328 17.766L36.0125 17.709L37.2711 19.8147L37.2152 22.279ZM34.4061 36.036L32.3833 37.3902L32.3547 34.9254L31.0247 32.8658L33.4455 32.8367L35.4684 31.4825L35.4969 33.9473L36.8269 36.007L34.4061 36.036ZM36.1675 29.6643L38.5737 29.3928L40.7436 30.4859L40.4769 28.0359L41.5505 25.8266L39.1443 26.0981L36.9744 25.005L37.2411 27.455L36.1675 29.6643Z" fill="#FFDC42"/>
<path fill-rule="evenodd" clip-rule="evenodd" d="M22.4294 26.6415L16.6355 30.8469L18.7733 23.9369L13.0547 19.6259L20.1698 19.5607L22.4294 12.691L24.689 19.5607L31.8041 19.6259L26.0855 23.9369L28.2233 30.8469L22.4294 26.6415Z" fill="#FFDC42"/>
</svg>
