<svg width="90" height="90" viewBox="0 0 90 90" fill="none" xmlns="http://www.w3.org/2000/svg">
<rect width="90" height="90" rx="5" fill="#F0371D"/>
<path fill-rule="evenodd" clip-rule="evenodd" d="M44.4513 40.8006C46.6195 38.9858 46.7514 38.58 47.2709 36.9811C47.4443 36.4474 47.322 36.0091 47.1776 35.4914C46.9693 34.745 46.715 33.8337 47.2349 32.2337C44.8692 31.465 42.1206 33.3989 41.0957 36.5532C40.0708 39.7075 41.1578 42.8876 43.5235 43.6563C43.947 43.7939 43.8995 43.6944 43.7709 43.425C43.5454 42.9523 43.0702 41.9566 44.4513 40.8006ZM39.963 44.1154C38.907 41.4925 38.5618 41.2417 37.2017 40.2535C36.7477 39.9237 36.2931 39.9045 35.7561 39.8819C34.9819 39.8494 34.0365 39.8096 32.6755 38.8207C31.2134 40.8331 32.2033 44.0448 34.8865 45.9943C37.5697 47.9437 40.9301 47.8927 42.3922 45.8803C42.6539 45.5201 42.5446 45.5345 42.2487 45.5735C41.7294 45.6419 40.6356 45.7861 39.963 44.1154ZM53.4977 45.5481C51.8166 45.5481 51.3898 45.5481 48.9938 44.0468C47.4676 43.0905 46.6675 43.8501 46.2876 44.2107C46.0711 44.4162 45.9912 44.4921 45.9912 44.0468C45.9912 41.5593 48.6798 39.5429 51.9964 39.5429C55.313 39.5429 58.0016 41.5593 58.0016 44.0468C56.3193 44.0468 55.5311 44.5702 54.8856 44.999C54.4379 45.2963 54.0589 45.5481 53.4977 45.5481ZM53.4962 42.7245C53.4962 43.139 53.1602 43.4751 52.7456 43.4751C52.331 43.4751 51.9949 43.139 51.9949 42.7245C51.9949 42.3099 52.331 41.9738 52.7456 41.9738C53.1602 41.9738 53.4962 42.3099 53.4962 42.7245ZM47.311 49.3677C46.6236 52.1104 46.7555 52.5163 47.275 54.1151C47.4484 54.6488 47.805 54.9315 48.2261 55.2654C48.8333 55.7469 49.5747 56.3347 50.0946 57.9347C52.4603 57.166 53.5472 53.9859 52.5223 50.8316C51.4975 47.6773 48.7489 45.7434 46.3831 46.5121C45.9596 46.6497 46.0565 46.7023 46.3189 46.8447C46.7792 47.0945 47.7489 47.6208 47.311 49.3677ZM49.9592 53.2426C49.5649 53.3708 49.1414 53.155 49.0133 52.7607C48.8852 52.3664 49.101 51.9429 49.4953 51.8148C49.8896 51.6867 50.3131 51.9025 50.4412 52.2968C50.5693 52.691 50.3535 53.1145 49.9592 53.2426ZM41.7284 49.4101C38.9075 49.6038 38.5623 49.8547 37.2022 50.8428C36.7482 51.1727 36.5895 51.5992 36.4021 52.1029C36.1319 52.8291 35.8019 53.7159 34.4409 54.7048C35.903 56.7171 39.2634 56.7682 41.9466 54.8187C44.6297 52.8693 45.6196 49.6576 44.1575 47.6452C43.8958 47.2849 43.8757 47.3933 43.8214 47.6869C43.726 48.2018 43.5251 49.2867 41.7284 49.4101ZM38.8638 53.1272C38.6201 52.7918 38.6945 52.3223 39.0299 52.0787C39.3653 51.835 39.8347 51.9093 40.0784 52.2447C40.3221 52.5801 40.2477 53.0496 39.9123 53.2932C39.5769 53.5369 39.1075 53.4626 38.8638 53.1272ZM35.5408 42.5378C35.7844 42.2024 36.2539 42.128 36.5893 42.3717C36.9247 42.6154 36.999 43.0848 36.7553 43.4202C36.5117 43.7556 36.0422 43.8299 35.7068 43.5863C35.3714 43.3426 35.2971 42.8731 35.5408 42.5378ZM44.5884 36.1087C44.9827 36.2368 45.1985 36.6603 45.0704 37.0546C44.9422 37.4489 44.5188 37.6646 44.1245 37.5365C43.7302 37.4084 43.5144 36.9849 43.6425 36.5907C43.7706 36.1964 44.1941 35.9806 44.5884 36.1087Z" fill="white"/>
</svg>
