<svg width="90" height="90" viewBox="0 0 90 90" fill="none" xmlns="http://www.w3.org/2000/svg">
<rect width="90" height="90" rx="5" fill="white"/>
<rect width="90" height="28" fill="#DD172C"/>
<rect y="28" width="90" height="34" fill="#FFD133"/>
<path fill-rule="evenodd" clip-rule="evenodd" d="M20.166 43.8998H23.2335V45.4336H20.166V43.8998Z" fill="#FFEDB1"/>
<path d="M16.7302 43.0603C16.714 42.866 16.8674 42.6993 17.0624 42.6993H23.2822C23.4772 42.6993 23.6305 42.866 23.6144 43.0603L23.0095 50.3183C22.9663 50.8365 22.5331 51.2352 22.013 51.2352H18.3316C17.8115 51.2352 17.3783 50.8365 17.3351 50.3183L16.7302 43.0603Z" stroke="#A41517" stroke-width="0.666667"/>
<path fill-rule="evenodd" clip-rule="evenodd" d="M17.1016 45.4335H23.2366V46.9673H21.7029L20.1691 50.0348L18.6353 46.9673H17.1016V45.4335Z" fill="#A41517"/>
<rect x="12.5" y="40.8323" width="3.06753" height="10.7363" rx="0.666667" fill="#A41517"/>
<rect x="24.7676" y="40.8323" width="3.06753" height="10.7363" rx="0.666667" fill="#A41517"/>
<path d="M17.1016 39.098C17.1016 38.3616 17.6985 37.7646 18.4349 37.7646H21.9033C22.6397 37.7646 23.2366 38.3616 23.2366 39.098V40.4988C23.2366 40.6829 23.0874 40.8322 22.9033 40.8322H17.4349C17.2508 40.8322 17.1016 40.6829 17.1016 40.4988V39.098Z" fill="#A41517"/>
<rect y="62" width="90" height="28" fill="#DD172C"/>
</svg>
