<svg width="90" height="90" viewBox="0 0 90 90" fill="none" xmlns="http://www.w3.org/2000/svg">
<rect width="90" height="90" rx="5" fill="#043CAE"/>
<path fill-rule="evenodd" clip-rule="evenodd" d="M42.7768 31.2628L44.9991 30.6L47.2215 31.2628L46.5705 29L47.2215 26.7373L44.9991 27.4L42.7768 26.7373L43.4277 29L42.7768 31.2628ZM42.7768 63.2628L44.9991 62.6L47.2215 63.2628L46.5705 61L47.2215 58.7373L44.9991 59.4L42.7768 58.7373L43.4277 61L42.7768 63.2628ZM60.7134 46.6L58.4911 47.2628L59.142 45L58.4911 42.7373L60.7134 43.4L62.9357 42.7373L62.2848 45L62.9357 47.2628L60.7134 46.6ZM27.0625 47.2628L29.2848 46.6L31.5072 47.2628L30.8563 45L31.5072 42.7373L29.2848 43.4L27.0625 42.7373L27.7134 45L27.0625 47.2628ZM58.6081 38.6L56.3858 39.2628L57.0367 37L56.3858 34.7373L58.6081 35.4L60.8304 34.7373L60.1795 37L60.8304 39.2628L58.6081 38.6ZM29.1678 55.2628L31.3902 54.6L33.6125 55.2628L32.9616 53L33.6125 50.7373L31.3902 51.4L29.1678 50.7373L29.8187 53L29.1678 55.2628ZM52.8563 32.7436L50.6339 33.4064L51.2848 31.1436L50.6339 28.8809L52.8563 29.5436L55.0786 28.8809L54.4277 31.1436L55.0786 33.4064L52.8563 32.7436ZM34.9196 61.1192L37.142 60.4565L39.3643 61.1192L38.7134 58.8565L39.3643 56.5937L37.142 57.2565L34.9196 56.5937L35.5706 58.8565L34.9196 61.1192ZM58.6081 54.6L56.3858 55.2628L57.0367 53L56.3858 50.7373L58.6081 51.4L60.8304 50.7373L60.1795 53L60.8304 55.2628L58.6081 54.6ZM29.1678 39.2628L31.3902 38.6L33.6125 39.2628L32.9616 37L33.6125 34.7373L31.3902 35.4L29.1678 34.7373L29.8187 37L29.1678 39.2628ZM52.8563 60.4565L50.6339 61.1192L51.2848 58.8565L50.6339 56.5937L52.8563 57.2565L55.0786 56.5937L54.4277 58.8565L55.0786 61.1192L52.8563 60.4565ZM34.9196 33.4064L37.142 32.7436L39.3643 33.4064L38.7134 31.1436L39.3643 28.8809L37.142 29.5436L34.9196 28.8809L35.5706 31.1436L34.9196 33.4064Z" fill="#FFD429"/>
</svg>
