<svg width="90" height="90" viewBox="0 0 90 90" fill="none" xmlns="http://www.w3.org/2000/svg">
<rect width="90" height="90" rx="5" fill="white"/>
<rect width="90" height="30" fill="#FFA44A"/>
<rect x="15.25" y="30.2501" width="59.5" height="29.5" fill="white" stroke="#F5F5F5" stroke-width="0.5"/>
<path d="M45 50.3334C47.9455 50.3334 50.3333 47.9456 50.3333 45.0001C50.3333 42.0545 47.9455 39.6667 45 39.6667C42.0545 39.6667 39.6667 42.0545 39.6667 45.0001C39.6667 47.9456 42.0545 50.3334 45 50.3334Z" fill="#181A93" fill-opacity="0.15" stroke="#181A93" stroke-width="0.666667"/>
<path fill-rule="evenodd" clip-rule="evenodd" d="M45.0026 46.6668C45.9231 46.6668 46.6693 45.9206 46.6693 45.0002C46.6693 44.0797 45.9231 43.3335 45.0026 43.3335C44.0821 43.3335 43.3359 44.0797 43.3359 45.0002C43.3359 45.9206 44.0821 46.6668 45.0026 46.6668Z" fill="#181A93"/>
<rect y="60" width="90" height="30" fill="#1A9F0B"/>
</svg>
