<svg width="90" height="90" viewBox="0 0 90 90" fill="none" xmlns="http://www.w3.org/2000/svg">
<rect width="90" height="90" rx="5" fill="url(#paint0_linear)"/>
<path d="M51.75 27H38.25C32.0378 27 27 32.0378 27 38.25V51.75C27 57.9622 32.0378 63 38.25 63H51.75C57.9622 63 63 57.9622 63 51.75V38.25C63 32.0378 57.9622 27 51.75 27ZM59.625 51.75C59.625 56.0925 56.0925 59.625 51.75 59.625H38.25C33.9075 59.625 30.375 56.0925 30.375 51.75V38.25C30.375 33.9075 33.9075 30.375 38.25 30.375H51.75C56.0925 30.375 59.625 33.9075 59.625 38.25V51.75Z" fill="white"/>
<path d="M45 36C40.0298 36 36 40.0297 36 45C36 49.9703 40.0298 54 45 54C49.9703 54 54 49.9703 54 45C54 40.0297 49.9703 36 45 36ZM45 50.625C41.8995 50.625 39.375 48.1005 39.375 45C39.375 41.8973 41.8995 39.375 45 39.375C48.1005 39.375 50.625 41.8973 50.625 45C50.625 48.1005 48.1005 50.625 45 50.625Z" fill="white"/>
<path d="M54.6758 36.5242C55.3381 36.5242 55.8751 35.9873 55.8751 35.325C55.8751 34.6627 55.3381 34.1257 54.6758 34.1257C54.0135 34.1257 53.4766 34.6627 53.4766 35.325C53.4766 35.9873 54.0135 36.5242 54.6758 36.5242Z" fill="white"/>
<defs>
<linearGradient id="paint0_linear" x1="8.23865" y1="81.7619" x2="81.7613" y2="8.23809" gradientUnits="userSpaceOnUse">
<stop stop-color="#FFC107"/>
<stop offset="0.507" stop-color="#F44336"/>
<stop offset="0.99" stop-color="#9C27B0"/>
</linearGradient>
</defs>
</svg>
