<svg width="90" height="90" viewBox="0 0 90 90" fill="none" xmlns="http://www.w3.org/2000/svg">
<rect width="90" height="90" rx="6" fill="#E92434"/>
<path fill-rule="evenodd" clip-rule="evenodd" d="M54.0801 46.4354L51.7918 49.2098L51.9476 45.6169L48.6019 44.2979L52.0672 43.3359L52.2877 39.7463L54.2735 42.7447L57.7555 41.8452L55.5175 44.6603L57.449 47.694L54.0801 46.4354Z" fill="white"/>
<path fill-rule="evenodd" clip-rule="evenodd" d="M51.052 51.8883C49.0006 54.5184 45.8017 56.2097 42.2077 56.2097C36.0168 56.2097 30.998 51.191 30.998 45C30.998 38.8091 36.0168 33.7903 42.2077 33.7903C45.8019 33.7903 49.001 35.4819 51.0524 38.1123C49.4706 36.9648 47.4831 36.2815 45.3245 36.2815C40.1654 36.2815 35.9831 40.185 35.9831 45.0001C35.9831 49.8153 40.1654 53.7188 45.3245 53.7188C47.4829 53.7188 49.4703 53.0356 51.052 51.8883Z" fill="white"/>
</svg>
