<svg width="40" height="30" viewBox="0 0 40 30" fill="none" xmlns="http://www.w3.org/2000/svg">
<path fill-rule="evenodd" clip-rule="evenodd" d="M35.6505 1.85345C37.3637 2.31487 38.7147 3.66558 39.1759 5.37913C40.0328 8.509 39.9998 15.033 39.9998 15.033C39.9998 15.033 39.9998 21.5238 39.1762 24.6539C38.7147 26.3672 37.364 27.7182 35.6505 28.1793C32.5203 29.0033 19.9999 29.0033 19.9999 29.0033C19.9999 29.0033 7.51217 29.0033 4.34935 28.1467C2.63579 27.6852 1.28509 26.3342 0.823666 24.621C0 21.5238 0 15.0001 0 15.0001C0 15.0001 0 8.509 0.823666 5.37913C1.28478 3.66588 2.66875 2.28192 4.34904 1.8208C7.47922 0.996826 19.9996 0.996826 19.9996 0.996826C19.9996 0.996826 32.5203 0.996826 35.6505 1.85345ZM26.4234 15L16.0117 20.9967V9.0033L26.4234 15Z" fill="white"/>
</svg>
