<svg width="153" height="180" viewBox="0 0 153 180" fill="none" xmlns="http://www.w3.org/2000/svg">
<g clip-path="url(#clip0)">
<path d="M14.6376 109.357C14.578 109.357 14.5129 109.341 14.4587 109.309L9.21964 106.233C8.87797 106.034 8.6773 105.679 8.68272 105.285C8.68815 104.892 8.89966 104.542 9.24676 104.348L47.4493 83.1921C48.6967 82.5027 49.4722 81.1939 49.4722 79.7774V59.5261C49.4722 59.1867 49.6512 58.8797 49.9495 58.7074C50.2478 58.535 50.6003 58.535 50.8986 58.7074L54.5106 60.7756C54.6787 60.8726 54.7384 61.088 54.6408 61.255C54.5431 61.4219 54.3316 61.4812 54.1581 61.3842L50.5461 59.316C50.4376 59.2514 50.34 59.2945 50.302 59.316C50.2641 59.3375 50.1773 59.4022 50.1773 59.5261V79.7774C50.1773 81.4471 49.2661 82.9929 47.7964 83.8061L9.59386 104.962C9.41489 105.059 9.39319 105.226 9.39319 105.296C9.39319 105.366 9.40946 105.533 9.58301 105.636L14.822 108.711C14.9902 108.808 15.0444 109.023 14.9468 109.19C14.8763 109.298 14.7624 109.357 14.6376 109.357Z" fill="#38527A"/>
<path d="M17.226 112.111L18.6719 109.607L13.2284 106.507L11.7825 109.012L17.226 112.111Z" fill="#38527A"/>
<path d="M11.4766 108.35C11.4766 107.698 11.9321 106.907 12.5016 106.578C13.071 106.25 13.532 106.513 13.532 107.165C13.532 107.817 13.0765 108.609 12.507 108.937C11.943 109.26 11.482 109.002 11.4766 108.35Z" fill="#38527A"/>
<path d="M24.3609 117.213L26.7051 113.152L18.1658 108.29L15.8216 112.35L24.3609 117.213Z" fill="#38527A"/>
<path d="M17.7783 109.093L15.9344 108.043C15.1697 108.587 14.5731 109.621 14.4863 110.548L16.3303 111.598C17.0896 111.054 17.6916 110.02 17.7783 109.093Z" fill="#283446"/>
<path d="M15.3321 111.275C15.3266 110.219 16.0696 108.937 16.9916 108.404C17.9082 107.876 18.6566 108.302 18.662 109.352C18.6675 110.408 17.9245 111.689 17.0025 112.223C16.0859 112.756 15.3375 112.33 15.3321 111.275Z" fill="#38527A"/>
<path d="M13.1964 107.682C12.9306 107.531 12.9306 107.284 13.1964 107.127C13.4621 106.971 13.896 106.971 14.1617 107.122C14.4275 107.273 14.4275 107.521 14.1617 107.677C13.896 107.833 13.4621 107.833 13.1964 107.682Z" fill="url(#paint0_linear)"/>
<path d="M58.5599 65.1401L60.0059 62.6357L54.5624 59.5361L53.1165 62.0405L58.5599 65.1401Z" fill="#38527A"/>
<path d="M52.8135 61.3788C52.8135 60.7271 53.269 59.9354 53.8385 59.6068C54.408 59.2783 54.8689 59.5422 54.8689 60.1939C54.8689 60.8456 54.4134 61.6373 53.8439 61.9659C53.2745 62.2944 52.8135 62.0305 52.8135 61.3788Z" fill="#38527A"/>
<path d="M65.7017 70.2398L68.0459 66.1796L59.5067 61.3172L57.1624 65.3775L65.7017 70.2398Z" fill="#38527A"/>
<path d="M59.1104 62.1274L57.2664 61.0771C56.5017 61.6211 55.9051 62.6552 55.8184 63.5816L57.6623 64.6319C58.427 64.0879 59.0236 63.0538 59.1104 62.1274Z" fill="#283446"/>
<path d="M56.67 64.3034C56.6645 63.2477 57.4075 61.9659 58.3295 61.4326C59.2461 60.9048 59.9945 61.3303 59.9999 62.3806C60.0054 63.4308 59.2623 64.7181 58.3404 65.2513C57.4184 65.7845 56.67 65.359 56.67 64.3034Z" fill="#38527A"/>
<path d="M54.5333 60.711C54.2675 60.5602 54.2675 60.3124 54.5333 60.1562C54.799 60.0054 55.2329 60 55.4987 60.1509C55.7644 60.3017 55.7644 60.5494 55.4987 60.7056C55.2275 60.8618 54.799 60.8618 54.5333 60.711Z" fill="url(#paint1_linear)"/>
<path d="M75.6027 73.6589C75.4834 73.6589 75.3641 73.5942 75.299 73.4865C75.2014 73.3196 75.261 73.1041 75.4291 73.0072L88.5972 65.456C89.7036 64.8204 90.3923 63.6355 90.3923 62.3644V42.6463C90.3923 42.2585 90.593 41.9084 90.9347 41.7145C91.2764 41.5206 91.6777 41.5206 92.0194 41.7145L113.301 53.9623V37.5027C113.301 37.3088 113.458 37.1526 113.653 37.1526C113.849 37.1526 114.006 37.3088 114.006 37.5027V54.5709C114.006 54.6948 113.941 54.8133 113.827 54.8725C113.718 54.9371 113.583 54.9371 113.474 54.8725L91.656 42.3231C91.4879 42.2262 91.336 42.2908 91.2818 42.3231C91.2276 42.3555 91.092 42.4524 91.092 42.6463V62.3698C91.092 63.8887 90.2676 65.3052 88.9443 66.0646L75.7762 73.6158C75.722 73.6427 75.6569 73.6589 75.6027 73.6589Z" fill="#38527A"/>
<path d="M101.939 88.3573C101.819 88.3573 101.7 88.2927 101.635 88.185C101.537 88.018 101.597 87.8025 101.765 87.7056L118.144 78.3178C119.25 77.6823 119.939 76.4973 119.939 75.2262V41.2568C119.939 41.0629 120.096 40.9067 120.291 40.9067C120.487 40.9067 120.644 41.0629 120.644 41.2568V75.2262C120.644 76.7451 119.82 78.1616 118.496 78.921L102.118 88.3088C102.058 88.3465 101.998 88.3573 101.939 88.3573Z" fill="#38527A"/>
<path d="M131.301 104.688C131.171 104.688 131.041 104.618 130.97 104.499C130.867 104.321 130.927 104.09 131.111 103.987L145.961 95.4721C147.067 94.842 147.75 93.6624 147.745 92.3967L147.696 76.5404C147.691 75.28 147.007 74.1113 145.912 73.4811L126.745 62.5206C126.626 62.456 126.556 62.3267 126.556 62.1921V45.0161C126.556 44.8061 126.724 44.6391 126.935 44.6391C127.147 44.6391 127.315 44.8061 127.315 45.0161V61.9766L146.291 72.8294C147.626 73.5888 148.455 75.0107 148.455 76.5404L148.504 92.3967C148.51 93.9318 147.68 95.359 146.34 96.1292L131.491 104.644C131.431 104.671 131.366 104.688 131.301 104.688Z" fill="#38527A"/>
<path d="M128.389 43.9713H125.482V50.2029H128.389V43.9713Z" fill="#38527A"/>
<path d="M127.96 50.7899C127.391 51.1131 126.474 51.1131 125.905 50.7899C125.335 50.4668 125.335 49.939 125.905 49.6104C126.474 49.2873 127.391 49.2873 127.96 49.6104C128.53 49.939 128.53 50.4668 127.96 50.7899Z" fill="#38527A"/>
<path d="M129.289 35.2836H124.576V45.0592H129.289V35.2836Z" fill="#38527A"/>
<path d="M125.481 44.9946V47.1059C126.333 47.4937 127.537 47.4937 128.388 47.1059V44.9946C127.531 44.6068 126.333 44.6068 125.481 44.9946Z" fill="#283446"/>
<path d="M128.601 46.0125C127.679 46.5404 126.187 46.5404 125.271 46.0125C124.349 45.4847 124.349 44.6283 125.271 44.1005C126.193 43.5727 127.684 43.5727 128.601 44.1005C129.517 44.6337 129.517 45.4847 128.601 46.0125Z" fill="#38527A"/>
<path d="M121.739 40.2118H118.832V46.4434H121.739V40.2118Z" fill="#38527A"/>
<path d="M121.316 47.0359C120.746 47.359 119.83 47.359 119.26 47.0359C118.691 46.7127 118.691 46.1849 119.26 45.8563C119.83 45.5278 120.746 45.5332 121.316 45.8563C121.885 46.1795 121.885 46.7073 121.316 47.0359Z" fill="#38527A"/>
<path d="M122.647 31.5296H117.934V41.3052H122.647V31.5296Z" fill="#38527A"/>
<path d="M118.832 41.2406V43.3519C119.684 43.7397 120.888 43.7397 121.739 43.3519V41.2406C120.888 40.8528 119.689 40.8528 118.832 41.2406Z" fill="#283446"/>
<path d="M121.951 42.2585C121.029 42.7863 119.538 42.7863 118.621 42.2585C117.699 41.7307 117.699 40.8743 118.621 40.3465C119.543 39.8187 121.035 39.8187 121.951 40.3465C122.873 40.8743 122.873 41.7307 121.951 42.2585Z" fill="#38527A"/>
<path d="M115.095 36.4578H112.188V42.6894H115.095V36.4578Z" fill="#38527A"/>
<path d="M114.667 43.2764C114.098 43.5996 113.181 43.5996 112.612 43.2764C112.042 42.9532 112.042 42.4254 112.612 42.0969C113.181 41.7683 114.098 41.7737 114.667 42.0969C115.237 42.4254 115.237 42.9532 114.667 43.2764Z" fill="#38527A"/>
<path d="M115.996 27.7755H111.283V37.5511H115.996V27.7755Z" fill="#38527A"/>
<path d="M112.189 37.4811V39.5924C113.041 39.9802 114.245 39.9802 115.096 39.5924V37.4811C114.245 37.0933 113.041 37.0933 112.189 37.4811Z" fill="#283446"/>
<path d="M113.643 38.8976C114.943 38.8976 115.997 38.2924 115.997 37.5457C115.997 36.7991 114.943 36.1938 113.643 36.1938C112.343 36.1938 111.289 36.7991 111.289 37.5457C111.289 38.2924 112.343 38.8976 113.643 38.8976Z" fill="#38527A"/>
<path d="M144.86 52.6158L151.178 48.921L145.158 41.4614L143.58 44.0305L144.86 52.6158Z" fill="#38527A"/>
<path d="M98.9883 11.6876L109.07 5.92456C109.07 5.92456 108.691 11.6714 108.691 11.6876C108.691 11.7037 102.899 13.465 102.899 13.465L98.9883 11.6876Z" fill="#38527A"/>
<path d="M146.616 33.8618C145.846 33.4201 145.114 33.167 144.436 33.0593C143.422 27.7541 139.701 22.1203 135.27 19.5781C133.936 18.8133 132.667 18.404 131.517 18.3178C130.91 11.8869 126.409 4.57813 120.942 1.44348C118.084 -0.193867 115.497 -0.387763 113.582 0.614032V0.608646L113.49 0.662506C113.441 0.689436 113.392 0.716366 113.344 0.743296L107.4 4.22804L109.374 5.7792C107.6 6.5494 106.478 8.52606 106.478 11.4453C106.478 16.8313 110.285 23.3753 114.981 26.0683L146.616 48.5009C150.141 50.5207 153 48.8833 153 44.8384C153 40.799 150.141 35.8815 146.616 33.8618Z" fill="#38527A"/>
<path d="M106.771 9.07539L120.416 1.15798C117.769 -0.215454 115.372 -0.32856 113.577 0.61399V0.608604L113.485 0.662464C113.436 0.689394 113.387 0.716323 113.338 0.743253L107.394 4.22799L109.368 5.77916C108.132 6.31776 107.21 7.44882 106.771 9.07539Z" fill="#38527A"/>
<path d="M131.974 32.3698L141.931 26.5691C140.223 23.6338 137.874 21.0754 135.271 19.5781C134.924 19.3788 134.588 19.2065 134.252 19.0557L121.588 26.4129L131.974 32.3698Z" fill="#38527A"/>
<path d="M110.204 4.87973L114.64 7.42192L122.765 2.67147C122.174 2.21366 121.561 1.79894 120.937 1.44346C119.955 0.877935 119.001 0.490143 118.095 0.258545L110.204 4.87973Z" fill="#667C9C"/>
<path d="M140.83 24.8563L132.885 29.5044L135.651 32.5637L142.864 28.3357C142.289 27.1292 141.606 25.9551 140.83 24.8563Z" fill="#667C9C"/>
<path d="M140.374 37.5134C139.604 37.0718 138.872 36.8186 138.194 36.7109C137.18 31.4057 133.459 25.772 129.029 23.2298C127.694 22.465 126.425 22.0556 125.276 21.9695C124.668 15.5386 120.167 8.22978 114.7 5.09513C108.821 1.7235 104.054 4.4542 104.054 11.1975C104.054 11.4237 104.059 11.6553 104.07 11.8869C99.7692 9.90482 96.4121 12.14 96.4121 17.1975C96.4121 22.5835 100.219 29.1274 104.916 31.8204L140.38 52.1526C143.905 54.1723 146.763 52.535 146.763 48.4901C146.758 44.4506 143.9 39.5332 140.374 37.5134Z" fill="#667C9C"/>
<path d="M104.065 11.8869C104.054 11.6553 104.049 11.4237 104.049 11.1975C104.049 11.1867 104.049 11.1759 104.049 11.1706C101.673 10.2549 99.634 10.6535 98.3486 12.1239C99.7425 10.9874 101.765 10.8312 104.065 11.8869Z" fill="white"/>
<path d="M140.889 37.0126C140.119 36.5709 139.387 36.3178 138.709 36.21C137.695 30.9048 133.974 25.2711 129.544 22.7289C128.209 21.9641 126.94 21.5548 125.791 21.4686C125.183 15.0377 120.682 7.72889 115.215 4.59424C111.554 2.4937 108.322 2.763 106.407 4.89586C108.36 3.23697 111.348 3.17773 114.7 5.09514C120.166 8.22979 124.668 15.5386 125.275 21.9695C126.425 22.0556 127.694 22.465 129.028 23.2298C133.459 25.772 137.18 31.4057 138.194 36.7109C138.877 36.8187 139.609 37.0718 140.374 37.5135C143.899 39.5332 146.757 44.4506 146.757 48.4955C146.757 49.9551 146.383 51.0969 145.738 51.8671C146.692 51.1346 147.273 49.8097 147.273 47.9892C147.273 43.9497 144.415 39.0323 140.889 37.0126Z" fill="white"/>
<path d="M103.316 13.4973L105.985 14.7253L105.849 11.8114C105.838 11.6068 105.833 11.4021 105.833 11.2028C105.833 8.60139 106.625 6.71629 108.062 5.89224C109.499 5.06818 111.538 5.33209 113.811 6.6355C118.692 9.43622 122.949 16.2441 123.502 22.1418L123.643 23.6283L125.14 23.7414C126.062 23.8114 127.071 24.1561 128.139 24.7702C132.017 26.9946 135.51 32.1597 136.448 37.0502L136.681 38.2728L137.923 38.4667C138.417 38.5421 138.943 38.7414 139.491 39.0538C142.468 40.7612 144.985 45.0861 144.985 48.5008C144.985 49.7773 144.627 50.7145 144.008 51.0754C143.385 51.4308 142.392 51.2692 141.275 50.6337L105.811 30.3016C101.684 27.9371 98.2021 21.9425 98.2021 17.2082C98.2021 15.35 98.7553 13.9389 99.7153 13.3303C100.111 13.0772 100.588 12.9533 101.131 12.9533C101.771 12.9425 102.519 13.1256 103.316 13.4973Z" fill="#283446"/>
<path d="M121.019 35.5691L121.951 35.1006L121.029 34.4058L121.019 35.5691Z" fill="#C40000"/>
<path d="M118.209 23.0198L119.115 22.562L119.131 23.0359L118.209 23.0198Z" fill="#C40000"/>
<path d="M123.686 32.6338L124.63 32.1598L122.808 30.4363L123.686 32.6338Z" fill="#C40000"/>
<path d="M121.679 35.0736L117.249 32.483C117.026 32.3537 116.842 32.0198 116.842 31.7451L116.858 26.6553L122.103 29.72L122.086 34.8097C122.086 35.0844 121.902 35.2029 121.679 35.0736Z" fill="#C40000"/>
<path d="M119.103 22.5674L114.32 25.6266C114.119 25.7559 114.282 26.2406 114.591 26.4183L119.477 29.2783L124.364 32.1383C124.673 32.316 124.841 32.0305 124.635 31.6643L119.884 23.0305C119.678 22.6481 119.309 22.4327 119.103 22.5674Z" fill="#C40000"/>
<path d="M120.731 35.5476L116.3 32.9569C116.078 32.8277 115.893 32.4937 115.893 32.2191L115.91 27.1293L121.154 30.1939L121.138 35.2837C121.138 35.5584 120.953 35.6769 120.731 35.5476Z" fill="url(#paint2_linear)"/>
<path d="M118.155 23.0413L113.372 26.1006C113.171 26.2298 113.334 26.7146 113.643 26.8923L123.416 32.6122C123.725 32.79 123.893 32.5045 123.687 32.1383L118.936 23.5045C118.73 23.1275 118.361 22.9121 118.155 23.0413Z" fill="url(#paint3_linear)"/>
<path d="M113.23 42.1347C113.23 42.4417 113.013 42.5655 112.747 42.4093C112.482 42.2585 112.265 41.8869 112.265 41.5799C112.265 41.2729 112.482 41.149 112.747 41.3052C113.013 41.456 113.23 41.8277 113.23 42.1347Z" fill="url(#paint4_linear)"/>
<path d="M74.0522 110.359L87.3504 102.732C88.1639 102.264 88.0663 101.445 87.1226 100.907L74.2854 93.544C73.3417 93.0054 71.9154 92.9461 71.1018 93.4147L57.8036 101.041C56.9901 101.51 57.0877 102.329 58.0314 102.867L70.8686 110.23C71.8123 110.768 73.2387 110.828 74.0522 110.359Z" fill="#EBEBEB"/>
<path d="M53.3887 95.2352V89.5314L66.2693 89.526L70.7219 86.973C71.7415 86.386 73.5313 86.4614 74.7081 87.1346L78.8625 89.5152L91.7539 89.5098V95.3752C91.7811 95.7737 91.5587 96.1562 91.0706 96.4362L74.4207 105.986C73.4011 106.573 71.6114 106.497 70.4345 105.824L54.3595 96.6032C53.6815 96.21 53.3507 95.7091 53.3887 95.2352Z" fill="#283446"/>
<path d="M72.5762 86.5798C73.3246 86.596 74.1001 86.7845 74.713 87.1346L78.8673 89.5152L91.7588 89.5098V95.3752C91.7859 95.7737 91.5635 96.1561 91.0754 96.4362L74.4255 105.986C73.932 106.266 73.2649 106.395 72.5762 106.379V86.5798Z" fill="#283446"/>
<path d="M90.2998 89.5098H91.7587V95.3752C91.7858 95.7737 91.5635 96.1561 91.0754 96.4362L90.2998 96.8779V89.5098Z" fill="#38527A"/>
<path d="M74.1714 106.109C73.2874 106.486 72.0129 106.465 70.9824 106.072V99.4093H74.1714V106.109Z" fill="#38527A"/>
<path d="M74.4265 100.136L91.0764 90.587C92.096 90 91.9713 88.9766 90.789 88.3034L74.714 79.0825C73.5317 78.4039 71.7474 78.3339 70.7278 78.921L54.0779 88.4703C53.0583 89.0574 53.183 90.0807 54.3653 90.754L70.4403 99.9748C71.6172 100.648 73.4069 100.723 74.4265 100.136Z" fill="#667C9C"/>
<path d="M74.1276 98.4182L88.082 90.42C88.9389 89.9299 88.8304 89.0736 87.8434 88.5026L74.3716 80.7791C73.3846 80.2136 71.8877 80.149 71.0308 80.6391L57.0763 88.6373C56.2194 89.1274 56.3279 89.9838 57.315 90.5547L70.7867 98.2782C71.7738 98.8491 73.2707 98.9084 74.1276 98.4182Z" fill="#38527A"/>
<path d="M59.5176 96.7432C59.5176 97.1687 59.8213 97.6858 60.1901 97.9013C60.5589 98.1167 60.8626 97.939 60.8626 97.5135C60.8626 97.088 60.5589 96.5709 60.1901 96.3555C59.8213 96.14 59.5176 96.3178 59.5176 96.7432Z" fill="#667C9C"/>
<path d="M57.3535 95.4991C57.3535 95.9246 57.6572 96.4416 58.026 96.6571C58.3948 96.8725 58.6985 96.6948 58.6985 96.2693C58.6985 95.8438 58.3948 95.3267 58.026 95.1113C57.6518 94.9012 57.3535 95.0736 57.3535 95.4991Z" fill="url(#paint5_linear)"/>
<path d="M55.1895 94.2603C55.1895 94.6858 55.4932 95.2028 55.862 95.4183C56.2308 95.6337 56.5345 95.456 56.5345 95.0305C56.5345 94.605 56.2308 94.0879 55.862 93.8725C55.4877 93.6624 55.1895 93.8348 55.1895 94.2603Z" fill="#667C9C"/>
<path d="M53.3887 86.1167V80.4129L66.2693 80.4075L70.7219 77.8546C71.7415 77.2675 73.5313 77.3429 74.7081 78.0161L78.8625 80.3967L91.7539 80.3914V86.2567C91.7811 86.6553 91.5587 87.0377 91.0706 87.3178L74.4207 96.8671C73.4011 97.4542 71.6114 97.3788 70.4345 96.7055L54.3595 87.4847C53.6815 87.0915 53.3507 86.5906 53.3887 86.1167Z" fill="#283446"/>
<path d="M72.5762 77.4614C73.3246 77.4775 74.1001 77.666 74.713 78.0161L78.8673 80.3967L91.7588 80.3913V86.2567C91.7859 86.6552 91.5635 87.0377 91.0754 87.3177L74.4255 96.8671C73.932 97.1472 73.2649 97.2764 72.5762 97.2603V77.4614Z" fill="#283446"/>
<path d="M90.2998 80.3914H91.7587V86.2567C91.7858 86.6553 91.5635 87.0377 91.0754 87.3177L90.2998 87.7594V80.3914Z" fill="#38527A"/>
<path d="M74.1714 96.991C73.2874 97.368 72.0129 97.3464 70.9824 96.9533V90.2908H74.1714V96.991Z" fill="#38527A"/>
<path d="M74.4265 91.0179L91.0764 81.4686C92.096 80.8815 91.9713 79.8581 90.789 79.1849L74.714 69.9641C73.5317 69.2854 71.7474 69.2154 70.7278 69.8025L54.0779 79.3519C53.0583 79.9389 53.183 80.9623 54.3653 81.6355L70.4403 90.8564C71.6172 91.535 73.4069 91.605 74.4265 91.0179Z" fill="#667C9C"/>
<path d="M74.1276 89.2998L88.082 81.3016C88.9389 80.8115 88.8304 79.9551 87.8434 79.3842L74.3716 71.6606C73.3846 71.0951 71.8877 71.0305 71.0308 71.5206L57.0763 79.5188C56.2194 80.0089 56.3279 80.8653 57.315 81.4362L70.7867 89.1597C71.7738 89.7307 73.2707 89.7953 74.1276 89.2998Z" fill="#38527A"/>
<path d="M59.5176 87.6247C59.5176 88.0502 59.8213 88.5673 60.1901 88.7827C60.5589 88.9982 60.8626 88.8204 60.8626 88.3949C60.8626 87.9694 60.5589 87.4524 60.1901 87.2369C59.8213 87.0215 59.5176 87.1992 59.5176 87.6247Z" fill="url(#paint6_linear)"/>
<path d="M57.3535 86.3805C57.3535 86.806 57.6572 87.3231 58.026 87.5385C58.3948 87.7539 58.6985 87.5762 58.6985 87.1507C58.6985 86.7252 58.3948 86.2082 58.026 85.9927C57.6518 85.7827 57.3535 85.955 57.3535 86.3805Z" fill="#38527A"/>
<path d="M55.1895 85.1418C55.1895 85.5673 55.4932 86.0843 55.862 86.2997C56.2308 86.5152 56.5345 86.3374 56.5345 85.912C56.5345 85.4865 56.2308 84.9694 55.862 84.754C55.4877 84.5439 55.1895 84.7163 55.1895 85.1418Z" fill="#38527A"/>
<path d="M53.3887 76.9982V71.2944L66.2693 71.2891L70.7219 68.7361C71.7415 68.149 73.5313 68.2244 74.7081 68.8977L78.8625 71.2783L91.7539 71.2729V77.1382C91.7811 77.5368 91.5587 77.9192 91.0706 78.1993L74.4207 87.7486C73.4011 88.3357 71.6114 88.2603 70.4345 87.5871L54.3595 78.3662C53.6815 77.9785 53.3507 77.4722 53.3887 76.9982Z" fill="#283446"/>
<path d="M72.5762 68.3429C73.3246 68.3591 74.1001 68.5476 74.713 68.8977L78.8673 71.2783L91.7588 71.2729V77.1382C91.7859 77.5368 91.5635 77.9192 91.0754 78.1993L74.4255 87.7486C73.932 88.0287 73.2649 88.158 72.5762 88.1418V68.3429Z" fill="#283446"/>
<path d="M90.2998 71.2729H91.7587V77.1382C91.7858 77.5368 91.5635 77.9192 91.0754 78.1993L90.2998 78.6409V71.2729Z" fill="#38527A"/>
<path d="M74.1714 87.8725C73.2874 88.2495 72.0129 88.2279 70.9824 87.8348V81.1723H74.1714V87.8725Z" fill="#38527A"/>
<path d="M74.4265 81.9048L91.0764 72.3554C92.096 71.7684 91.9713 70.745 90.789 70.0718L74.714 60.851C73.5317 60.1723 71.7474 60.1023 70.7278 60.6894L54.0779 70.2388C53.0583 70.8258 53.183 71.8492 54.3653 72.5224L70.4403 81.7432C71.6172 82.4165 73.4069 82.4865 74.4265 81.9048Z" fill="#667C9C"/>
<path d="M54.3596 71.3967L70.4346 80.6176C71.6169 81.2962 73.4012 81.3662 74.4208 80.7791L91.0707 71.2298C91.2985 71.1005 91.4666 70.9443 91.5805 70.7827C91.933 71.3429 91.7703 71.9515 91.0707 72.3554L74.4208 81.9048C73.4012 82.4919 71.6115 82.4165 70.4346 81.7432L54.3596 72.5224C53.443 71.9946 53.1665 71.2621 53.5624 70.6858C53.7251 70.9389 53.9908 71.1867 54.3596 71.3967Z" fill="white"/>
<path d="M59.5176 78.5062C59.5176 78.9317 59.8213 79.4488 60.1901 79.6642C60.5589 79.8797 60.8626 79.7019 60.8626 79.2764C60.8626 78.8509 60.5589 78.3339 60.1901 78.1185C59.8213 77.903 59.5176 78.0808 59.5176 78.5062Z" fill="#38527A"/>
<path d="M57.3535 77.2675C57.3535 77.693 57.6572 78.21 58.026 78.4255C58.3948 78.6409 58.6985 78.4632 58.6985 78.0377C58.6985 77.6122 58.3948 77.0951 58.026 76.8797C57.6518 76.6642 57.3535 76.842 57.3535 77.2675Z" fill="#667C9C"/>
<path d="M55.1895 76.0233C55.1895 76.4488 55.4932 76.9659 55.862 77.1813C56.2308 77.3967 56.5345 77.219 56.5345 76.7935C56.5345 76.368 56.2308 75.8509 55.862 75.6355C55.4877 75.4254 55.1895 75.5978 55.1895 76.0233Z" fill="url(#paint7_linear)"/>
<path d="M73.4394 75.9856L81.2328 71.5206C81.7101 71.2459 81.6504 70.7666 81.0972 70.4488L73.5749 66.1346C73.0217 65.8169 72.1865 65.7845 71.7093 66.0592L63.9158 70.5242C63.4386 70.7989 63.4982 71.2783 64.0514 71.596L71.5737 75.9102C72.1269 76.2226 72.9621 76.2603 73.4394 75.9856Z" fill="#38527A"/>
<path d="M72.6969 72.2423L73.7762 71.6229C73.8413 71.5852 73.8359 71.5206 73.7599 71.4775L72.7186 70.8797C72.6427 70.8366 72.5288 70.8312 72.4583 70.8689L71.379 71.4883C71.314 71.526 71.3194 71.5906 71.3953 71.6337L72.4366 72.2316C72.5125 72.2747 72.6319 72.28 72.6969 72.2423Z" fill="url(#paint8_linear)"/>
<path d="M81.2336 71.5152L81.2119 71.526C81.1739 71.4991 81.1414 71.4721 81.098 71.4506L73.5757 67.1364C73.0225 66.8187 72.1873 66.7863 71.7101 67.061L63.9383 71.5152C63.499 71.2028 63.4719 70.7774 63.9166 70.5242L71.7101 66.0592C72.1873 65.7845 73.0225 65.8169 73.5757 66.1346L81.098 70.4488C81.6512 70.7612 81.7108 71.2405 81.2336 71.5152Z" fill="#283446"/>
<path d="M103.413 126.765L116.712 119.138C117.525 118.67 117.428 117.851 116.484 117.312L103.647 109.95C102.703 109.411 101.277 109.352 100.463 109.82L87.165 117.447C86.3514 117.916 86.4491 118.734 87.3927 119.273L100.23 126.636C101.174 127.174 102.6 127.233 103.413 126.765Z" fill="#EBEBEB"/>
<path d="M82.75 111.641V105.937L95.6306 105.932L100.083 103.379C101.103 102.792 102.893 102.867 104.069 103.54L108.224 105.921L121.115 105.916V111.781C121.142 112.18 120.92 112.562 120.432 112.842L103.782 122.391C102.762 122.978 100.973 122.903 99.7958 122.23L83.7208 113.009C83.0429 112.616 82.712 112.115 82.75 111.641Z" fill="#283446"/>
<path d="M101.938 102.986C102.686 103.002 103.461 103.19 104.074 103.54L108.229 105.921L121.12 105.916V111.781C121.147 112.18 120.925 112.562 120.437 112.842L103.787 122.391C103.293 122.671 102.626 122.801 101.938 122.785V102.986Z" fill="#283446"/>
<path d="M119.661 105.916H121.12V111.781C121.147 112.18 120.925 112.562 120.437 112.842L119.661 113.284V105.916Z" fill="#38527A"/>
<path d="M103.533 122.515C102.649 122.892 101.374 122.871 100.344 122.478V115.815H103.533V122.515Z" fill="#38527A"/>
<path d="M103.788 116.542L120.438 106.993C121.457 106.406 121.333 105.382 120.15 104.709L104.075 95.4937C102.893 94.8151 101.109 94.7451 100.089 95.3321L83.4392 104.882C82.4196 105.469 82.5444 106.492 83.7267 107.165L99.8017 116.386C100.984 117.054 102.768 117.129 103.788 116.542Z" fill="#667C9C"/>
<path d="M103.489 114.824L117.443 106.826C118.3 106.336 118.192 105.479 117.205 104.908L103.733 97.1849C102.746 96.6193 101.249 96.5547 100.392 97.0448L86.4377 105.043C85.5808 105.533 85.6892 106.39 86.6763 106.96L100.148 114.684C101.135 115.255 102.632 115.314 103.489 114.824Z" fill="#38527A"/>
<path d="M88.8789 113.149C88.8789 113.574 89.1826 114.092 89.5514 114.307C89.9202 114.522 90.2239 114.345 90.2239 113.919C90.2239 113.494 89.9202 112.977 89.5514 112.761C89.1772 112.551 88.8789 112.723 88.8789 113.149Z" fill="#667C9C"/>
<path d="M86.7148 111.905C86.7148 112.33 87.0186 112.847 87.3873 113.063C87.7561 113.278 88.0598 113.1 88.0598 112.675C88.0598 112.25 87.7561 111.732 87.3873 111.517C87.0186 111.302 86.7148 111.479 86.7148 111.905Z" fill="#38527A"/>
<path d="M84.5508 110.666C84.5508 111.092 84.8545 111.609 85.2233 111.824C85.5921 112.039 85.8958 111.862 85.8958 111.436C85.8958 111.011 85.5921 110.494 85.2233 110.278C84.8491 110.068 84.5508 110.241 84.5508 110.666Z" fill="url(#paint9_linear)"/>
<path d="M82.75 102.522V96.8187L95.6306 96.8133L100.083 94.2603C101.103 93.6732 102.893 93.7487 104.069 94.4219L108.224 96.8025L121.115 96.7971V102.662C121.142 103.061 120.92 103.443 120.432 103.724L103.782 113.273C102.762 113.86 100.973 113.785 99.7958 113.111L83.7208 103.89C83.0429 103.497 82.712 102.996 82.75 102.522Z" fill="#283446"/>
<path d="M101.938 93.8671C102.686 93.8833 103.461 94.0718 104.074 94.4219L108.229 96.8025L121.12 96.7971V102.662C121.147 103.061 120.925 103.443 120.437 103.723L103.787 113.273C103.293 113.553 102.626 113.682 101.938 113.666V93.8671Z" fill="#283446"/>
<path d="M119.661 96.7971H121.12V102.662C121.147 103.061 120.925 103.443 120.437 103.724L119.661 104.165V96.7971Z" fill="#38527A"/>
<path d="M103.533 113.397C102.649 113.774 101.374 113.752 100.344 113.359V106.697H103.533V113.397Z" fill="#38527A"/>
<path d="M103.788 107.424L120.438 97.8743C121.457 97.2872 121.333 96.2639 120.15 95.5906L104.075 86.3698C102.893 85.6912 101.109 85.6212 100.089 86.2082L83.4392 95.7576C82.4196 96.3447 82.5444 97.368 83.7267 98.0413L99.8017 107.262C100.984 107.941 102.768 108.011 103.788 107.424Z" fill="#667C9C"/>
<path d="M103.489 105.706L117.443 97.7073C118.3 97.2172 118.192 96.3608 117.205 95.7899L103.733 88.0664C102.746 87.5009 101.249 87.4362 100.392 87.9264L86.4377 95.9246C85.5808 96.4147 85.6892 97.2711 86.6763 97.842L100.148 105.566C101.135 106.136 102.632 106.201 103.489 105.706Z" fill="#38527A"/>
<path d="M88.8789 104.03C88.8789 104.456 89.1826 104.973 89.5514 105.188C89.9202 105.404 90.2239 105.226 90.2239 104.801C90.2239 104.375 89.9202 103.858 89.5514 103.643C89.1772 103.433 88.8789 103.605 88.8789 104.03Z" fill="url(#paint10_linear)"/>
<path d="M86.7148 102.786C86.7148 103.212 87.0186 103.729 87.3873 103.944C87.7561 104.16 88.0598 103.982 88.0598 103.557C88.0598 103.131 87.7561 102.614 87.3873 102.399C87.0131 102.189 86.7148 102.361 86.7148 102.786Z" fill="#667C9C"/>
<path d="M84.5508 101.548C84.5508 101.973 84.8545 102.49 85.2233 102.706C85.5921 102.921 85.8958 102.743 85.8958 102.318C85.8958 101.892 85.5921 101.375 85.2233 101.16C84.8491 100.95 84.5508 101.122 84.5508 101.548Z" fill="#38527A"/>
<path d="M82.75 93.404V87.7002L95.6306 87.6948L100.083 85.1419C101.103 84.5548 102.893 84.6302 104.069 85.3034L108.224 87.684L121.115 87.6787V93.544C121.142 93.9426 120.92 94.325 120.432 94.605L103.782 104.154C102.762 104.741 100.973 104.666 99.7958 103.993L83.7208 94.772C83.0429 94.3842 82.712 93.8779 82.75 93.404Z" fill="#283446"/>
<path d="M101.938 84.7487C102.686 84.7648 103.461 84.9533 104.074 85.3034L108.229 87.684L121.12 87.6786V93.544C121.147 93.9425 120.925 94.325 120.437 94.605L103.787 104.154C103.293 104.434 102.626 104.564 101.938 104.548V84.7487Z" fill="#283446"/>
<path d="M119.661 87.6786H121.12V93.544C121.147 93.9425 120.925 94.3249 120.437 94.605L119.661 95.0467V87.6786Z" fill="#38527A"/>
<path d="M103.533 104.278C102.649 104.655 101.374 104.634 100.344 104.241V97.5781H103.533V104.278Z" fill="#38527A"/>
<path d="M103.788 98.3106L120.438 88.7612C121.457 88.1741 121.333 87.1508 120.15 86.4776L104.075 77.2567C102.893 76.5781 101.109 76.5081 100.089 77.0951L83.4392 86.6445C82.4196 87.2316 82.5444 88.2549 83.7267 88.9282L99.8017 98.149C100.984 98.8223 102.768 98.8923 103.788 98.3106Z" fill="#667C9C"/>
<path d="M83.7209 87.8025L99.7959 97.0233C100.978 97.702 102.763 97.772 103.782 97.1849L120.432 87.6355C120.66 87.5063 120.828 87.3501 120.942 87.1885C121.294 87.7486 121.132 88.3573 120.432 88.7612L103.782 98.3106C102.763 98.8977 100.973 98.8223 99.7959 98.149L83.7209 88.9282C82.8044 88.4004 82.5278 87.6679 82.9237 87.0916C83.0864 87.3447 83.3521 87.5925 83.7209 87.8025Z" fill="white"/>
<path d="M88.8789 94.912C88.8789 95.3375 89.1826 95.8546 89.5514 96.07C89.9202 96.2854 90.2239 96.1077 90.2239 95.6822C90.2239 95.2567 89.9202 94.7397 89.5514 94.5242C89.1772 94.3142 88.8789 94.4865 88.8789 94.912Z" fill="#38527A"/>
<path d="M86.7148 93.6732C86.7148 94.0987 87.0186 94.6158 87.3873 94.8312C87.7561 95.0467 88.0598 94.8689 88.0598 94.4434C88.0598 94.018 87.7561 93.5009 87.3873 93.2854C87.0186 93.07 86.7148 93.2477 86.7148 93.6732Z" fill="#38527A"/>
<path d="M84.5508 92.4291C84.5508 92.8546 84.8545 93.3717 85.2233 93.5871C85.5921 93.8025 85.8958 93.6248 85.8958 93.1993C85.8958 92.7738 85.5921 92.2568 85.2233 92.0413C84.8491 91.8313 84.5508 92.0036 84.5508 92.4291Z" fill="url(#paint11_linear)"/>
<path d="M102.807 92.3914L110.6 87.9264C111.077 87.6517 111.018 87.1723 110.464 86.8546L102.942 82.5404C102.389 82.2226 101.554 82.1903 101.076 82.465L93.283 86.93C92.8058 87.2047 92.8654 87.684 93.4186 88.0018L100.941 92.316C101.489 92.6284 102.324 92.6661 102.807 92.3914Z" fill="#38527A"/>
<path d="M102.058 88.6481L103.138 88.0287C103.203 87.991 103.197 87.9264 103.121 87.8833L102.08 87.2854C102.004 87.2423 101.89 87.237 101.82 87.2747L100.74 87.894C100.675 87.9317 100.681 87.9964 100.757 88.0395L101.798 88.6373C101.879 88.6804 101.993 88.6858 102.058 88.6481Z" fill="url(#paint12_linear)"/>
<path d="M110.594 87.921L110.572 87.9318C110.534 87.9048 110.502 87.8779 110.458 87.8564L102.936 83.5422C102.383 83.2244 101.548 83.1921 101.07 83.4668L93.2987 87.921C92.8594 87.6086 92.8322 87.1831 93.277 86.93L101.07 82.465C101.548 82.1903 102.383 82.2226 102.936 82.5404L110.458 86.8546C111.012 87.167 111.071 87.6463 110.594 87.921Z" fill="#283446"/>
<path d="M105.268 108.786C105.268 109.093 105.485 109.217 105.75 109.061C106.016 108.91 106.233 108.539 106.233 108.232C106.233 107.925 106.016 107.801 105.75 107.957C105.485 108.108 105.268 108.479 105.268 108.786Z" fill="#667C9C"/>
<path d="M106.765 107.935C106.765 108.242 106.982 108.366 107.247 108.21C107.513 108.059 107.73 107.688 107.73 107.381C107.73 107.074 107.513 106.95 107.247 107.106C106.982 107.257 106.765 107.628 106.765 107.935Z" fill="url(#paint13_linear)"/>
<path d="M105.268 110.58C105.268 110.887 105.485 111.011 105.75 110.855C106.016 110.704 106.233 110.332 106.233 110.025C106.233 109.718 106.016 109.594 105.75 109.75C105.485 109.901 105.268 110.273 105.268 110.58Z" fill="#667C9C"/>
<path d="M106.765 109.729C106.765 110.036 106.982 110.16 107.247 110.004C107.513 109.853 107.73 109.481 107.73 109.174C107.73 108.867 107.513 108.743 107.247 108.899C106.982 109.05 106.765 109.422 106.765 109.729Z" fill="#38527A"/>
<path d="M132.782 143.171L146.08 135.544C146.893 135.075 146.796 134.257 145.852 133.718L133.015 126.355C132.071 125.817 130.645 125.758 129.831 126.226L116.533 133.853C115.72 134.321 115.817 135.14 116.761 135.679L129.598 143.041C130.536 143.58 131.963 143.639 132.782 143.171Z" fill="#EBEBEB"/>
<path d="M112.118 128.047V122.343L124.999 122.338L129.451 119.785C130.471 119.198 132.261 119.273 133.438 119.946L137.592 122.327L150.483 122.321V128.187C150.511 128.585 150.288 128.968 149.8 129.248L133.15 138.797C132.131 139.384 130.341 139.309 129.164 138.636L113.089 129.415C112.406 129.022 112.08 128.521 112.118 128.047Z" fill="#283446"/>
<path d="M131.301 119.391C132.049 119.408 132.825 119.596 133.438 119.946L137.592 122.327L150.483 122.321V128.187C150.511 128.585 150.288 128.968 149.8 129.248L133.15 138.797C132.657 139.077 131.99 139.206 131.301 139.19V119.391Z" fill="#283446"/>
<path d="M149.03 122.321H150.489V128.187C150.516 128.585 150.294 128.968 149.806 129.248L149.03 129.689V122.321Z" fill="#38527A"/>
<path d="M132.895 138.921C132.011 139.298 130.737 139.276 129.706 138.883V132.221H132.895V138.921Z" fill="#38527A"/>
<path d="M133.15 132.948L149.8 123.399C150.82 122.812 150.695 121.788 149.513 121.115L133.438 111.894C132.255 111.215 130.471 111.145 129.451 111.733L112.802 121.282C111.782 121.869 111.907 122.892 113.089 123.566L129.164 132.786C130.346 133.46 132.131 133.535 133.15 132.948Z" fill="#667C9C"/>
<path d="M132.852 131.23L146.806 123.232C147.663 122.742 147.555 121.885 146.568 121.314L133.09 113.591C132.103 113.025 130.606 112.961 129.75 113.451L115.795 121.449C114.938 121.939 115.047 122.795 116.034 123.366L129.505 131.09C130.498 131.661 131.995 131.72 132.852 131.23Z" fill="#38527A"/>
<path d="M118.241 129.555C118.241 129.98 118.545 130.497 118.914 130.713C119.283 130.928 119.586 130.75 119.586 130.325C119.586 129.899 119.283 129.382 118.914 129.167C118.539 128.957 118.241 129.129 118.241 129.555Z" fill="url(#paint14_linear)"/>
<path d="M116.077 128.311C116.077 128.736 116.381 129.253 116.75 129.469C117.118 129.684 117.422 129.506 117.422 129.081C117.422 128.655 117.118 128.138 116.75 127.923C116.375 127.713 116.077 127.885 116.077 128.311Z" fill="#38527A"/>
<path d="M113.913 127.072C113.913 127.497 114.217 128.014 114.586 128.23C114.954 128.445 115.258 128.267 115.258 127.842C115.258 127.417 114.954 126.899 114.586 126.684C114.211 126.474 113.913 126.646 113.913 127.072Z" fill="#667C9C"/>
<path d="M112.118 118.928V113.224L124.999 113.219L129.451 110.666C130.471 110.079 132.261 110.154 133.438 110.828L137.592 113.208L150.483 113.203V119.068C150.511 119.467 150.288 119.849 149.8 120.129L133.15 129.679C132.131 130.266 130.341 130.19 129.164 129.517L113.089 120.296C112.406 119.903 112.08 119.402 112.118 118.928Z" fill="#283446"/>
<path d="M131.301 110.273C132.049 110.289 132.825 110.478 133.438 110.828L137.592 113.208L150.483 113.203V119.068C150.511 119.467 150.288 119.849 149.8 120.129L133.15 129.679C132.657 129.959 131.99 130.088 131.301 130.072V110.273Z" fill="#283446"/>
<path d="M149.03 113.203H150.489V119.068C150.516 119.467 150.294 119.849 149.806 120.129L149.03 120.571V113.203Z" fill="#38527A"/>
<path d="M132.895 129.803C132.011 130.18 130.737 130.158 129.706 129.765V123.102H132.895V129.803Z" fill="#38527A"/>
<path d="M133.15 123.829L149.8 114.28C150.82 113.693 150.695 112.67 149.513 111.996L133.438 102.776C132.255 102.097 130.471 102.027 129.451 102.614L112.802 112.163C111.782 112.75 111.907 113.774 113.089 114.447L129.164 123.668C130.346 124.347 132.131 124.417 133.15 123.829Z" fill="#667C9C"/>
<path d="M132.852 122.111L146.807 114.113C147.663 113.623 147.555 112.767 146.568 112.196L133.096 104.472C132.109 103.907 130.612 103.842 129.755 104.332L115.801 112.33C114.944 112.82 115.053 113.677 116.04 114.248L129.511 121.971C130.498 122.542 131.995 122.607 132.852 122.111Z" fill="#38527A"/>
<path d="M118.241 120.436C118.241 120.862 118.545 121.379 118.914 121.594C119.283 121.81 119.586 121.632 119.586 121.206C119.586 120.781 119.283 120.264 118.914 120.048C118.539 119.838 118.241 120.011 118.241 120.436Z" fill="#38527A"/>
<path d="M116.077 119.192C116.077 119.618 116.381 120.135 116.75 120.35C117.118 120.565 117.422 120.388 117.422 119.962C117.422 119.537 117.118 119.02 116.75 118.804C116.375 118.594 116.077 118.767 116.077 119.192Z" fill="#38527A"/>
<path d="M113.913 117.953C113.913 118.379 114.217 118.896 114.586 119.111C114.954 119.327 115.258 119.149 115.258 118.723C115.258 118.298 114.954 117.781 114.586 117.565C114.211 117.355 113.913 117.528 113.913 117.953Z" fill="url(#paint15_linear)"/>
<path d="M112.118 109.81V104.106L124.999 104.101L129.451 101.548C130.471 100.961 132.261 101.036 133.438 101.709L137.592 104.09L150.483 104.084V109.95C150.511 110.348 150.288 110.731 149.8 111.011L133.15 120.56C132.131 121.147 130.341 121.072 129.164 120.399L113.089 111.178C112.406 110.79 112.08 110.284 112.118 109.81Z" fill="#283446"/>
<path d="M131.301 101.154C132.049 101.171 132.825 101.359 133.438 101.709L137.592 104.09L150.483 104.084V109.95C150.511 110.348 150.288 110.731 149.8 111.011L133.15 120.56C132.657 120.84 131.99 120.97 131.301 120.953V101.154Z" fill="#283446"/>
<path d="M149.03 104.084H150.489V109.95C150.516 110.348 150.294 110.731 149.806 111.011L149.03 111.452V104.084Z" fill="#38527A"/>
<path d="M132.895 120.684C132.011 121.061 130.737 121.04 129.706 120.646V113.984H132.895V120.684Z" fill="#38527A"/>
<path d="M133.15 114.716L149.8 105.167C150.82 104.58 150.695 103.557 149.513 102.883L133.438 93.6625C132.255 92.9838 130.471 92.9138 129.451 93.5009L112.802 103.05C111.782 103.637 111.907 104.661 113.089 105.334L129.164 114.555C130.346 115.228 132.131 115.298 133.15 114.716Z" fill="#667C9C"/>
<path d="M113.089 104.208L129.164 113.429C130.346 114.108 132.131 114.178 133.15 113.591L149.8 104.041C150.028 103.912 150.196 103.756 150.31 103.594C150.663 104.154 150.5 104.763 149.8 105.167L133.15 114.716C132.131 115.303 130.341 115.228 129.164 114.555L113.089 105.334C112.173 104.806 111.896 104.074 112.292 103.497C112.449 103.75 112.715 103.998 113.089 104.208Z" fill="white"/>
<path d="M118.241 111.318C118.241 111.743 118.545 112.26 118.914 112.476C119.283 112.691 119.586 112.513 119.586 112.088C119.586 111.662 119.283 111.145 118.914 110.93C118.539 110.72 118.241 110.892 118.241 111.318Z" fill="#667C9C"/>
<path d="M116.077 110.079C116.077 110.505 116.381 111.022 116.75 111.237C117.118 111.452 117.422 111.275 117.422 110.849C117.422 110.424 117.118 109.907 116.75 109.691C116.375 109.476 116.077 109.654 116.077 110.079Z" fill="url(#paint16_linear)"/>
<path d="M113.913 108.835C113.913 109.26 114.217 109.777 114.586 109.993C114.954 110.208 115.258 110.031 115.258 109.605C115.258 109.18 114.954 108.663 114.586 108.447C114.211 108.237 113.913 108.409 113.913 108.835Z" fill="#38527A"/>
<path d="M132.169 108.797L139.962 104.332C140.44 104.057 140.38 103.578 139.827 103.26L132.304 98.9462C131.751 98.6284 130.916 98.5961 130.439 98.8708L122.645 103.336C122.168 103.61 122.228 104.09 122.781 104.408L130.303 108.722C130.851 109.034 131.692 109.072 132.169 108.797Z" fill="#38527A"/>
<path d="M131.421 105.054L132.5 104.434C132.565 104.397 132.559 104.332 132.484 104.289L131.442 103.691C131.366 103.648 131.252 103.643 131.182 103.68L130.103 104.3C130.038 104.338 130.043 104.402 130.119 104.445L131.16 105.043C131.242 105.086 131.355 105.092 131.421 105.054Z" fill="url(#paint17_linear)"/>
<path d="M139.956 104.327L139.935 104.338C139.897 104.311 139.864 104.284 139.821 104.262L132.298 99.9479C131.745 99.6302 130.91 99.5979 130.433 99.8725L122.661 104.327C122.222 104.014 122.195 103.589 122.639 103.336L130.433 98.8708C130.91 98.5961 131.745 98.6284 132.298 98.9462L139.821 103.26C140.374 103.573 140.439 104.052 139.956 104.327Z" fill="#283446"/>
<path d="M134.419 116.203C134.419 116.51 134.636 116.634 134.902 116.478C135.167 116.327 135.384 115.955 135.384 115.648C135.384 115.341 135.167 115.217 134.902 115.373C134.636 115.53 134.419 115.901 134.419 116.203Z" fill="#667C9C"/>
<path d="M135.916 115.352C135.916 115.659 136.133 115.783 136.399 115.627C136.664 115.476 136.881 115.104 136.881 114.797C136.881 114.49 136.664 114.366 136.399 114.522C136.133 114.673 135.916 115.045 135.916 115.352Z" fill="#667C9C"/>
<path d="M134.419 117.996C134.419 118.303 134.636 118.427 134.902 118.271C135.167 118.12 135.384 117.749 135.384 117.442C135.384 117.135 135.167 117.011 134.902 117.167C134.636 117.323 134.419 117.695 134.419 117.996Z" fill="url(#paint18_linear)"/>
<path d="M135.916 117.145C135.916 117.452 136.133 117.576 136.399 117.42C136.664 117.269 136.881 116.898 136.881 116.591C136.881 116.284 136.664 116.16 136.399 116.316C136.133 116.467 135.916 116.838 135.916 117.145Z" fill="#38527A"/>
<path d="M134.419 125.321C134.419 125.628 134.636 125.752 134.902 125.596C135.167 125.445 135.384 125.074 135.384 124.767C135.384 124.46 135.167 124.336 134.902 124.492C134.636 124.643 134.419 125.014 134.419 125.321Z" fill="#38527A"/>
<path d="M135.916 124.47C135.916 124.777 136.133 124.901 136.399 124.745C136.664 124.594 136.881 124.223 136.881 123.916C136.881 123.609 136.664 123.485 136.399 123.641C136.133 123.792 135.916 124.163 135.916 124.47Z" fill="#667C9C"/>
<path d="M134.419 127.115C134.419 127.422 134.636 127.546 134.902 127.39C135.167 127.239 135.384 126.867 135.384 126.56C135.384 126.253 135.167 126.129 134.902 126.285C134.636 126.436 134.419 126.808 134.419 127.115Z" fill="#38527A"/>
<path d="M135.916 126.264C135.916 126.571 136.133 126.695 136.399 126.539C136.664 126.388 136.881 126.016 136.881 125.709C136.881 125.402 136.664 125.278 136.399 125.434C136.133 125.585 135.916 125.957 135.916 126.264Z" fill="#667C9C"/>
<path d="M134.419 134.44C134.419 134.747 134.636 134.871 134.902 134.715C135.167 134.564 135.384 134.192 135.384 133.885C135.384 133.578 135.167 133.454 134.902 133.61C134.636 133.761 134.419 134.133 134.419 134.44Z" fill="#667C9C"/>
<path d="M135.916 133.589C135.916 133.896 136.133 134.02 136.399 133.864C136.664 133.713 136.881 133.341 136.881 133.034C136.881 132.727 136.664 132.603 136.399 132.759C136.133 132.91 135.916 133.282 135.916 133.589Z" fill="#38527A"/>
<path d="M134.419 136.233C134.419 136.54 134.636 136.664 134.902 136.508C135.167 136.357 135.384 135.986 135.384 135.679C135.384 135.372 135.167 135.248 134.902 135.404C134.636 135.555 134.419 135.926 134.419 136.233Z" fill="#667C9C"/>
<path d="M135.916 135.382C135.916 135.689 136.133 135.813 136.399 135.657C136.664 135.506 136.881 135.135 136.881 134.828C136.881 134.521 136.664 134.397 136.399 134.553C136.133 134.704 135.916 135.075 135.916 135.382Z" fill="url(#paint19_linear)"/>
<path d="M133.942 87.1992L135.027 86.7683L134.186 86.122L133.942 87.1992Z" fill="#C40000"/>
<path d="M133.406 75.5763L134.453 75.1508L134.382 75.5924L133.406 75.5763Z" fill="#C40000"/>
<path d="M137.338 84.4793L138.433 84.043L136.839 82.4488L137.338 84.4793Z" fill="#C40000"/>
<path d="M134.741 86.736L130.554 84.3393C130.342 84.2154 130.212 83.9084 130.266 83.6553L131.27 78.9371L136.221 81.7756L135.218 86.4937C135.169 86.7522 134.952 86.8599 134.741 86.736Z" fill="#C40000"/>
<path d="M134.442 75.1562L128.785 77.9892C128.547 78.1077 128.622 78.5547 128.915 78.7217L133.531 81.3662L138.146 84.0107C138.439 84.1777 138.672 83.9084 138.526 83.5691L135.174 75.5763C135.033 75.237 134.686 75.0377 134.442 75.1562Z" fill="#C40000"/>
<path d="M133.644 87.1777L129.458 84.781C129.246 84.6571 129.116 84.3501 129.17 84.0969L130.173 79.3788L135.125 82.2172L134.122 86.9354C134.073 87.1885 133.856 87.3016 133.644 87.1777Z" fill="url(#paint20_linear)"/>
<path d="M133.346 75.5978L127.689 78.4309C127.451 78.5494 127.527 78.9964 127.82 79.1634L137.05 84.4524C137.343 84.6194 137.576 84.3501 137.43 84.0108L134.078 76.0179C133.937 75.6732 133.59 75.474 133.346 75.5978Z" fill="url(#paint21_linear)"/>
<path d="M104.91 70.6589L105.989 70.228L105.149 69.5817L104.91 70.6589Z" fill="#C40000"/>
<path d="M104.368 59.0359L105.42 58.6104L105.344 59.0521L104.368 59.0359Z" fill="#C40000"/>
<path d="M108.3 67.939L109.395 67.5027L107.801 65.9084L108.3 67.939Z" fill="#C40000"/>
<path d="M105.707 70.1957L101.52 67.7989C101.309 67.6751 101.179 67.3681 101.233 67.1149L102.236 62.3968L107.188 65.2352L106.185 69.9533C106.136 70.2119 105.919 70.3196 105.707 70.1957Z" fill="#C40000"/>
<path d="M105.409 58.6158L99.752 61.4488C99.5134 61.5673 99.5893 62.0144 99.8821 62.1813L104.497 64.8259L109.113 67.4704C109.406 67.6374 109.639 67.3681 109.492 67.0287L106.141 59.0359C106 58.6966 105.653 58.4973 105.409 58.6158Z" fill="#C40000"/>
<path d="M104.606 70.6374L100.42 68.2406C100.208 68.1167 100.078 67.8097 100.132 67.5566L101.135 62.8385L106.087 65.6769L105.084 70.395C105.035 70.6482 104.823 70.7613 104.606 70.6374Z" fill="url(#paint22_linear)"/>
<path d="M104.308 59.0575L98.6514 61.8905C98.4128 62.009 98.4887 62.456 98.7816 62.623L108.012 67.9121C108.305 68.079 108.538 67.8097 108.392 67.4704L105.04 59.4776C104.899 59.1329 104.552 58.9336 104.308 59.0575Z" fill="url(#paint23_linear)"/>
<path d="M4.21963 135.932L35.67 117.986C38.1485 116.569 42.4764 116.758 45.3345 118.406L109.83 155.564C112.688 157.212 112.992 159.689 110.513 161.106L79.0628 179.052C76.5843 180.469 72.2564 180.28 69.3983 178.632L4.90298 141.474C2.04484 139.831 1.74113 137.348 4.21963 135.932Z" fill="#EBEBEB"/>
<path d="M80.3103 173.122L112.515 154.745C113.925 153.943 114.635 152.871 114.668 151.74L114.695 146.235L113.659 148.007C113.165 147.431 112.493 146.882 111.636 146.391L46.7936 109.023C43.1219 106.907 37.5575 106.664 34.3631 108.485L2.15887 126.862C1.81719 127.056 1.5189 127.266 1.25858 127.492L0.0220389 125.919L0.000345243 131.095C-0.0430421 132.522 0.981984 134.036 3.03204 135.215L67.8798 172.578C71.5569 174.7 77.1213 174.943 80.3103 173.122Z" fill="#283446"/>
<path d="M2.18553 122.774L34.3898 104.397C37.5788 102.576 43.1432 102.819 46.8203 104.935L111.668 142.298C115.34 144.415 115.736 147.609 112.547 149.429L80.3424 167.806C77.1534 169.627 71.589 169.384 67.9119 167.268L3.0587 129.899C-0.612951 127.783 -1.00886 124.594 2.18553 122.774Z" fill="#667C9C"/>
<path d="M112.542 149.424L80.3374 167.801C77.1484 169.621 71.584 169.379 67.9069 167.262L3.05913 129.899C1.28025 128.876 0.276919 127.594 0.0708289 126.345C-0.184072 127.874 0.824684 129.555 3.05913 130.842L67.9069 168.205C71.5786 170.321 77.143 170.564 80.3374 168.743L112.542 150.366C114.185 149.429 114.874 148.126 114.651 146.79C114.489 147.786 113.794 148.713 112.542 149.424Z" fill="#38527A"/>
<path d="M4.21963 123.512L35.67 105.565C38.1485 104.149 42.4764 104.337 45.3345 105.986L109.83 143.144C112.688 144.792 112.992 147.269 110.513 148.686L79.0628 166.632C76.5843 168.048 72.2564 167.86 69.3983 166.212L4.90298 129.054C2.04484 127.406 1.74113 124.928 4.21963 123.512Z" fill="white"/>
<path d="M119.895 45.7055C119.895 46.0125 119.678 46.1364 119.412 45.9802C119.147 45.8294 118.93 45.4578 118.93 45.1508C118.93 44.8438 119.147 44.7199 119.412 44.8761C119.684 45.0323 119.895 45.4039 119.895 45.7055Z" fill="url(#paint24_linear)"/>
<path d="M126.566 49.2819C126.566 49.5889 126.349 49.7127 126.083 49.5565C125.818 49.4057 125.601 49.0341 125.601 48.7271C125.601 48.4201 125.818 48.2962 126.083 48.4524C126.349 48.6086 126.566 48.9803 126.566 49.2819Z" fill="url(#paint25_linear)"/>
<path d="M54.8855 130.039L43.2414 123.366C42.8075 123.118 42.8618 122.688 43.3607 122.402C43.8597 122.117 44.6135 122.084 45.0474 122.332L56.6915 129.005C57.1254 129.253 57.0711 129.684 56.5722 129.969C56.0732 130.255 55.3194 130.287 54.8855 130.039Z" fill="#667C9C"/>
<path d="M43.8489 127.777L39.6945 125.397C39.2607 125.149 39.3149 124.718 39.8139 124.433C40.3128 124.147 41.0667 124.115 41.5005 124.363L45.6549 126.743C46.0887 126.991 46.0345 127.422 45.5355 127.707C45.0366 127.993 44.2827 128.025 43.8489 127.777Z" fill="#667C9C"/>
<path d="M50.8235 131.774L46.6692 129.393C46.2353 129.145 46.2895 128.715 46.7885 128.429C47.2874 128.144 48.0413 128.111 48.4751 128.359L52.6295 130.74C53.0634 130.987 53.0091 131.418 52.5102 131.704C52.0058 131.989 51.2519 132.022 50.8235 131.774Z" fill="url(#paint26_linear)"/>
<path d="M64.9132 139.853L53.6379 133.39C53.204 133.142 53.2583 132.711 53.7572 132.425C54.2562 132.14 55.01 132.108 55.4439 132.355L66.7192 138.819C67.1531 139.066 67.0988 139.497 66.5999 139.783C66.1009 140.074 65.3471 140.101 64.9132 139.853Z" fill="#667C9C"/>
<path d="M50.6982 135.77L36.1526 127.433C35.7187 127.185 35.7729 126.754 36.2719 126.469C36.7708 126.183 37.5247 126.151 37.9585 126.399L52.5042 134.736C52.938 134.984 52.8838 135.415 52.3848 135.7C51.8859 135.986 51.132 136.018 50.6982 135.77Z" fill="#667C9C"/>
<path d="M68.1946 149.871L32.6115 129.469C32.1777 129.221 32.2319 128.79 32.7308 128.504C33.2298 128.219 33.9837 128.187 34.4175 128.434L70.0006 148.837C70.4344 149.084 70.3802 149.515 69.8813 149.801C69.3769 150.086 68.623 150.119 68.1946 149.871Z" fill="url(#paint27_linear)"/>
<path d="M78.5752 143.623L58.1018 131.881C57.6679 131.634 57.7221 131.203 58.2211 130.917C58.72 130.632 59.4739 130.6 59.9078 130.847L80.3812 142.589C80.8151 142.837 80.7608 143.268 80.2619 143.553C79.7629 143.838 79.0091 143.871 78.5752 143.623Z" fill="#667C9C"/>
<path d="M47.7816 159.627L44.7879 157.914C44.4896 157.742 44.251 157.284 44.251 156.891C44.251 156.497 44.495 156.314 44.7879 156.487L47.7816 158.199C48.0799 158.372 48.3186 158.83 48.3186 159.223C48.3186 159.616 48.0799 159.799 47.7816 159.627Z" fill="#667C9C"/>
<path d="M52.4955 162.336L49.5018 160.623C49.2035 160.451 48.9648 159.993 48.9648 159.6C48.9648 159.207 49.2089 159.023 49.5018 159.196L52.4955 160.909C52.7938 161.081 53.0324 161.539 53.0324 161.932C53.0324 162.325 52.7938 162.508 52.4955 162.336Z" fill="#667C9C"/>
<path d="M107.546 155.424C107.546 156.043 107.107 156.797 106.565 157.11C106.022 157.422 105.583 157.169 105.583 156.549C105.583 155.93 106.022 155.176 106.565 154.864C107.107 154.551 107.546 154.804 107.546 155.424Z" fill="#667C9C"/>
<path d="M82.2301 74.4991L83.3094 73.8797C83.3745 73.842 83.369 73.7774 83.2931 73.7343L82.2518 73.1364C82.1759 73.0934 82.062 73.088 81.9915 73.1257L80.9122 73.7451C80.8472 73.7828 80.8526 73.8474 80.9285 73.8905L81.9698 74.4883C82.0457 74.5314 82.1596 74.5368 82.2301 74.4991Z" fill="#283446"/>
<path d="M79.7409 75.921L80.8201 75.3016C80.8852 75.2639 80.8798 75.1993 80.8039 75.1562L79.7626 74.5584C79.6866 74.5153 79.5727 74.5099 79.5022 74.5476L78.423 75.167C78.3579 75.2047 78.3633 75.2693 78.4393 75.3124L79.4806 75.9103C79.5619 75.9534 79.6758 75.9587 79.7409 75.921Z" fill="#283446"/>
<path d="M77.2565 77.3483L78.3358 76.7289C78.4008 76.6912 78.3954 76.6266 78.3195 76.5835L77.2782 75.9856C77.2023 75.9425 77.0884 75.9372 77.0179 75.9749L75.9386 76.5943C75.8735 76.632 75.879 76.6966 75.9549 76.7397L76.9962 77.3375C77.0775 77.3806 77.1914 77.386 77.2565 77.3483Z" fill="#283446"/>
<path d="M67.9938 66.0269L69.0731 65.4075C69.1382 65.3698 69.1327 65.3052 69.0568 65.2621L68.0155 64.6643C67.9396 64.6212 67.8257 64.6158 67.7552 64.6535L66.6759 65.2729C66.6108 65.3106 66.6163 65.3752 66.6922 65.4183L67.7335 66.0162C67.8094 66.0592 67.9233 66.0646 67.9938 66.0269Z" fill="#283446"/>
<path d="M65.5046 67.4489L66.5838 66.8295C66.6489 66.7918 66.6435 66.7271 66.5675 66.6841L65.5262 66.0862C65.4503 66.0431 65.3364 66.0377 65.2659 66.0754L64.1867 66.6948C64.1216 66.7325 64.127 66.7972 64.2029 66.8403L65.2442 67.4381C65.3256 67.4812 65.4395 67.4866 65.5046 67.4489Z" fill="#283446"/>
<path d="M63.0202 68.8761L64.0994 68.2567C64.1645 68.219 64.1591 68.1544 64.0832 68.1113L63.0419 67.5135C62.9659 67.4704 62.8521 67.465 62.7815 67.5027L61.7023 68.1221C61.6372 68.1598 61.6426 68.2244 61.7186 68.2675L62.7599 68.8654C62.8412 68.9084 62.9551 68.9138 63.0202 68.8761Z" fill="#283446"/>
</g>
<defs>
<linearGradient id="paint0_linear" x1="13.4324" y1="107.01" x2="13.9164" y2="107.338" gradientUnits="userSpaceOnUse">
<stop stop-color="#f10202"/>
<stop offset="1" stop-color="#f74d4d"/>
</linearGradient>
<linearGradient id="paint1_linear" x1="54.7693" y1="60.0404" x2="55.2525" y2="60.3695" gradientUnits="userSpaceOnUse">
<stop stop-color="#f10202"/>
<stop offset="1" stop-color="#f74d4d"/>
</linearGradient>
<linearGradient id="paint2_linear" x1="116.632" y1="23.0037" x2="121.553" y2="24.6064" gradientUnits="userSpaceOnUse">
<stop stop-color="#f10202"/>
<stop offset="1" stop-color="#f74d4d"/>
</linearGradient>
<linearGradient id="paint3_linear" x1="116.632" y1="23.0037" x2="121.553" y2="24.6064" gradientUnits="userSpaceOnUse">
<stop stop-color="#f10202"/>
<stop offset="1" stop-color="#f74d4d"/>
</linearGradient>
<linearGradient id="paint4_linear" x1="112.573" y1="41.2376" x2="113.031" y2="41.3771" gradientUnits="userSpaceOnUse">
<stop stop-color="#f10202"/>
<stop offset="1" stop-color="#f74d4d"/>
</linearGradient>
<linearGradient id="paint5_linear" x1="57.7828" y1="95.0219" x2="58.4211" y2="95.2162" gradientUnits="userSpaceOnUse">
<stop stop-color="#f10202"/>
<stop offset="1" stop-color="#f74d4d"/>
</linearGradient>
<linearGradient id="paint6_linear" x1="59.9468" y1="87.1451" x2="60.5853" y2="87.3393" gradientUnits="userSpaceOnUse">
<stop stop-color="#f10202"/>
<stop offset="1" stop-color="#f74d4d"/>
</linearGradient>
<linearGradient id="paint7_linear" x1="55.6187" y1="75.5461" x2="56.2571" y2="75.7405" gradientUnits="userSpaceOnUse">
<stop stop-color="#f10202"/>
<stop offset="1" stop-color="#f74d4d"/>
</linearGradient>
<linearGradient id="paint8_linear" x1="72.1278" y1="70.8437" x2="73.0075" y2="71.4444" gradientUnits="userSpaceOnUse">
<stop stop-color="#f10202"/>
<stop offset="1" stop-color="#f74d4d"/>
</linearGradient>
<linearGradient id="paint9_linear" x1="84.98" y1="110.189" x2="85.6184" y2="110.383" gradientUnits="userSpaceOnUse">
<stop stop-color="#f10202"/>
<stop offset="1" stop-color="#f74d4d"/>
</linearGradient>
<linearGradient id="paint10_linear" x1="89.3082" y1="103.553" x2="89.9465" y2="103.748" gradientUnits="userSpaceOnUse">
<stop stop-color="#f10202"/>
<stop offset="1" stop-color="#f74d4d"/>
</linearGradient>
<linearGradient id="paint11_linear" x1="84.98" y1="91.9519" x2="85.6184" y2="92.1463" gradientUnits="userSpaceOnUse">
<stop stop-color="#f10202"/>
<stop offset="1" stop-color="#f74d4d"/>
</linearGradient>
<linearGradient id="paint12_linear" x1="101.489" y1="87.2495" x2="102.369" y2="87.8502" gradientUnits="userSpaceOnUse">
<stop stop-color="#f10202"/>
<stop offset="1" stop-color="#f74d4d"/>
</linearGradient>
<linearGradient id="paint13_linear" x1="107.073" y1="107.038" x2="107.531" y2="107.178" gradientUnits="userSpaceOnUse">
<stop stop-color="#f10202"/>
<stop offset="1" stop-color="#f74d4d"/>
</linearGradient>
<linearGradient id="paint14_linear" x1="118.67" y1="129.078" x2="119.309" y2="129.272" gradientUnits="userSpaceOnUse">
<stop stop-color="#f10202"/>
<stop offset="1" stop-color="#f74d4d"/>
</linearGradient>
<linearGradient id="paint15_linear" x1="114.342" y1="117.476" x2="114.981" y2="117.67" gradientUnits="userSpaceOnUse">
<stop stop-color="#f10202"/>
<stop offset="1" stop-color="#f74d4d"/>
</linearGradient>
<linearGradient id="paint16_linear" x1="116.506" y1="109.599" x2="117.145" y2="109.794" gradientUnits="userSpaceOnUse">
<stop stop-color="#f10202"/>
<stop offset="1" stop-color="#f74d4d"/>
</linearGradient>
<linearGradient id="paint17_linear" x1="130.851" y1="103.655" x2="131.731" y2="104.256" gradientUnits="userSpaceOnUse">
<stop stop-color="#f10202"/>
<stop offset="1" stop-color="#f74d4d"/>
</linearGradient>
<linearGradient id="paint18_linear" x1="134.727" y1="117.099" x2="135.185" y2="117.239" gradientUnits="userSpaceOnUse">
<stop stop-color="#f10202"/>
<stop offset="1" stop-color="#f74d4d"/>
</linearGradient>
<linearGradient id="paint19_linear" x1="136.224" y1="134.485" x2="136.682" y2="134.625" gradientUnits="userSpaceOnUse">
<stop stop-color="#f10202"/>
<stop offset="1" stop-color="#f74d4d"/>
</linearGradient>
<linearGradient id="paint20_linear" x1="130.716" y1="75.5609" x2="135.351" y2="77.1028" gradientUnits="userSpaceOnUse">
<stop stop-color="#f10202"/>
<stop offset="1" stop-color="#f74d4d"/>
</linearGradient>
<linearGradient id="paint21_linear" x1="130.716" y1="75.5609" x2="135.351" y2="77.1028" gradientUnits="userSpaceOnUse">
<stop stop-color="#f10202"/>
<stop offset="1" stop-color="#f74d4d"/>
</linearGradient>
<linearGradient id="paint22_linear" x1="101.678" y1="59.0205" x2="106.313" y2="60.5625" gradientUnits="userSpaceOnUse">
<stop stop-color="#f10202"/>
<stop offset="1" stop-color="#f74d4d"/>
</linearGradient>
<linearGradient id="paint23_linear" x1="101.678" y1="59.0205" x2="106.313" y2="60.5625" gradientUnits="userSpaceOnUse">
<stop stop-color="#f10202"/>
<stop offset="1" stop-color="#f74d4d"/>
</linearGradient>
<linearGradient id="paint24_linear" x1="119.238" y1="44.8085" x2="119.696" y2="44.948" gradientUnits="userSpaceOnUse">
<stop stop-color="#f10202"/>
<stop offset="1" stop-color="#f74d4d"/>
</linearGradient>
<linearGradient id="paint25_linear" x1="125.909" y1="48.3848" x2="126.367" y2="48.5244" gradientUnits="userSpaceOnUse">
<stop stop-color="#f10202"/>
<stop offset="1" stop-color="#f74d4d"/>
</linearGradient>
<linearGradient id="paint26_linear" x1="48.4653" y1="128.192" x2="50.7809" y2="129.773" gradientUnits="userSpaceOnUse">
<stop stop-color="#f10202"/>
<stop offset="1" stop-color="#f74d4d"/>
</linearGradient>
<linearGradient id="paint27_linear" x1="44.4382" y1="128.268" x2="57.8807" y2="137.435" gradientUnits="userSpaceOnUse">
<stop stop-color="#f10202"/>
<stop offset="1" stop-color="#f74d4d"/>
</linearGradient>
<clipPath id="clip0">
<rect width="153" height="180" fill="white"/>
</clipPath>
</defs>
</svg>
