<svg width="90" height="90" viewBox="0 0 90 90" fill="none" xmlns="http://www.w3.org/2000/svg">
<rect width="90" height="90" rx="5" fill="white"/>
<path d="M56.5571 47.0579C55.8302 45.9063 55.3052 44.6392 55.0043 43.311V34.1478C54.9284 29.9159 51.4362 26.5468 47.2043 26.6227C47.0273 26.6259 46.8504 26.6352 46.6741 26.6506C41.2977 26.6506 38.0373 29.0313 36.7078 33.9295C36.5871 34.3734 36.849 34.8312 37.293 34.952C37.3072 34.9559 37.3216 34.9594 37.3359 34.9625C39.0265 35.335 40.7354 35.6186 42.4556 35.8122C42.836 35.8368 43.1846 35.6001 43.302 35.2374C43.7918 33.7246 44.1633 33.3147 45.841 33.3147C47.7869 33.3147 48.2585 34.3144 48.3301 36.6851C39.1285 37.1933 35.0117 39.7656 35.0117 44.977C35.0117 48.7306 39.0418 51.6411 42.5089 51.6411C44.8992 51.8499 47.2727 51.0866 49.0931 49.5236C49.9983 50.3731 51.0388 51.0657 52.1719 51.5728C52.2772 51.618 52.3906 51.6411 52.5052 51.6411C52.7262 51.6415 52.9384 51.5541 53.0949 51.3979L56.427 48.0658C56.6941 47.7983 56.7475 47.3845 56.5571 47.0579ZM48.0919 46.8247C47.3012 47.7084 46.1921 48.2423 45.008 48.3091C44.2483 48.3091 41.7659 48.0092 41.6759 44.164C41.6677 43.3721 41.9858 42.6116 42.5556 42.0615C44.4464 40.6078 46.7906 39.8701 49.1731 39.9789C49.6192 39.9784 49.9865 40.3295 50.0062 40.7752C50.2456 42.971 49.551 45.1664 48.0919 46.8247Z" fill="#37474F"/>
<path d="M64.3781 53.3357C64.1432 53.2757 58.6119 51.8529 56.0796 54.3853C55.7599 54.7162 55.7691 55.2436 56.1 55.5632C56.4228 55.8751 56.9347 55.8751 57.2574 55.5632C58.5903 54.2304 61.6342 54.4836 63.2968 54.8002C63.1535 56.6461 62.5937 59.5584 61.3692 60.0282C60.9371 60.1864 60.7153 60.6649 60.8735 61.0969C61.0317 61.529 61.5102 61.7508 61.9422 61.5926C61.9495 61.5899 61.9568 61.5871 61.9639 61.5843C64.7663 60.5114 64.9845 54.8085 64.9995 54.1555C65.0059 53.7716 64.7494 53.4332 64.3781 53.3357Z" fill="#FFC107"/>
<path d="M61.6677 57.4725C61.6677 56.5524 60.9218 55.8065 60.0017 55.8065C59.6623 55.8077 59.3318 55.9155 59.057 56.1148C47.8396 60.5747 38.0099 59.7634 26.2427 53.4074C25.8421 53.1812 25.334 53.3224 25.1077 53.7231C24.9189 54.0574 24.9831 54.4776 25.263 54.7403C31.1059 60.4965 37.5801 63.3787 44.6208 63.3787C50.0926 63.2379 55.4497 61.78 60.2383 59.1286C61.0612 59.0105 61.6711 58.3039 61.6677 57.4725Z" fill="#FFC107"/>
</svg>
