<svg id="Слой_1" data-name="Слой 1" xmlns="http://www.w3.org/2000/svg" viewBox="0 0 69.74 56.3">
  <defs>
    <style>
      .cls-1 {
        fill: none;
        stroke: #57c969;
        stroke-miterlimit: 22.93;
        stroke-width: 2px;
      }
    </style>
  </defs>
  <g>
    <path class="cls-1" d="M5.31,1.9H64.06a3.42,3.42,0,0,1,3.41,3.39v8.86a3.41,3.41,0,0,1-3.41,3.39H5.31A3.4,3.4,0,0,1,1.9,14.15V5.29A3.41,3.41,0,0,1,5.31,1.9Zm45,3.59h1.06a.41.41,0,0,1,.41.4v7.66a.41.41,0,0,1-.41.4H50.35a.4.4,0,0,1-.4-.4V5.89a.4.4,0,0,1,.4-.4Zm4.3,0h1.06a.4.4,0,0,1,.4.4v7.66a.4.4,0,0,1-.4.4H54.65a.41.41,0,0,1-.41-.4V5.89a.41.41,0,0,1,.41-.4Zm4.29,0H60a.4.4,0,0,1,.4.4v7.66a.4.4,0,0,1-.4.4H58.94a.4.4,0,0,1-.4-.4V5.89a.4.4,0,0,1,.4-.4ZM18.84,7.63a2.22,2.22,0,1,1-2.23,2.21,2.22,2.22,0,0,1,2.23-2.21Zm-8,0A2.22,2.22,0,1,1,8.63,9.84a2.22,2.22,0,0,1,2.24-2.21Z"/>
    <path class="cls-1" d="M5.31,20.18H64.06a3.41,3.41,0,0,1,3.41,3.38v8.87a3.41,3.41,0,0,1-3.41,3.38H5.31A3.4,3.4,0,0,1,1.9,32.43V23.56a3.4,3.4,0,0,1,3.41-3.38Zm45,3.58h1.06a.42.42,0,0,1,.41.41v7.66a.41.41,0,0,1-.41.4H50.35a.4.4,0,0,1-.4-.4V24.17A.41.41,0,0,1,50.35,23.76Zm4.3,0h1.06a.41.41,0,0,1,.4.41v7.66a.4.4,0,0,1-.4.4H54.65a.41.41,0,0,1-.41-.4V24.17A.42.42,0,0,1,54.65,23.76Zm4.29,0H60a.41.41,0,0,1,.4.41v7.66a.4.4,0,0,1-.4.4H58.94a.4.4,0,0,1-.4-.4V24.17A.41.41,0,0,1,58.94,23.76ZM18.84,25.9a2.22,2.22,0,1,1-2.23,2.22A2.22,2.22,0,0,1,18.84,25.9Zm-8,0a2.22,2.22,0,1,1-2.24,2.22A2.22,2.22,0,0,1,10.87,25.9Z"/>
    <path class="cls-1" d="M5.31,38.76H64.06a3.41,3.41,0,0,1,3.41,3.38V51a3.41,3.41,0,0,1-3.41,3.38H5.31A3.4,3.4,0,0,1,1.9,51V42.14a3.4,3.4,0,0,1,3.41-3.38Zm45,3.58h1.06a.41.41,0,0,1,.41.41v7.66a.41.41,0,0,1-.41.4H50.35a.4.4,0,0,1-.4-.4V42.75A.4.4,0,0,1,50.35,42.34Zm4.3,0h1.06a.4.4,0,0,1,.4.41v7.66a.4.4,0,0,1-.4.4H54.65a.41.41,0,0,1-.41-.4V42.75A.41.41,0,0,1,54.65,42.34Zm4.29,0H60a.4.4,0,0,1,.4.41v7.66a.4.4,0,0,1-.4.4H58.94a.4.4,0,0,1-.4-.4V42.75A.4.4,0,0,1,58.94,42.34Zm-40.1,2.14a2.22,2.22,0,1,1-2.23,2.22A2.22,2.22,0,0,1,18.84,44.48Zm-8,0A2.22,2.22,0,1,1,8.63,46.7,2.22,2.22,0,0,1,10.87,44.48Z"/>
  </g>
</svg>
