<svg width="23" height="24" viewBox="0 0 23 24" fill="none" xmlns="http://www.w3.org/2000/svg">
<path d="M6.80368 3.92703L8.23551 3.17881C8.24395 3.17438 8.25256 3.17029 8.26125 3.16654L8.26074 3.16543C8.36993 3.11846 8.46906 3.09946 8.57007 3.09852C8.65488 3.09767 8.72708 3.1102 8.80234 3.12903L12.8565 3.90172C13.0029 3.92916 13.1137 4.03733 13.1516 4.1715L18.1417 21.0032C18.161 21.0682 18.1737 21.1292 18.1806 21.1865C18.2183 21.498 18.1086 21.735 17.9572 21.9041C17.8153 22.0625 17.6314 22.156 17.5075 22.1927C17.4679 22.2044 17.4316 22.2121 17.4005 22.2159L14.7404 22.538C14.6074 22.5541 14.476 22.5471 14.3589 22.5302C14.3415 22.5287 14.3244 22.5261 14.3075 22.5222C14.132 22.4921 13.9937 22.4412 13.9446 22.4217L13.397 22.2538C12.8783 22.0948 12.7368 21.6695 12.7028 21.522L12.0069 19.0709C11.0808 19.118 8.31708 19.2608 8.12785 19.2997C8.09921 19.3056 8.07552 19.3913 8.07552 19.3915L7.03715 22.7579C6.82772 23.4368 6.04114 23.4704 5.87058 23.4697C5.60319 23.4963 2.96677 23.76 2.4631 23.8278C2.3771 23.8393 2.29365 23.8422 2.21208 23.8385C2.12812 23.8771 2.03001 23.8852 1.93548 23.8539C1.87948 23.8354 1.83063 23.8051 1.791 23.7665C1.6986 23.741 1.60876 23.7111 1.51875 23.6808C1.3706 23.6311 1.22945 23.5771 1.09639 23.5181C0.962911 23.4589 0.82653 23.3897 0.686655 23.3092C0.423354 23.1573 0.294645 22.9378 0.241286 22.712C0.169174 22.4065 0.256543 22.0864 0.305981 21.9591L6.5986 4.14806C6.63491 4.04517 6.71111 3.96778 6.80368 3.92703ZM8.11924 4.09342L7.26465 4.54007L1.02113 22.2113L1.02062 22.2111C1.01721 22.2207 1.01346 22.2301 1.00928 22.2395C0.992063 22.2781 0.950126 22.4118 0.980385 22.5398C0.990614 22.5831 1.01482 22.6249 1.06366 22.6531C1.16774 22.7131 1.28093 22.7698 1.40214 22.8235C1.52369 22.8773 1.64251 22.9234 1.75921 22.9625L1.82544 22.9847L8.11924 4.09342ZM12.4891 4.60331L8.97026 3.93266L2.60187 23.0476C3.44394 22.9506 5.64376 22.7309 5.80861 22.7144C5.82975 22.7118 5.8514 22.711 5.87339 22.712C5.8745 22.7121 6.25236 22.7314 6.31288 22.5353L7.34827 19.1793C7.37171 19.1049 7.5317 18.6492 7.97647 18.5576C8.25119 18.5011 11.9676 18.3141 12.2535 18.2998C12.2691 18.2983 12.2847 18.2978 12.3001 18.2982L13.2941 18.2491C13.3049 18.2486 13.3154 18.2486 13.326 18.2489C13.4358 18.2505 13.5455 18.2835 13.637 18.3449C13.7382 18.4128 13.8177 18.5131 13.8553 18.6428L13.8577 18.6518L13.8582 18.6517L14.685 21.78L17.3007 21.4632C17.3266 21.454 17.3627 21.4336 17.3931 21.3995C17.4168 21.3731 17.4336 21.3332 17.4266 21.2755C17.4243 21.2562 17.4203 21.2366 17.4145 21.2169L12.4891 4.60331ZM13.6196 21.5296L13.8536 21.6013L13.1698 19.0139L12.7845 19.0329L13.4336 21.3193L13.4331 21.3194C13.4379 21.3367 13.4416 21.3545 13.444 21.3727C13.444 21.3731 13.4568 21.4796 13.6196 21.5296ZM9.15386 15.0464L9.41614 15.0421C9.7819 15.0359 10.3083 15.0276 10.8093 15.0207C10.6321 14.3286 10.3828 13.3602 10.1676 12.5441C10.1232 12.3757 10.0795 12.2105 10.0371 12.0513C9.88563 12.5537 9.72837 13.0779 9.58091 13.5747C9.37753 14.2599 9.21379 14.8201 9.15386 15.0464ZM11.5908 15.0113C11.8513 15.0088 12.0605 15.0077 12.1718 15.0091C12.165 14.9597 12.1499 14.8952 12.1303 14.8228C12.0634 14.5751 11.4394 12.2874 10.9839 10.7151C10.8846 10.3723 10.7932 10.0614 10.7175 9.81008L10.4498 10.6879C10.5713 11.1137 10.7329 11.7145 10.9008 12.3511C11.1655 13.3551 11.426 14.3672 11.5908 15.0113ZM12.1964 15.7668C12.0783 15.7637 11.73 15.7663 11.3035 15.7714H11.3008C10.3854 15.7822 9.11687 15.8042 8.96873 15.8068C8.93284 15.8086 8.89602 15.8055 8.85928 15.7966C8.85775 15.7963 8.31887 15.6787 8.37547 15.0788C8.38655 14.9613 8.58882 14.2533 8.85366 13.361C9.09241 12.5567 9.42023 11.4736 9.6895 10.5875C9.69206 10.5781 9.69495 10.5689 9.69819 10.5597C9.93021 9.79585 10.1083 9.2141 10.1394 9.11241L10.1444 9.09468C10.1455 9.09101 10.5405 7.79301 11.1553 8.78194C11.2351 8.91031 11.4544 9.6183 11.7112 10.5043C12.1907 12.1599 12.7991 14.3886 12.8635 14.6269C12.9303 14.8738 12.96 15.1092 12.8995 15.3096C12.8116 15.6006 12.6013 15.7772 12.1964 15.7668ZM15.4388 4.99404C15.4352 4.6952 15.5795 4.6132 15.7885 4.49438C15.8049 4.48509 15.8225 4.47511 15.8437 4.46224C15.9482 4.39491 16.076 4.31819 16.2094 4.23798C17.0072 3.75877 18.0439 3.13602 18.813 1.23854L18.8181 1.22661C18.8412 1.16847 18.8699 1.11213 18.9295 1.04846C19.0019 0.971061 19.0946 0.914804 19.2287 0.890426L19.245 0.887869V0.887443L21.5068 0.575812L21.5247 0.573852L21.5246 0.572829C21.5563 0.570101 21.5529 0.570613 21.5489 0.571039C21.5976 0.565754 21.6528 0.559873 21.7221 0.564305C21.7745 0.56763 21.8302 0.577517 21.8894 0.597974C21.9554 0.620818 22.0188 0.655084 22.0766 0.705033L22.0883 0.715603L22.0885 0.715432L22.6012 1.19797C22.6144 1.21041 22.6266 1.22371 22.6377 1.23752C22.6722 1.27937 22.7019 1.32471 22.726 1.38259C22.7503 1.44089 22.7658 1.50559 22.7701 1.58384C22.7709 1.59765 22.7709 1.61128 22.7702 1.62475L22.8029 14.8641C22.8029 14.872 22.8025 14.88 22.8021 14.8878H22.8029C22.797 14.979 22.7732 15.0543 22.7371 15.1194C22.6935 15.1982 22.639 15.2507 22.5784 15.2908L22.5606 15.3018L21.9823 15.6768C21.9729 15.6828 21.9634 15.6884 21.9539 15.6936C21.8878 15.7293 21.8139 15.7531 21.7199 15.764C21.6582 15.7711 21.5813 15.7725 21.4807 15.7678L21.4645 15.7668L21.4644 15.7678L18.6974 15.5265C18.6692 15.5241 18.642 15.5186 18.6161 15.5105C18.5347 15.4881 18.455 15.4424 18.3923 15.3699C18.328 15.2953 18.2839 15.1975 18.2802 15.0758L18.2801 7.72959L17.329 8.22849C17.2989 8.24767 17.2655 8.26284 17.2295 8.27307L17.1239 8.30324C17.0676 8.31927 17.0107 8.32165 16.9566 8.31245L15.8879 8.21093C15.8509 8.2088 15.814 8.2013 15.7787 8.18843L15.7786 8.18877C15.6976 8.15902 15.6267 8.11418 15.5668 8.05264C15.5027 7.98667 15.4571 7.90782 15.432 7.81491C15.4205 7.7717 15.4169 7.72823 15.4204 7.68603L15.4388 4.99404ZM16.2458 5.10485C16.2295 5.11491 16.2121 5.12505 16.1948 5.13503L16.1807 7.18347C16.5467 6.97182 16.9162 6.74611 17.2455 6.53975C17.6777 6.26895 18.1345 5.96968 18.3406 5.83449C18.4267 5.77815 18.5135 5.75445 18.5973 5.75445C18.6525 5.75445 18.7043 5.76519 18.7527 5.7848C18.7748 5.79298 18.7964 5.80329 18.8174 5.81591C18.8757 5.8512 18.9217 5.89757 18.9563 5.95042C19.0094 6.03139 19.0343 6.13052 19.0343 6.21772C19.0343 6.85002 19.0341 6.79998 19.0342 6.81661L19.035 7.06422C19.0364 7.07726 19.037 7.09039 19.037 7.10377L19.0371 14.7935L21.312 14.9919L21.2965 1.36963L19.4765 1.62041C18.6174 3.67507 17.478 4.35945 16.5983 4.88801C16.4828 4.95739 16.3724 5.02371 16.2533 5.10042L16.2458 5.10485ZM17.3741 7.35028L18.2775 6.87636L18.2771 6.78072C18.1034 6.89238 17.8923 7.02672 17.6463 7.18091C17.5574 7.23657 17.4665 7.29326 17.3741 7.35028Z" fill="#FF4B55"/>
</svg>
