<svg width="98" height="39" viewBox="0 0 98 39" fill="none" xmlns="http://www.w3.org/2000/svg">
<path d="M90.416 27.3327C90.1547 27.3327 89.9748 27.1627 89.9748 26.9183V14.7781H85.5798C85.3185 14.7781 85.1382 14.6089 85.1382 14.3642V12.6896C85.1382 12.4444 85.3186 12.2748 85.5798 12.2748H97.2786C97.5396 12.2748 97.7193 12.4446 97.7193 12.6896V14.3642C97.7193 14.6086 97.5396 14.7781 97.2786 14.7781H92.8838V26.9182C92.8838 27.1627 92.703 27.3327 92.4427 27.3327H90.416ZM56.7494 21.2716L54.4423 15.0608L52.1145 21.2716H56.7494ZM61.8663 26.8421C61.9672 27.0874 61.8063 27.3327 61.5253 27.3327H59.4388C59.1377 27.3327 58.9569 27.2013 58.8562 26.9366L57.6729 23.7379H51.1922L50.0067 26.9366C49.9072 27.2014 49.7259 27.3327 49.4255 27.3327H47.4597C47.1985 27.3327 47.0176 27.0873 47.118 26.8421L52.5557 12.652C52.6564 12.3876 52.8369 12.2754 53.1373 12.2754H55.8262C56.1274 12.2754 56.3281 12.3877 56.4284 12.652L61.8663 26.8421ZM77.453 25.2995C78.7366 25.2995 79.5999 24.717 80.3024 23.719L77.0522 20.4436C75.8076 21.1028 75.0045 21.7607 75.0045 23.0787C75.0047 24.3776 76.1279 25.2995 77.453 25.2995ZM78.3558 14.2698C77.3127 14.2698 76.7108 14.8915 76.7108 15.7195C76.7108 16.3594 77.0712 16.9241 77.8942 17.7525C79.3187 16.9803 79.921 16.51 79.921 15.6821C79.921 14.9098 79.3996 14.2698 78.3558 14.2698ZM87.2457 26.8056C87.5063 27.0693 87.3461 27.3327 87.0241 27.3327H84.4758C84.1348 27.3327 83.9542 27.257 83.7336 27.012L82.2086 25.4317C81.1854 26.7117 79.7596 27.6713 77.3924 27.6713C74.4629 27.6713 72.1547 26.0151 72.1547 23.1736C72.1547 20.9895 73.3994 19.8223 75.2859 18.8438C74.3621 17.8463 73.9415 16.7922 73.9415 15.8704C73.9415 13.5359 75.6871 11.9363 78.3153 11.9363C81.0042 11.9363 82.6499 13.4237 82.6499 15.6255C82.6499 17.5076 81.2055 18.5607 79.6799 19.3518L81.9277 21.63L83.1916 19.5589C83.352 19.3145 83.5327 19.2201 83.8533 19.2201H85.7992C86.1208 19.2201 86.3014 19.4277 86.1014 19.7475L83.8535 23.3607L87.2457 26.8056ZM67.2205 27.3327C67.4813 27.3327 67.6628 27.1627 67.6628 26.9183V14.7781H72.0565C72.3174 14.7781 72.4978 14.6089 72.4978 14.3642V12.6896C72.4978 12.4444 72.3174 12.2748 72.0565 12.2748H60.3578C60.0965 12.2748 59.9163 12.4446 59.9163 12.6896V14.3642C59.9163 14.6086 60.0966 14.7781 60.3578 14.7781H64.7515V26.9182C64.7515 27.1627 64.9327 27.3327 65.1933 27.3327H67.2205Z" fill="#5C5C5C"/>
<path d="M7.83388 34.6565C11.2369 37.1284 15.5082 38.6135 20.1424 38.6135C25.2138 38.6135 29.837 36.8468 33.3655 33.9466C33.4082 33.9111 33.3871 33.8877 33.345 33.9111C31.7616 34.9034 27.249 37.0694 20.1426 37.0694C13.9669 37.0694 10.064 35.7764 7.86004 34.622C7.81787 34.6025 7.80225 34.6322 7.83388 34.6565ZM21.5049 35.6189C26.4444 35.6189 31.8722 34.3554 35.1186 31.8543C36.0069 31.1729 36.8531 30.2659 37.6109 29.047C38.0472 28.3457 38.4739 27.5125 38.8215 26.6935C38.8369 26.6535 38.8106 26.6341 38.7786 26.679C35.7597 30.8477 27.0178 33.4479 17.9913 33.4479C11.6111 33.4479 4.746 31.5334 2.05828 27.8777C2.03183 27.8439 2.00537 27.8584 2.02148 27.8972C4.52528 32.8909 12.1212 35.6189 21.5049 35.6189ZM16.1081 27.3346C5.83497 27.3346 0.990983 22.8449 0.11229 19.781C0.101454 19.7367 0.0703125 19.7464 0.0703125 19.7862C0.0703125 20.8177 0.180332 22.1488 0.369621 23.0323C0.459921 23.4624 0.832933 24.1373 1.37981 24.6753C3.86741 27.1084 10.0693 30.5177 20.81 30.5177C35.4438 30.5177 38.7898 25.9436 39.4731 24.4394C39.9617 23.3636 40.2148 21.4194 40.2148 19.7863C40.2148 19.3911 40.2043 19.0755 40.1884 18.7656C40.1884 18.7153 40.1573 18.7112 40.1466 18.7602C39.4153 22.4409 26.9124 27.3346 16.1081 27.3346ZM2.00537 11.7093C1.41671 12.8055 0.764208 14.6549 0.570233 15.6121C0.485205 16.0222 0.521423 16.2192 0.674689 16.5252C1.90599 18.9766 8.13416 22.8989 22.662 22.8989C31.5251 22.8989 38.4102 20.8557 39.5256 17.1271C39.731 16.4407 39.742 15.7161 39.4782 14.7396C39.1833 13.6484 38.6312 12.3759 38.1639 11.4824C38.1484 11.4533 38.1212 11.4576 38.1268 11.492C38.3004 16.3824 23.7667 19.5342 16.4337 19.5342C8.49067 19.5342 1.86401 16.5646 1.86401 12.8149C1.86401 12.4546 1.94348 12.0942 2.04266 11.7192C2.05262 11.6849 2.02138 11.6792 2.00537 11.7093ZM33.398 5.70491C33.4823 5.82894 33.5244 5.96131 33.5244 6.13948C33.5244 8.23135 26.7015 11.932 15.8404 11.932C7.86004 11.932 6.36594 9.15399 6.36594 7.38731C6.36594 6.75579 6.62405 6.10962 7.1925 5.45336C7.22355 5.41434 7.19719 5.39932 7.16136 5.42836C6.12462 6.25279 5.17202 7.18047 4.33638 8.18189C3.93711 8.65548 3.68925 9.07503 3.68925 9.32639C3.68925 12.9875 13.4725 15.642 22.6201 15.642C32.3671 15.642 36.7171 12.6563 36.7171 10.0324C36.7171 9.09463 36.3281 8.5472 35.3329 7.48588C34.687 6.79546 34.076 6.23328 33.4292 5.6799C33.398 5.65572 33.3762 5.67541 33.398 5.70491ZM30.4099 3.61349C27.4018 1.92156 23.9086 0.958984 20.1426 0.958984C16.3504 0.958984 12.752 1.95518 9.73301 3.69191C8.82747 4.21487 8.31779 4.63396 8.31779 5.17269C8.31779 6.76074 12.2729 8.46824 19.2899 8.46824C26.234 8.46824 31.62 6.59796 31.62 4.79766C31.62 4.36794 31.2197 4.0673 30.4099 3.61349Z" fill="#00A8E0"/>
</svg>
