<svg width="95" height="30" viewBox="0 0 95 30" fill="none" xmlns="http://www.w3.org/2000/svg">
<path d="M90.5604 12.396C90.5459 12.396 90.5293 12.4107 90.5293 12.4272V12.7124C90.5293 12.7289 90.5459 12.7435 90.5604 12.7435H91.0898V14.5467C91.0898 14.5635 91.1036 14.5781 91.1209 14.5781H91.4176C91.4341 14.5781 91.4514 14.5635 91.4514 14.5467V12.7435H91.978C91.9946 12.7435 92.0094 12.7289 92.0094 12.7124V12.4272C92.0094 12.4107 91.9946 12.396 91.978 12.396" fill="#1B273A"/>
<path d="M68.6543 9.68982C68.6543 10.2742 69.1117 10.729 69.6959 10.729C70.2779 10.729 70.7378 10.2742 70.7378 9.68982C70.7378 9.11042 70.2779 8.65057 69.6959 8.65057C69.1117 8.65057 68.6543 9.10803 68.6543 9.68982Z" fill="#1B273A"/>
<path d="M74.109 13.1028L74.0446 13.1407L73.9103 12.7673C73.865 12.6403 73.7455 12.5565 73.6135 12.5565H72.9429C72.7705 12.5565 72.6289 12.6973 72.6289 12.8729V21.4683C72.6289 21.6407 72.7705 21.7847 72.9429 21.7847H74.1452C74.3198 21.7847 74.4616 21.6407 74.4616 21.4683V14.5106L74.4946 14.4964C74.9907 14.2377 75.491 14.0797 76.4657 14.0797C77.6369 14.0797 77.8719 14.518 77.8719 15.2293V21.4684C77.8719 21.6409 78.0134 21.7824 78.1856 21.7824H79.3905C79.5627 21.7824 79.7038 21.6409 79.7038 21.4684V15.2795C79.7038 13.3848 78.5853 12.3842 76.4657 12.3842C75.6804 12.3842 74.8877 12.6258 74.109 13.103" fill="#1B273A"/>
<path d="M70.5943 12.8729C70.5943 12.6973 70.4532 12.5564 70.2803 12.5564H69.1091C68.937 12.5564 68.7959 12.6973 68.7959 12.8729V21.4682C68.7959 21.6407 68.937 21.7822 69.1091 21.7822H70.2779C70.4532 21.7822 70.5943 21.6407 70.5943 21.4682" fill="#1B273A"/>
<path d="M66.5938 8.57363C66.5938 8.39883 66.4523 8.25726 66.2774 8.25726H65.1137C64.9364 8.25726 64.7949 8.39883 64.7949 8.57363V21.4682C64.7949 21.6407 64.9364 21.7822 65.1113 21.7822H66.2774C66.4523 21.7822 66.5938 21.6407 66.5938 21.4682" fill="#1B273A"/>
<path d="M48.5748 16.3572C48.6637 15.1739 48.9745 14.0796 50.639 14.0796C52.0689 14.0796 52.3467 14.8484 52.3805 16.3596L52.3829 16.4265H48.5697L48.5748 16.3572ZM46.7139 17.1715C46.7139 18.3549 46.7139 21.957 50.639 21.957C51.8152 21.957 52.5912 21.8852 53.6043 21.5597C53.7238 21.5235 53.7911 21.3966 53.7911 21.2745V20.3071C53.7911 20.1991 53.7384 20.1009 53.6496 20.0434C53.5612 19.9833 53.4582 19.9955 53.3528 20.0171C52.4736 20.2015 51.7721 20.2611 50.639 20.2611C49.0059 20.2611 48.6852 19.2244 48.5822 18.1059L48.5748 18.036H53.9059C54.0812 18.036 54.2222 17.8951 54.2222 17.7227V17.1716C54.2222 14.8558 53.947 12.3868 50.639 12.3868C46.7139 12.3842 46.7139 15.9889 46.7139 17.1716" fill="#1B273A"/>
<path d="M57.4955 16.3572C57.5839 15.1739 57.8955 14.0796 59.5624 14.0796C60.9898 14.0796 61.2677 14.8484 61.2987 16.3596L61.3011 16.4265H57.4907L57.4955 16.3572ZM55.6348 17.1715C55.6348 18.3549 55.6348 21.957 59.5624 21.957C60.7383 21.957 61.5122 21.8852 62.5274 21.5597C62.6446 21.5235 62.7144 21.3966 62.7144 21.2745V20.3071C62.7144 20.1991 62.6594 20.1009 62.5705 20.0434C62.4821 19.9833 62.3767 19.9955 62.2762 20.0171C61.3946 20.2015 60.6955 20.2611 59.5624 20.2611C57.9266 20.2611 57.6059 19.2244 57.5029 18.1059L57.4955 18.036H62.8292C63.0014 18.036 63.1431 17.8951 63.1431 17.7227V17.1716C63.1431 14.8558 62.8653 12.3868 59.5624 12.3868C55.6348 12.3842 55.6348 15.9889 55.6348 17.1716" fill="#1B273A"/>
<path d="M83.151 16.3572C83.2394 15.1739 83.5507 14.0796 85.2155 14.0796C86.6454 14.0796 86.9229 14.8484 86.9543 16.3596L86.9567 16.4265H83.1462L83.151 16.3572ZM81.292 17.1715C81.292 18.3549 81.292 21.957 85.2155 21.957C86.3915 21.957 87.1646 21.8852 88.183 21.5597C88.2977 21.5235 88.3669 21.3966 88.3669 21.2745V20.3071C88.3669 20.1991 88.3142 20.1009 88.2258 20.0434C88.137 19.9833 88.0321 19.9955 87.9291 20.0171C87.0474 20.2015 86.3503 20.2611 85.2155 20.2611C83.5797 20.2611 83.2607 19.2244 83.1577 18.1059L83.1486 18.036H88.4821C88.6545 18.036 88.7961 17.8951 88.7961 17.7227V17.1716C88.7961 14.8558 88.5202 12.3868 85.2155 12.3868C81.2877 12.3842 81.292 15.9889 81.292 17.1716" fill="#1B273A"/>
<path d="M40.8987 15.6625C42.7572 15.6625 43.4157 16.2276 43.4157 17.8182C43.4157 18.8837 43.1115 19.9739 40.8649 19.9739H38.1612V15.6598H40.8987L40.8987 15.6625ZM40.7596 10.0221C42.7161 10.0221 42.9845 10.9517 42.9845 11.9531C42.9845 13.2296 42.3023 13.8518 40.8988 13.8518H38.1613V10.0221H40.7596ZM36.5997 8.21153C36.4126 8.21153 36.2617 8.36242 36.2617 8.54948V21.4441C36.2617 21.6311 36.4126 21.7844 36.5997 21.7844H40.7977C43.7989 21.7844 45.4511 20.3737 45.4511 17.8182C45.4511 16.4263 44.781 15.2388 43.6578 14.6422C43.6578 14.6422 43.629 14.628 43.6026 14.6108C43.6266 14.5967 43.653 14.5778 43.653 14.5778C44.5223 13.9458 45.0203 12.9899 45.0203 11.9531C45.0203 10.5563 44.4575 8.21158 40.6755 8.21158" fill="#1B273A"/>
<path d="M93.9371 12.396C93.923 12.396 93.9132 12.4058 93.9083 12.415C93.9083 12.415 93.3675 13.675 93.3149 13.7995C93.2621 13.675 92.723 12.415 92.723 12.415C92.7182 12.4058 92.7065 12.396 92.6943 12.396H92.3374C92.3185 12.396 92.3037 12.4107 92.3037 12.4272V14.5467C92.3037 14.5635 92.3162 14.5781 92.3374 14.5781H92.6275C92.6318 14.5781 92.644 14.5757 92.649 14.5683C92.6539 14.5635 92.6582 14.5566 92.6582 14.5443C92.6582 14.5443 92.649 13.3157 92.644 13.0571C92.7446 13.287 93.1757 14.2763 93.1757 14.2763C93.1781 14.2881 93.1903 14.2955 93.2045 14.2955H93.4296C93.4418 14.2955 93.4533 14.2881 93.456 14.2763C93.456 14.2763 93.8868 13.287 93.9831 13.0571C93.9831 13.3157 93.9732 14.5443 93.9732 14.5443C93.9732 14.5566 93.9756 14.5635 93.9807 14.5683C93.9874 14.5757 93.9948 14.5781 94.0046 14.5781H94.294C94.3112 14.5781 94.3277 14.5635 94.3277 14.5467V12.4272C94.3277 12.4107 94.3136 12.396 94.294 12.396" fill="#1B273A"/>
<path d="M0.894531 15.1658C0.894531 23.2887 7.47864 29.8723 15.6037 29.8723C23.7251 29.8723 30.3108 23.2887 30.3108 15.1658C30.3108 7.04228 23.7251 0.458694 15.6037 0.458694C7.47864 0.458694 0.894531 7.04228 0.894531 15.1658Z" fill="#1B273A"/>
<mask id="mask0" mask-type="alpha" maskUnits="userSpaceOnUse" x="0" y="0" width="31" height="30">
<path d="M0.894531 15.1658C0.894531 23.2887 7.47864 29.8723 15.6037 29.8723C23.7251 29.8723 30.3108 23.2887 30.3108 15.1658C30.3108 7.04228 23.7251 0.458694 15.6037 0.458694C7.47864 0.458694 0.894531 7.04228 0.894531 15.1658Z" fill="#1B273A"/>
</mask>
<g mask="url(#mask0)">
<path d="M30.3087 12.0295H0.894531V18.3247H30.3087V12.0295ZM30.3087 5.73592H0.894531V0.460886H30.3087V5.73592Z" fill="#FFD964"/>
<path d="M30.3087 12.0297H0.894531V18.3249H30.3087V12.0297ZM30.3087 24.6179H0.894531V29.8689H30.3087V24.6179ZM30.3087 5.73607H0.894531V0.461035H30.3087V5.73607Z" fill="#FFD964"/>
<path d="M30.3087 12.0295H0.894531V18.3247H30.3087V12.0295ZM30.3087 5.73592H0.894531V0.460886H30.3087V5.73592Z" fill="#FFD964"/>
</g>
</svg>
