<svg width="28" height="27" viewBox="0 0 28 27" fill="none" xmlns="http://www.w3.org/2000/svg">
<g clip-path="url(#clip0)">
<path d="M10.7563 0.0990329C12.282 0.0523388 13.8248 0.270458 15.2539 0.809251C16.1038 1.1295 16.9113 1.56147 17.6407 2.09899C18.8556 2.98809 19.8446 4.16866 20.5269 5.49976C21.1621 6.72724 21.5396 8.07668 21.6914 9.44466C21.7638 10.1308 21.794 10.8225 21.7554 11.5118C21.7022 12.6068 21.4925 13.6949 21.1288 14.7311C20.5564 16.3633 19.5871 17.8647 18.2979 19.0359C17.0647 20.1649 15.5399 20.977 13.9105 21.3866C12.7157 21.6889 11.4699 21.7832 10.241 21.6919C8.99239 21.5996 7.75698 21.3 6.61639 20.7875C5.29847 20.1979 4.11252 19.3248 3.16155 18.2485C1.99526 16.9351 1.18317 15.3275 0.77734 13.6299C0.578854 12.806 0.478207 11.9608 0.458984 11.1148V10.6732C0.476695 9.96619 0.539329 9.25938 0.668918 8.56323C0.977771 6.88182 1.66135 5.25542 2.72981 3.90449C3.55291 2.85611 4.60172 1.98215 5.78551 1.35444C7.30645 0.542733 9.03321 0.141889 10.7563 0.0990329ZM10.6354 3.20323C10.0088 3.25376 9.38807 3.39384 8.80838 3.63584C8.19478 3.88935 7.62761 4.24968 7.13431 4.68997C6.51574 5.239 6.01078 5.90658 5.62136 6.63087C5.02849 7.73553 4.69675 8.96877 4.60431 10.2131C4.55118 10.9442 4.58271 11.6809 4.69005 12.4062C4.82979 13.3346 5.09631 14.2478 5.51488 15.0919C5.86996 15.8093 6.33734 16.4769 6.9233 17.0296C7.54273 17.6204 8.29974 18.0698 9.11961 18.331C9.87079 18.5713 10.6678 18.66 11.455 18.6265C12.1874 18.5922 12.9183 18.4466 13.5939 18.1613C14.6133 17.7379 15.482 17.0006 16.1129 16.1089C16.9271 14.962 17.3865 13.5968 17.5671 12.2147C17.8055 10.411 17.5455 8.53061 16.7431 6.88651C16.3837 6.15966 15.9193 5.47716 15.3347 4.90788C14.7068 4.27847 13.9332 3.78871 13.0865 3.50066C12.3023 3.23137 11.4615 3.14353 10.6354 3.20323Z" fill="#16327B"/>
<path d="M21.5484 17.6943C22.3188 17.3157 23.167 17.0871 24.0276 17.0472C24.4672 17.0212 24.9125 17.0536 25.3408 17.1581C25.7823 17.2694 26.2095 17.4754 26.5285 17.8022C26.7985 18.0643 26.9831 18.4035 27.0907 18.7602C27.2185 19.2016 27.2509 19.6702 27.1922 20.1254C27.136 20.5361 26.9965 20.932 26.8136 21.3036C26.4697 21.9872 25.9898 22.5932 25.4771 23.1603C24.925 23.7673 24.3302 24.3345 23.7361 24.901C24.9332 24.8972 26.1304 24.9008 27.3276 24.8991C27.3926 24.8984 27.4589 24.895 27.5226 24.9121V26.3438C27.4864 26.3483 27.4505 26.3532 27.4149 26.3547C25.3879 26.3545 23.3609 26.3547 21.3341 26.3545C21.3339 25.8404 21.3339 25.3264 21.3341 24.8121C21.4726 24.6756 21.6205 24.5492 21.7624 24.4162C22.3786 23.8609 22.986 23.2953 23.5583 22.6955C24.1088 22.106 24.6451 21.4896 25.0285 20.7781C25.2021 20.444 25.3477 20.0802 25.3451 19.6992C25.3434 19.4267 25.2438 19.1525 25.0531 18.9534C24.8054 18.6884 24.4449 18.5545 24.0888 18.511C23.608 18.46 23.1225 18.5587 22.675 18.7297C22.3296 18.8591 22.0091 19.0421 21.6955 19.2321C21.6465 18.7195 21.5955 18.2071 21.5484 17.6943Z" fill="#16327B"/>
</g>
<defs>
<clipPath id="clip0">
<rect width="27.0624" height="26.3107" fill="white" transform="translate(0.458984 0.0626221)"/>
</clipPath>
</defs>
</svg>
