<svg width="72" height="21" viewBox="0 0 72 21" fill="none" xmlns="http://www.w3.org/2000/svg">
<path d="M59.1604 7.49604C59.5095 7.10091 60.0299 6.8884 60.5494 6.85689C61.212 6.8076 61.9352 6.99345 62.3877 7.50816C62.7877 7.95339 62.921 8.56911 62.9363 9.15332C61.469 9.15251 60.0016 9.15494 58.5342 9.15171C58.5819 8.55861 58.7548 7.94693 59.1604 7.49604Z" fill="#FF6600"/>
<path d="M48.4313 6.98112C49.1069 6.85668 49.8422 7.07404 50.3205 7.57422C50.8829 8.14954 51.1116 8.96808 51.1601 9.75429C51.1827 10.3304 51.1585 10.9106 51.0671 11.4803C50.9645 12.0806 50.7625 12.6947 50.3294 13.1383C49.9351 13.5399 49.3614 13.7234 48.8079 13.7096C48.2924 13.7258 47.7494 13.5618 47.3922 13.1731C46.9122 12.6778 46.7531 11.9715 46.6755 11.3073C46.6125 10.631 46.5939 9.94661 46.6828 9.2719C46.7668 8.6788 46.9502 8.07601 47.3461 7.61381C47.6217 7.28656 48.0104 7.05788 48.4313 6.98112Z" fill="#FF6600"/>
<path d="M5.40623 7.32867C6.10599 7.22443 6.88897 7.33998 7.43682 7.82076C7.95154 8.26437 8.20203 8.93423 8.31434 9.58874C8.43312 10.3249 8.42828 11.0828 8.28525 11.8141C8.15435 12.4565 7.86831 13.1045 7.33501 13.5093C6.74029 13.9521 5.94276 14.0313 5.23331 13.8851C4.65395 13.7671 4.13923 13.3897 3.84349 12.8774C3.41685 12.1357 3.32312 11.2549 3.34089 10.4129C3.36837 9.65662 3.50169 8.86959 3.93237 8.23124C4.26609 7.73511 4.81555 7.40624 5.40623 7.32867Z" fill="#FF6600"/>
<path d="M24.3126 11.1101C25.1303 10.7715 26.0119 10.6212 26.8854 10.5105C26.8886 11.3638 26.8838 12.2179 26.8878 13.072C26.1573 13.7281 25.2257 14.2436 24.2213 14.225C23.8843 14.2339 23.5506 14.0901 23.3211 13.8453C22.884 13.3532 22.821 12.5742 23.1595 12.0118C23.4116 11.5763 23.8633 11.3056 24.3126 11.1101Z" fill="#FF6600"/>
<path d="M64.0292 0.991211C64.9843 0.994443 65.9394 0.991211 66.8945 0.992827C66.8937 1.15928 66.8937 1.32493 66.8945 1.49138C66.5196 1.49058 66.1431 1.49138 65.7681 1.49138C65.7665 2.53294 65.7673 3.5745 65.7673 4.61605C65.5629 4.61525 65.3584 4.61525 65.154 4.61686C65.1524 3.5745 65.1548 2.53294 65.1524 1.49138C64.7783 1.49138 64.4025 1.48977 64.0284 1.49219C64.0252 1.32493 64.026 1.15767 64.0292 0.991211Z" fill="white"/>
<path d="M67.6161 0.992065C67.9272 0.992065 68.2399 0.992873 68.5526 0.992065C68.9049 1.89949 69.2637 2.80449 69.616 3.71191C69.9658 2.8061 70.3181 1.9011 70.6632 0.993681C70.9727 0.992065 71.2829 0.991257 71.5932 0.993681C71.5908 2.20169 71.5973 3.4097 71.59 4.61772C71.3864 4.61529 71.1827 4.61529 70.9799 4.6161C70.9775 3.62222 70.9832 2.62833 70.9759 1.63526C70.5711 2.62268 70.1953 3.62222 69.801 4.61448C69.6677 4.61448 69.536 4.61448 69.4051 4.61368C69.014 3.62545 68.6439 2.62833 68.2342 1.64738C68.2213 2.63722 68.2318 3.62626 68.2278 4.6161C68.0233 4.6161 67.8197 4.6161 67.6161 4.6161C67.6137 3.40809 67.6137 2.20008 67.6161 0.992065Z" fill="white"/>
<path d="M5.51624 4.8553C6.76869 4.78824 8.06559 5.07913 9.09907 5.81282C9.99194 6.43905 10.6343 7.38687 10.9511 8.42762C11.2888 9.53786 11.3325 10.7273 11.1684 11.8723C11.0165 12.8581 10.644 13.8261 10.0008 14.5962C9.28815 15.4664 8.25225 16.0401 7.15817 16.2656C5.97844 16.5088 4.72275 16.4272 3.60282 15.9722C2.67358 15.5957 1.86554 14.925 1.3379 14.0701C0.68662 13.0253 0.440977 11.7697 0.46441 10.5503C0.457946 9.25505 0.769847 7.91694 1.55041 6.86408C2.45783 5.60758 3.99229 4.91671 5.51624 4.8553ZM5.39827 7.3287C4.80759 7.40627 4.25813 7.73514 3.92441 8.23127C3.49373 8.86962 3.36041 9.65664 3.33293 10.413C3.31516 11.2549 3.40889 12.1357 3.83553 12.8775C4.13127 13.3898 4.64599 13.7671 5.22535 13.8851C5.9348 14.0313 6.73233 13.9522 7.32705 13.5093C7.86035 13.1045 8.14639 12.4565 8.2773 11.8141C8.42032 11.0828 8.42517 10.3249 8.30638 9.58877C8.19407 8.93426 7.94358 8.2644 7.42886 7.82079C6.88101 7.34001 6.09803 7.22446 5.39827 7.3287Z" fill="white"/>
<path d="M15.9458 6.40136C16.77 5.4406 18.0491 4.80711 19.329 4.9267C19.3274 5.83089 19.3282 6.73588 19.3282 7.64088C18.5162 7.64815 17.6693 7.67886 16.9219 8.03439C16.5963 8.20327 16.2698 8.46104 16.1502 8.81738C16.1389 11.2391 16.1494 13.6624 16.1446 16.0848C15.1669 16.0824 14.1891 16.0865 13.2114 16.0824C13.2098 12.4333 13.2138 8.78425 13.209 5.13517C14.1213 5.12709 15.0335 5.13194 15.9458 5.13194C15.9474 5.55454 15.9474 5.97795 15.9458 6.40136Z" fill="white"/>
<path d="M23.1248 5.22279C24.2415 4.86564 25.4423 4.83655 26.5962 5.0022C27.5666 5.15734 28.5742 5.54197 29.1827 6.35404C29.6505 6.95441 29.7911 7.74386 29.7402 8.48967C29.7435 11.0204 29.7233 13.5528 29.7548 16.0836C28.8991 16.0836 28.0433 16.0828 27.1876 16.0836C27.1036 15.7668 27.0204 15.4517 26.9371 15.1358C26.1881 15.6278 25.3413 15.9729 24.4573 16.1208C23.5709 16.2622 22.6198 16.2832 21.7884 15.8961C21.0627 15.5705 20.4987 14.9208 20.2644 14.1605C19.9759 13.2385 20.0285 12.1743 20.5464 11.342C21.0102 10.6003 21.7762 10.1114 22.5616 9.77041C23.9531 9.17812 25.4601 8.93248 26.9533 8.75633C26.9412 8.30787 27.0349 7.79153 26.7133 7.42226C26.2592 6.90593 25.4972 6.87361 24.8613 6.92855C23.9725 6.99885 23.1507 7.47478 22.5948 8.16484C21.9427 7.79477 21.289 7.4263 20.6418 7.04733C21.2413 6.18759 22.1293 5.54116 23.1248 5.22279ZM24.2965 11.1101C23.8472 11.3057 23.3955 11.5764 23.1434 12.0119C22.8049 12.5743 22.8679 13.3532 23.305 13.8453C23.5345 14.0902 23.8682 14.234 24.2052 14.2251C25.2096 14.2437 26.1412 13.7282 26.8717 13.072C26.8677 12.2179 26.8725 11.3639 26.8693 10.5106C25.9958 10.6213 25.1142 10.7716 24.2965 11.1101Z" fill="white"/>
<path d="M37.4123 4.98773C38.327 4.81401 39.316 4.84552 40.1749 5.2358C40.8141 5.52508 41.2981 6.09474 41.5316 6.75329C41.711 7.24296 41.7821 7.76737 41.7934 8.28775C41.7934 10.8807 41.7934 13.4737 41.7934 16.0667C40.8319 16.0667 39.8703 16.0683 38.9087 16.0667C38.9087 13.6289 38.9095 11.1918 38.9079 8.75398C38.8926 8.27482 38.8409 7.74879 38.5168 7.36982C38.1888 7.01347 37.6603 6.98681 37.2102 7.03691C36.3166 7.14842 35.5417 7.66233 34.8645 8.22633C34.8645 10.8395 34.8645 13.4527 34.8645 16.0667C33.9078 16.0667 32.9527 16.0675 31.9968 16.0667C31.9968 12.521 31.9952 8.97538 31.9968 5.42892C32.796 5.3166 33.5959 5.2059 34.3951 5.09682C34.471 5.52588 34.568 5.95253 34.652 6.38078C35.4891 5.77637 36.3869 5.19944 37.4123 4.98773Z" fill="white"/>
<path d="M44.9046 6.5813C45.5793 5.64964 46.6492 4.99594 47.803 4.90867C48.5456 4.86585 49.3092 4.93291 50.0017 5.21653C50.5285 5.42986 51.0198 5.79266 51.2719 6.31546C51.3422 5.91225 51.4214 5.51066 51.4845 5.10745C52.2973 5.08644 53.111 5.10341 53.9247 5.09856C53.9247 8.71047 53.9247 12.3216 53.9247 15.9335C53.9077 16.9985 53.6718 18.133 52.9179 18.9297C52.0767 19.8177 50.8308 20.1539 49.651 20.2718C48.2903 20.4027 46.8399 20.3276 45.6197 19.6488C44.8384 19.2238 44.221 18.4723 44.0489 17.5867C44.9976 17.434 45.9454 17.2805 46.894 17.1278C46.9683 17.4073 47.0976 17.6918 47.3497 17.8542C47.8556 18.1831 48.4866 18.2033 49.0709 18.1952C49.6268 18.1936 50.2263 18.0425 50.611 17.615C51.0328 17.1415 51.1216 16.4773 51.1402 15.8672C51.1354 15.4067 51.1515 14.9453 51.1289 14.4847C50.8404 14.9525 50.497 15.4099 50.009 15.6822C49.3068 16.0822 48.4673 16.1153 47.6818 16.0402C46.6055 15.927 45.564 15.3953 44.8957 14.5332C44.053 13.473 43.758 12.0808 43.7459 10.7508C43.7176 9.29307 44.0255 7.77154 44.9046 6.5813ZM48.4212 6.98128C48.0002 7.05804 47.6115 7.28672 47.336 7.61397C46.9401 8.07617 46.7566 8.67896 46.6726 9.27206C46.5837 9.94677 46.6023 10.6312 46.6653 11.3075C46.7429 11.9717 46.9021 12.6779 47.3821 13.1732C47.7392 13.5619 48.2822 13.7259 48.7977 13.7098C49.3512 13.7235 49.9249 13.5401 50.3193 13.1385C50.7524 12.6949 50.9544 12.0808 51.057 11.4804C51.1483 10.9108 51.1726 10.3306 51.1499 9.75445C51.1014 8.96824 50.8728 8.1497 50.3104 7.57438C49.832 7.0742 49.0967 6.85684 48.4212 6.98128Z" fill="white"/>
<path d="M56.9064 6.49876C57.6426 5.60265 58.7544 5.07743 59.8929 4.94006C61.1648 4.79058 62.5336 4.9441 63.6293 5.65356C64.523 6.22161 65.1419 7.15246 65.4466 8.15766C65.7237 9.08447 65.8158 10.067 65.7342 11.031C63.3182 11.0302 60.903 11.0318 58.4886 11.0302C58.4934 11.7631 58.6033 12.5307 59.0033 13.1594C59.3273 13.6709 59.8889 13.9981 60.4828 14.0846C61.0961 14.1735 61.7514 14.1371 62.313 13.8511C62.8116 13.5998 63.1962 13.1755 63.5121 12.7222C64.2159 13.1166 64.9221 13.5093 65.6292 13.8979C64.9811 15.0518 63.7828 15.817 62.5094 16.0958C61.2084 16.3713 59.8073 16.3762 58.5589 15.8728C57.5868 15.4865 56.7836 14.7213 56.3158 13.7872C55.7122 12.5889 55.5885 11.2104 55.6734 9.88847C55.7615 8.67722 56.1146 7.44174 56.9064 6.49876ZM59.1584 7.49588C58.7528 7.94676 58.5799 8.55844 58.5322 9.15154C59.9996 9.15477 61.467 9.15235 62.9344 9.15315C62.919 8.56895 62.7857 7.95322 62.3857 7.508C61.9332 6.99328 61.21 6.80743 60.5474 6.85672C60.0279 6.88823 59.5075 7.10075 59.1584 7.49588Z" fill="white"/>
</svg>
