<svg width="48" height="19" viewBox="0 0 48 19" fill="none" xmlns="http://www.w3.org/2000/svg">
<path d="M21.7622 7.01714C21.5186 7.01714 21.2844 6.83915 21.0408 6.48316C20.8816 6.23959 20.8066 6.04286 20.8066 5.92107C20.8066 5.69623 20.9472 5.4995 21.2376 5.30277C21.528 5.11541 21.8371 5.02173 22.1838 5.02173H27.8234C28.1794 5.02173 28.3574 5.19036 28.3574 5.51824C28.3574 5.89297 28.2543 6.23959 28.0576 6.54873C27.8515 6.85788 27.636 7.01714 27.3924 7.01714H25.5563V13.247C25.5563 13.6217 25.4532 13.9683 25.2565 14.2774C25.0504 14.5866 24.8349 14.7459 24.5914 14.7459C24.3478 14.7459 24.1136 14.5679 23.87 14.2119C23.7108 13.9589 23.6358 13.7716 23.6358 13.6498V7.01714H21.7622Z" fill="#9408DB"/>
<path d="M28.8063 11.8699C28.9094 12.3008 29.1248 12.6474 29.4714 12.9097C29.8087 13.172 30.2209 13.3032 30.6987 13.3032C31.1015 13.3032 31.5886 13.1627 32.1507 12.891C32.413 12.7598 32.6472 12.6943 32.8721 12.6943C33.1625 12.6943 33.3124 12.8254 33.3124 13.0971C33.3124 13.3407 33.2562 13.5655 33.1531 13.7903C33.0501 14.0152 32.9096 14.1744 32.7503 14.2775C32.4411 14.4742 32.0945 14.6241 31.7104 14.7271C31.3263 14.8302 30.9516 14.8864 30.5769 14.8864C29.9118 14.8864 29.3122 14.7084 28.7595 14.3618C28.2161 14.0152 27.7852 13.5655 27.4854 13.0128C27.1856 12.4601 27.0264 11.8699 27.0264 11.2516C27.0264 10.549 27.195 9.92129 27.5229 9.3592C27.8508 8.79711 28.2817 8.35681 28.8157 8.04766C29.3497 7.73851 29.9305 7.58862 30.5675 7.58862C31.1858 7.58862 31.7385 7.73851 32.2257 8.01956C32.7222 8.30997 33.0969 8.69406 33.3592 9.17184C33.6215 9.64961 33.7621 10.1742 33.7621 10.7457C33.7621 11.0361 33.6871 11.3078 33.5372 11.542C33.3873 11.7762 33.2187 11.898 33.0313 11.898L28.8063 11.8699ZM30.5207 9.07816C30.0804 9.07816 29.7057 9.20931 29.3871 9.45288C29.078 9.70582 28.8813 10.0431 28.8063 10.4646H32.0664C32.0477 10.0712 31.8884 9.73393 31.598 9.47162C31.2982 9.21868 30.9422 9.07816 30.5207 9.07816Z" fill="#9408DB"/>
<path d="M36.3118 14.7458C35.8996 14.7458 35.5436 14.5865 35.2344 14.2586C34.9346 13.9308 34.7754 13.5467 34.7754 13.1064V5.78048C34.7754 5.57438 34.9159 5.38702 35.197 5.19965C35.478 5.01229 35.7778 4.92798 36.0963 4.92798C36.4336 4.92798 36.6115 5.08724 36.6115 5.39639V12.5162C36.6115 12.638 36.6396 12.7316 36.6865 12.8159C36.7333 12.8909 36.827 12.9565 36.9582 13.0127C37.1081 13.0783 37.183 13.2094 37.183 13.3968C37.183 13.734 37.0893 14.0432 36.9113 14.3242C36.724 14.6053 36.5272 14.7458 36.3118 14.7458Z" fill="#9408DB"/>
<path d="M39.0942 6.80161C38.8506 6.80161 38.607 6.61425 38.3541 6.23953C38.1761 5.97722 38.0918 5.76175 38.0918 5.62123C38.0918 5.38703 38.2511 5.17156 38.5602 4.97483C38.8694 4.76873 39.2066 4.67505 39.572 4.67505C39.9561 4.67505 40.1528 4.85304 40.1528 5.19966C40.1528 5.47134 40.0966 5.74302 39.9935 5.99595C39.8905 6.24889 39.75 6.44563 39.5907 6.59552C39.4314 6.73604 39.2628 6.80161 39.0942 6.80161ZM39.0942 14.7458C38.8787 14.7458 38.6539 14.5678 38.4009 14.2212C38.2511 13.9776 38.1761 13.7996 38.1761 13.6872V8.54409C38.1761 8.33799 38.3166 8.15063 38.5977 7.96326C38.8787 7.7759 39.1785 7.69159 39.497 7.69159C39.8343 7.69159 40.0029 7.85085 40.0029 8.15999V13.3031C40.0029 13.5467 39.9561 13.7902 39.8624 14.0244C39.7687 14.2586 39.6469 14.4366 39.5064 14.5584C39.3752 14.6896 39.2347 14.7458 39.0942 14.7458Z" fill="#9408DB"/>
<path d="M44.4617 14.7457C43.7965 14.7457 43.197 14.577 42.663 14.2492C42.129 13.9213 41.7075 13.481 41.4077 12.947C41.1079 12.413 40.958 11.8228 40.958 11.1858C40.958 10.5019 41.1266 9.8836 41.4639 9.32151C41.8011 8.75942 42.2414 8.32849 42.7848 8.01934C43.3281 7.71019 43.909 7.5603 44.5366 7.5603C45.0706 7.5603 45.5859 7.71019 46.0917 8.0006C46.4103 7.78514 46.7381 7.68209 47.0567 7.68209C47.3939 7.68209 47.5625 7.84135 47.5625 8.15049V13.2936C47.5625 13.5372 47.5157 13.7807 47.422 14.0149C47.3283 14.2492 47.2065 14.4271 47.066 14.5489C46.9255 14.6801 46.785 14.7457 46.6445 14.7457C46.429 14.7457 46.2042 14.5677 45.9512 14.221C45.8575 14.0712 45.792 13.9494 45.7545 13.837C45.6795 14.0431 45.5859 14.2117 45.4547 14.3616C45.3329 14.5115 45.2018 14.6051 45.0612 14.652C44.8926 14.7176 44.6865 14.7457 44.4617 14.7457ZM44.5835 13.0407C44.9957 13.0407 45.3798 12.9282 45.7451 12.694V9.56508C45.4079 9.36835 45.0238 9.27467 44.6022 9.27467C44.0776 9.27467 43.6373 9.45267 43.2813 9.80866C42.9253 10.1646 42.7473 10.6049 42.7473 11.1389C42.7473 11.6729 42.9253 12.1226 43.2813 12.4879C43.6373 12.8533 44.0682 13.0407 44.5835 13.0407Z" fill="#9408DB"/>
<path d="M12.3563 13.8653C14.7545 12.4788 16.4689 10.7269 17.2558 8.87204C17.5837 7.53239 17.7711 6.09907 17.7711 4.57206C17.7711 4.3566 17.7617 4.15987 17.7429 3.96313C17.6024 6.21149 14.6983 9.04066 10.8574 10.8862C6.22014 13.1158 2.74456 13.7154 1.18945 12.0104C1.7328 13.0783 2.45415 14.1463 3.26918 15.1112C5.18028 16.8162 8.32797 16.2073 12.3563 13.8653Z" fill="#9408DB"/>
<path d="M10.3135 9.29356C14.6884 7.18573 17.733 4.17856 17.1991 2.19252C16.3278 0.68425 14.5666 0.112793 12.6742 0.112793C7.06273 0.112793 0.186523 3.81321 0.186523 8.52538C0.186523 9.13431 0.317677 9.80881 0.561249 10.5208C1.83532 12.2164 5.74183 11.4951 10.3135 9.29356Z" fill="#9408DB"/>
<path d="M9.94749 15.9824C6.87475 17.2283 5.11354 16.8349 4.13925 16.0573L4.12988 16.0479C5.63815 17.5468 7.35252 18.6054 8.86079 18.6054C11.4932 18.6054 15.1093 15.4109 16.8143 10.4458C15.8401 12.2351 13.7697 14.4366 9.94749 15.9824Z" fill="#9408DB"/>
<g opacity="0.2">
<g opacity="0.2">
<g opacity="0.2">
<path opacity="0.2" d="M12.3563 13.8653C14.7545 12.4788 16.4689 10.7269 17.2558 8.87204C17.5837 7.53239 17.7711 6.09907 17.7711 4.57206C17.7711 4.3566 17.7617 4.15987 17.7429 3.96313C17.6024 6.21149 14.6983 9.04066 10.8574 10.8862C6.22014 13.1158 2.74456 13.7154 1.18945 12.0104C1.7328 13.0783 2.45415 14.1463 3.26918 15.1112C5.18028 16.8162 8.32797 16.2073 12.3563 13.8653Z" fill="#9408DB"/>
</g>
<g opacity="0.2">
<path opacity="0.2" d="M10.3135 9.29356C14.6884 7.18573 17.733 4.17856 17.1991 2.19252C16.3278 0.68425 14.5666 0.112793 12.6742 0.112793C7.06273 0.112793 0.186523 3.81321 0.186523 8.52538C0.186523 9.13431 0.317677 9.80881 0.561249 10.5208C1.83532 12.2164 5.74183 11.4951 10.3135 9.29356Z" fill="#9408DB"/>
</g>
<g opacity="0.2">
<path opacity="0.2" d="M9.94749 15.9824C6.87475 17.2283 5.11354 16.8349 4.13925 16.0573L4.12988 16.0479C5.63815 17.5468 7.35252 18.6054 8.86079 18.6054C11.4932 18.6054 15.1093 15.4109 16.8143 10.4458C15.8401 12.2351 13.7697 14.4366 9.94749 15.9824Z" fill="#9408DB"/>
</g>
<g opacity="0.2">
<path opacity="0.2" d="M9.9455 15.9824C13.7771 14.4367 15.8381 12.2351 16.803 10.4458C16.981 9.93995 17.1309 9.41533 17.262 8.88135C16.4751 10.7362 14.7607 12.4881 12.3625 13.8746C8.32482 16.2166 5.17712 16.8255 3.27539 15.1205C3.54707 15.439 3.83748 15.7482 4.12789 16.0386L4.13726 16.048C5.10218 16.8255 6.86339 17.2284 9.9455 15.9824Z" fill="#9408DB"/>
</g>
<g opacity="0.2">
<path opacity="0.2" d="M10.8587 10.886C14.6996 9.04049 17.6037 6.21131 17.7442 3.96296C17.6787 3.26972 17.4819 2.67953 17.2009 2.19238C17.7349 4.17843 14.6902 7.1856 10.3153 9.29343C5.74366 11.4949 1.83715 12.2163 0.553711 10.5207C0.722337 11.0078 0.928437 11.5043 1.19074 12.0102C2.74585 13.7152 6.22143 13.1156 10.8587 10.886Z" fill="#9408DB"/>
</g>
</g>
</g>
</svg>
