<svg width="99" height="25" viewBox="0 0 99 25" fill="none" xmlns="http://www.w3.org/2000/svg">
<path d="M24.9156 12.2179C24.9156 18.8918 19.5073 24.3023 12.8334 24.3023C6.15958 24.3023 0.749023 18.8918 0.749023 12.2179C0.749023 5.5441 6.15958 0.133545 12.8334 0.133545C19.5073 0.133545 24.9156 5.5441 24.9156 12.2179Z" fill="#EE3023"/>
<path d="M12.929 18.9561C9.60983 18.9674 6.15525 16.1343 6.13971 11.583C6.12859 8.57464 7.75377 5.67731 9.82741 3.9589C11.8522 2.28489 14.6252 1.2081 17.1384 1.19922C17.4626 1.19922 17.8023 1.22581 18.0087 1.29686C15.8108 1.752 14.0613 3.79899 14.0679 6.11909C14.0679 6.19674 14.0745 6.2789 14.0834 6.31666C17.7622 7.21362 19.4318 9.43379 19.4429 12.5043C19.4518 15.577 17.0274 18.9428 12.9289 18.9561" fill="white"/>
<path d="M32.7198 17.2223L29.0254 8.40601H31.4387L33.7433 14.2606L35.9768 8.40601H38.2813L34.6957 17.2223H32.7198Z" fill="#EE3023"/>
<path d="M44.7109 12.7687C44.7109 12.4023 44.6687 12.0538 44.5821 11.7229C44.4977 11.3922 44.369 11.108 44.198 10.8704C44.0271 10.6306 43.8206 10.4419 43.5764 10.302C43.3322 10.1599 43.0458 10.0889 42.7172 10.0889C42.3886 10.0889 42.1 10.16 41.858 10.302C41.6137 10.4419 41.405 10.6306 41.2363 10.8704C41.0654 11.108 40.9366 11.3922 40.8522 11.7229C40.7656 12.0538 40.7234 12.4023 40.7234 12.7687C40.7234 13.1483 40.7656 13.5013 40.8522 13.8254C40.9366 14.1496 41.0609 14.4338 41.2252 14.678C41.3895 14.9222 41.5982 15.1154 41.8491 15.2575C42.0977 15.3973 42.3886 15.4684 42.7172 15.4684C43.0458 15.4684 43.3322 15.3973 43.5764 15.2575C43.8206 15.1154 44.0271 14.9222 44.198 14.678C44.369 14.4338 44.4977 14.1496 44.5821 13.8254C44.6687 13.5013 44.7109 13.1483 44.7109 12.7687ZM46.9422 12.7783C46.9422 13.3533 46.8534 13.9173 46.678 14.4723C46.5003 15.0273 46.2384 15.5224 45.8898 15.962C45.5435 16.4016 45.1039 16.7546 44.5732 17.0233C44.0426 17.2919 43.4232 17.4251 42.7172 17.4251C42.0089 17.4251 41.3895 17.2919 40.8611 17.0233C40.3305 16.7547 39.8909 16.4016 39.5423 15.962C39.196 15.5224 38.934 15.0273 38.7564 14.4723C38.581 13.9173 38.4922 13.3533 38.4922 12.7783C38.4922 12.2055 38.581 11.646 38.7564 11.0954C38.934 10.547 39.196 10.0564 39.5423 9.62346C39.8909 9.19052 40.3305 8.84416 40.8611 8.58219C41.3895 8.32021 42.0089 8.18701 42.7172 8.18701C43.4232 8.18701 44.0404 8.32024 44.5644 8.58219C45.0883 8.84416 45.5279 9.19052 45.8809 9.62346C46.2361 10.0564 46.5003 10.547 46.678 11.0954C46.8534 11.646 46.9422 12.2055 46.9422 12.7783Z" fill="#EE3023"/>
<path d="M53.7553 10.3464C53.3179 10.1755 52.9116 10.0889 52.5342 10.0889C52.1479 10.0889 51.8126 10.1645 51.5351 10.3109C51.2554 10.4574 51.0245 10.655 50.8424 10.9059C50.6604 11.1568 50.5249 11.4387 50.4339 11.7518C50.3429 12.0626 50.2963 12.3846 50.2963 12.7154C50.2963 13.0817 50.3362 13.4325 50.4161 13.7699C50.4939 14.1052 50.616 14.4005 50.7803 14.6513C50.9423 14.9022 51.1488 15.1042 51.3975 15.2575C51.6461 15.4084 51.9414 15.4861 52.2811 15.4861C52.5608 15.4861 52.845 15.4085 53.1359 15.2575C53.4267 15.1042 53.6332 14.9222 53.7553 14.7157L53.7553 10.3464ZM53.9373 17.2223L53.8463 16.5474C53.6398 16.7783 53.3668 16.9825 53.0249 17.1579C52.6852 17.3355 52.2833 17.4243 51.8215 17.4243C51.2154 17.4243 50.6781 17.2956 50.2186 17.0403C49.7545 16.7849 49.366 16.443 49.0507 16.0168C48.7355 15.5905 48.4935 15.0954 48.3292 14.5337C48.1671 13.9742 48.085 13.3881 48.085 12.7775C48.085 12.2047 48.1693 11.643 48.3381 11.0946C48.509 10.5462 48.7666 10.0556 49.1129 9.62267C49.4615 9.18973 49.8944 8.84339 50.4184 8.5814C50.9401 8.31942 51.5551 8.1862 52.2589 8.1862C52.7207 8.1862 53.2202 8.27273 53.7553 8.44152V5.02246H56.0221V17.2223H53.9373Z" fill="#EE3023"/>
<path d="M62.4084 13.0882C62.1642 13.1011 61.9111 13.1238 61.6535 13.1526C61.396 13.1837 61.1518 13.2237 60.9186 13.2725C60.4258 13.3701 60.0861 13.5367 59.8951 13.7743C59.7064 14.014 59.611 14.2716 59.611 14.5535C59.611 14.8444 59.7175 15.0797 59.9329 15.2573C60.1482 15.4327 60.4502 15.5215 60.8432 15.5215C61.1384 15.5215 61.4248 15.4616 61.7001 15.3395C61.9754 15.2173 62.213 15.0642 62.4084 14.8821V13.0882ZM62.5904 17.2155L62.5016 16.5561C62.2552 16.8269 61.9444 17.0401 61.5647 17.1933C61.1851 17.3465 60.7699 17.4242 60.317 17.4242C59.9373 17.4242 59.571 17.3597 59.2247 17.231C58.8739 17.1046 58.5653 16.9202 58.2966 16.6826C58.028 16.4451 57.8104 16.1543 57.6461 15.8057C57.4796 15.4571 57.3975 15.0641 57.3975 14.6246C57.3975 14.1872 57.4818 13.7987 57.655 13.4634C57.826 13.1282 58.0568 12.8462 58.3521 12.6131C58.6452 12.3822 58.9827 12.1935 59.3623 12.0469C59.7397 11.9005 60.1394 11.7894 60.5545 11.7161C60.8476 11.6562 61.1695 11.6117 61.5181 11.5806C61.8667 11.5495 62.1575 11.5229 62.3906 11.4985V11.3697C62.3906 10.8813 62.2663 10.5349 62.0132 10.3262C61.7623 10.1198 61.416 10.0154 60.9764 10.0154C60.7188 10.0154 60.4724 10.0465 60.2393 10.1087C60.0062 10.1686 59.7997 10.2442 59.6154 10.3352C59.4311 10.4284 59.2691 10.5194 59.127 10.6105C58.9871 10.7015 58.8739 10.7836 58.7873 10.8569L58.0369 9.26725C58.1345 9.18073 58.2833 9.07854 58.4853 8.95644C58.6874 8.83431 58.9294 8.71442 59.218 8.59897C59.5044 8.48345 59.8263 8.38583 60.186 8.3059C60.5457 8.22599 60.9342 8.18604 61.3471 8.18604C61.8356 8.18604 62.2818 8.2505 62.6837 8.37921C63.0855 8.50794 63.4341 8.70779 63.7272 8.98308C64.018 9.25617 64.2467 9.60253 64.4132 10.0243C64.5775 10.444 64.6596 10.9524 64.6596 11.5496V17.2155H62.5904Z" fill="#EE3023"/>
<path d="M71.6665 7.03399C71.5932 6.99855 71.4511 6.94523 71.238 6.87853C71.0226 6.81199 70.7406 6.77864 70.3854 6.77864C70.0702 6.77864 69.8037 6.87418 69.5906 7.06283C69.3775 7.25154 69.2709 7.56014 69.2709 7.98641V8.40603H71.1736V10.2354H69.2887V17.2223H67.0196V10.2354H65.8496V8.40603H67.0196V7.9309C67.0196 7.3581 67.0929 6.87412 67.2394 6.47671C67.386 6.08152 67.5902 5.75736 67.8522 5.5087C68.1142 5.25782 68.4228 5.07356 68.7758 4.9581C69.131 4.84259 69.5151 4.78491 69.9303 4.78491C70.4787 4.78491 70.9316 4.83598 71.2912 4.94038C71.6509 5.04478 71.8618 5.11356 71.9218 5.15131L71.6665 7.03399Z" fill="#EE3023"/>
<path d="M77.8486 12.7687C77.8486 12.4023 77.8042 12.0538 77.7198 11.7229C77.6354 11.3922 77.5067 11.108 77.3357 10.8704C77.1648 10.6306 76.9583 10.4419 76.7141 10.302C76.4699 10.1599 76.1834 10.0889 75.8549 10.0889C75.5263 10.0889 75.2377 10.16 74.9957 10.302C74.7514 10.4419 74.5427 10.6306 74.3718 10.8704C74.2031 11.108 74.0743 11.3922 73.9877 11.7229C73.9033 12.0538 73.8612 12.4023 73.8612 12.7687C73.8612 13.1483 73.9033 13.5013 73.9877 13.8254C74.0743 14.1496 74.1986 14.4338 74.3629 14.678C74.5272 14.9222 74.7359 15.1154 74.9846 15.2575C75.2354 15.3973 75.5263 15.4684 75.8549 15.4684C76.1834 15.4684 76.4699 15.3973 76.7141 15.2575C76.9583 15.1154 77.1648 14.9222 77.3357 14.678C77.5067 14.4338 77.6355 14.1496 77.7198 13.8254C77.8042 13.5013 77.8486 13.1483 77.8486 12.7687ZM80.0799 12.7783C80.0799 13.3533 79.9911 13.9173 79.8134 14.4723C79.6381 15.0273 79.3761 15.5224 79.0275 15.962C78.6812 16.4016 78.2416 16.7546 77.7109 17.0233C77.1803 17.2919 76.5609 17.4251 75.8549 17.4251C75.1466 17.4251 74.5272 17.2919 73.9988 17.0233C73.4682 16.7547 73.0286 16.4016 72.68 15.962C72.3337 15.5224 72.0717 15.0273 71.8941 14.4723C71.7165 13.9173 71.6299 13.3533 71.6299 12.7783C71.6299 12.2055 71.7165 11.646 71.8941 11.0954C72.0717 10.547 72.3337 10.0564 72.68 9.62346C73.0286 9.19052 73.4682 8.84416 73.9988 8.58219C74.5272 8.32021 75.1466 8.18701 75.8549 8.18701C76.5609 8.18701 77.1781 8.32024 77.7021 8.58219C78.226 8.84416 78.6656 9.19052 79.0186 9.62346C79.3738 10.0564 79.6381 10.547 79.8134 11.0954C79.9911 11.646 80.0799 12.2055 80.0799 12.7783Z" fill="#EE3023"/>
<path d="M87.1207 17.2223V12.1937C87.1207 11.5232 86.9808 11.0037 86.7011 10.6373C86.4191 10.2732 86.0306 10.0889 85.5288 10.0889C85.1758 10.0889 84.8494 10.18 84.5519 10.3642C84.2522 10.5463 83.9924 10.7483 83.7727 10.9681V17.2223H81.5059V8.40604H83.5728L83.6816 9.10097C84.0369 8.81013 84.4343 8.58366 84.8805 8.42603C85.3245 8.26621 85.773 8.18848 86.2237 8.18848C86.6877 8.18848 87.114 8.25727 87.5048 8.39717C87.8955 8.53927 88.2308 8.76126 88.5105 9.06542C88.7925 9.36958 89.0078 9.76701 89.161 10.2532C89.312 10.7417 89.3897 11.3278 89.3897 12.0094V17.2223H87.1207Z" fill="#EE3023"/>
<path d="M96.4459 11.7539C96.4215 11.4497 96.3571 11.1833 96.2528 10.9591C96.1484 10.7326 96.0196 10.5506 95.8664 10.4107C95.7132 10.2686 95.549 10.1665 95.3713 10.0976C95.1915 10.0311 95.0117 9.99775 94.8274 9.99775C94.4344 9.99775 94.0614 10.1442 93.7062 10.4374C93.351 10.7304 93.1423 11.1678 93.0801 11.7539H96.4459ZM93.0268 13.3813C93.0757 14.125 93.3066 14.6623 93.724 14.9909C94.1391 15.3195 94.6786 15.486 95.338 15.486C95.6444 15.486 95.933 15.4572 96.2017 15.4038C96.4703 15.3484 96.7101 15.2795 96.9188 15.1929C97.1275 15.1085 97.3051 15.022 97.4516 14.9376C97.5982 14.8511 97.707 14.7711 97.7824 14.6978L98.3863 16.5472C98.2997 16.6071 98.1621 16.6893 97.9734 16.7937C97.7847 16.8981 97.5493 16.9935 97.2696 17.0867C96.9898 17.1778 96.659 17.2555 96.2816 17.3243C95.9042 17.3908 95.489 17.4242 95.0383 17.4242C94.4633 17.4242 93.9193 17.3331 93.3998 17.1511C92.8825 16.9668 92.4274 16.6826 92.0389 16.2986C91.6481 15.9145 91.3373 15.4371 91.1064 14.8643C90.8733 14.2915 90.7578 13.6077 90.7578 12.8151C90.7578 12.0713 90.8644 11.412 91.0775 10.8391C91.2907 10.2663 91.5837 9.78455 91.9545 9.3938C92.3275 9.00527 92.7604 8.70555 93.2533 8.49685C93.7484 8.29038 94.2746 8.18604 94.8363 8.18604C95.398 8.18604 95.9153 8.27932 96.3926 8.46132C96.8677 8.64338 97.2785 8.92758 97.627 9.31167C97.9734 9.69576 98.2487 10.1931 98.4485 10.8036C98.6505 11.4119 98.7504 12.138 98.7504 12.9794V13.3812L93.0268 13.3813Z" fill="#EE3023"/>
</svg>
