<svg width="67" height="28" viewBox="0 0 67 28" fill="none" xmlns="http://www.w3.org/2000/svg">
<path d="M38.596 7.24036C36.7522 7.24036 35.1454 8.002 34.1022 9.26516C33.0589 10.5283 32.56 12.2206 32.56 14.0801C32.56 15.9396 33.0589 17.6318 34.1022 18.895C35.1455 20.1582 36.7522 20.9198 38.596 20.9198C40.4397 20.9198 42.0465 20.1582 43.0897 18.895C44.133 17.6318 44.6319 15.9396 44.6319 14.0801C44.6319 12.2206 44.133 10.5284 43.0897 9.26516C42.0464 8.00194 40.4397 7.24036 38.596 7.24036ZM60.9477 7.41736C60.9455 7.41745 60.9432 7.41754 60.941 7.41765C60.9399 7.41765 60.9388 7.41765 60.9377 7.41765C60.9329 7.41802 60.9281 7.41842 60.9234 7.41884C60.6712 7.42562 60.4279 7.51315 60.2297 7.6684C60.0316 7.82365 59.8891 8.03834 59.8236 8.28054L55.3439 19.0767C55.2828 19.2185 55.2506 19.371 55.2493 19.5253C55.2479 19.6796 55.2774 19.8326 55.3361 19.9754C55.3947 20.1183 55.4813 20.2481 55.5909 20.3574C55.7004 20.4667 55.8307 20.5533 55.9742 20.6121C56.1177 20.6709 56.2715 20.7008 56.4267 20.7C56.5819 20.6993 56.7354 20.6678 56.8783 20.6076C57.0212 20.5474 57.1506 20.4595 57.2591 20.3491C57.3675 20.2388 57.4528 20.1081 57.51 19.9646L58.442 17.7184H63.4787L63.5547 17.9018L64.4107 19.9646C64.4679 20.108 64.5532 20.2387 64.6616 20.3491C64.7701 20.4594 64.8995 20.5473 65.0424 20.6075C65.1853 20.6678 65.3388 20.6992 65.494 20.7C65.6492 20.7007 65.803 20.6708 65.9465 20.612C66.09 20.5532 66.2203 20.4666 66.3298 20.3573C66.4394 20.248 66.526 20.1182 66.5846 19.9753C66.6432 19.8325 66.6727 19.6795 66.6714 19.5252C66.6701 19.3709 66.6379 19.2184 66.5768 19.0766L65.7208 17.0139L62.0942 8.27344C62.0267 8.02995 61.8813 7.8149 61.6801 7.66068C61.4789 7.50647 61.2327 7.42145 60.9786 7.41846C60.9684 7.41793 60.9581 7.41753 60.9478 7.41727L60.9477 7.41736ZM30.2152 7.4366C30.005 7.43407 29.7981 7.48777 29.616 7.59207C29.4339 7.69637 29.2834 7.84744 29.1803 8.02943L26.2109 13.0983L23.244 8.03316C23.1379 7.84592 22.9817 7.69153 22.7928 7.58705C22.6039 7.48258 22.3896 7.43211 22.1736 7.44122C21.9706 7.4498 21.7733 7.51073 21.6011 7.61803C21.4289 7.72532 21.2878 7.87528 21.1915 8.05319C21.0953 8.23109 21.0472 8.43083 21.0521 8.63277C21.057 8.83472 21.1146 9.03193 21.2193 9.20504L25.0399 15.7277V19.5678C25.0391 19.8715 25.1577 20.1634 25.3703 20.3815C25.5829 20.5995 25.8728 20.7264 26.1781 20.7351C26.4835 20.7437 26.7802 20.6335 27.0049 20.4279C27.2297 20.2223 27.3648 19.9375 27.3815 19.6343C27.3831 19.611 27.3841 19.5877 27.3844 19.5643V15.7239L31.205 9.20125C31.3113 9.02557 31.369 8.82514 31.3724 8.62018C31.3758 8.41522 31.3247 8.213 31.2242 8.03396C31.1238 7.85492 30.9777 7.7054 30.8005 7.60049C30.6233 7.49559 30.4215 7.43903 30.2153 7.43652L30.2152 7.4366ZM46.6628 7.46722C46.5076 7.46501 46.3534 7.4935 46.2093 7.55103C46.0653 7.60856 45.9341 7.69399 45.8235 7.80235C45.713 7.9107 45.6252 8.03982 45.5652 8.18221C45.5053 8.3246 45.4744 8.47741 45.4744 8.63176C45.4744 8.78611 45.5053 8.93891 45.5652 9.0813C45.6252 9.22369 45.713 9.35282 45.8235 9.46117C45.9341 9.56953 46.0653 9.65496 46.2093 9.71249C46.3534 9.77002 46.5076 9.79851 46.6628 9.7963H49.4214L49.432 19.4894C49.4299 19.6438 49.4587 19.797 49.5168 19.9401C49.5748 20.0833 49.6609 20.2136 49.77 20.3234C49.8791 20.4332 50.0091 20.5203 50.1524 20.5798C50.2957 20.6392 50.4494 20.6697 50.6047 20.6696C50.7599 20.6694 50.9136 20.6386 51.0568 20.5789C51.2 20.5192 51.3298 20.4317 51.4387 20.3217C51.5476 20.2117 51.6334 20.0813 51.6911 19.938C51.7489 19.7947 51.7774 19.6414 51.775 19.4871L51.7644 9.79636H54.563C54.7183 9.79857 54.8724 9.77008 55.0165 9.71254C55.1606 9.65501 55.2917 9.56959 55.4023 9.46123C55.5129 9.35287 55.6007 9.22375 55.6606 9.08136C55.7205 8.93898 55.7514 8.78616 55.7514 8.63181C55.7514 8.47747 55.7205 8.32466 55.6606 8.18227C55.6007 8.03989 55.5129 7.91076 55.4023 7.8024C55.2917 7.69404 55.1606 7.60862 55.0165 7.55109C54.8724 7.49355 54.7183 7.46507 54.563 7.46728L46.6628 7.46722ZM38.5955 9.56936C39.8346 9.56936 40.6602 9.99436 41.2784 10.7431C41.8967 11.4917 42.2884 12.6369 42.2884 14.0802C42.2884 15.5235 41.8967 16.6686 41.2784 17.4174C40.6601 18.166 39.8346 18.5911 38.5955 18.5911C37.3564 18.5911 36.5308 18.166 35.9126 17.4174C35.2943 16.6687 34.9026 15.5235 34.9026 14.0802C34.9026 12.6369 35.2943 11.4918 35.9126 10.7431C36.5309 9.99436 37.3564 9.56936 38.5955 9.56936ZM60.9608 11.6488L62.5129 15.3895H59.4087L60.9608 11.6488Z" fill="#505050"/>
<path d="M13.9424 9.78829C15.4104 8.30489 16.3166 6.24695 16.3154 3.99704V2.40912C16.3154 1.41241 15.5028 0.604418 14.5002 0.604418C13.4956 0.604418 12.6837 1.41241 12.6837 2.40912V3.99704C12.6832 5.28115 12.173 6.42346 11.3509 7.25775C10.5256 8.08974 9.41536 8.59175 8.1743 8.59229C6.93255 8.59175 5.82364 8.08974 4.99718 7.25775C4.17617 6.42346 3.66556 5.28115 3.66556 3.99704V2.40912C3.66556 1.41241 2.85232 0.604418 1.84965 0.604418C0.846999 0.604418 0.0332035 1.41241 0.0332035 2.40912V3.99704C0.0325625 6.24695 0.938687 8.30489 2.40609 9.78829C3.4644 10.8624 4.83107 11.6455 6.35784 11.9973V15.7969C4.83107 16.1485 3.4644 16.9322 2.40609 18.0069C0.938633 19.4903 0.0325216 21.5469 0.0332035 23.7983V25.3855C0.0332035 26.3816 0.846958 27.1898 1.84965 27.1898C2.85227 27.1898 3.66556 26.3815 3.66556 25.3855V23.7983C3.66556 22.514 4.17617 21.3704 4.99718 20.5369C5.82364 19.7046 6.93255 19.2029 8.1743 19.2017C9.41536 19.2029 10.5256 19.7046 11.3509 20.5369C12.173 21.3704 12.6832 22.514 12.6837 23.7983V25.3855C12.6837 26.3816 13.4956 27.1898 14.5002 27.1898C15.5028 27.1898 16.3154 26.3815 16.3154 25.3855V23.7983C16.3166 21.5469 15.4104 19.4903 13.9424 18.0069C12.8842 16.9322 11.5175 16.1485 9.99075 15.7969V11.9973C11.5175 11.6455 12.8842 10.8624 13.9424 9.78829Z" fill="#00AEEF"/>
<path d="M8.17382 26.8098C9.91063 26.8098 11.3183 25.4118 11.3183 23.6847C11.3183 21.9577 9.91063 20.5583 8.17382 20.5583C6.43702 20.5583 5.0293 21.9577 5.0293 23.6847C5.0293 25.4118 6.43702 26.8098 8.17382 26.8098Z" fill="#00AEEF"/>
</svg>
