<?xml version="1.0" encoding="utf-8"?>
<!-- Generator: Adobe Illustrator 25.2.0, SVG Export Plug-In . SVG Version: 6.00 Build 0)  -->
<svg version="1.1" xmlns="http://www.w3.org/2000/svg" xmlns:xlink="http://www.w3.org/1999/xlink" x="0px" y="0px"
	 viewBox="0 0 21.6 21.6" style="enable-background:new 0 0 21.6 21.6;" xml:space="preserve">
<style type="text/css">
	.st0{fill:#FC690B;}
	.st1{fill:url(#SVGID_1_);}
</style>
<g id="Слой_2">
	<g>
		<g>
			<path class="st0" d="M9.2,12.8c-0.4,0-0.8,0.5-0.8,1c0,0.6,0.4,1,0.8,1c0.4,0,0.8-0.5,0.8-1C10,13.3,9.7,12.8,9.2,12.8z"/>
			<linearGradient id="SVGID_1_" gradientUnits="userSpaceOnUse" x1="3.9551" y1="4.5645" x2="16.1375" y2="20.2572">
				<stop  offset="0" style="stop-color:#FFF205"/>
				<stop  offset="0.4777" style="stop-color:#FE6F00"/>
				<stop  offset="1" style="stop-color:#EA2C83"/>
			</linearGradient>
			<path class="st1" d="M19.1,10.1c-0.9-0.8-3.6-1.5-3.6-1.5c-5.1-1.5-3.8-4-3.6-4.9s0.3-2-0.7-2c-1.8,0-2.8,0.4-4.2,1
				s-6.3,4.6-6.2,9.1c0.2,4.5,2.3,6,3.5,6.9c1.2,1,5.2,2.8,8.8,2s5.2-3,5.2-3s2.2-2.4,2.3-4.3C20.8,11.4,20,10.8,19.1,10.1z
				 M9.2,15.9c-1.1,0-1.9-0.9-1.9-2c0-1.1,0.9-2,1.9-2s1.9,0.9,1.9,2C11.2,15,10.3,15.9,9.2,15.9z M12.3,10c0.4,0,0.7,0.3,0.7,0.7
				c0,0.4-0.3,0.7-0.7,0.7s-0.7-0.3-0.7-0.7C11.6,10.3,11.9,10,12.3,10z M12.3,15.9c-0.4,0-0.7-0.9-0.7-2c0-1.1,0.3-2,0.7-2
				s0.7,0.9,0.7,2C13,15,12.7,15.9,12.3,15.9z"/>
		</g>
	</g>
</g>
<g id="Capa_1">
</g>
</svg>
