<?xml version="1.0" encoding="utf-8"?>
<!-- Generator: Adobe Illustrator 24.3.0, SVG Export Plug-In . SVG Version: 6.00 Build 0)  -->
<svg version="1.1" id="Слой_1" xmlns="http://www.w3.org/2000/svg" xmlns:xlink="http://www.w3.org/1999/xlink" x="0px" y="0px"
	 viewBox="0 0 65.9 20.9" style="enable-background:new 0 0 65.9 20.9;" xml:space="preserve">
<style type="text/css">
	.st0{fill:#AAB2CA;}
	.st1{fill:url(#SVGID_1_);}
	.st2{fill:url(#SVGID_2_);}
	.st3{fill:url(#SVGID_3_);}
	.st4{fill:url(#SVGID_4_);}
	.st5{fill:url(#SVGID_5_);}
	.st6{fill:url(#SVGID_6_);}
</style>
<g id="_1">
	<path class="st0" d="M43.6,10c-0.4-0.1-0.8-0.2-1.2-0.2c-0.5,0-0.8,0.1-0.8,0.5c0,1,2.5,0.4,2.5,2.4c0,1.4-1.1,1.9-2.3,1.9
		c-0.6,0-1.1-0.1-1.7-0.2l0.1-1.2c0.5,0.2,1,0.3,1.5,0.3c0.5,0,0.9-0.1,0.9-0.6c0-1-2.5-0.4-2.5-2.3c0-1.2,1-1.8,2.2-1.8
		c0.5,0,1.1,0.1,1.6,0.2L43.6,10z M39.1,10c-0.4-0.1-0.8-0.2-1.2-0.2c-0.5,0-0.8,0.1-0.8,0.5c0,1,2.5,0.4,2.5,2.4
		c0,1.4-1.1,1.9-2.3,1.9c-0.6,0-1.1-0.1-1.7-0.2l0.1-1.2c0.5,0.2,1,0.3,1.5,0.3c0.5,0,0.9-0.1,0.9-0.6c0-1-2.5-0.4-2.5-2.3
		c0-1.2,1-1.8,2.2-1.8c0.5,0,1.1,0.1,1.6,0.2L39.1,10z M62.1,8.7c1.1,0,1.7,0.6,1.7,1.9v3.8h-1.5v-3.6c0-0.6-0.2-1-0.8-1
		s-1.2,0.5-1.2,1.5v3H59v-3.5c0-0.5-0.2-1-0.8-1s-1.1,0.6-1.1,1.6v2.9h-1.5V8.8c1-0.1,1.3,0.3,1.3,0.9c0.4-0.6,1-1,1.8-1
		c0.7-0.1,1.4,0.4,1.5,1.1C60.6,9.1,61.3,8.7,62.1,8.7 M32.7,8.8c-0.4,1.9-1,3.8-1.7,5.6h-1.5l-1.1-3.7l0,0l-1.1,3.7h-1.5
		c-0.7-1.8-1.2-3.7-1.6-5.6h1.4l1,3.8l0,0l1.1-3.8h1.4l1.1,3.8l0,0l1-3.8L32.7,8.8z M23.4,10c-0.4-0.1-0.8-0.2-1.2-0.2
		c-0.5,0-0.8,0.1-0.8,0.5c0,1,2.5,0.4,2.5,2.4c0,1.4-1.1,1.9-2.3,1.9c-0.6,0-1.1-0.1-1.6-0.2l0.1-1.2c0.5,0.2,1,0.3,1.5,0.3
		c0.5,0,0.9-0.1,0.9-0.6c0-1-2.5-0.4-2.5-2.3c0-1.2,1-1.8,2.2-1.8c0.5,0,1.1,0.1,1.6,0.2L23.4,10z M52,14.5
		c-1.4,0.1-2.6-0.9-2.7-2.3c0-0.2,0-0.4,0-0.6c-0.1-1.5,1.1-2.9,2.6-3c0.1,0,0.2,0,0.3,0c1.6,0,2.6,0.9,2.6,2.8c0.1,1.5-1,2.9-2.5,3
		C52.2,14.5,52.1,14.5,52,14.5 M52.1,9.9c-0.6,0-1.3,0.5-1.3,1.7c0,1.1,0.4,1.7,1.2,1.7s1.3-0.6,1.3-1.7S52.9,9.9,52.1,9.9
		 M33.3,14.4h1.4V8.8c-0.7-0.1-1.4,0.1-1.4,1.2V14.4z M34.1,8.1c0.5,0,0.9-0.4,0.9-0.9c0,0,0,0,0,0c0-0.5-0.4-0.9-0.9-0.9
		s-0.9,0.4-0.9,0.9C33.2,7.7,33.6,8.1,34.1,8.1 M47.5,14.5c-1.4,0.2-2.6-0.8-2.7-2.2c0-0.2,0-0.4,0-0.6c-0.2-1.5,0.9-2.8,2.4-3
		c0.2,0,0.4,0,0.6,0c0.5,0,0.9,0.1,1.4,0.2l-0.3,1.2c-0.3-0.1-0.7-0.2-1-0.2c-1,0-1.5,0.7-1.5,1.7s0.4,1.7,1.4,1.7
		c0.4,0,0.8-0.1,1.1-0.2l0.2,1.2C48.5,14.4,48,14.5,47.5,14.5"/>
	<g>
		
			<linearGradient id="SVGID_1_" gradientUnits="userSpaceOnUse" x1="-404.1202" y1="-1926.6439" x2="-405.4602" y2="-1925.0339" gradientTransform="matrix(1.71 0 0 -1.71 699.75 -3278.04)">
			<stop  offset="0" style="stop-color:#0019CE"/>
			<stop  offset="1" style="stop-color:#00A4CE;stop-opacity:0.5"/>
		</linearGradient>
		<path class="st1" d="M6.9,11.5c-3.6,3-1.2,5.3,1.9,6.6v-3.5C7.3,14.2,8.2,12.2,6.9,11.5z"/>
		
			<linearGradient id="SVGID_2_" gradientUnits="userSpaceOnUse" x1="-395.9236" y1="-1923.3069" x2="-402.6936" y2="-1920.0969" gradientTransform="matrix(1.71 0 0 -1.71 699.75 -3278.04)">
			<stop  offset="0" style="stop-color:#040D1A"/>
			<stop  offset="1" style="stop-color:#FD110D;stop-opacity:0.99"/>
		</linearGradient>
		<path class="st2" d="M9.8,2.6c-0.3,0-0.7,0.1-1,0.2c0,0,0,0,0,2L14,9.2c0.1-0.2,0.2-0.4,0.2-0.6c0.1-0.5,0.1-1.1,0.1-1.6
			c-0.1-0.9-0.3-1.7-0.8-2.4c-0.3-0.4-0.7-0.8-1.2-1.2c-0.5-0.4-1.1-0.6-1.8-0.7C10.3,2.6,10.1,2.6,9.8,2.6z"/>
		
			<linearGradient id="SVGID_3_" gradientUnits="userSpaceOnUse" x1="-405.8777" y1="-1927.7039" x2="-401.7477" y2="-1921.7938" gradientTransform="matrix(1.71 0 0 -1.71 699.75 -3278.04)">
			<stop  offset="0.27" style="stop-color:#172A74"/>
			<stop  offset="0.41" style="stop-color:#254D91"/>
			<stop  offset="0.59" style="stop-color:#3777B4"/>
			<stop  offset="0.76" style="stop-color:#4496CE"/>
			<stop  offset="0.9" style="stop-color:#4BA8DD"/>
			<stop  offset="1" style="stop-color:#4EAFE3"/>
		</linearGradient>
		<path class="st3" d="M8.8,20c0,0,0.1-14.3,0.1-14.3L7.4,3.3c0,0.2,4.6,4,6.7,5.9l0.4,0.4c0.8,0.7,1.4,1.5,1.9,2.4
			c0.3,0.6,0.5,1.3,0.4,2c0,0.8-0.3,1.6-0.7,2.2c-0.5,0.8-1.1,1.5-1.9,2c-1.4,0.9-3,1.5-4.7,1.8C9,20.1,8.8,20.1,8.8,20z"/>
		
			<linearGradient id="SVGID_4_" gradientUnits="userSpaceOnUse" x1="10.7351" y1="7.3591" x2="5.3551" y2="13.8391" gradientTransform="matrix(1 0 0 -1 0 22)">
			<stop  offset="0" style="stop-color:#880520"/>
			<stop  offset="1" style="stop-color:#EC171D"/>
		</linearGradient>
		<path class="st4" d="M9,16.1l-0.2-1.5c-0.7-0.1-0.9-0.7-1.1-1.4c0-0.8-0.5-1.6-1.3-2c-1.7-1-1.7-2.4-0.1-2.8
			C7,8.2,7.6,7.6,7.7,6.9c0.4-1,0.8-1,1.2-1.2v0.5C8.9,6.1,8.9,6.1,9,6c0-0.1,0-0.2,0-0.2C8.7,5.1,8.3,4.5,7.9,3.9
			C7.4,3.2,7,2.5,7,2.5S4,4.8,2.8,5.9c-1,1-1.3,2.5-0.8,3.8c0.4,1,2.2,2.4,3.6,3.7s1.6,2.5,2.1,4.4S9,20,9,20V16.1z"/>
		
			<linearGradient id="SVGID_5_" gradientUnits="userSpaceOnUse" x1="-404.4633" y1="-1919.4358" x2="-404.6533" y2="-1917.3958" gradientTransform="matrix(1.71 0 0 -1.71 699.75 -3278.04)">
			<stop  offset="0" style="stop-color:#0B4AD0"/>
			<stop  offset="0.15" style="stop-color:#2371DE"/>
			<stop  offset="0.31" style="stop-color:#3792EA"/>
			<stop  offset="0.47" style="stop-color:#47ADF3"/>
			<stop  offset="0.64" style="stop-color:#52BFFA"/>
			<stop  offset="0.81" style="stop-color:#59CAFE"/>
			<stop  offset="1" style="stop-color:#5BCEFF"/>
		</linearGradient>
		<path class="st5" d="M7,2.7c0-0.1,0-0.1,0-0.2c-0.1-0.3,0-0.7,0.2-1C7.3,1.3,7.6,1.1,7.8,1c0.5-0.2,1-0.2,1-0.2s0,3.9,0,3.9
			S7.1,3.3,7,2.7z"/>
		
			<linearGradient id="SVGID_6_" gradientUnits="userSpaceOnUse" x1="-405.0237" y1="-1926.1068" x2="-403.0137" y2="-1921.0768" gradientTransform="matrix(1.71 0 0 -1.71 699.75 -3278.04)">
			<stop  offset="0" style="stop-color:#013284"/>
			<stop  offset="0.94" style="stop-color:#52C3F7"/>
		</linearGradient>
		<path class="st6" d="M9,18.1c1.7-2.6,3.4-3.1,5-8.9L7.6,3.5l1.3,2.3L9,18.1z"/>
	</g>
</g>
</svg>
