<?xml version="1.0" encoding="UTF-8" standalone="no"?>
<svg
   xmlns:dc="http://purl.org/dc/elements/1.1/"
   xmlns:cc="http://creativecommons.org/ns#"
   xmlns:rdf="http://www.w3.org/1999/02/22-rdf-syntax-ns#"
   xmlns:svg="http://www.w3.org/2000/svg"
   xmlns="http://www.w3.org/2000/svg"
   xmlns:sodipodi="http://sodipodi.sourceforge.net/DTD/sodipodi-0.dtd"
   xmlns:inkscape="http://www.inkscape.org/namespaces/inkscape"
   version="1.1"
   id="svg4256"
   width="1000"
   height="271.89465"
   viewBox="0 0 1000 271.89498"
   inkscape:version="1.0.2 (e86c870879, 2021-01-15)"
   sodipodi:docname="Telkomsel_PraBayar.svg">
  <sodipodi:namedview
     pagecolor="#ffffff"
     bordercolor="#666666"
     borderopacity="1"
     objecttolerance="10"
     gridtolerance="10"
     guidetolerance="10"
     inkscape:pageopacity="0"
     inkscape:pageshadow="2"
     inkscape:window-width="1366"
     inkscape:window-height="705"
     id="namedview6"
     showgrid="false"
     inkscape:zoom="0.5"
     inkscape:cx="573.63776"
     inkscape:cy="159.52211"
     inkscape:window-x="-8"
     inkscape:window-y="-8"
     inkscape:window-maximized="1"
     inkscape:current-layer="svg4256"
     showguides="false"
     inkscape:document-rotation="0" />
  <metadata
     id="metadata4264">
    <rdf:RDF>
      <cc:Work
         rdf:about="">
        <dc:format>image/svg+xml</dc:format>
        <dc:type
           rdf:resource="http://purl.org/dc/dcmitype/StillImage" />
        <dc:title></dc:title>
      </cc:Work>
    </rdf:RDF>
  </metadata>
  <defs
     id="defs4262" />
  <g
     id="g956"
     transform="translate(-1.7837582e-4)">
    <path
       id="path1082"
       style="color:#000000;font-style:normal;font-variant:normal;font-weight:normal;font-stretch:normal;font-size:medium;line-height:normal;font-family:sans-serif;font-variant-ligatures:normal;font-variant-position:normal;font-variant-caps:normal;font-variant-numeric:normal;font-variant-alternates:normal;font-variant-east-asian:normal;font-feature-settings:normal;font-variation-settings:normal;text-indent:0;text-align:start;text-decoration:none;text-decoration-line:none;text-decoration-style:solid;text-decoration-color:#000000;letter-spacing:normal;word-spacing:normal;text-transform:none;writing-mode:lr-tb;direction:ltr;text-orientation:mixed;dominant-baseline:auto;baseline-shift:baseline;text-anchor:start;white-space:normal;shape-padding:0;shape-margin:0;inline-size:0;clip-rule:nonzero;display:inline;overflow:visible;visibility:visible;isolation:auto;mix-blend-mode:normal;color-interpolation:sRGB;color-interpolation-filters:linearRGB;solid-color:#000000;solid-opacity:1;vector-effect:none;fill:#ff0025;fill-opacity:1;fill-rule:evenodd;stroke:none;stroke-width:55.9743;stroke-linecap:butt;stroke-linejoin:miter;stroke-miterlimit:4;stroke-dasharray:none;stroke-dashoffset:0;stroke-opacity:1;paint-order:stroke fill markers;color-rendering:auto;image-rendering:auto;shape-rendering:auto;text-rendering:auto;enable-background:accumulate;stop-color:#000000"
       d="m 483.20705,109.16776 c 0,19.94299 -12.46014,33.39412 -29.63127,33.39412 -17.17114,0 -30.12923,-12.82815 -30.12923,-33.39412 0,-20.565932 12.54271,-33.394965 30.12923,-33.394965 17.58652,0 29.63127,13.451965 29.63127,33.394965 z M 453.57668,47.618526 c -36.84626,-0.05675 -62.65596,26.283766 -62.60579,61.550094 0.0501,35.26632 25.34115,61.81074 62.60579,61.79606 37.26463,-0.0147 62.01982,-26.92761 62.02208,-61.79606 0.003,-34.86845 -25.17584,-61.493395 -62.02208,-61.550094 z"
       sodipodi:nodetypes="zzszzsssss" />
    <path
       id="path1082-3-1-9"
       style="color:#000000;font-style:normal;font-variant:normal;font-weight:normal;font-stretch:normal;font-size:medium;line-height:normal;font-family:sans-serif;font-variant-ligatures:normal;font-variant-position:normal;font-variant-caps:normal;font-variant-numeric:normal;font-variant-alternates:normal;font-variant-east-asian:normal;font-feature-settings:normal;font-variation-settings:normal;text-indent:0;text-align:start;text-decoration:none;text-decoration-line:none;text-decoration-style:solid;text-decoration-color:#000000;letter-spacing:normal;word-spacing:normal;text-transform:none;writing-mode:lr-tb;direction:ltr;text-orientation:mixed;dominant-baseline:auto;baseline-shift:baseline;text-anchor:start;white-space:normal;shape-padding:0;shape-margin:0;inline-size:0;clip-rule:nonzero;display:inline;overflow:visible;visibility:visible;isolation:auto;mix-blend-mode:normal;color-interpolation:sRGB;color-interpolation-filters:linearRGB;solid-color:#000000;solid-opacity:1;vector-effect:none;fill:#ff0025;fill-opacity:1;fill-rule:evenodd;stroke:none;stroke-width:53.5903;stroke-linecap:butt;stroke-linejoin:miter;stroke-miterlimit:4;stroke-dasharray:none;stroke-dashoffset:0;stroke-opacity:1;paint-order:stroke fill markers;color-rendering:auto;image-rendering:auto;shape-rendering:auto;text-rendering:auto;enable-background:accumulate;stop-color:#000000"
       d="m 160.09875,47.61844 c -17.74715,-0.03313 -31.08474,5.46877 -42.52987,16.478825 -11.44512,11.010056 -17.915708,26.090046 -17.889775,46.900515 0.02549,20.81046 8.803805,36.56274 20.195075,45.76011 11.39126,9.19737 25.00503,14.2093 44.17275,14.2068 19.1677,-0.003 33.9855,-6.95603 41.56168,-11.68494 V 131.0756 c -5.25714,4.46028 -21.31419,13.19023 -37.40737,13.19023 -16.09317,0 -32.70944,-5.37503 -36.79594,-25.3009 h 81.45844 c 0.39365,-3.12842 1.11147,-7.83994 1.09484,-12.78781 -0.0543,-16.090705 -3.53857,-26.77235 -11.7847,-38.211612 C 193.92775,56.526244 177.84589,47.651542 160.09875,47.61844 Z m -1.53937,24.497927 c 7.50214,0 12.70599,2.371435 16.72032,6.586907 4.01436,4.215483 6.74909,10.500676 7.18741,17.259275 H 131.9898 c 1.38001,-5.918159 2.9738,-10.16597 7.41959,-15.353652 4.44579,-5.187683 11.64771,-8.49253 19.14999,-8.49253 z"
       sodipodi:nodetypes="zzzzzcczccszzzzcczz" />
    <path
       style="display:inline;fill:#ff0025;fill-opacity:1;fill-rule:evenodd;stroke:none;stroke-width:71.7657;stroke-miterlimit:4;stroke-dasharray:none;stroke-opacity:1;paint-order:stroke fill markers"
       d="M 230.26364,1.347291e-4 V 148.59091 c 0,15.36519 10.94849,22.37409 21.67279,22.37409 10.72429,-1e-5 17.52654,-3.57155 17.52654,-3.57155 0,0 -6.54014,-5.29478 -6.5684,-28.82724 -0.0275,-22.82334 -0.003,-108.63279 0,-118.783609 C 262.89724,9.6317791 256.42086,1.347291e-4 244.47675,1.347291e-4 Z"
       id="path1312"
       sodipodi:nodetypes="csscszsc" />
    <path
       id="path1312-7"
       style="display:inline;fill:#ff0025;fill-opacity:1;fill-rule:evenodd;stroke:none;stroke-width:71.7657;stroke-miterlimit:4;stroke-dasharray:none;stroke-opacity:1;paint-order:stroke fill markers"
       d="M -4.2237098e-4,22.370951 V 39.149473 H 47.400516 V 148.59089 c 0,15.36519 10.948497,22.37411 21.672787,22.37411 10.72429,-1e-5 17.526548,-3.57155 17.526548,-3.57155 0,0 -6.54014,-5.29478 -6.568401,-28.82724 -0.02751,-22.82334 -0.0025,-94.790874 0,-104.941697 C 80.033999,23.473697 68.200871,5.1965376 48.730105,5.1965957 l -30.092619,9.15e-5 C 8.7747547,5.1967204 -4.2237098e-4,13.229764 -4.2237098e-4,22.370951 Z M 69.613905,5.1965957 c -0.621652,0 -1.121791,0.500139 -1.121791,1.1217905 0,0.6216515 0.623597,1.0827907 1.121791,1.454593 2.0644,1.5406634 8.49858,6.1021758 11.571079,12.3429368 3.072499,6.240761 3.145844,11.904305 5.142127,15.175819 1.996292,3.271504 5.25424,3.857738 8.699963,3.857738 h 24.773536 c 5.47409,0 7.62525,-3.679139 7.62525,-8.042935 V 5.1965957 Z" />
    <path
       id="path1312-2"
       style="display:inline;fill:#ff0025;fill-opacity:1;fill-rule:evenodd;stroke:none;stroke-width:114.058;stroke-miterlimit:4;stroke-dasharray:none;stroke-opacity:1;paint-order:stroke fill markers"
       d="m 284.29137,0 v 169.01201 h 32.63094 c -8.3e-4,-17.53819 5e-4,-35.10552 0,-53.43518 7.05267,8.14975 26.32863,30.80781 28.77854,33.65369 8.73833,10.15084 15.00621,19.78149 29.30129,19.78149 h 26.09825 c 0,0 -31.56198,-36.46998 -34.46217,-39.83895 -7.8327,-9.09883 -13.81788,-17.77469 -25.26868,-19.47629 v -1.18349 c 9.8691,-2.24009 15.60559,-10.520718 22.72315,-19.185686 2.76733,-3.368979 32.30949,-39.838967 32.30949,-39.838967 H 359.4478 l -42.52549,51.894983 c 0,0 -0.003,-70.524719 0,-101.38361 z"
       sodipodi:nodetypes="ccccsscsccsccccc" />
    <path
       id="path1312-5-6"
       style="display:inline;fill:#ff0025;fill-opacity:1;fill-rule:evenodd;stroke:none;stroke-width:71.7657;stroke-miterlimit:4;stroke-dasharray:none;stroke-opacity:1;paint-order:stroke fill markers"
       d="m 593.89244,47.618437 c -13.00739,0 -21.58683,5.770654 -25.46294,10.23263 -3.87612,4.461984 -3.24375,5.69124 -4.40692,6.546815 -2.22013,-8.729195 -8.14148,-14.89302 -18.30385,-14.89302 h -14.2131 V 169.01201 h 32.63091 v -61.70493 c 0,-19.355273 8.92363,-31.873824 21.57194,-31.837086 12.64831,0.03675 19.65505,6.483396 19.65505,21.440634 v 72.101382 h 32.63093 v -61.19518 c 0,-17.395149 7.0379,-32.430478 22.07216,-32.346836 15.03425,0.08364 19.82045,9.941453 19.82045,22.854649 v 70.687367 h 32.38256 V 89.733451 c 0,-13.512264 -3.99565,-23.510578 -12.16106,-31.033484 -8.16542,-7.522898 -17.09214,-11.08153 -31.77546,-11.08153 -14.68325,0 -25.06381,6.077638 -33.04486,14.747238 -1.39284,1.512976 -2.70771,3.559114 -3.93355,5.261536 -2.03703,-4.333173 -5.61399,-9.07838 -8.67885,-11.62863 -7.68898,-6.397826 -15.77603,-8.380144 -28.78341,-8.380144 z"
       sodipodi:nodetypes="zzcscccszsccsssccsssscsz" />
    <path
       id="path1082-3-7"
       style="color:#000000;font-style:normal;font-variant:normal;font-weight:normal;font-stretch:normal;font-size:medium;line-height:normal;font-family:sans-serif;font-variant-ligatures:normal;font-variant-position:normal;font-variant-caps:normal;font-variant-numeric:normal;font-variant-alternates:normal;font-variant-east-asian:normal;font-feature-settings:normal;font-variation-settings:normal;text-indent:0;text-align:start;text-decoration:none;text-decoration-line:none;text-decoration-style:solid;text-decoration-color:#000000;letter-spacing:normal;word-spacing:normal;text-transform:none;writing-mode:lr-tb;direction:ltr;text-orientation:mixed;dominant-baseline:auto;baseline-shift:baseline;text-anchor:start;white-space:normal;shape-padding:0;shape-margin:0;inline-size:0;clip-rule:nonzero;display:inline;overflow:visible;visibility:visible;isolation:auto;mix-blend-mode:normal;color-interpolation:sRGB;color-interpolation-filters:linearRGB;solid-color:#000000;solid-opacity:1;vector-effect:none;fill:#ff0025;fill-opacity:1;fill-rule:evenodd;stroke:none;stroke-width:53.5903;stroke-linecap:butt;stroke-linejoin:miter;stroke-miterlimit:4;stroke-dasharray:none;stroke-dashoffset:0;stroke-opacity:1;paint-order:stroke fill markers;color-rendering:auto;image-rendering:auto;shape-rendering:auto;text-rendering:auto;enable-background:accumulate;stop-color:#000000"
       d="m 776.93592,47.618529 c -19.7444,-0.03541 -30.3852,6.1344 -36.38127,11.410998 -5.99609,5.276599 -11.46609,11.961152 -11.5154,26.42855 -0.0491,14.467399 10.54199,26.402963 31.43576,32.822593 20.89377,6.41962 29.55558,8.63374 29.4866,15.68748 -0.0691,7.05375 -5.27262,11.54449 -19.96451,11.54449 -14.69188,0 -29.53762,-6.52729 -40.23321,-16.18255 v 29.61718 c 7.99178,5.97571 23.44604,12.01524 41.89395,12.01773 18.44789,0.003 29.57794,-4.51125 35.99485,-9.5994 6.41692,-5.08816 13.80051,-13.16099 13.74474,-29.29755 -0.0557,-16.13658 -10.86664,-26.7526 -27.34775,-32.520552 -16.48113,-5.767951 -31.90928,-7.713191 -33.18343,-14.451357 -1.27414,-6.738164 2.5536,-11.298073 14.70095,-12.397935 12.14735,-1.099865 31.87029,5.159507 38.55561,11.783865 V 57.081695 c -6.23338,-3.607241 -17.44249,-9.427725 -37.18689,-9.463166 z"
       sodipodi:nodetypes="zzzzzzcczzzzzzccz" />
    <path
       id="path1082-3-1"
       style="color:#000000;font-style:normal;font-variant:normal;font-weight:normal;font-stretch:normal;font-size:medium;line-height:normal;font-family:sans-serif;font-variant-ligatures:normal;font-variant-position:normal;font-variant-caps:normal;font-variant-numeric:normal;font-variant-alternates:normal;font-variant-east-asian:normal;font-feature-settings:normal;font-variation-settings:normal;text-indent:0;text-align:start;text-decoration:none;text-decoration-line:none;text-decoration-style:solid;text-decoration-color:#000000;letter-spacing:normal;word-spacing:normal;text-transform:none;writing-mode:lr-tb;direction:ltr;text-orientation:mixed;dominant-baseline:auto;baseline-shift:baseline;text-anchor:start;white-space:normal;shape-padding:0;shape-margin:0;inline-size:0;clip-rule:nonzero;display:inline;overflow:visible;visibility:visible;isolation:auto;mix-blend-mode:normal;color-interpolation:sRGB;color-interpolation-filters:linearRGB;solid-color:#000000;solid-opacity:1;vector-effect:none;fill:#ff0025;fill-opacity:1;fill-rule:evenodd;stroke:none;stroke-width:53.5903;stroke-linecap:butt;stroke-linejoin:miter;stroke-miterlimit:4;stroke-dasharray:none;stroke-dashoffset:0;stroke-opacity:1;paint-order:stroke fill markers;color-rendering:auto;image-rendering:auto;shape-rendering:auto;text-rendering:auto;enable-background:accumulate;stop-color:#000000"
       d="m 890.6369,47.618445 c -17.74714,-0.03313 -31.08473,5.468772 -42.52986,16.478827 -11.44512,11.010055 -17.9157,26.090046 -17.88977,46.900508 0.0255,20.81046 8.8038,36.56274 20.19506,45.76011 11.39127,9.19737 25.00504,14.2093 44.17275,14.2068 19.16772,-0.003 33.9855,-6.95603 41.56168,-11.68494 V 131.0756 c -5.25714,4.46028 -21.31419,13.19023 -37.40737,13.19023 -16.09316,0 -32.70944,-5.37503 -36.79593,-25.3009 h 81.45843 c 0.39365,-3.12842 1.11147,-7.83994 1.09485,-12.78781 -0.0543,-16.090698 -3.53857,-26.772343 -11.7847,-38.211606 C 924.46592,56.526251 908.38405,47.651549 890.6369,47.618445 Z m -1.53937,24.497929 c 7.50216,0 12.70599,2.371435 16.72034,6.586907 4.01434,4.215483 6.74909,10.500676 7.18741,17.259275 h -50.47732 c 1.38,-5.918159 2.97379,-10.16597 7.41959,-15.353653 4.44579,-5.187682 11.64772,-8.492529 19.14998,-8.492529 z"
       sodipodi:nodetypes="zzzzzcczccszzzzcczz" />
    <path
       style="display:inline;fill:#ff0025;fill-opacity:1;fill-rule:evenodd;stroke:none;stroke-width:71.7657;stroke-miterlimit:4;stroke-dasharray:none;stroke-opacity:1;paint-order:stroke fill markers"
       d="M 960.80149,1.347291e-4 V 148.59091 c 0,15.36519 10.9485,22.37409 21.67282,22.37409 10.7242,-1e-5 17.52649,-3.57155 17.52649,-3.57155 0,0 -6.54018,-5.29478 -6.56845,-28.82724 -0.0277,-22.82334 0,-108.63279 0,-118.783609 0,-10.1508219 -6.47369,-19.7824662709 -18.41775,-19.7824662709 z"
       id="path1312-8"
       sodipodi:nodetypes="csscszsc" />
    <path
       id="path895"
       style="font-style:normal;font-variant:normal;font-weight:bold;font-stretch:normal;font-size:54.4682px;font-family:'Telkomsel Batik Sans';-inkscape-font-specification:'Telkomsel Batik Sans Bold';letter-spacing:-0.470001px;opacity:1;fill:#ff0025;fill-opacity:1;stroke-width:2.03764"
       d="m 671.00999,201.24724 v 49.37653 c 0,2.32903 0.62022,4.03597 1.86237,5.27813 1.24216,1.24215 3.10531,1.7872 5.51195,1.7872 2.01848,0 3.64965,-0.3118 5.04706,-1.01052 v -45.57106 h 8.22896 c 2.56193,0 4.57976,0.6988 6.0548,2.09622 1.39742,1.3974 2.17415,3.33945 2.17415,5.82372 0,2.56196 -0.69847,4.50151 -2.01825,5.89893 -1.39743,1.3974 -3.18287,2.06383 -5.43402,2.0962 -6.43277,0.0925 -5.91735,3.08838 -5.91735,9.86028 h 7.08099 c 5.82256,0 10.40264,-1.55226 13.7409,-4.73527 3.26065,-3.10538 4.96912,-7.45531 4.96912,-13.04496 0,-5.51203 -1.70879,-9.85918 -5.04707,-13.04218 -3.33825,-3.183 -7.91803,-4.81322 -13.66295,-4.81322 z"
       sodipodi:nodetypes="csssccscscscscsssc" />
    <path
       d="m 717.85154,217.08525 v 40.05922 h 12.18856 v -21.58229 c 0,-2.87246 0.77635,-5.12386 2.32903,-6.75417 1.55267,-1.63031 3.72643,-2.48429 6.59891,-2.48429 2.48428,0 4.42513,0.62107 5.90019,1.86321 1.63031,-1.86321 2.48429,-3.95934 2.48429,-6.1331 0,-1.78557 -0.62107,-3.18299 -1.78559,-4.26988 -1.16451,-1.00923 -2.71719,-1.55268 -4.73568,-1.55268 -2.32902,0 -4.42514,0.69871 -6.44364,2.09612 -2.01848,1.39742 -3.49354,3.26065 -4.42514,5.51203 v -1.00924 c 0,-2.0185 -0.69871,-3.64881 -1.94086,-4.89096 -1.24214,-1.24214 -2.95009,-1.86322 -5.12385,-1.86322 -2.01848,0 -3.72643,0.38817 -5.04622,1.00925 z"
       style="font-style:normal;font-variant:normal;font-weight:bold;font-stretch:normal;font-size:54.4682px;font-family:'Telkomsel Batik Sans';-inkscape-font-specification:'Telkomsel Batik Sans Bold';letter-spacing:-0.470001px;fill:#ff0025;fill-opacity:1;stroke-width:2.03764"
       id="path897" />
    <path
       d="m 753.66953,236.33852 c -3.33827,2.32903 -4.96858,5.66729 -4.96858,10.0148 0,3.41591 1.1645,6.21074 3.49354,8.3845 2.32901,2.17376 5.27911,3.18299 8.92792,3.18299 2.87246,0 5.43438,-0.6987 7.76341,-2.17376 2.32904,-1.3974 3.88171,-3.57116 4.73569,-6.44363 v 1.24215 c 0,4.58042 2.01848,6.83181 6.1331,6.83181 2.9501,0 5.04622,-0.69871 6.28836,-2.17375 -0.62106,-1.39742 -0.93161,-3.88171 -0.93161,-7.60816 v -17.23478 c 0,-4.73569 -1.47504,-8.38448 -4.42514,-10.94641 -2.95011,-2.4843 -7.45288,-3.80409 -13.35307,-3.80409 -3.49354,0 -6.44364,0.46581 -8.92794,1.24216 -2.48429,0.77634 -4.42514,1.86321 -5.6673,3.26063 -1.24214,1.39742 -1.86321,2.87246 -1.86321,4.42515 0,1.16451 0.38817,2.17376 1.24215,3.10537 0.77634,0.9316 1.78559,1.63032 3.02773,2.17374 0.85398,-1.55267 2.25139,-2.79482 4.19224,-3.72643 1.86323,-0.93161 4.03698,-1.39742 6.366,-1.39742 2.32903,0 4.11462,0.54344 5.35676,1.55269 1.24215,1.08687 1.86323,2.79483 1.86323,5.12386 v 1.94084 c -1.24215,-0.31053 -2.95011,-0.4658 -5.20149,-0.4658 -6.05547,0 -10.71351,1.16452 -14.05179,3.49354 z m 8.53975,11.64512 c -0.9316,-0.77634 -1.31977,-1.78557 -1.31977,-3.18299 0,-1.63032 0.62107,-2.87248 2.01849,-3.80407 1.31978,-0.93162 3.26062,-1.39742 5.90019,-1.39742 1.39742,0 2.79483,0.15526 4.11462,0.4658 v 2.71719 c 0,1.78559 -0.69872,3.26064 -2.09614,4.50279 -1.3974,1.24214 -3.02772,1.78558 -5.04621,1.78558 -1.55268,0 -2.7172,-0.31053 -3.57118,-1.08688 z"
       style="font-style:normal;font-variant:normal;font-weight:bold;font-stretch:normal;font-size:54.4682px;font-family:'Telkomsel Batik Sans';-inkscape-font-specification:'Telkomsel Batik Sans Bold';letter-spacing:-0.470001px;fill:#ff0025;fill-opacity:1;stroke-width:2.03764"
       id="path899" />
    <path
       id="path901"
       style="font-style:normal;font-variant:normal;font-weight:bold;font-stretch:normal;font-size:54.4682px;font-family:'Telkomsel Batik Sans';-inkscape-font-specification:'Telkomsel Batik Sans Bold';letter-spacing:-0.470001px;opacity:1;fill:#ff0025;fill-opacity:1;stroke-width:2.03764"
       d="m 794.01565,201.24724 v 6.38242 c 0,3.99801 5.08537,3.47786 10.12514,3.47786 h 11.61088 c 2.32903,0 4.19218,0.6196 5.51196,1.70648 1.24213,1.08687 1.9431,2.64162 1.9431,4.6601 0,2.09614 -0.70097,3.72634 -1.9431,4.81322 -1.31978,1.08687 -3.18293,1.62854 -5.51196,1.62854 h -9.47053 v -9.86516 c -4.98533,-0.0147 -10.61136,0.40854 -12.26549,-2.42303 v 45.51581 h 23.36734 c 6.28835,0 11.17965,-1.39761 14.59554,-4.19244 3.4159,-2.79483 5.20016,-6.59784 5.20016,-11.4888 0,-3.49352 -0.9311,-6.44341 -2.63905,-8.92768 -1.70795,-2.48431 -4.11244,-3.88254 -7.06255,-4.34834 2.48431,-0.9316 4.42386,-2.48386 5.89891,-4.73526 1.39742,-2.17376 2.17416,-4.81182 2.17416,-7.91718 0,-4.50278 -1.63052,-8.07471 -4.89116,-10.559 -3.26064,-2.48429 -7.84072,-3.72754 -13.7409,-3.72754 z m 12.26549,32.37299 h 11.6447 c 2.17375,0 3.88285,0.62238 5.12499,1.70926 1.16451,1.16451 1.78442,2.79505 1.78442,4.89116 0,2.25139 -0.69816,3.95803 -1.94031,5.20018 -1.31978,1.24214 -3.18292,1.78721 -5.51195,1.78721 h -11.10185 z"
       sodipodi:nodetypes="cssccscsccccssssccsssccscscscc" />
    <path
       d="m 846.81029,236.33852 c -3.33828,2.32903 -4.96859,5.66729 -4.96859,10.0148 0,3.41591 1.16452,6.21074 3.49354,8.3845 2.32903,2.17376 5.27912,3.18299 8.92792,3.18299 2.87247,0 5.4344,-0.6987 7.76341,-2.17376 2.32904,-1.3974 3.88171,-3.57116 4.73569,-6.44363 v 1.24215 c 0,4.58042 2.0185,6.83181 6.1331,6.83181 2.9501,0 5.04623,-0.69871 6.28837,-2.17375 -0.62107,-1.39742 -0.93161,-3.88171 -0.93161,-7.60816 v -17.23478 c 0,-4.73569 -1.47505,-8.38448 -4.42515,-10.94641 -2.95009,-2.4843 -7.45288,-3.80409 -13.35307,-3.80409 -3.49354,0 -6.44364,0.46581 -8.92793,1.24216 -2.48429,0.77634 -4.42515,1.86321 -5.66729,3.26063 -1.24215,1.39742 -1.86323,2.87246 -1.86323,4.42515 0,1.16451 0.38817,2.17376 1.24215,3.10537 0.77635,0.9316 1.78559,1.63032 3.02773,2.17374 0.85398,-1.55267 2.25139,-2.79482 4.19226,-3.72643 1.86321,-0.93161 4.03696,-1.39742 6.36599,-1.39742 2.32902,0 4.11461,0.54344 5.35675,1.55269 1.24216,1.08687 1.86323,2.79483 1.86323,5.12386 v 1.94084 c -1.24215,-0.31053 -2.9501,-0.4658 -5.20149,-0.4658 -6.05547,0 -10.71351,1.16452 -14.05178,3.49354 z m 8.53975,11.64512 c -0.93161,-0.77634 -1.31978,-1.78557 -1.31978,-3.18299 0,-1.63032 0.62108,-2.87248 2.01849,-3.80407 1.31978,-0.93162 3.26064,-1.39742 5.9002,-1.39742 1.39741,0 2.79482,0.15526 4.11461,0.4658 v 2.71719 c 0,1.78559 -0.69871,3.26064 -2.09612,4.50279 -1.39742,1.24214 -3.02774,1.78558 -5.04622,1.78558 -1.55269,0 -2.7172,-0.31053 -3.57118,-1.08688 z"
       style="font-style:normal;font-variant:normal;font-weight:bold;font-stretch:normal;font-size:54.4682px;font-family:'Telkomsel Batik Sans';-inkscape-font-specification:'Telkomsel Batik Sans Bold';letter-spacing:-0.470001px;fill:#ff0025;fill-opacity:1;stroke-width:2.03764"
       id="path903" />
    <path
       d="m 922.0664,217.70633 c -1.78559,-1.00925 -3.6488,-1.55269 -5.58966,-1.55269 -2.32901,0 -4.19224,0.62108 -5.58966,1.70795 -1.39741,1.16451 -2.32903,2.95009 -2.95009,5.4344 l -3.26064,13.35307 c -0.85398,3.18299 -1.78558,7.29761 -2.71719,12.26619 -0.77634,-3.10537 -1.78559,-7.21997 -3.18301,-12.26619 l -4.19224,-14.75049 c -0.62108,-2.01848 -1.55269,-3.49354 -2.7172,-4.42515 -1.24214,-0.85398 -2.7172,-1.31978 -4.58041,-1.31978 -2.17375,0 -4.34751,0.62108 -6.44363,1.86322 l 12.4991,37.10913 c 1.70795,0 3.10537,0.2329 4.03697,0.62106 0.93161,0.38817 1.47505,1.31979 1.47505,2.79484 0,3.02773 -2.09612,4.50277 -6.1331,4.50277 -0.93161,0 -1.70795,-0.0777 -2.48429,-0.38817 -0.77634,-0.23289 -1.39742,-0.54342 -1.86323,-1.00923 -1.31978,1.3974 -1.94084,3.02773 -1.94084,4.81332 0,1.70795 0.62106,3.10536 1.94084,4.03697 1.31979,0.93161 3.33828,1.39742 6.05547,1.39742 3.64881,0 6.67654,-0.85398 9.0832,-2.63957 2.32903,-1.70795 4.19224,-4.65804 5.51202,-8.85028 z"
       style="font-style:normal;font-variant:normal;font-weight:bold;font-stretch:normal;font-size:54.4682px;font-family:'Telkomsel Batik Sans';-inkscape-font-specification:'Telkomsel Batik Sans Bold';letter-spacing:-0.470001px;fill:#ff0025;fill-opacity:1;stroke-width:2.03764"
       id="path905" />
    <path
       d="m 928.22821,236.33852 c -3.33827,2.32903 -4.96858,5.66729 -4.96858,10.0148 0,3.41591 1.16451,6.21074 3.49354,8.3845 2.32901,2.17376 5.27911,3.18299 8.92792,3.18299 2.87246,0 5.43439,-0.6987 7.76342,-2.17376 2.32901,-1.3974 3.88171,-3.57116 4.73568,-6.44363 v 1.24215 c 0,4.58042 2.01848,6.83181 6.1331,6.83181 2.9501,0 5.04622,-0.69871 6.28836,-2.17375 -0.62106,-1.39742 -0.93161,-3.88171 -0.93161,-7.60816 v -17.23478 c 0,-4.73569 -1.47504,-8.38448 -4.42514,-10.94641 -2.95011,-2.4843 -7.45288,-3.80409 -13.35308,-3.80409 -3.49353,0 -6.44364,0.46581 -8.92793,1.24216 -2.48429,0.77634 -4.42515,1.86321 -5.66729,3.26063 -1.24215,1.39742 -1.86321,2.87246 -1.86321,4.42515 0,1.16451 0.38817,2.17376 1.24214,3.10537 0.77634,0.9316 1.78559,1.63032 3.02773,2.17374 0.85398,-1.55267 2.2514,-2.79482 4.19224,-3.72643 1.86323,-0.93161 4.03699,-1.39742 6.366,-1.39742 2.32903,0 4.11462,0.54344 5.35676,1.55269 1.24215,1.08687 1.86323,2.79483 1.86323,5.12386 v 1.94084 c -1.24216,-0.31053 -2.95011,-0.4658 -5.20149,-0.4658 -6.05547,0 -10.71353,1.16452 -14.05179,3.49354 z m 8.53975,11.64512 c -0.93159,-0.77634 -1.31978,-1.78557 -1.31978,-3.18299 0,-1.63032 0.62108,-2.87248 2.0185,-3.80407 1.31978,-0.93162 3.26063,-1.39742 5.90019,-1.39742 1.39742,0 2.79484,0.15526 4.11462,0.4658 v 2.71719 c 0,1.78559 -0.69872,3.26064 -2.09614,4.50279 -1.3974,1.24214 -3.02773,1.78558 -5.04621,1.78558 -1.55268,0 -2.7172,-0.31053 -3.57118,-1.08688 z"
       style="font-style:normal;font-variant:normal;font-weight:bold;font-stretch:normal;font-size:54.4682px;font-family:'Telkomsel Batik Sans';-inkscape-font-specification:'Telkomsel Batik Sans Bold';letter-spacing:-0.470001px;fill:#ff0025;fill-opacity:1;stroke-width:2.03764"
       id="path907" />
    <path
       d="m 967.30689,217.08525 v 40.05922 h 12.18857 v -21.58229 c 0,-2.87246 0.77633,-5.12386 2.32903,-6.75417 1.55267,-1.63031 3.72643,-2.48429 6.59889,-2.48429 2.4843,0 4.42515,0.62107 5.90021,1.86321 1.63031,-1.86321 2.48428,-3.95934 2.48428,-6.1331 0,-1.78557 -0.62107,-3.18299 -1.78558,-4.26988 -1.16451,-1.00923 -2.7172,-1.55268 -4.73569,-1.55268 -2.32903,0 -4.42515,0.69871 -6.44363,2.09612 -2.01848,1.39742 -3.49354,3.26065 -4.42515,5.51203 v -1.00924 c 0,-2.0185 -0.6987,-3.64881 -1.94085,-4.89096 -1.24214,-1.24214 -2.95009,-1.86322 -5.12385,-1.86322 -2.0185,0 -3.72645,0.38817 -5.04623,1.00925 z"
       style="font-style:normal;font-variant:normal;font-weight:bold;font-stretch:normal;font-size:54.4682px;font-family:'Telkomsel Batik Sans';-inkscape-font-specification:'Telkomsel Batik Sans Bold';letter-spacing:-0.470001px;fill:#ff0025;fill-opacity:1;stroke-width:2.03764"
       id="path909" />
  </g>
</svg>
