<svg width="50" height="50" viewBox="0 0 50 50" fill="none" xmlns="http://www.w3.org/2000/svg">
<path d="M6.5918 2.92969C6.1873 2.92969 5.85938 3.25762 5.85938 3.66211C5.85938 4.0666 6.1873 4.39453 6.5918 4.39453C6.99629 4.39453 7.32422 4.0666 7.32422 3.66211C7.32422 3.25762 6.99629 2.92969 6.5918 2.92969ZM9.52148 2.92969C9.11699 2.92969 8.78906 3.25762 8.78906 3.66211C8.78906 4.0666 9.11699 4.39453 9.52148 4.39453C9.92598 4.39453 10.2539 4.0666 10.2539 3.66211C10.2539 3.25762 9.92598 2.92969 9.52148 2.92969ZM3.66211 2.92969C3.25762 2.92969 2.92969 3.25762 2.92969 3.66211C2.92969 4.0666 3.25762 4.39453 3.66211 4.39453C4.0666 4.39453 4.39453 4.0666 4.39453 3.66211C4.39453 3.25762 4.0666 2.92969 3.66211 2.92969ZM28.7289 30.6928L23.4463 35.9754L21.2711 33.8002C20.9851 33.5143 20.5213 33.5143 20.2354 33.8002C19.9493 34.0863 19.9493 34.55 20.2354 34.836L22.5832 37.1839C22.8212 37.4219 23.1337 37.5407 23.4463 37.5407C23.7589 37.5407 24.0715 37.4217 24.3095 37.1839L29.7647 31.7287C30.0508 31.4426 30.0508 30.9789 29.7647 30.6929C29.4787 30.4068 29.0149 30.4068 28.7289 30.6928ZM46.2698 0H3.73018C1.67334 0 0 1.67334 0 3.73018V46.3379C0 48.3572 1.64277 50 3.66211 50H46.3379C48.3572 50 50 48.3572 50 46.3379V3.73018C50 1.67334 48.3267 0 46.2698 0ZM1.46484 3.73018C1.46484 2.48105 2.48105 1.46484 3.73018 1.46484H18.8626C18.6747 1.83135 18.568 2.24609 18.568 2.68555V4.44336C18.568 5.22412 17.9327 5.85938 17.152 5.85938H1.46484V3.73018ZM48.5352 46.2698C48.5352 47.5189 47.5189 48.5352 46.2698 48.5352H3.73018C2.48105 48.5352 1.46484 47.5189 1.46484 46.2698V7.32422H17.152C18.7404 7.32422 20.0328 6.03193 20.0328 4.44336V2.68555C20.0328 2.0124 20.5804 1.46484 21.2535 1.46484H28.7466C29.4197 1.46484 29.9673 2.0124 29.9673 2.68555V4.44336C29.9673 6.03193 31.2597 7.32422 32.8481 7.32422H48.5352V46.2698ZM48.5352 5.85938H32.848C32.0673 5.85938 31.432 5.22412 31.432 4.44336V2.68555C31.432 2.24609 31.3253 1.83135 31.1374 1.46484H46.2698C47.5189 1.46484 48.5352 2.48105 48.5352 3.73018V5.85938ZM15.0086 13.4676C15.0086 13.8722 15.3365 14.2 15.741 14.2H29.6743V18.2219H6.50703C6.37246 18.2219 6.26289 18.1124 6.26289 17.9777V14.4441C6.26289 14.3095 6.37246 14.2 6.50703 14.2H12.323C12.7275 14.2 13.0555 13.8722 13.0555 13.4676C13.0555 13.063 12.7275 12.7352 12.323 12.7352H6.50703C5.56475 12.7352 4.79805 13.5019 4.79805 14.4441V17.9777C4.79805 18.92 5.56475 19.6867 6.50703 19.6867H43.4929C44.4352 19.6867 45.2019 18.92 45.2019 17.9777V14.4441C45.2019 13.5019 44.4352 12.7352 43.4929 12.7352H15.741C15.3365 12.7352 15.0086 13.0631 15.0086 13.4676ZM31.1392 14.2H43.4929C43.6274 14.2 43.737 14.3095 43.737 14.4441V17.9777C43.737 18.1124 43.6274 18.2219 43.4929 18.2219H31.1392V14.2ZM25 24.8108C19.872 24.8108 15.7 28.9828 15.7 34.1108C15.7 39.2389 19.872 43.4108 25 43.4108C27.8228 43.4108 30.4604 42.1504 32.2367 39.9525C32.491 39.638 32.4421 39.1769 32.1274 38.9226C31.8128 38.6683 31.3517 38.7171 31.0975 39.0318C29.6007 40.8838 27.3782 41.946 25 41.946C20.6797 41.946 17.1648 38.4312 17.1648 34.1108C17.1648 29.7905 20.6797 26.2757 25 26.2757C29.3203 26.2757 32.8352 29.7905 32.8352 34.1108C32.8352 34.818 32.7411 35.5187 32.5556 36.1935C32.4482 36.5834 32.6775 36.9865 33.0676 37.0938C33.4577 37.2017 33.8607 36.972 33.968 36.5818C34.1883 35.7807 34.3 34.9492 34.3 34.1108C34.3 28.9828 30.128 24.8108 25 24.8108Z" fill="#424F63"/>
<path d="M28.7281 30.6927L23.4455 35.9753L21.2703 33.8001C20.9843 33.5142 20.5205 33.5142 20.2346 33.8001C19.9485 34.0863 19.9485 34.55 20.2346 34.836L22.5824 37.1838C22.8204 37.4218 23.1329 37.5407 23.4455 37.5407C23.7581 37.5407 24.0707 37.4216 24.3087 37.1838L29.764 31.7287C30.05 31.4425 30.05 30.9789 29.764 30.6928C29.4779 30.4068 29.0142 30.4068 28.7281 30.6927ZM24.9992 24.8108C19.8712 24.8108 15.6992 28.9828 15.6992 34.1108C15.6992 39.2388 19.8712 43.4108 24.9992 43.4108C27.822 43.4108 30.4597 42.1503 32.2359 39.9525C32.4902 39.6379 32.4413 39.1768 32.1267 38.9225C31.812 38.6682 31.3509 38.717 31.0967 39.0318C29.5999 40.8837 27.3774 41.9459 24.9992 41.9459C20.6789 41.9459 17.1641 38.4311 17.1641 34.1108C17.1641 29.7905 20.6789 26.2756 24.9992 26.2756C29.3195 26.2756 32.8344 29.7905 32.8344 34.1108C32.8344 34.8179 32.7403 35.5187 32.5548 36.1934C32.4475 36.5834 32.6768 36.9865 33.0668 37.0938C33.4569 37.2016 33.86 36.9719 33.9672 36.5818C34.1875 35.7806 34.2992 34.9492 34.2992 34.1108C34.2992 28.9828 30.1272 24.8108 24.9992 24.8108Z" fill="#6CEF85"/>
</svg>
