<svg width="50" height="50" viewBox="0 0 50 50" fill="none" xmlns="http://www.w3.org/2000/svg">
<path d="M28.5283 25.3685C29.1993 24.5684 29.6043 23.5381 29.6043 22.4146V20.5798C29.6043 20.5786 29.6043 20.5774 29.6043 20.5763V17.6906C29.6043 16.0352 28.2575 14.6884 26.6021 14.6884H23.398C21.7427 14.6884 20.3959 16.0352 20.3959 17.6906V20.5875V20.5921V22.4145C20.3959 23.538 20.801 24.5684 21.4721 25.3686C20.9422 25.63 20.4414 25.9488 19.9764 26.3254C18.5827 27.4547 17.6 29.036 17.2094 30.7773C16.9567 31.8986 17.4938 33.0768 18.5157 33.6428C20.4899 34.7344 22.7318 35.3113 24.9991 35.3113C27.2676 35.3113 29.5102 34.7344 31.4847 33.6425C32.5061 33.0769 33.0432 31.8984 32.7909 30.7771C32.2606 28.4121 30.671 26.4266 28.5283 25.3685ZM21.8607 17.6907C21.8607 16.843 22.5504 16.1533 23.398 16.1533H26.6021C27.4498 16.1533 28.1395 16.843 28.1395 17.6907V19.2165C26.9388 18.5162 25.5136 18.3629 24.1802 18.8021L21.8608 19.5662V17.6907H21.8607ZM21.8607 21.1086L24.6385 20.1935C25.641 19.8633 26.7179 20.0118 27.5933 20.6011L28.1395 20.9687V22.4146C28.1395 24.1457 26.7312 25.554 25.0001 25.554C23.269 25.554 21.8607 24.1457 21.8607 22.4146V21.1086ZM30.7755 32.3609C29.0177 33.3329 27.0203 33.8466 24.9991 33.8466C22.9792 33.8466 20.9824 33.3328 19.225 32.3611C18.7691 32.1087 18.5279 31.5898 18.6386 31.0987C18.9575 29.6771 19.7602 28.3861 20.8985 27.4637C21.4527 27.0149 22.0679 26.6644 22.7306 26.4181C23.401 26.7996 24.1752 27.0187 25.0002 27.0187C25.8249 27.0187 26.599 26.7997 27.2693 26.4184C29.3256 27.1825 30.8797 28.9482 31.3617 31.0981C31.4721 31.5895 31.231 32.1088 30.7755 32.3609ZM11.5338 7.60811H10.5645V5.73369C10.5645 5.50166 10.6121 5.34551 10.7062 5.26953C10.8815 5.12773 11.2902 5.13203 11.5116 5.17939C11.9048 5.26748 12.295 5.02168 12.3854 4.62881C12.476 4.23457 12.23 3.8415 11.8357 3.75088C11.7107 3.72217 10.5916 3.48838 9.79541 4.12217C9.47803 4.3749 9.09961 4.85957 9.09961 5.73359V7.60801H8.54336C8.13887 7.60801 7.81094 7.93594 7.81094 8.34043C7.81094 8.74492 8.13887 9.07285 8.54336 9.07285H9.09961V15.797C9.09961 16.2015 9.42754 16.5294 9.83203 16.5294C10.2365 16.5294 10.5645 16.2015 10.5645 15.797V9.07295H11.5338C11.9383 9.07295 12.2662 8.74502 12.2662 8.34053C12.2662 7.93603 11.9383 7.60811 11.5338 7.60811ZM8.61045 36.8996C8.20596 36.8996 7.87803 37.2275 7.87803 37.632V44.6615C7.87803 45.066 8.20596 45.3939 8.61045 45.3939C9.01494 45.3939 9.34287 45.066 9.34287 44.6615V42.0266C9.34287 39.8517 10.2932 38.4463 11.764 38.4463C12.3308 38.4463 12.7594 38.6037 13.0743 38.9275C13.5861 39.4537 13.8363 40.4674 13.7978 41.859C13.7976 41.8657 13.7975 41.8725 13.7975 41.8793V44.6213C13.7975 45.0258 14.1254 45.3537 14.5299 45.3537C14.9344 45.3537 15.2623 45.0258 15.2623 44.6213V41.8893C15.311 40.0727 14.9282 38.7327 14.1243 37.9063C13.5275 37.2928 12.7333 36.9816 11.764 36.9816C10.9021 36.9816 10.0374 37.2923 9.34287 37.9439V37.6322C9.34287 37.2275 9.01494 36.8996 8.61045 36.8996ZM4.95156 37.3588V44.6616C4.95156 45.0661 5.27949 45.394 5.68398 45.394C6.08848 45.394 6.41641 45.0661 6.41641 44.6616V37.3588C6.41641 36.9543 6.08848 36.6264 5.68398 36.6264C5.27949 36.6264 4.95156 36.9543 4.95156 37.3588ZM37.4016 14.7361C38.0432 15.2144 39.0725 15.6829 40.4666 15.6252C41.757 15.5719 42.7271 14.8879 43.1984 13.6992C43.5081 12.9181 43.5043 12.1738 43.5002 12.0291V8.22227C43.5003 8.21221 43.501 8.20225 43.501 8.19219C43.501 8.18213 43.5003 8.17217 43.5002 8.16211V5.31631C43.5002 4.91182 43.1724 4.58389 42.7678 4.58389C42.3715 4.58389 42.0495 4.89883 42.0366 5.29199C41.4367 4.84736 40.695 4.58389 39.8927 4.58389C37.903 4.58389 36.2844 6.20254 36.2844 8.19219C36.2844 10.1818 37.903 11.8005 39.8927 11.8005C40.6944 11.8005 41.4357 11.5373 42.0354 11.0933V12.0411C42.0354 12.0509 42.0355 12.0606 42.0359 12.0703C42.0361 12.0757 42.0478 12.6271 41.8367 13.1596C41.5774 13.8137 41.1229 14.132 40.4062 14.1617C39.0812 14.2168 38.4775 13.7377 38.3676 13.6392C37.9872 13.2125 37.5536 13.3928 37.4675 13.435C37.1564 13.5875 36.9948 13.9375 37.0801 14.2731C37.1085 14.3854 37.3503 14.6979 37.4016 14.7361ZM42.0353 8.22227C42.019 9.39033 41.0644 10.3356 39.8926 10.3356C38.7106 10.3356 37.7491 9.37412 37.7491 8.19219C37.7491 7.01025 38.7107 6.04873 39.8926 6.04873C41.0644 6.04873 42.019 6.99404 42.0353 8.16211V8.22227ZM41.4759 39.3878C41.8805 39.3878 42.2083 39.0599 42.2083 38.6554C42.2083 38.2509 41.8805 37.9229 41.4759 37.9229H39.0417V35.5934C39.0417 35.1889 38.7139 34.8609 38.3093 34.8609C37.9047 34.8609 37.5769 35.1889 37.5769 35.5934V43.0738C37.5769 44.0942 38.407 44.9243 39.4273 44.9243H41.4759C41.8805 44.9243 42.2083 44.5964 42.2083 44.1919C42.2083 43.7874 41.8805 43.4595 41.4759 43.4595H39.4273C39.2146 43.4595 39.0417 43.2865 39.0417 43.0738V39.3878H41.4759ZM5.68076 34.3912C5.27627 34.3912 4.94834 34.7191 4.94834 35.1236C4.94834 35.5281 5.27627 35.8561 5.68076 35.8561C6.08525 35.8561 6.41318 35.5281 6.41318 35.1236C6.41318 34.7191 6.08525 34.3912 5.68076 34.3912ZM39.8926 29.7852C39.3986 29.7852 38.9082 29.8207 38.4244 29.8912C38.9823 28.3646 39.2871 26.7173 39.2871 25C39.2871 19.4732 36.1325 14.6697 31.5296 12.2945C31.344 11.5855 31.25 10.8513 31.25 10.1074C31.25 5.34189 35.1271 1.46484 39.8926 1.46484C44.6581 1.46484 48.5352 5.34189 48.5352 10.1074C48.5352 12.2589 47.7397 14.3205 46.2955 15.9124C44.8611 17.4936 42.9073 18.4848 40.7939 18.7036C40.3916 18.7452 40.0992 19.1052 40.1408 19.5075C40.1798 19.8843 40.4978 20.1646 40.8685 20.1646C40.8937 20.1646 40.9191 20.1633 40.9447 20.1605C43.4175 19.9045 45.7031 18.7454 47.3803 16.8966C49.0697 15.0347 50 12.6235 50 10.1074C50 4.53418 45.4658 0 39.8926 0C34.3193 0 29.7852 4.53418 29.7852 10.1074C29.7852 10.6013 29.8207 11.0918 29.8912 11.5756C28.3646 11.0177 26.7173 10.713 25 10.713C23.2827 10.713 21.6354 11.0178 20.1088 11.5756C20.1793 11.0918 20.2148 10.6014 20.2148 10.1074C20.2148 4.53418 15.6807 0 10.1074 0C4.53418 0 0 4.53418 0 10.1074C0 15.6807 4.53418 20.2148 10.1074 20.2148C10.6014 20.2148 11.0918 20.1793 11.5756 20.1088C11.0177 21.6354 10.7129 23.2827 10.7129 25C10.7129 26.7173 11.0176 28.3646 11.5756 29.8912C11.0918 29.8207 10.6014 29.7852 10.1074 29.7852C8.21025 29.7852 6.36094 30.314 4.75938 31.3145C4.41631 31.5287 4.31191 31.9806 4.52627 32.3236C4.66514 32.546 4.90391 32.6681 5.14814 32.6681C5.28066 32.6681 5.41475 32.6321 5.53545 32.5567C6.9041 31.7019 8.48496 31.25 10.1074 31.25C10.8515 31.25 11.5857 31.344 12.2945 31.5296C13.6593 34.1743 15.8257 36.3407 18.4704 37.7055C18.656 38.4144 18.75 39.1486 18.75 39.8926C18.75 44.6581 14.8729 48.5352 10.1074 48.5352C5.34189 48.5352 1.46484 44.6581 1.46484 39.8926C1.46484 38.0168 2.05537 36.2329 3.17266 34.7337C3.41436 34.4094 3.34736 33.9505 3.02305 33.7088C2.69863 33.467 2.23975 33.5341 1.99814 33.8584C0.690918 35.6124 0 37.699 0 39.8926C0 45.4658 4.53418 50 10.1074 50C15.6807 50 20.2148 45.4658 20.2148 39.8926C20.2148 39.3986 20.1793 38.9082 20.1088 38.4244C21.6354 38.9823 23.2827 39.287 25 39.287C26.7173 39.287 28.3646 38.9822 29.8912 38.4244C29.8207 38.9082 29.7852 39.3987 29.7852 39.8926C29.7852 45.4658 34.3193 50 39.8926 50C45.4658 50 50 45.4658 50 39.8926C50 34.3193 45.4658 29.7852 39.8926 29.7852ZM10.1074 18.75C5.34189 18.75 1.46484 14.8729 1.46484 10.1074C1.46484 5.34189 5.34189 1.46484 10.1074 1.46484C14.8729 1.46484 18.75 5.34189 18.75 10.1074C18.75 10.8515 18.656 11.5857 18.4704 12.2945C15.8257 13.6593 13.6593 15.8257 12.2945 18.4704C11.5857 18.656 10.8515 18.75 10.1074 18.75ZM25 37.8223C17.9298 37.8223 12.1777 32.0702 12.1777 25C12.1777 17.9298 17.9298 12.1777 25 12.1777C32.0702 12.1777 37.8223 17.9298 37.8223 25C37.8223 32.0702 32.0702 37.8223 25 37.8223ZM39.8926 48.5352C35.1271 48.5352 31.25 44.6581 31.25 39.8926C31.25 39.1487 31.344 38.4145 31.5296 37.7055C34.1743 36.3407 36.3407 34.1744 37.7055 31.5296C38.4144 31.344 39.1486 31.25 39.8926 31.25C44.6581 31.25 48.5352 35.1271 48.5352 39.8926C48.5352 44.6581 44.6581 48.5352 39.8926 48.5352Z" fill="#424F63"/>
<path d="M11.5229 7.60719H10.5536V5.73278C10.5536 5.50075 10.6013 5.3446 10.6953 5.26862C10.8707 5.12682 11.2794 5.13112 11.5008 5.17848C11.8939 5.26657 12.2842 5.02077 12.3745 4.6279C12.4651 4.23366 12.2191 3.84059 11.8249 3.74997C11.6999 3.72126 10.5808 3.48747 9.78457 4.12126C9.46719 4.37399 9.08877 4.85866 9.08877 5.73268V7.6071H8.53252C8.12803 7.6071 7.8001 7.93503 7.8001 8.33952C7.8001 8.74401 8.12803 9.07194 8.53252 9.07194H9.08877V15.7961C9.08877 16.2006 9.4167 16.5285 9.82119 16.5285C10.2257 16.5285 10.5536 16.2006 10.5536 15.7961V9.07204H11.5229C11.9274 9.07204 12.2554 8.74411 12.2554 8.33962C12.2554 7.93512 11.9274 7.60719 11.5229 7.60719ZM8.59961 36.8987C8.19512 36.8987 7.86719 37.2266 7.86719 37.6311V44.6606C7.86719 45.0651 8.19512 45.393 8.59961 45.393C9.0041 45.393 9.33203 45.0651 9.33203 44.6606V42.0257C9.33203 39.8507 10.2823 38.4454 11.7531 38.4454C12.3199 38.4454 12.7485 38.6028 13.0635 38.9266C13.5753 39.4528 13.8255 40.4665 13.7869 41.8581C13.7867 41.8648 13.7866 41.8715 13.7866 41.8784V44.6204C13.7866 45.0249 14.1145 45.3528 14.519 45.3528C14.9235 45.3528 15.2515 45.0249 15.2515 44.6204V41.8883C15.3002 40.0717 14.9174 38.7318 14.1135 37.9054C13.5167 37.2919 12.7225 36.9807 11.7531 36.9807C10.8913 36.9807 10.0266 37.2914 9.33203 37.943V37.6313C9.33203 37.2266 9.0041 36.8987 8.59961 36.8987ZM4.94072 37.3579V44.6607C4.94072 45.0652 5.26865 45.3931 5.67314 45.3931C6.07764 45.3931 6.40557 45.0652 6.40557 44.6607V37.3579C6.40557 36.9534 6.07764 36.6255 5.67314 36.6255C5.26865 36.6255 4.94072 36.9534 4.94072 37.3579ZM37.3907 14.7352C38.0323 15.2134 39.0616 15.682 40.4558 15.6243C41.7462 15.571 42.7163 14.887 43.1876 13.6983C43.4973 12.9172 43.4935 12.1729 43.4894 12.0282V8.22135C43.4895 8.2113 43.4901 8.20133 43.4901 8.19128C43.4901 8.18122 43.4895 8.17126 43.4894 8.1612V5.3154C43.4894 4.9109 43.1615 4.58298 42.7569 4.58298C42.3606 4.58298 42.0387 4.89792 42.0258 5.29108C41.4259 4.84645 40.6842 4.58298 39.8818 4.58298C37.8922 4.58298 36.2735 6.20163 36.2735 8.19128C36.2735 10.1809 37.8922 11.7996 39.8818 11.7996C40.6836 11.7996 41.4249 11.5364 42.0245 11.0924V12.0402C42.0245 12.05 42.0247 12.0597 42.0251 12.0694C42.0253 12.0748 42.0369 12.6262 41.8259 13.1587C41.5666 13.8128 41.112 14.1311 40.3954 14.1608C39.0704 14.2159 38.4667 13.7368 38.3567 13.6382C37.9764 13.2116 37.5428 13.3919 37.4566 13.434C37.1456 13.5866 36.984 13.9366 37.0692 14.2722C37.0977 14.3844 37.3395 14.697 37.3907 14.7352ZM42.0244 8.22135C42.0082 9.38942 41.0535 10.3347 39.8817 10.3347C38.6998 10.3347 37.7383 9.37321 37.7383 8.19128C37.7383 7.00934 38.6999 6.04782 39.8817 6.04782C41.0535 6.04782 42.0082 6.99313 42.0244 8.1612V8.22135ZM41.465 39.3869C41.8696 39.3869 42.1975 39.0589 42.1975 38.6545C42.1975 38.25 41.8696 37.922 41.465 37.922H39.0309V35.5924C39.0309 35.188 38.703 34.86 38.2984 34.86C37.8938 34.86 37.566 35.188 37.566 35.5924V43.0729C37.566 44.0933 38.3962 44.9234 39.4165 44.9234H41.465C41.8696 44.9234 42.1975 44.5955 42.1975 44.191C42.1975 43.7865 41.8696 43.4586 41.465 43.4586H39.4165C39.2038 43.4586 39.0309 43.2856 39.0309 43.0729V39.3869H41.465ZM5.66992 34.3903C5.26543 34.3903 4.9375 34.7182 4.9375 35.1227C4.9375 35.5272 5.26543 35.8551 5.66992 35.8551C6.07441 35.8551 6.40234 35.5272 6.40234 35.1227C6.40234 34.7182 6.07441 34.3903 5.66992 34.3903Z" fill="#6CEF85"/>
</svg>
