<svg width="21" height="25" viewBox="0 0 21 25" fill="none" xmlns="http://www.w3.org/2000/svg">
<path d="M2.4 19.1992C1.76348 19.1992 1.15303 18.9463 0.702944 18.4962C0.252856 18.0461 0 17.4357 0 16.7992V11.9992C0 11.7863 0.0845489 11.5822 0.235047 11.4317C0.385545 11.2812 0.589664 11.1967 0.8025 11.1967H2.4C3.03652 11.1967 3.64697 11.4495 4.09706 11.8996C4.54714 12.3497 4.8 12.9601 4.8 13.5967V16.7992C4.8 17.4357 4.54714 18.0461 4.09706 18.4962C3.64697 18.9463 3.03652 19.1992 2.4 19.1992V19.1992ZM1.5975 12.7942V16.7992C1.61676 16.9976 1.70923 17.1819 1.85689 17.3159C2.00455 17.4499 2.19683 17.5242 2.39625 17.5242C2.59567 17.5242 2.78795 17.4499 2.93561 17.3159C3.08327 17.1819 3.17574 16.9976 3.195 16.7992V13.5967C3.195 13.3838 3.11045 13.1797 2.95995 13.0292C2.80946 12.8787 2.60534 12.7942 2.3925 12.7942H1.5975Z" fill="url(#paint0_linear)"/>
<path d="M0.929109 9.59159H0.801609C0.591811 9.55667 0.404454 9.43989 0.2807 9.26692C0.156947 9.09395 0.10692 8.87892 0.141609 8.66909C0.459713 6.78678 1.28965 5.02831 2.54052 3.58623C3.79139 2.14416 5.41497 1.0741 7.23345 0.493244C9.05192 -0.0876159 10.9952 -0.156877 12.8504 0.293046C14.7056 0.742969 16.4012 1.69472 17.7516 3.04409C19.2811 4.56717 20.2938 6.5321 20.6466 8.66159C20.6762 8.76987 20.6827 8.88315 20.6658 8.99411C20.6489 9.10508 20.6089 9.21126 20.5483 9.3058C20.4878 9.40034 20.4081 9.48112 20.3145 9.54294C20.2208 9.60476 20.1151 9.64624 20.0044 9.66469C19.8937 9.68315 19.7803 9.67817 19.6717 9.65008C19.563 9.62198 19.4614 9.57141 19.3735 9.50161C19.2856 9.43181 19.2133 9.34435 19.1613 9.24487C19.1093 9.14539 19.0787 9.03611 19.0716 8.92408C18.7242 6.87501 17.6627 5.01508 16.075 3.67392C14.4874 2.33276 12.4762 1.59698 10.3979 1.59698C8.31955 1.59698 6.30836 2.33276 4.7207 3.67392C3.13305 5.01508 2.07147 6.87501 1.72411 8.92408C1.69213 9.11148 1.59466 9.28144 1.44907 9.40369C1.30348 9.52593 1.11921 9.59252 0.929109 9.59159V9.59159Z" fill="url(#paint1_linear)"/>
<path d="M7.10215 4.79913C6.92752 4.79293 6.75969 4.7299 6.62414 4.61962C6.4886 4.50933 6.39276 4.35782 6.35118 4.1881C6.3096 4.01838 6.32455 3.83972 6.39376 3.67928C6.46297 3.51883 6.58266 3.38535 6.73465 3.29913C7.87062 2.72502 9.1256 2.4259 10.3984 2.4259C11.6712 2.4259 12.9262 2.72502 14.0622 3.29913C14.1597 3.34579 14.2468 3.41167 14.3182 3.49283C14.3897 3.57398 14.444 3.66874 14.4779 3.77141C14.5118 3.87407 14.5246 3.98253 14.5155 4.09027C14.5065 4.19801 14.4758 4.30281 14.4252 4.39838C14.3746 4.49394 14.3053 4.57831 14.2213 4.6464C14.1373 4.7145 14.0404 4.76492 13.9365 4.79465C13.8325 4.82437 13.7236 4.83278 13.6163 4.81938C13.5091 4.80597 13.4056 4.77102 13.3122 4.71663C12.4058 4.252 11.4019 4.00967 10.3834 4.00967C9.3649 4.00967 8.361 4.252 7.45465 4.71663C7.34506 4.77087 7.22443 4.79911 7.10215 4.79913V4.79913Z" fill="url(#paint2_linear)"/>
<path d="M20.0099 11.1967H18.4049C17.7684 11.1967 17.158 11.4495 16.7079 11.8996C16.2578 12.3497 16.0049 12.9601 16.0049 13.5967V16.7992C16.0049 17.4357 16.2578 18.0461 16.7079 18.4962C17.158 18.9463 17.7684 19.1992 18.4049 19.1992C18.6392 19.196 18.8718 19.1581 19.0949 19.0867C18.9495 19.5811 18.6483 20.0155 18.2361 20.3249C17.824 20.6344 17.3229 20.8025 16.8074 20.8042H12.6524C12.464 20.2702 12.0928 19.82 11.6045 19.5333C11.1162 19.2466 10.5422 19.1418 9.98407 19.2374C9.42593 19.333 8.91958 19.6228 8.55453 20.0557C8.18948 20.4886 7.98926 21.0367 7.98926 21.6029C7.98926 22.1692 8.18948 22.7172 8.55453 23.1501C8.91958 23.583 9.42593 23.8729 9.98407 23.9685C10.5422 24.0641 11.1162 23.9592 11.6045 23.6725C12.0928 23.3858 12.464 22.9356 12.6524 22.4017H16.8074C17.867 22.3997 18.8827 21.9779 19.6319 21.2286C20.3812 20.4794 20.803 19.4638 20.8049 18.4042V11.9992C20.8049 11.7876 20.7214 11.5846 20.5726 11.4343C20.4237 11.2841 20.2215 11.1986 20.0099 11.1967V11.1967ZM10.4024 22.4017C10.2437 22.4017 10.0886 22.3546 9.9566 22.2664C9.82463 22.1782 9.72177 22.0529 9.66103 21.9063C9.60029 21.7596 9.5844 21.5983 9.61536 21.4426C9.64633 21.2869 9.72276 21.1439 9.83499 21.0317C9.94722 20.9195 10.0902 20.843 10.2459 20.8121C10.4016 20.7811 10.5629 20.797 10.7095 20.8578C10.8562 20.9185 10.9815 21.0213 11.0697 21.1533C11.1579 21.2853 11.2049 21.4404 11.2049 21.5992C11.2049 21.812 11.1204 22.0161 10.9699 22.1666C10.8194 22.3171 10.6153 22.4017 10.4024 22.4017V22.4017ZM19.2074 16.7992C19.1882 16.9976 19.0957 17.1819 18.9481 17.3159C18.8004 17.4499 18.6081 17.5242 18.4087 17.5242C18.2093 17.5242 18.017 17.4499 17.8693 17.3159C17.7217 17.1819 17.6292 16.9976 17.6099 16.7992V13.5967C17.6099 13.3838 17.6945 13.1797 17.845 13.0292C17.9955 12.8787 18.1996 12.7942 18.4124 12.7942H19.2149L19.2074 16.7992Z" fill="url(#paint3_linear)"/>
<defs>
<linearGradient id="paint0_linear" x1="1.53191" y1="11.1967" x2="3.89152" y2="11.75" gradientUnits="userSpaceOnUse">
<stop stop-color="#08EE7F"/>
<stop offset="1" stop-color="#20CF92"/>
</linearGradient>
<linearGradient id="paint1_linear" x1="6.6875" y1="-7.90484e-08" x2="12.9953" y2="5.23624" gradientUnits="userSpaceOnUse">
<stop stop-color="#08EE7F"/>
<stop offset="1" stop-color="#20CF92"/>
</linearGradient>
<linearGradient id="paint2_linear" x1="8.94203" y1="2.4259" x2="10.4696" y2="4.46431" gradientUnits="userSpaceOnUse">
<stop stop-color="#08EE7F"/>
<stop offset="1" stop-color="#20CF92"/>
</linearGradient>
<linearGradient id="paint3_linear" x1="12.0794" y1="11.1967" x2="17.8435" y2="13.4518" gradientUnits="userSpaceOnUse">
<stop stop-color="#08EE7F"/>
<stop offset="1" stop-color="#20CF92"/>
</linearGradient>
</defs>
</svg>
