<svg width="60" height="60" viewBox="0 0 60 60" fill="none" xmlns="http://www.w3.org/2000/svg">
<path d="M9.68006 17.93C6.94977 22.0133 5.44383 26.792 5.33977 31.7029C5.23571 36.6137 6.53787 41.452 9.09274 45.6472C11.6476 49.8424 15.3487 53.2198 19.7596 55.381C24.1705 57.5423 29.1074 58.3974 33.9883 57.8455C38.8691 57.2936 43.4905 55.3577 47.3074 52.2661C51.1244 49.1745 53.9779 45.0561 55.5315 40.3963C57.0851 35.7365 57.2741 30.7296 56.0761 25.966C54.8781 21.2024 52.3432 16.8805 48.7701 13.51L49.9201 12.06L50.3101 12.37C50.6243 12.6167 51.0237 12.7284 51.4204 12.6806C51.817 12.6327 52.1784 12.4293 52.4251 12.115C52.6717 11.8008 52.7834 11.4014 52.7356 11.0047C52.6878 10.6081 52.4843 10.2467 52.1701 10L47.2501 6.15003C46.9361 5.94042 46.5546 5.8569 46.1818 5.91616C45.8089 5.97542 45.4721 6.17309 45.2386 6.46973C45.0051 6.76636 44.892 7.14015 44.9219 7.51649C44.9518 7.89282 45.1226 8.24404 45.4001 8.50003L45.7901 8.81003L44.6101 10.31C41.1777 8.19637 37.2968 6.9187 33.2801 6.58003V3.41003C33.2801 2.8796 33.0693 2.37089 32.6943 1.99582C32.3192 1.62075 31.8105 1.41003 31.2801 1.41003H30.6801C30.1496 1.41003 29.6409 1.62075 29.2658 1.99582C28.8908 2.37089 28.6801 2.8796 28.6801 3.41003V6.60003C24.3269 7.00474 20.1503 8.51972 16.5501 11" stroke="white" stroke-linecap="round" stroke-linejoin="round"/>
<path d="M25.5596 27.37H28.7196V37.56H25.5596V27.37Z" stroke="url(#paint0_linear)" stroke-linecap="round" stroke-linejoin="round"/>
<path d="M31 27.37H36.23C37.1578 27.2972 38.0771 27.5917 38.79 28.19C39.087 28.4931 39.3163 28.8556 39.4628 29.2538C39.6093 29.652 39.6697 30.0768 39.64 30.5C39.6648 30.9438 39.5956 31.3879 39.4371 31.8032C39.2786 32.2185 39.0342 32.5956 38.72 32.91C37.9201 33.5538 36.9032 33.8653 35.88 33.78H34.12V37.56H31V27.37ZM34.16 31.72H34.93C35.3806 31.7612 35.8318 31.6484 36.21 31.4C36.3301 31.3028 36.4259 31.179 36.4901 31.0385C36.5543 30.8979 36.5851 30.7444 36.58 30.59C36.5829 30.4405 36.5561 30.292 36.5012 30.1529C36.4462 30.0139 36.3643 29.8872 36.26 29.78C36.0926 29.6464 35.9003 29.5475 35.6943 29.4891C35.4882 29.4307 35.2726 29.414 35.06 29.44H34.16V31.72Z" stroke="url(#paint1_linear)" stroke-linecap="round" stroke-linejoin="round"/>
<path d="M17.5501 32.49C17.5494 29.8691 18.293 27.302 19.6942 25.0871C21.0955 22.8723 23.0968 21.1009 25.4654 19.9789C27.8339 18.857 30.4724 18.4306 33.0738 18.7495C35.6752 19.0683 38.1326 20.1192 40.1601 21.78L37.5201 24.67C37.46 24.7359 37.4203 24.8178 37.4059 24.9059C37.3916 24.9939 37.4031 25.0842 37.4391 25.1658C37.4752 25.2474 37.5341 25.3168 37.6089 25.3654C37.6836 25.4141 37.7709 25.44 37.8601 25.44H44.0501C44.1109 25.4414 44.1713 25.4304 44.2277 25.4078C44.2841 25.3851 44.3354 25.3513 44.3784 25.3083C44.4214 25.2653 44.4552 25.2141 44.4778 25.1576C44.5005 25.1012 44.5114 25.0408 44.5101 24.98V18.18C44.5101 18.0872 44.4821 17.9965 44.4296 17.92C44.3772 17.8434 44.3028 17.7844 44.2163 17.7509C44.1297 17.7174 44.0351 17.7108 43.9447 17.7321C43.8544 17.7533 43.7726 17.8014 43.7101 17.87L41.4901 20.32C39.1784 18.4057 36.3698 17.1885 33.3922 16.8105C30.4147 16.4326 27.391 16.9094 24.6743 18.1855C21.9577 19.4615 19.66 21.484 18.0497 24.0169C16.4394 26.5498 15.5828 29.4886 15.5801 32.49V32.49H17.5801H17.5501Z" stroke="white" stroke-linecap="round" stroke-linejoin="round"/>
<path d="M45.0599 33.4C44.8453 36.0117 43.8937 38.5088 42.3157 40.6009C40.7377 42.693 38.5982 44.2941 36.1459 45.218C33.6937 46.1419 31.0296 46.3506 28.4634 45.8199C25.8973 45.2892 23.5345 44.0408 21.6499 42.22L24.5099 39.56C24.5769 39.4993 24.6246 39.4201 24.6469 39.3325C24.6692 39.2448 24.6651 39.1525 24.6352 39.0672C24.6054 38.9818 24.551 38.9071 24.4789 38.8525C24.4068 38.7979 24.3202 38.7657 24.2299 38.76L18.0699 38.25C18.0095 38.2445 17.9485 38.2511 17.8906 38.2692C17.8327 38.2874 17.7789 38.3169 17.7325 38.3559C17.686 38.395 17.6477 38.4428 17.6198 38.4967C17.5919 38.5506 17.5749 38.6095 17.5699 38.67L16.9999 45.47C16.9914 45.5637 17.0119 45.6578 17.0586 45.7395C17.1053 45.8212 17.1759 45.8867 17.2609 45.927C17.3459 45.9673 17.4413 45.9806 17.5341 45.9651C17.6269 45.9495 17.7127 45.9059 17.7799 45.84L20.1899 43.59C22.3376 45.6844 25.0366 47.1249 27.9719 47.7436C30.9072 48.3624 33.958 48.1337 36.7683 47.0844C39.5787 46.0352 42.0327 44.2084 43.8443 41.8174C45.6559 39.4263 46.7503 36.5695 46.9999 33.58V33.58L45.0599 33.4Z" stroke="white" stroke-linecap="round" stroke-linejoin="round"/>
<path d="M45.8299 49.4501C41.5835 53.0999 36.1256 55.0295 30.5288 54.8596C24.932 54.6898 19.6012 52.4327 15.584 48.532C11.5668 44.6314 9.15387 39.3692 8.81938 33.7799C8.48489 28.1905 10.2531 22.6781 13.7764 18.3262C17.2997 13.9743 22.3233 11.0976 27.8599 10.2614C33.3965 9.4253 39.0456 10.6902 43.6969 13.8076C48.3482 16.9249 51.6654 21.6693 52.9964 27.1082C54.3274 32.547 53.576 38.2871 50.8899 43.2001" stroke="white" stroke-linecap="round" stroke-linejoin="round"/>
<defs>
<linearGradient id="paint0_linear" x1="26.5681" y1="27.37" x2="28.1832" y2="27.5658" gradientUnits="userSpaceOnUse">
<stop stop-color="#08EE7F"/>
<stop offset="1" stop-color="#20CF92"/>
</linearGradient>
<linearGradient id="paint1_linear" x1="33.7598" y1="27.3591" x2="37.8006" y2="28.6983" gradientUnits="userSpaceOnUse">
<stop stop-color="#08EE7F"/>
<stop offset="1" stop-color="#20CF92"/>
</linearGradient>
</defs>
</svg>
