<svg width="60" height="60" viewBox="0 0 60 60" fill="none" xmlns="http://www.w3.org/2000/svg">
<path d="M38.3301 34.9901L39.7101 33.55" stroke="white" stroke-linecap="round" stroke-linejoin="round"/>
<path d="M29.8604 40.5501C30.2306 40.6531 30.6085 40.7267 30.9904 40.7701C33.7783 41.2089 36.3364 42.576 38.2504 44.6501L50.1003 32.2301L45.3404 27.6801" stroke="white" stroke-linecap="round" stroke-linejoin="round"/>
<path d="M10.5596 32.84L13.4696 21.52C13.6995 20.576 14.1179 19.6882 14.6996 18.91C15.6996 17.61 17.3196 16.39 19.2596 18.62" stroke="white" stroke-linecap="round" stroke-linejoin="round"/>
<path d="M29.7097 12.77L28.7097 11.77C28.4631 11.504 28.1649 11.291 27.8333 11.144C27.5017 10.9971 27.1436 10.9192 26.7809 10.9152C26.4182 10.9112 26.0584 10.9812 25.7237 11.1208C25.3889 11.2604 25.0861 11.4668 24.8337 11.7273C24.5813 11.9879 24.3847 12.2971 24.2558 12.6362C24.1269 12.9752 24.0684 13.337 24.0839 13.6994C24.0994 14.0618 24.1887 14.4172 24.3461 14.744C24.5036 15.0708 24.7259 15.362 24.9997 15.6C24.7462 15.3577 24.4475 15.1677 24.1207 15.0409C23.7938 14.914 23.4451 14.8528 23.0946 14.8607C22.744 14.8686 22.3985 14.9454 22.0776 15.0869C21.7568 15.2283 21.467 15.4316 21.2247 15.685C20.9824 15.9385 20.7924 16.2372 20.6655 16.564C20.5387 16.8909 20.4775 17.2396 20.4854 17.5901C20.5013 18.2981 20.7978 18.9707 21.3097 19.46C20.7965 18.972 20.1105 18.7079 19.4025 18.7257C18.6946 18.7435 18.0227 19.0418 17.5347 19.555C17.0467 20.0682 16.7825 20.7542 16.8004 21.4622C16.8182 22.1701 17.1165 22.842 17.6297 23.33C17.3882 23.0384 17.0875 22.8015 16.7474 22.635C16.4074 22.4686 16.0358 22.3763 15.6574 22.3644C15.279 22.3524 14.9024 22.4211 14.5526 22.5659C14.2027 22.7106 13.8877 22.9281 13.6283 23.2039C13.3689 23.4797 13.1712 23.8075 13.0482 24.1656C12.9252 24.5236 12.8797 24.9038 12.9148 25.2807C12.95 25.6577 13.0648 26.0229 13.2519 26.3521C13.4389 26.6812 13.6938 26.9669 13.9997 27.19L15.1697 28.06" stroke="white" stroke-linecap="round" stroke-linejoin="round"/>
<path d="M29.7101 12.77L28.6501 13.88L15.1201 28.06" stroke="white" stroke-linecap="round" stroke-linejoin="round"/>
<path d="M15.3604 37.42L23.0004 44.7C24.8164 42.5395 27.3068 41.0531 30.0704 40.48C31.6201 40.1674 33.0837 39.5226 34.3604 38.59" stroke="white" stroke-linecap="round" stroke-linejoin="round"/>
<path d="M45.25 27.59L46.35 26.43C46.5922 26.1765 46.7822 25.8778 46.9091 25.551C47.036 25.2241 47.0972 24.8754 47.0893 24.5249C47.0814 24.1743 47.0045 23.8288 46.8631 23.5079C46.7217 23.1871 46.5184 22.8973 46.265 22.655C46.0115 22.4127 45.7128 22.2227 45.3859 22.0958C45.0591 21.969 44.7104 21.9078 44.3599 21.9157C44.0093 21.9236 43.6638 22.0004 43.3429 22.1418C43.0221 22.2833 42.7323 22.4865 42.49 22.74C42.978 22.2268 43.2421 21.5408 43.2243 20.8328C43.2065 20.1249 42.9082 19.453 42.395 18.965C41.8818 18.477 41.1957 18.2128 40.4878 18.2307C39.7798 18.2485 39.108 18.5468 38.62 19.06C38.8622 18.8065 39.0522 18.5078 39.1791 18.181C39.306 17.8541 39.3672 17.5054 39.3593 17.1549C39.3514 16.8043 39.2745 16.4588 39.1331 16.138C38.9917 15.8171 38.7884 15.5273 38.535 15.285C38.2815 15.0427 37.9828 14.8527 37.6559 14.7258C37.3291 14.599 36.9804 14.5378 36.6299 14.5457C36.2793 14.5536 35.9338 14.6304 35.6129 14.7718C35.2921 14.9133 35.0022 15.1165 34.76 15.37C35.2493 14.8581 35.5152 14.1728 35.4993 13.4649C35.4833 12.7569 35.1868 12.0843 34.675 11.595C34.1631 11.1057 33.4778 10.8397 32.7699 10.8557C32.0619 10.8716 31.3893 11.1681 30.9 11.68L29.71 12.77" stroke="white" stroke-linecap="round" stroke-linejoin="round"/>
<path d="M14.7601 36.85L23.2601 45C23.516 45.26 23.6594 45.6102 23.6594 45.975C23.6594 46.3398 23.516 46.69 23.2601 46.95L18.7801 51.65C18.5214 51.9083 18.1707 52.0533 17.8051 52.0533C17.4395 52.0533 17.0889 51.9083 16.8301 51.65L3.90013 39.27C3.76585 39.1403 3.65906 38.985 3.58612 38.8132C3.51318 38.6413 3.47559 38.4566 3.47559 38.27C3.47559 38.0833 3.51318 37.8986 3.58612 37.7268C3.65906 37.555 3.76585 37.3996 3.90013 37.27L8.38013 32.57C8.64014 32.3141 8.99033 32.1707 9.35513 32.1707C9.71994 32.1707 10.0701 32.3141 10.3301 32.57L12.1101 34.27" stroke="#08EE7F" stroke-linecap="round" stroke-linejoin="round"/>
<path d="M4.4502 36.6899L19.2602 50.8299" stroke="#08EE7F" stroke-linecap="round" stroke-linejoin="round"/>
<path d="M56.8918 36.2726L52.4426 32.0267C51.8233 31.4358 50.8422 31.4587 50.2512 32.078L38.1006 44.8107C37.5096 45.43 37.5325 46.4112 38.1518 47.0021L42.601 51.248C43.2203 51.839 44.2015 51.816 44.7925 51.1967L56.9431 38.464C57.5341 37.8447 57.5111 36.8636 56.8918 36.2726Z" stroke="#08EE7F" stroke-linecap="round" stroke-linejoin="round"/>
<path d="M42.25 50.6L56.39 35.79" stroke="#08EE7F" stroke-linecap="round" stroke-linejoin="round"/>
<path d="M19 47C19.5523 47 20 46.5523 20 46C20 45.4477 19.5523 45 19 45C18.4477 45 18 45.4477 18 46C18 46.5523 18.4477 47 19 47Z" stroke="#08EE7F" stroke-linecap="round" stroke-linejoin="round"/>
<path d="M45.3399 27.68L38.6299 21.28C38.6299 21.28 33.8699 17.34 31.9999 17.39C30.1299 17.44 29.5399 18.69 29.5499 19.31C29.5999 21.18 31.1799 22.08 34.0299 24.19C36.8799 26.3 39.7099 33.55 39.7099 33.55" stroke="white" stroke-linecap="round" stroke-linejoin="round"/>
</svg>
