<svg width="39" height="24" viewBox="0 0 39 24" fill="none" xmlns="http://www.w3.org/2000/svg">
<g clip-path="url(#clip0)">
<path d="M12.2238 5.34489C13.2518 5.22778 14.0014 4.3957 13.8978 3.48778C13.8699 3.24574 13.7842 3.02266 13.655 2.82858C13.6684 2.97135 13.6472 3.11078 13.6071 3.23681C13.5614 3.38962 13.4846 3.5257 13.3977 3.64951C13.3097 3.7722 13.2106 3.87816 13.1026 3.97408C12.8876 4.16593 12.6437 4.31093 12.3798 4.41689C12.1158 4.51839 11.8318 4.58309 11.5378 4.58197C11.5378 4.58197 11.4308 4.5842 11.3306 4.57193C11.2337 4.56078 11.1223 4.53847 11.1056 4.53512C10.9686 4.50501 10.8305 4.46485 10.6947 4.40239C10.6267 4.37116 10.4652 4.29643 10.3082 4.1492C10.2659 4.10905 10.2258 4.06443 10.1901 4.01535C10.3494 4.86862 11.2348 5.45755 12.2238 5.34489ZM10.4418 3.56474C10.5465 3.68408 10.7136 3.73985 10.9074 3.77555C11.0032 3.79228 11.1056 3.80232 11.2103 3.80678C11.2604 3.81012 11.3195 3.81235 11.3651 3.80901L11.4375 3.80789L11.511 3.80232C11.7059 3.7867 11.9042 3.73651 12.098 3.66847C12.2907 3.59708 12.48 3.50674 12.6493 3.39408C12.9221 3.21228 13.0135 3.07955 13.0625 3.00705C13.1093 2.93343 13.1427 2.85758 13.156 2.78397C13.1694 2.71035 13.1616 2.63451 13.1226 2.54974C13.0892 2.47835 13.0346 2.40251 12.9277 2.30881C12.6292 2.04335 12.1403 2.02328 11.8518 2.05562C11.1825 2.13258 10.6189 2.52408 10.4095 2.94347C10.3572 3.05612 10.3293 3.19332 10.3405 3.3082C10.3494 3.41751 10.3895 3.50451 10.4418 3.56474ZM11.9109 11.2955C11.7037 11.2843 11.4921 11.3122 11.2861 11.3769C11.08 11.4427 10.8784 11.542 10.6869 11.6624C10.59 11.7227 10.4964 11.7896 10.4051 11.8599C10.4051 11.8599 9.6689 12.4064 9.43612 12.5447C8.96612 12.8146 8.67878 13.021 8.14195 13.1459C7.68532 13.2507 7.32558 13.2664 7.32558 13.2664C7.0516 13.2831 6.61946 13.2976 6.09266 13.2195C5.3832 13.1147 4.90095 12.9295 4.90095 12.9295C4.68043 12.8559 4.46548 12.7678 4.25387 12.673C4.6537 13.2563 5.09363 13.8408 5.63825 14.2646C6.09934 14.6238 6.65733 14.8647 7.24205 14.9116C8.20655 14.9885 8.87814 14.5256 9.59205 13.9122C10.1033 13.4727 10.541 12.9429 10.982 12.4354C11.2894 12.0818 11.6024 11.6167 11.9888 11.3033C11.9632 11.3011 11.9376 11.2966 11.9109 11.2955ZM17.6801 9.73282C17.8761 9.91017 18.0866 10.0641 18.3049 10.1879C18.5254 10.3095 18.7548 10.4009 18.9932 10.4489C19.2315 10.4991 19.4765 10.5069 19.7238 10.4768C19.8474 10.4601 19.971 10.4366 20.0958 10.4032C20.2194 10.3686 20.343 10.3262 20.4644 10.2771C20.9133 10.0909 21.3432 9.80755 21.7419 9.4774C22.1417 9.14613 22.5126 8.7669 22.8601 8.36424C23.2076 7.96047 23.5317 7.53216 23.8357 7.08824C24.0629 6.75474 24.279 6.41232 24.4828 6.06209C24.3202 5.93605 24.1086 5.87247 23.8692 5.88809C23.3 5.92489 22.8111 6.30189 22.4135 6.67889C21.9892 7.08155 21.6127 7.52993 21.1672 7.9114C20.7228 8.29286 20.2584 8.65313 19.7561 8.95651C19.0945 9.35582 18.3505 9.64024 17.5965 9.65586C17.601 9.65809 17.6801 9.73282 17.6801 9.73282ZM29.41 7.26893C29.9101 6.93543 30.4692 6.67555 31.0183 6.43463C32.0686 5.97397 33.6723 5.74532 34.061 4.54628C34.4742 3.27139 33.3171 2.44266 32.1432 2.40251C28.9679 2.29431 25.8271 4.31874 25.6701 4.89762C25.7815 4.9177 25.9006 4.93443 26.0254 4.94782C26.5589 5.00359 27.2104 5.00582 27.9109 5.00582H28.0357C29.116 5.00582 29.8789 5.03482 30.3679 5.1062C30.6118 5.14189 30.7866 5.18874 30.8958 5.24339C31.006 5.30028 31.0406 5.35493 31.0417 5.41628C31.0417 5.45978 31.0138 5.49882 30.947 5.56462C30.7131 5.79886 30.1017 6.14686 29.5504 6.52832C29.2742 6.72016 29.0124 6.92093 28.8186 7.12616C28.6249 7.3314 28.4934 7.54109 28.4912 7.75747V7.76751C28.4923 7.91809 28.5369 8.05082 28.6115 8.16905C28.6015 8.0709 28.7307 7.90359 28.7852 7.82886C28.9501 7.60243 29.1784 7.42286 29.41 7.26893ZM3.71927 11.1215C3.81171 11.1929 3.91529 11.2698 4.0133 11.3334C4.20932 11.4628 4.40422 11.5743 4.61249 11.6825C4.81965 11.7918 5.03126 11.8922 5.24955 11.9759C5.24955 11.9759 5.55472 12.1019 5.91223 12.1934C6.26975 12.2848 6.59273 12.3239 6.59273 12.3239C6.82216 12.3551 7.0516 12.3618 7.28214 12.3584C7.28214 12.3584 7.66193 12.3473 7.96821 12.2904C8.70996 12.1677 9.46397 11.6122 9.65665 11.4751L9.96515 11.2564C10.0776 11.1784 10.1935 11.1036 10.3149 11.0356C10.5566 10.8984 10.8172 10.7835 11.0967 10.7099C11.3763 10.6363 11.638 10.6084 11.9331 10.6407C11.9699 10.6441 12.1938 10.6664 12.4722 10.7724C12.4722 10.7724 12.6671 10.8471 12.7751 10.9162C12.9021 10.9977 13.0202 11.0847 13.1282 11.1761C13.655 11.6223 15.1953 13.4839 15.6397 13.8821C16.1643 14.3527 16.8236 14.8312 17.3571 14.9729C18.3884 15.2462 19.2026 14.9974 20.1281 14.4119C21.1505 13.7649 21.9791 12.7979 22.6841 11.8264C23.4281 10.8014 24.0975 9.68374 24.5341 8.4914C24.7501 7.90136 24.9239 7.25443 24.808 6.62313C24.7958 6.55843 24.7791 6.49709 24.7568 6.43909C24.6098 6.75251 24.4516 7.06147 24.2835 7.36486C24.0128 7.85116 23.7155 8.32632 23.3824 8.78028C23.0494 9.23424 22.6841 9.66924 22.2654 10.0674C21.8477 10.4634 21.3766 10.8248 20.8275 11.0891C20.6772 11.1594 20.5224 11.223 20.362 11.2765C20.2016 11.3289 20.0345 11.3713 19.8652 11.4014C19.5255 11.4606 19.168 11.4661 18.8217 11.4081C18.4731 11.3524 18.14 11.2341 17.8349 11.0791C17.5308 10.9207 17.2524 10.7277 17.0018 10.5136C17.0018 10.5136 16.847 10.3775 16.8191 10.3496L16.6543 10.1924C16.5429 10.0875 16.4349 9.98267 16.3269 9.8767C16.1119 9.66478 15.7266 9.23313 15.7266 9.23313C15.7266 9.23313 15.0594 8.45236 14.5103 7.8612C14.5103 7.8612 13.9969 7.3024 13.7162 7.06482C12.7562 6.24947 11.5845 6.42905 10.5465 6.99455C9.58537 7.51766 8.7289 8.52263 7.5784 8.59401C6.68183 8.64978 5.86323 8.31182 5.20389 7.71509C4.32737 6.92205 3.48872 6.09666 2.78484 5.13297C2.47299 4.70578 1.77355 4.06666 1.06967 4.61655C0.366893 5.16532 1.02512 7.00459 2.04865 8.93086C2.04865 8.92863 2.96638 10.5392 3.71927 11.1215ZM30.3456 12.267C30.3378 12.0327 30.3278 11.948 30.3278 11.948C30.3155 11.8476 30.2966 11.7472 30.2676 11.6491C30.017 10.8025 29.0091 10.4311 28.2796 10.9497C27.6748 11.3791 27.4376 12.2056 27.6559 12.9005C28.2128 14.6684 30.2531 15.0354 31.8625 14.7922C32.6544 14.6729 33.434 14.3862 34.0644 13.8809C34.6736 13.3924 35.138 12.6373 34.9866 11.8465C34.8863 10.6608 33.9887 10.0708 32.5241 9.90013C32.5931 10.0429 32.8192 11.0813 32.0819 11.7528C31.632 12.1621 31.1508 12.2714 30.5037 12.2726C30.4804 12.2726 30.3456 12.267 30.3456 12.267ZM36.0613 7.3972C35.9165 7.29236 35.7461 7.16409 35.6693 7.08936C35.7105 7.01797 35.784 6.90866 35.8497 6.81497C36.2306 6.26174 36.9468 5.21439 36.9468 3.71978C36.9468 2.86093 36.6338 1.92958 35.8787 1.21462C35.1236 0.498544 33.9307 0.00219727 32.181 0.00219727C30.5216 0.00219727 28.6516 0.548736 27.0366 1.50462C26.3127 1.93516 25.7157 2.39805 25.2981 2.84308C24.8815 3.28812 24.641 3.7142 24.6399 4.08005C24.6399 4.25739 24.7078 4.42135 24.837 4.54851C24.9395 4.64889 25.0753 4.72697 25.2413 4.7872C25.4139 3.66178 29.6773 1.21685 32.7992 1.57489C34.1947 1.73551 35.2338 2.77616 35.0901 4.21724C34.952 5.59586 33.5509 6.34428 32.3436 6.70566C31.6698 6.90755 30.9938 7.10274 30.3478 7.3827C30.0304 7.52101 29.7096 7.67716 29.4323 7.88463C29.2296 8.03632 28.9668 8.23263 28.9824 8.51593C29.4602 8.84163 30.2175 9.03013 30.7109 9.06582C31.1107 9.09482 31.2232 9.10151 31.6721 9.1149C32.5942 9.14278 33.5621 9.17401 34.423 9.54432C35.6303 10.063 36.3409 11.3133 36.0814 12.6217C35.7473 14.3037 34.0521 15.322 32.4795 15.6131C30.7967 15.9254 28.6861 15.6812 27.5757 14.2267C27.1213 13.6322 26.8351 12.8358 26.9598 12.0841C27.0979 11.2497 27.6826 10.4511 28.5268 10.2381C29.0592 10.1031 29.6194 10.2281 30.0426 10.5426C29.938 10.3931 29.8154 10.2571 29.6762 10.1366C29.1873 9.71163 28.5001 9.47293 27.7038 9.47293C26.7203 9.47293 25.9307 9.88228 25.3894 10.4879C24.8481 11.0947 24.5541 11.8967 24.5541 12.6875C24.5541 13.9322 25.1277 15.1826 26.2448 16.1195C27.363 17.0564 29.0236 17.6811 31.1976 17.6811C32.9206 17.6811 34.6591 17.1111 35.9756 16.1217C37.0659 15.2997 38.3679 13.8006 38.3679 11.3423C38.3646 9.09482 36.8554 7.98278 36.0613 7.3972Z" fill="#FF6B00"/>
<path d="M5.42383 19.392H6.16113L7.08665 22.2731L8.04002 19.3809H8.61694L9.5703 22.2731L10.4969 19.392H11.212L9.86433 23.3059H9.27071L8.31734 20.5141L7.36397 23.3059H6.77592L5.42383 19.392Z" fill="#434343"/>
<path d="M12.7411 19.3921H12.0596V23.2792H12.7411V19.3921Z" fill="#434343"/>
<path d="M13.8896 19.3921H14.5223L16.6005 22.0791V19.3921H17.271V23.2792H16.7007L14.5601 20.5142V23.2792H13.8896V19.3921Z" fill="#434343"/>
<path d="M18.3809 19.3921H19.8276C21.0472 19.3921 21.8903 20.2297 21.8903 21.3239V21.3351C21.8903 22.4293 21.0472 23.2781 19.8276 23.2781H18.3809V19.3921ZM19.0625 20.0145V22.6568H19.8276C20.6429 22.6568 21.1752 22.1069 21.1752 21.3462V21.3351C21.1752 20.5744 20.6429 20.0134 19.8276 20.0134H19.0625V20.0145Z" fill="#434343"/>
<path d="M23.4485 20.0245H22.2178V19.3921H25.3663V20.0245H24.1356V23.2792H23.4485V20.0245Z" fill="#434343"/>
<path d="M26.1963 19.3921H27.9259C28.4138 19.3921 28.7958 19.536 29.0464 19.7802C29.2513 19.9911 29.3682 20.2799 29.3682 20.619V20.6302C29.3682 21.2693 28.9862 21.6519 28.4483 21.8069L29.4963 23.2781H28.6866L27.7333 21.924H26.879V23.2781H26.1974V19.3921H26.1963ZM27.8758 21.3184C28.3636 21.3184 28.6744 21.0629 28.6744 20.6692V20.6581C28.6744 20.242 28.3748 20.0145 27.8702 20.0145H26.8779V21.3195H27.8758V21.3184Z" fill="#434343"/>
<path d="M30.3164 19.3921H33.1943V20.0033H30.998V21.0127H32.9448V21.624H30.998V22.668H33.2222V23.2792H30.3164V19.3921Z" fill="#434343"/>
</g>
<defs>
<clipPath id="clip0">
<rect width="37.5867" height="23.3037" fill="white" transform="translate(0.774414 0.00219727)"/>
</clipPath>
</defs>
</svg>
