<svg id="Слой_1" data-name="Слой 1" xmlns="http://www.w3.org/2000/svg" xmlns:xlink="http://www.w3.org/1999/xlink" viewBox="0 0 52.86 20.3">
  <defs>
    <style>
      .cls-1 {
        fill: #323a85;
      }

      .cls-1, .cls-5 {
        fill-rule: evenodd;
      }

      .cls-2 {
        fill: #00a1e5;
      }

      .cls-3, .cls-5 {
        fill: #1e439b;
      }

      .cls-4 {
        fill: url(#Безымянный_градиент);
      }
    </style>
    <radialGradient id="Безымянный_градиент" data-name="Безымянный градиент" cx="12.17" cy="7.92" r="10.41" gradientUnits="userSpaceOnUse">
      <stop offset="0.07" stop-color="#00a0e8"/>
      <stop offset="0.16" stop-color="#00a1e5"/>
      <stop offset="0.53" stop-color="#00a2e3"/>
      <stop offset="0.6" stop-color="#009cde"/>
      <stop offset="0.69" stop-color="#008ad0"/>
      <stop offset="0.8" stop-color="#006eba"/>
      <stop offset="0.86" stop-color="#005bab"/>
      <stop offset="1" stop-color="#004097"/>
    </radialGradient>
  </defs>
  <g id="_1" data-name=" 1">
    <polygon class="cls-1" points="19.51 8.15 19.51 8.15 19.53 8.22 19.51 8.15"/>
    <g>
      <path class="cls-2" d="M17.38,6.2c.29-.25,0-.91-.55-1.54s-1.15-1-1.45-.76h0c-.29.25,0,.92.53,1.56S17.08,6.45,17.38,6.2Z"/>
      <path class="cls-3" d="M15.88,15.19c0,.35-.07.81-.12,1.16h0a.44.44,0,0,1,.34,0,9.29,9.29,0,0,0,1.06-1.2h0a.49.49,0,0,1,0-.12l-1.05-.12A1,1,0,0,1,15.88,15.19Z"/>
      <path class="cls-3" d="M10.12,17a1.43,1.43,0,0,0-1.53,1.2c0,.5.69,1,1.53,1s1.54-.42,1.54-1A1.41,1.41,0,0,0,10.12,17Z"/>
      <path class="cls-4" d="M10.12.78a9.62,9.62,0,1,0,9.62,9.61A9.61,9.61,0,0,0,10.12.78ZM14.9,3.49c.42-.37,1.39.07,2.17,1s1.07,1.92.64,2.29h0c-.42.36-1.39-.07-2.17-1S14.48,3.85,14.9,3.49ZM7,1.79a9.19,9.19,0,0,1,6.29,0l0,.23a7.71,7.71,0,0,0-3.15.55A8,8,0,0,0,7,2ZM7,2.43A7.48,7.48,0,0,1,10.11,3l.06,0,.07,0a7.38,7.38,0,0,1,3.12-.52l.16,1.48a12,12,0,0,0-6.7,0ZM1.29,8.17C2.29,8.06,3.2,8,4.34,8a13.56,13.56,0,0,0,.11,5.16A10,10,0,0,1,3.34,12c-.81,0-1.45,0-2.17-.06A9.06,9.06,0,0,1,1.29,8.17Zm2.36,8.35c-.11.08-.39-.11-.61-.43s-.31-.64-.2-.72.39.11.61.43S3.76,16.45,3.65,16.52Zm1,.6-.52-.2a2.14,2.14,0,0,0-.47-1.29,2.11,2.11,0,0,0-1.15-.85c0-.18-.07-.36-.1-.55h.06a2.43,2.43,0,0,1,1.62,1.08A2.47,2.47,0,0,1,4.69,17.12Zm1,.28-.52-.14a3,3,0,0,0-.65-2.21,2.91,2.91,0,0,0-2-1.3h-.1c0-.18,0-.36,0-.54h.19a3.46,3.46,0,0,1,2.4,1.51A3.55,3.55,0,0,1,5.66,17.4ZM4.83,5.66h0l-.08.1C4,6.66,3,7.1,2.57,6.73s-.13-1.39.65-2.29S5,3.11,5.39,3.47s.23.93-.17,1.63h0a14.72,14.72,0,0,1,1.59.74l-.36.56A14.7,14.7,0,0,0,4.83,5.66ZM13.06,19a9.15,9.15,0,0,1-5.85,0C7.09,18,7,17.17,7,16.22c.43.1.83.18,1.21.24l.42-.68a13,13,0,0,0,3.06,0l.43.67c.37-.07.74-.16,1.14-.26A24,24,0,0,1,13.06,19Zm.78-8.49c-.2,2.14-.86,3.81-2.9,3.86a3.65,3.65,0,0,1-3.2-1.93l-.71-1c-.37-.54-.18-1,0-1a15.52,15.52,0,0,1,1.47,1.44c.08-.3,0-.42-.32-.8S6.54,9.65,6.51,9.17s.07-.62.22-.62,2.44,2.18,2.44,2.18.13-.21-.12-.53A23.94,23.94,0,0,1,7,8.12c-.1-.3,0-.81.13-.81S9.88,9.63,9.88,9.63a.94.94,0,0,0-.26-.75C9.28,8.44,8.19,7.33,8.19,7s.13-.67.26-.67,3.45,3.26,3.66,3.33.37-.08.66-.49.51-1.34,1.37-1.1C14.06,8.71,13.92,9.6,13.84,10.5Zm.25-3.81a.29.29,0,0,1-.42,0,.31.31,0,0,1,0-.42.3.3,0,0,1,.41,0A.29.29,0,0,1,14.09,6.69Zm.22-1.19a.53.53,0,0,1,.73.13.53.53,0,0,1,.07.74.52.52,0,0,1-.72-.13A.53.53,0,0,1,14.31,5.5Zm3.61,9.26c-.09.27-.36.65-.61.64a8.44,8.44,0,0,1-1.06,1.18h0c0,.74-1.09,1.6-1.56,1.46s-.17-1,.67-1.54c0-.34.06-.8.07-1.14a.48.48,0,0,1-.26-.07c-.47-.3-.16-1.28.61-1.46.55-.06.57.4.55.61l1.06.12a1,1,0,0,1,.29-.28C17.92,14.19,18,14.41,17.92,14.76Zm-.18-1.54c-.84,0-1.52-1.29-1.52-2.87s.67-2.86,1.51-2.86h0c.84,0,1.52,1.28,1.52,2.86S18.58,13.22,17.74,13.22Z"/>
      <path class="cls-3" d="M4.9,3.89c-.29-.25-.9.12-1.45.76s-.83,1.29-.54,1.54.92-.11,1.47-.74S5.19,4.14,4.9,3.89Z"/>
      <path class="cls-2" d="M17.62,9a22.11,22.11,0,0,1,0,2.7,7.25,7.25,0,0,0,1.2-1.34A7.27,7.27,0,0,0,17.62,9Z"/>
    </g>
    <path class="cls-5" d="M36.34,9.37a1.75,1.75,0,0,0-1.69,2,1.74,1.74,0,0,0,1.69,2,1.76,1.76,0,0,0,1.69-2,1.77,1.77,0,0,0-1.69-2Zm0,5a2.84,2.84,0,0,1-2.86-3,2.86,2.86,0,1,1,5.71,0A2.84,2.84,0,0,1,36.34,14.37Z"/>
    <rect class="cls-3" x="31.33" y="6.29" width="1.16" height="7.97"/>
    <path class="cls-5" d="M43,9.37a1.75,1.75,0,0,0-1.69,2,1.74,1.74,0,0,0,1.69,2,1.76,1.76,0,0,0,1.69-2,1.77,1.77,0,0,0-1.69-2Zm0,5a2.73,2.73,0,0,1-2.86-3V6.28h1.17V8.83l.2-.12A3,3,0,0,1,43,8.32a2.85,2.85,0,0,1,2.85,3A2.84,2.84,0,0,1,43,14.37Z"/>
    <path class="cls-5" d="M49.38,9.37a1.49,1.49,0,0,0-1.25.64,1.8,1.8,0,0,0-.26.54l0,.17H51l-.05-.16a1.55,1.55,0,0,0-1.5-1.19Zm.18,5a2.87,2.87,0,0,1-2.92-3,2.81,2.81,0,0,1,2.75-3h.14a2.81,2.81,0,0,1,2.61,3c0,.09,0,.29,0,.42H47.82l0,.16a1.73,1.73,0,0,0,1.75,1.4,2.07,2.07,0,0,0,1.33-.57l.75.74A3.14,3.14,0,0,1,49.56,14.37Z"/>
    <path class="cls-5" d="M27.21,14.37a3.83,3.83,0,0,1-3.95-4,3.78,3.78,0,0,1,3.86-4A4,4,0,0,1,30,7.49l-.83.78a2.83,2.83,0,0,0-2-.84,2.63,2.63,0,0,0-2.71,2.9,2.78,2.78,0,0,0,2.83,3,4.16,4.16,0,0,0,1.6-.29V11.07H27.46V10H30V13.7A6.16,6.16,0,0,1,27.21,14.37Z"/>
  </g>
</svg>
