<svg width="104" height="19" viewBox="0 0 104 19" fill="none" xmlns="http://www.w3.org/2000/svg">
<path d="M10.6525 0.198242V9.61701C10.6525 10.0476 10.3296 10.3705 9.89903 10.3705H8.76877C8.71495 10.3705 8.66113 10.4243 8.66113 10.4782V18.3899C8.93024 18.3899 9.19935 18.4438 9.52228 18.4438C14.5815 18.4438 18.6719 14.3533 18.6719 9.29409C18.6719 4.61161 15.1735 0.736458 10.6525 0.198242ZM10.4372 14.2995C9.79139 14.2995 9.30699 13.7613 9.30699 13.1692C9.30699 12.5234 9.84521 12.039 10.4372 12.039C11.0831 12.039 11.5675 12.5772 11.5675 13.1692C11.6213 13.7613 11.0831 14.2995 10.4372 14.2995ZM13.1283 14.2995C12.4825 14.2995 11.9981 13.7613 11.9981 13.1692C11.9981 12.5234 12.5363 12.039 13.1283 12.039C13.7742 12.039 14.2586 12.5772 14.2586 13.1692C14.2586 13.7613 13.7742 14.2995 13.1283 14.2995ZM15.8194 14.2995C15.1735 14.2995 14.6891 13.7613 14.6891 13.1692C14.6891 12.5234 15.2274 12.039 15.8194 12.039C16.4653 12.039 16.9497 12.5772 16.9497 13.1692C16.9497 13.7613 16.4653 14.2995 15.8194 14.2995Z" fill="#2B985F"/>
<path d="M9.52369 0.144531C4.46446 0.144531 0.374023 4.23497 0.374023 9.2942C0.374023 13.7076 3.44185 17.3674 7.58611 18.2286V9.99388C7.58611 9.61712 7.90904 9.2942 8.28579 9.24038H8.66255H9.41605C9.46987 9.24038 9.52369 9.18655 9.52369 9.13273V0.144531ZM7.74758 7.67955C7.10172 7.67955 6.61732 7.14133 6.61732 6.5493C6.61732 5.90344 7.15554 5.41904 7.74758 5.41904C8.39344 5.41904 8.87783 5.95726 8.87783 6.5493C8.87783 7.14133 8.39344 7.67955 7.74758 7.67955Z" fill="#2B985F"/>
<path d="M101.125 5.14966V8.59424H96.496V5.14966H94.1816V14.2993H96.496V10.5856H101.125V14.2993H103.385V5.14966H101.125Z" fill="#2B985F"/>
<path d="M63.0183 6.17247C62.6416 5.36514 61.8881 4.93457 61.1345 4.93457C60.381 4.93457 59.6275 5.36514 59.2508 6.17247L55.5371 14.2995H57.9591L58.7664 12.3619H63.5027L64.31 14.2995H66.732L63.0183 6.17247ZM59.5199 10.532L60.9193 7.19508C60.9731 7.08743 61.0269 7.08743 61.0807 7.08743C61.1346 7.08743 61.2422 7.08743 61.2422 7.19508L62.6416 10.532H59.5199Z" fill="#2B985F"/>
<path d="M35.7864 3.48145C34.71 3.48145 34.0103 4.07348 33.5259 5.20373L30.5657 12.0929L27.6055 5.20373C27.1211 4.07348 26.4215 3.48145 25.345 3.48145C24.3224 3.48145 23.2998 4.18112 23.2998 5.74195V14.2458H25.5603V6.01106L28.5743 12.8464C28.9511 13.8152 29.6507 14.4072 30.5657 14.4072C31.5345 14.4072 32.1804 13.8152 32.5571 12.8464L35.5711 6.01106V14.2996H37.8316V5.79577C37.8316 4.23495 36.809 3.48145 35.7864 3.48145Z" fill="#2B985F"/>
<path d="M41.8674 12.3619C41.7597 12.3619 41.6521 12.2542 41.6521 12.1466V10.5319H47.3572V8.64817H41.6521V7.24881C41.6521 7.14117 41.7597 7.03352 41.8674 7.03352H47.5187V5.09595H40.7371C39.9298 5.09595 39.3916 5.74181 39.3916 6.44149V12.8463C39.3916 13.5459 39.9836 14.1918 40.7371 14.1918H47.5187V12.2542H41.8674V12.3619Z" fill="#2B985F"/>
<path d="M51.3396 14.2993V7.30252C51.3396 7.19488 51.4472 7.08723 51.5549 7.08723H57.2062V5.14966H50.4246C49.6173 5.14966 49.0791 5.79552 49.0791 6.4952V14.2455H51.3396V14.2993Z" fill="#2B985F"/>
<path d="M92.6749 9.72471C92.6749 6.54924 91.2755 5.04224 87.831 5.04224H87.0236C83.579 5.04224 82.1797 6.54924 82.1797 9.72471C82.1797 12.8464 83.579 14.4072 87.0236 14.4072H87.7771C91.2755 14.3534 92.6749 12.8464 92.6749 9.72471ZM87.7771 12.4696H87.0236C85.1399 12.4696 84.3864 11.6085 84.3864 9.72471C84.3864 7.89478 85.0322 6.97981 87.0236 6.97981H87.7771C89.7147 6.97981 90.4144 7.89478 90.4144 9.72471C90.4144 11.6085 89.7147 12.4696 87.7771 12.4696Z" fill="#2B985F"/>
<path d="M75.8286 3.69653H71.3076C67.9168 3.69653 66.5713 5.41882 66.5713 8.37901C66.5713 8.8634 66.6251 9.29398 66.6789 9.67073C67.0557 11.7698 68.2936 13.0615 71.4691 13.0615H72.4917V14.2456H74.7522V13.0615H75.721C78.8964 13.0615 80.1343 11.7698 80.5111 9.67073C80.5649 9.29398 80.6187 8.8634 80.6187 8.37901C80.5649 5.41882 79.1655 3.69653 75.8286 3.69653ZM72.384 11.1777H71.3614C69.8006 11.1777 69.2624 10.5857 68.9394 9.67073C68.8318 9.3478 68.8318 8.8634 68.8318 8.37901C68.8318 6.44143 69.7468 5.63411 71.0385 5.63411H72.4378V11.1777H72.384ZM78.1967 9.72455C77.8738 10.6395 77.2818 11.2316 75.7748 11.2316H74.7522V5.63411H76.1515C77.4432 5.63411 78.3582 6.44143 78.3582 8.37901C78.3044 8.91722 78.3044 9.3478 78.1967 9.72455Z" fill="#2B985F"/>
</svg>
