<svg width="104" height="36" viewBox="0 0 104 36" fill="none" xmlns="http://www.w3.org/2000/svg">
<g clip-path="url(#clip0)">
<path d="M4.79619 23.3826C5.15653 23.3826 5.48082 23.4885 5.73305 23.6298C6.34562 23.983 6.63388 24.6541 6.63388 25.3253C6.63388 26.0317 6.34562 26.7028 5.73305 27.056C5.44479 27.1973 5.12049 27.3033 4.79619 27.3033H3.13867V23.3826H4.79619ZM3.75123 23.8771V26.8441H4.61603C4.97636 26.8441 5.33669 26.7028 5.55289 26.4909C5.80512 26.2436 5.94925 25.8198 5.94925 25.3253C5.94925 24.7601 5.76909 24.3362 5.40876 24.089C5.15653 23.9124 4.86826 23.8417 4.61603 23.8417H3.75123V23.8771Z" fill="#002855"/>
<path d="M7.75123 26.0671C7.75123 26.6323 8.18363 26.9149 8.79619 26.9149C9.15652 26.9149 9.51686 26.8089 9.80512 26.7029L9.91322 27.1268C9.58892 27.2681 9.19256 27.374 8.76016 27.374C7.7152 27.374 7.13867 26.8089 7.13867 25.8905C7.13867 24.9722 7.7152 24.3717 8.65206 24.3717C9.55289 24.3717 10.0574 24.9368 10.0574 25.7846C10.0574 25.9258 10.0574 26.0671 10.0574 26.1025H7.75123V26.0671ZM7.78727 25.6433H9.48082C9.48082 25.1488 9.26462 24.7956 8.68809 24.7956C8.18363 24.7956 7.85933 25.0075 7.78727 25.6433Z" fill="#002855"/>
<path d="M12.4362 24.3717H13.4451V24.7602H12.9767C13.1208 24.8662 13.265 25.0428 13.265 25.3607C13.265 25.8905 12.8326 26.279 11.9678 26.279C11.7156 26.279 11.4994 26.2437 11.2832 26.1731C11.2111 26.2437 11.139 26.3143 11.139 26.4203C11.139 26.6676 11.4633 26.7029 11.8957 26.7029H12.3642C12.9407 26.7029 13.4091 26.8795 13.4091 27.4093C13.4091 28.1157 12.6885 28.257 11.9678 28.257C11.2832 28.257 10.5625 28.1157 10.5625 27.5153C10.5625 27.2327 10.7066 27.0561 10.8868 26.9501C10.7427 26.8442 10.6346 26.7029 10.6346 26.4909C10.6346 26.2437 10.7427 26.0671 10.9228 25.9611C10.7427 25.8198 10.6346 25.5726 10.6346 25.29C10.6346 24.6189 11.139 24.301 11.9678 24.301C12.1119 24.3363 12.2921 24.3717 12.4362 24.3717ZM11.3192 27.1621C11.2111 27.2327 11.103 27.3387 11.103 27.4799C11.103 27.7978 11.4633 27.8332 11.9318 27.8332C12.3642 27.8332 12.7605 27.7978 12.7605 27.4799C12.7605 27.268 12.5804 27.1974 12.2561 27.1974H11.8957C11.7876 27.1974 11.5354 27.1974 11.3192 27.1621ZM12.7245 23.3473C12.6524 23.8065 12.4002 24.0184 11.9318 24.0184C11.4633 24.0184 11.2111 23.8418 11.139 23.3473L11.4994 23.312C11.5714 23.5593 11.6795 23.7005 11.9318 23.7005C12.22 23.7005 12.2921 23.5593 12.3642 23.312L12.7245 23.3473ZM11.2471 25.3253C11.2471 25.6786 11.5354 25.8198 11.9678 25.8198C12.4362 25.8198 12.6885 25.6432 12.6885 25.3253C12.6885 24.9721 12.4002 24.7955 12.0038 24.7955C11.5354 24.7955 11.2471 24.9721 11.2471 25.3253Z" fill="#002855"/>
<path d="M14.4173 26.0672C14.4173 26.6323 14.8496 26.9149 15.4622 26.9149C15.8225 26.9149 16.1829 26.8089 16.4711 26.703L16.5792 27.0915C16.2549 27.2328 15.8586 27.3388 15.4262 27.3388C14.3812 27.3388 13.8047 26.7736 13.8047 25.8553C13.8047 24.9369 14.3812 24.3364 15.3181 24.3364C16.2189 24.3364 16.7234 24.9016 16.7234 25.7493C16.7234 25.8906 16.7234 26.0319 16.7234 26.0672H14.4173ZM14.4533 25.6433H16.1468C16.1468 25.1488 15.9306 24.7956 15.3541 24.7956C14.8496 24.7956 14.5253 25.0075 14.4533 25.6433Z" fill="#002855"/>
<path d="M18.9216 24.9367C18.309 24.8308 17.9847 25.3253 17.9847 25.9257V27.268H17.4082V24.3363H17.9127L17.9487 24.9367C18.0568 24.6189 18.4171 24.2303 18.9576 24.3363L18.9216 24.9367Z" fill="#002855"/>
<path d="M20.0735 26.6676C20.0735 26.8442 20.1816 26.8795 20.2897 26.8795C20.3978 26.8795 20.5059 26.8795 20.5419 26.8795V27.3033C20.4338 27.3387 20.2897 27.3387 20.0735 27.3387C19.6411 27.3387 19.4609 27.1621 19.4609 26.7735V23.2061H20.0375V26.6676H20.0735Z" fill="#002855"/>
<path d="M21.6947 27.3034H21.1181V24.7956H20.7578V24.3717H21.7307V27.3034H21.6947ZM21.7307 23.63C21.7307 23.8419 21.6226 23.9126 21.4064 23.9126C21.1902 23.9126 21.0821 23.8066 21.0821 23.63C21.0821 23.4534 21.1902 23.3474 21.4064 23.3474C21.5866 23.3474 21.7307 23.4534 21.7307 23.63Z" fill="#002855"/>
<path d="M27.5689 27.3033H26.9563V25.6078H24.8303V27.3033H24.2178V23.3826H24.8303V25.1133H26.9563V23.3826H27.5689V27.3033Z" fill="#002855"/>
<path d="M29.1908 27.3034H28.6142V24.7956H28.2539V24.3717H29.1908V27.3034ZM29.2268 23.63C29.2268 23.8419 29.1187 23.9126 28.9025 23.9126C28.6863 23.9126 28.5782 23.8066 28.5782 23.63C28.5782 23.4534 28.6863 23.3474 28.9025 23.3474C29.0827 23.3474 29.2268 23.4534 29.2268 23.63Z" fill="#002855"/>
<path d="M32.1089 24.5484L32.0009 24.9369C31.8567 24.9016 31.4964 24.7603 31.1 24.7603C30.6316 24.7603 30.4514 24.9369 30.4514 25.1488C30.4514 25.4667 30.7397 25.502 31.2081 25.608C31.7126 25.7493 32.2171 25.8906 32.2171 26.491C32.2171 27.0915 31.6766 27.3388 31.028 27.3388C30.5235 27.3388 30.0911 27.1975 29.8389 27.0915L29.947 26.703C30.0911 26.7736 30.4875 26.9149 30.9559 26.9149C31.4243 26.9149 31.6045 26.7383 31.6045 26.5264C31.6045 26.2085 31.2442 26.1731 30.8118 26.0672C30.3433 25.9259 29.8389 25.7846 29.8389 25.1841C29.8389 24.5837 30.3433 24.3364 30.9919 24.3364C31.4604 24.3364 31.8567 24.4424 32.1089 24.5484Z" fill="#002855"/>
<path d="M34.9195 24.5484L34.8114 24.9369C34.6673 24.9016 34.3069 24.7603 33.9106 24.7603C33.4421 24.7603 33.262 24.9369 33.262 25.1488C33.262 25.4667 33.5502 25.502 34.0187 25.608C34.5231 25.7493 35.0276 25.8906 35.0276 26.491C35.0276 27.0915 34.4871 27.3388 33.8385 27.3388C33.334 27.3388 32.9016 27.1975 32.6494 27.0915L32.7575 26.703C32.9016 26.7736 33.298 26.9149 33.7664 26.9149C34.2349 26.9149 34.415 26.7383 34.415 26.5264C34.415 26.2085 34.0547 26.1731 33.6223 26.0672C33.1539 25.9259 32.6494 25.7846 32.6494 25.1841C32.6494 24.5837 33.1539 24.3364 33.8025 24.3364C34.2349 24.3364 34.6312 24.4424 34.9195 24.5484Z" fill="#002855"/>
<path d="M36.0735 26.0671C36.0735 26.6323 36.5059 26.9149 37.1185 26.9149C37.4788 26.9149 37.8391 26.8089 38.1274 26.7029L38.2355 27.1268C37.9112 27.2681 37.5148 27.374 37.0824 27.374C36.0375 27.374 35.4609 26.8089 35.4609 25.8905C35.4609 24.9722 36.0375 24.3717 36.9743 24.3717C37.8752 24.3717 38.3796 24.9368 38.3796 25.7846C38.3796 25.9258 38.3796 26.0671 38.3796 26.1025H36.0735V26.0671ZM36.0735 25.6433H37.7671C37.7671 25.1488 37.5509 24.7956 36.9743 24.7956C36.5059 24.7956 36.1456 25.0075 36.0735 25.6433Z" fill="#002855"/>
<path d="M39.713 24.3718H40.5418V24.7956H39.713V26.4204C39.713 26.7736 39.8211 26.9149 40.1094 26.9149C40.2535 26.9149 40.4337 26.8796 40.5418 26.8443L40.5778 27.2328C40.3977 27.3034 40.1815 27.3388 39.9653 27.3388C39.4248 27.3388 39.1365 27.1268 39.1365 26.4557V24.7956H38.7041V24.3718H39.1365L39.2086 23.524H39.713V24.3718Z" fill="#002855"/>
<path d="M41.8019 24.3718H42.6307V24.7956H41.8019V26.4204C41.8019 26.7736 41.91 26.9149 42.1983 26.9149C42.3424 26.9149 42.5226 26.8796 42.6307 26.8443L42.6667 27.2328C42.4865 27.3034 42.2703 27.3388 42.0541 27.3388C41.5136 27.3388 41.2254 27.1268 41.2254 26.4557V24.7956H40.793V24.3718H41.2254L41.2974 23.524H41.8019V24.3718Z" fill="#002855"/>
<path d="M43.8558 27.3034H43.2793V24.7956H42.9189V24.3717H43.8918V27.3034H43.8558ZM43.8918 23.63C43.8918 23.8419 43.7837 23.9126 43.5675 23.9126C43.3513 23.9126 43.2432 23.8066 43.2432 23.63C43.2432 23.4534 43.3513 23.3474 43.5675 23.3474C43.7837 23.3474 43.8918 23.4534 43.8918 23.63Z" fill="#002855"/>
<path d="M46.2702 24.9367C45.6577 24.8308 45.3334 25.3253 45.3334 25.9257V27.268H44.7568V24.3363H45.2613L45.2973 24.9367C45.4054 24.6189 45.7658 24.2303 46.3063 24.3363L46.2702 24.9367Z" fill="#002855"/>
<path d="M47.5316 27.3034H46.9551V24.7956H46.5947V24.3717H47.5676V27.3034H47.5316ZM47.5316 23.63C47.5316 23.8419 47.4235 23.9126 47.2073 23.9126C46.9911 23.9126 46.883 23.8066 46.883 23.63C46.883 23.4534 46.9911 23.3474 47.2073 23.3474C47.4235 23.3474 47.5316 23.4534 47.5316 23.63Z" fill="#002855"/>
<path d="M49.946 24.9367C49.3334 24.8308 49.0091 25.3253 49.0091 25.9257V27.268H48.4326V24.3363H48.9371L48.9731 24.9367C49.0812 24.6189 49.4415 24.2303 49.982 24.3363L49.946 24.9367Z" fill="#002855"/>
<path d="M87.5645 8.22968L83.709 6.03974L87.5645 3.88513V8.22968ZM87.5645 8.22968L83.709 10.4196L85.6548 11.5146L87.6006 10.4196V8.22968H87.5645Z" fill="#CEDC00"/>
<path d="M87.5656 8.22961L83.71 10.4195L79.8545 8.22961L83.71 6.03967L87.5656 8.22961Z" fill="#0082CA"/>
<path d="M103.023 3.88512L99.1318 1.69519V6.07506L103.023 3.88512Z" fill="#E63323"/>
<path d="M87.5649 21.3693V14.7995L91.4205 16.9894V8.22968L87.5649 10.4196V8.22968V3.88513L103.023 12.6095L87.5649 21.3693ZM79.8538 3.88513V8.265L83.7094 6.07506L79.8538 3.88513ZM79.8538 12.6095L83.7094 10.4196L79.8538 8.22968V12.6095ZM78.1242 30.023L70.0889 25.4666V34.5442L78.1242 30.023Z" fill="#05BEC8"/>
<path d="M40.974 17.5192C40.974 16.7774 40.5416 16.1063 39.6408 16.1063C38.7039 16.1063 38.0553 16.5655 37.8751 17.5192H40.974ZM39.5327 14.7288C41.4784 14.7288 42.6315 16.0003 42.6315 17.943C42.6315 18.2962 42.5955 18.6141 42.5955 18.6141H37.9112C37.9832 19.6385 38.9201 20.0976 39.8209 20.0976C40.4335 20.0976 41.2262 19.921 41.7307 19.6738L42.3072 20.91C41.5865 21.2986 40.5776 21.4752 39.7849 21.4752C37.5148 21.4752 36.0735 20.0976 36.0735 18.1196C36.1095 16.1416 37.5148 14.7288 39.5327 14.7288ZM45.6583 12.3269V19.5678C45.6583 19.921 45.8745 20.0976 46.2708 20.0976C46.3429 20.0976 46.5591 20.0623 46.6672 20.0623V21.3339C46.3069 21.4045 45.8745 21.4752 45.4781 21.4752C44.6854 21.4752 43.9287 21.1926 43.9287 19.7091V13.2806L45.6583 12.3269ZM52.3244 17.5192C52.3244 16.7774 51.892 16.1063 50.9912 16.1063C50.0543 16.1063 49.4057 16.5655 49.2256 17.5192H52.3244ZM50.8831 14.7288C52.8289 14.7288 53.9819 16.0003 53.9819 17.943C53.9819 18.2962 53.9459 18.6141 53.9459 18.6141H49.2616C49.3337 19.6385 50.2705 20.0976 51.1713 20.0976C51.7839 20.0976 52.5766 19.921 53.0811 19.6738L53.6576 20.91C52.937 21.2986 51.928 21.4752 51.1353 21.4752C48.8652 21.4752 47.4239 20.0976 47.4239 18.1196C47.4239 16.1416 48.8292 14.7288 50.8831 14.7288ZM22.2368 12.3269V17.7311L24.4348 14.8701H26.4887L23.8943 17.9077L26.4166 21.3692H24.5069L22.9214 19.1086L22.2728 19.8151V21.3692H20.5432V13.2806L22.2368 12.3269ZM56.9366 12.3269V17.7311L59.1347 14.8701H61.1885L58.5581 17.9077L61.0804 21.3692H59.1707L57.5852 19.1086L56.9366 19.8151V21.3692H55.2071V13.2806L56.9366 12.3269ZM71.3859 14.8701L71.6742 15.7178C71.9624 15.1526 72.7552 14.7288 73.5119 14.7288C74.3046 14.7288 75.0253 15.188 75.3496 15.8944C75.6739 15.2586 76.3945 14.7288 77.4755 14.7288C78.8448 14.7288 79.8537 15.5412 79.8537 17.4485V21.3692H78.1241V17.3426C78.1241 16.6715 77.8719 16.1063 77.0431 16.1063C76.1783 16.1063 75.818 16.7774 75.818 17.6251V21.3692H74.0884V17.2366C74.0884 16.6715 73.8001 16.071 73.0434 16.071C72.1786 16.071 71.8183 16.7421 71.8183 17.5545V21.2986H70.0887V14.8701H71.3859ZM65.1161 14.4109C63.0262 14.4109 61.3687 16.071 61.3687 18.0843C61.3687 20.133 63.0623 21.7578 65.1161 21.7578C67.2061 21.7578 68.8636 20.0976 68.8636 18.0843C68.8636 16.071 67.17 14.4109 65.1161 14.4109ZM65.1161 20.2036C63.9271 20.2036 62.9902 19.2499 62.9902 18.1196C62.9902 16.954 63.9631 16.0357 65.1161 16.0357C66.3052 16.0357 67.2421 16.9893 67.2421 18.1196C67.2421 19.2499 66.2692 20.2036 65.1161 20.2036ZM36.8662 12.6095V14.0577H34.6322V21.3339H32.8305V14.093H30.5964V12.6095H36.8662ZM17.012 14.8701V15.8237C17.4083 15.0113 18.0569 14.7994 19.21 14.7994V16.4595H18.9938C17.8768 16.4595 17.084 17.0247 17.084 18.4022V21.3692H15.3544V14.8701H17.012ZM7.1389 12.6095V14.0577H4.90485V21.3339H3.10319V14.093H0.869141V12.6095H7.1389ZM12.1115 21.3692L11.8592 20.5921C11.7872 20.6981 11.3548 21.4752 10.0936 21.4752C8.97659 21.4752 7.6794 20.8747 7.6794 19.0027V15.7178H9.40899V19.038C9.40899 19.8857 9.87741 20.2389 10.49 20.2389C11.2827 20.2389 11.7511 19.6385 11.7511 18.7907V15.7178H13.4447V21.3692H12.1115ZM8.29196 13.3866H10.0215V14.6934H8.29196V13.3866ZM11.1025 13.3866H12.8321V14.6934H11.1025V13.3866ZM74.0884 12.6095V8.22961L77.9439 10.4195L74.0884 12.6095ZM59.1707 27.3032V23.5945L62.4497 25.4665L59.1707 27.3032Z" fill="#002855"/>
<path d="M91.42 8.22974L87.5645 10.4197V14.7995L91.42 16.9895V8.22974Z" fill="#0082CA"/>
<path d="M83.708 12.6096L87.5636 14.7995V10.4197L83.708 12.6096Z" fill="#002855"/>
</g>
<defs>
<clipPath id="clip0">
<rect width="103.739" height="34.5798" fill="white" transform="translate(0.00488281 0.600342)"/>
</clipPath>
</defs>
</svg>
