<svg id="Layer_1" data-name="Layer 1" xmlns="http://www.w3.org/2000/svg" viewBox="0 0 410.4 115.7">
  <defs>
    <style>
      .cls-1 {
        fill: #ef0032;
      }
    </style>
  </defs>
  <g id="layer1">
    <path id="path851" class="cls-1" d="M92,18.09s-3.89.27-3.89,3.84l0,12s3-4.07,7.33-4.07h5.09s4.17-.25,4.17-3.72V21.85s0-3.76-4.26-3.76Zm109.25,2.75A4.25,4.25,0,0,0,196.62,25v9.49H186.37v6.38s0,4.1,4.63,4.1h5.62V76.81c.3,10.43,11.31,16.48,20.73,16.48h12.53c3.41,0,4-4.72,4-4.72V82.5a28.39,28.39,0,0,1-11.32-.08c-9.64-2.8-9.34-10.09-9.34-10.09V45h32.65V76.81c.31,10.43,11.32,16.48,20.73,16.48h12.53c3.42,0,3.95-4.72,3.95-4.72V82.5a28.33,28.33,0,0,1-11.31-.08c-9.65-2.8-9.34-10.09-9.34-10.09V45h15.87c4.64,0,4.55-3.76,4.55-3.76V34.51H262.38v-9a4.34,4.34,0,0,0-3.95-4.64h-8A4.25,4.25,0,0,0,245.82,25v9.49H213.17v-9a4.34,4.34,0,0,0-3.94-4.64Zm168.31,0A4.25,4.25,0,0,0,364.93,25V76.81c.3,10.43,11.31,16.48,20.73,16.48h12.53c3.41,0,3.95-4.72,3.95-4.72V82.5a28.39,28.39,0,0,1-11.32-.08c-9.64-2.8-9.34-10.09-9.34-10.09V25.48a4.34,4.34,0,0,0-4-4.64Zm-224,13.26c-2.73,0-14.2.34-23,5.4-5.77,3.32-9.46,8.87-9.62,20.48,0,0,0,17.21,2.46,21.31a24,24,0,0,0,9.23,9.38c2.75,1.52,8.29,2.62,12.41,2.62h40.48s3.94-.39,3.94-5.25V82.73H141.19s-10.78-.31-11-12.53c0-.64,0-1.16,0-1.75h45.58s8-.6,8-10.93c0,0,1.29-10.63-7-17.24s-21.56-6-30.6-6.18Zm173,0c-2.73,0-14.2.34-23,5.4-5.78,3.32-9.47,8.87-9.63,20.48,0,0,0,17.21,2.47,21.31a24,24,0,0,0,9.22,9.38c2.75,1.52,8.29,2.62,12.42,2.62h40.47s4-.39,4-5.25V82.73H314.16s-10.78-.31-11-12.53c0-.64,0-1.16,0-1.75h45.58s8-.6,8-10.93c0,0,1.3-10.63-7-17.24s-21.56-6-30.6-6.18ZM8.26,34.72,36.51,89.24S38,93.85,46.4,93.85h3s6.21.28,9.23-5.08,28.24-54,28.24-54H74s-4.89.75-8,7.15S48.56,78.69,48.56,78.69s-1.13,1.7-2,0S27.94,39.9,27.94,39.9s-3.2-5.18-6.78-5.18Zm83.9,0s-4,0-4,4.61v50a4.25,4.25,0,0,0,4.33,4h9s3.2-.19,3.2-5.09V38.77s-.66-4.05-3.86-4.05Zm56.09,9.8c4.73,0,11.74.69,15.49,4.34a8.15,8.15,0,0,1,2.81,5.77c0,3.57-2.28,3.57-3,3.57H138.15a11.18,11.18,0,0,0-8,3.33,57,57,0,0,1,.33-6.59s-.07-8.81,12.91-10.18A45.61,45.61,0,0,1,148.25,44.52Zm173,0c4.73,0,11.75.69,15.49,4.34a8.15,8.15,0,0,1,2.81,5.77c0,3.57-2.27,3.57-3,3.57H311.13a11.19,11.19,0,0,0-8,3.33,54.59,54.59,0,0,1,.34-6.59s-.08-8.81,12.9-10.18a45.61,45.61,0,0,1,4.86-.24Z"/>
  </g>
</svg>
