<svg id="Слой_1" data-name="Слой 1" xmlns="http://www.w3.org/2000/svg" viewBox="0 0 1332.33 348">
  <defs>
    <style>
      .cls-1 {
        fill: #82368c;
        fill-rule: evenodd;
      }
    </style>
  </defs>
  <path class="cls-1" d="M1096.29,191.59c0-2.47,2-26.08,28-26.08,17.25,0,23.49,9.76,26.77,26.08Zm28.91-51.45c-38.75,0-62.58,29.42-62.58,64.68,0,30.45,17.44,64.24,62.58,64.24,41,0,52.62-26.28,57.35-41h-21.38c-4.9,0-8.49,1.95-11.83,6.07-1.39,1.6-8.56,9.77-22.94,9.77-29.14,0-29.56-23.11-30.11-31h88.41c2.48-35.48-16.29-72.76-59.5-72.76Zm80.34-42.8V235.23c.27,23.22,4.54,31.3,33.46,31.3l0-142c-.22-22.88-4.66-27.2-33.44-27.2ZM733,97.34V235.23c.27,23.22,4.55,31.3,33.47,31.3l0-142c-.23-22.88-4.64-27.2-33.44-27.2Zm537.54,0V235.23c.27,23.22,4.55,31.3,33.46,31.3l0-142c-.22-22.88-4.65-27.2-33.44-27.2ZM652.19,165.49c-22.6,0-29.66,19.23-29.66,39.33,0,21.1,7.47,39.1,29.66,39.1s29.85-18,29.85-39.1c0-20.1-7.24-39.33-29.85-39.33Zm63.48,39.33c0,40.72-26.63,64.24-63.48,64.24s-63.27-23.52-63.27-64.24,26-64.68,63.27-64.68,63.48,24,63.48,64.68Zm310.12,14.25a11.33,11.33,0,0,0-10.6,7.78c-4.18,11.5-11.84,17.07-24.86,17.07-20.25,0-28-19.27-28-39.1,0-18.81,7.92-39.31,28.68-39.31,13,0,19.82,5.79,22.75,13.3,1.61,4.1,4,7.8,11.41,7.8h23.66c-1.8-31.64-29-46.47-57.62-46.47-42.18,0-62.52,30.58-62.52,66.15,0,39.81,27.61,62.77,61.81,62.77,29.89,0,54.35-15,59-50ZM571.24,131.83h0v134.7H536.42V146.69h-.52L494.48,266.53H465.82L424.38,147.87h-.5V266.53H389.1V97.41H417c10.12,0,25.27,3.8,32.63,23.89S481,213.69,481,213.69h.48L518.88,97.41H538c29.54.25,33.23,9.13,33.23,34.41ZM849.55,245.22c-17.53,0-28.8-15.78-28.8-38.16,0-40.7,28.8-38,28.8-38s28.08-2.55,28.08,37.72c0,35.8-20,38.42-28.08,38.42Zm59.58-115.55c-.13-24-4-32.25-32.72-32.25v64.75H876c-5.16-8.72-17.9-17.71-34.84-17.71-37.14,0-53,31.81-53,61.64,0,28,13.68,63.51,53.38,63.51,23.06,0,32.26-11.71,36.09-18.12,2.91,11.13,10.55,15.36,31.52,15.36V129.67ZM145,94.05A321.92,321.92,0,0,1,68.44,82.56l-3.14-.9c18.41-17.78,40.55-31.47,63.79-42l2.23-1c41.37-18.31,87.77-27.09,124.1-23.44A128.66,128.66,0,0,1,270,17.52c3.2.7,6.28,1.53,9.23,2.47a84,84,0,0,1,8,3,66,66,0,0,1,11.35,6.24,54.39,54.39,0,0,1,5,3.86c-.4.5-.81,1-1.21,1.48C263.5,81.58,203.15,96.11,145,94.05ZM308.46,38c5,6,8.14,12.84,10.81,20-.63,9.81-5.3,19.19-10.6,27.24A120.28,120.28,0,0,1,301,95.61c-9.76,11.86-21.26,22.3-33.23,31.89l-1.66,1.32c-1.62-.57-3.28-1.11-5-1.65-30.67-9.89-62.82-15.15-94.46-20.85l-10.38-1.87-3.54-.65c1.44,0,2.88.06,4.31.07,57.57.44,115.37-19,151.41-65.9ZM240.82,175.05c8.53-6.25,16.71-12.72,24.42-19.28,1.39-1.19,2.78-2.38,4.14-3.57,12.3,6.52,25.23,14.84,31.81,27.68,12.84,25-10.45,49-28.42,63.77-1.72,1.41-3.49,2.81-5.31,4.18-38.4,29-95,48.11-142.75,38.11-25-5.24-45.93-18.73-60.34-39.47-2.32-3.36-4.61-6.75-6.7-10.27q3.21.86,6.52,1.47a96.22,96.22,0,0,0,9.59,1.3c34.45,3,69.82-9.24,100.41-23.8a410.85,410.85,0,0,0,56.67-33q5.05-3.48,10-7.09Zm48.08-41.26c14.19-14.46,28.42-31,36.56-49.67.13,1,.25,2,.36,2.95,2.87,25.67-.18,51.89-6.19,76.92-7.33-11.42-18.81-19.54-30.73-25.64-1-.51-2-1-3-1.51,1-1,2-2,3-3.05ZM231.76,137q4.77,1.54,9.33,3.16l1.31.47c1.74.63,3.47,1.26,5.17,1.91l-3.35,2.3c-43.1,29.22-107,62.31-161.48,65.48-15.15.88-34.23-.67-44.34-13.69-7.17-9.24-10.27-28.82-10-40.2a91.7,91.7,0,0,1,9-37.29c.49-1,1-2,1.52-3.06q1.89-3.67,4.08-7.25a125.18,125.18,0,0,1,8.13-11.66C111.06,110.92,173.05,118,231.76,137Zm-143-49.22,0,0v0ZM289.63,239.44q1.68-1.89,3.21-3.8c-.63,1.2-1.26,2.39-1.9,3.57-20.46,38-51.76,77.74-94.62,91.39-.63.2-1.26.39-1.88.56l-1,.27c-36.33,9.67-69.79-15-93.51-39.44,53.33,23.47,120.87,1.26,164.66-30.3a151.28,151.28,0,0,0,25-22.25Zm-186,39.78h0l.1.07-.15-.07Z"/>
</svg>
