<svg id="Слой_2" data-name="Слой 2" xmlns="http://www.w3.org/2000/svg" xmlns:xlink="http://www.w3.org/1999/xlink" viewBox="0 0 45.67 20.29">
  <defs>
    <style>
      .cls-1 {
        fill: url(#Безымянный_градиент);
      }

      .cls-2 {
        fill: url(#Безымянный_градиент_2);
      }

      .cls-3 {
        fill: url(#Безымянный_градиент_3);
      }
    </style>
    <linearGradient id="Безымянный_градиент" data-name="Безымянный градиент" x1="0.25" y1="-29.2" x2="14" y2="-29.2" gradientTransform="matrix(1, 0, 0, -1, 0, -19.08)" gradientUnits="userSpaceOnUse">
      <stop offset="0" stop-color="#b60007"/>
      <stop offset="0.19" stop-color="#c90006"/>
      <stop offset="0.45" stop-color="#dc0005"/>
      <stop offset="0.72" stop-color="#e70004"/>
      <stop offset="1" stop-color="#eb0004"/>
    </linearGradient>
    <linearGradient id="Безымянный_градиент_2" data-name="Безымянный градиент 2" x1="16.57" y1="10.12" x2="28.42" y2="10.12" gradientTransform="matrix(1, 0, 0, 1, 0, 0)" xlink:href="#Безымянный_градиент"/>
    <linearGradient id="Безымянный_градиент_3" data-name="Безымянный градиент 3" x1="30.92" y1="10.11" x2="44.65" y2="10.11" gradientTransform="matrix(1, 0, 0, 1, 0, 0)" xlink:href="#Безымянный_градиент"/>
  </defs>
  <path class="cls-1" d="M4.5,19.47a9.5,9.5,0,0,1-2.27-.77,9.67,9.67,0,0,1-2-1.3l1.65-2a7.28,7.28,0,0,0,2.37,1.4,8.24,8.24,0,0,0,2.81.47,5.69,5.69,0,0,0,3.17-.76,2.45,2.45,0,0,0,1.13-2.15h0a2.26,2.26,0,0,0-.51-1.56,3,3,0,0,0-1.32-.85,13.48,13.48,0,0,0-2.1-.51l-.08,0H7.29l-.2,0A21.38,21.38,0,0,1,4,10.61,4.38,4.38,0,0,1,2,9.12,4.93,4.93,0,0,1,1.14,6h0a5.42,5.42,0,0,1,.79-3A4.91,4.91,0,0,1,4.21,1.16,9,9,0,0,1,7.83.51a8.92,8.92,0,0,1,2,.22,10.19,10.19,0,0,1,1.93.65,10.66,10.66,0,0,1,1.87,1.1l-1.5,2.09A9,9,0,0,0,10,3.39,6,6,0,0,0,7.83,3a5,5,0,0,0-3,.77A2.53,2.53,0,0,0,3.76,6h0a2.11,2.11,0,0,0,.55,1.53,3.32,3.32,0,0,0,1.38.83A22.13,22.13,0,0,0,8,8.87l.1,0h.1l.14,0,.14,0a15.52,15.52,0,0,1,2.86.83,4.53,4.53,0,0,1,1.92,1.54A5,5,0,0,1,14,14.26v0a5.24,5.24,0,0,1-.82,3,5,5,0,0,1-2.37,1.86,9.65,9.65,0,0,1-3.73.65A12.42,12.42,0,0,1,4.5,19.47Z"/>
  <polygon class="cls-2" points="28.42 3.22 28.42 0.7 19.21 0.7 17.86 0.7 16.57 0.7 16.57 19.54 19.21 19.54 19.21 11.61 27 11.61 27 9.1 19.21 9.1 19.21 3.22 28.42 3.22"/>
  <path class="cls-3" d="M41.52,19.54h3.13L40.31,11.3a6,6,0,0,0,.94-.4A4.77,4.77,0,0,0,43.17,9a5.79,5.79,0,0,0,.69-2.86,5.9,5.9,0,0,0-.68-2.86,4.75,4.75,0,0,0-1.91-1.91A5.93,5.93,0,0,0,38.4.69H30.92V19.54h2.64v-8H37.5Zm-8-16.34H38.5a2.39,2.39,0,0,1,1.34.37,2.35,2.35,0,0,1,.89,1,3.38,3.38,0,0,1,.32,1.53,3.45,3.45,0,0,1-.32,1.54,2.36,2.36,0,0,1-.9,1,2.49,2.49,0,0,1-1.33.36H33.56Z"/>
</svg>
