<svg id="Слой_1" data-name="Слой 1" xmlns="http://www.w3.org/2000/svg" viewBox="0 0 278.9 144.89">
  <defs>
    <style>
      .cls-1 {
        fill: #502c84;
      }
    </style>
  </defs>
  <path class="cls-1" d="M50.46,138.6c13.79,0,25.12-4.32,32.6-11.53A29.9,29.9,0,0,0,92,105.42,28,28,0,0,0,83.7,85.26C78.35,79.92,70.69,76,61,74.12L45.18,71c-6.57-1.23-10.31-4.51-10.31-9.09,0-6,5.8-10.11,15.08-10.11,5.79,0,10.75,1.87,14,5.15a15.64,15.64,0,0,1,3.93,8.44l22.87-5.15a28.25,28.25,0,0,0-8.44-17.13C74.81,35.73,63.28,31,49.69,31c-12.56,0-23.06,4.12-30.34,10.69A30.11,30.11,0,0,0,9.69,64c0,7.6,2.45,14,7.41,18.93s12.17,8.64,21.64,11l15.65,3.74c7.86,1.87,11.34,4.77,11.34,9.92,0,6.38-5.8,10.11-15.27,10.11-6.82,0-12.36-2.25-15.84-6a14.43,14.43,0,0,1-4.13-9.47L7,107.36a29.42,29.42,0,0,0,8.89,18.16c7.8,8.18,20.42,13.08,34.59,13.08m174,0c15.27,0,27-5.54,35-13.4a45.75,45.75,0,0,0,12.37-20.81l-24.09-8A22.78,22.78,0,0,1,241.45,107c-3.93,3.74-9.27,6.38-16.94,6.38A26.05,26.05,0,0,1,206.15,106c-4.76-5-7.66-12.17-7.66-21.25,0-9.28,2.9-16.3,7.66-21.26a25.07,25.07,0,0,1,18.17-7.21c7.41,0,12.56,2.44,16.29,6.18a26.22,26.22,0,0,1,6.19,10.95l24.54-8.25a47,47,0,0,0-11.53-20.41C251.57,36.69,239.58,31,223.74,31A52.11,52.11,0,0,0,186.44,46C177,55.7,171.18,69.16,171.18,84.81a54.21,54.21,0,0,0,15.65,38.78c9.4,9.47,22.8,15,37.68,15m-83.29,0c10.7,0,18.36-3.29,21.65-6.19V110.13A23.9,23.9,0,0,1,149,114.25c-4.58,0-7.86-1-10.31-3.29-2.06-2.06-3.09-5.6-3.09-10.3V6.29H108.37V34.12H162.8V60.53H108.37v46.83c0,9.47,2.9,17.13,8,22.48,5.8,5.67,14.3,8.76,24.8,8.76"/>
</svg>
