<svg id="Слой_1" data-name="Слой 1" xmlns="http://www.w3.org/2000/svg" xmlns:xlink="http://www.w3.org/1999/xlink" viewBox="0 0 431.11 113.33">
  <defs>
    <style>
      .cls-1 {
        fill: none;
      }

      .cls-2 {
        fill: #04519d;
      }

      .cls-3 {
        clip-path: url(#clip-path);
      }

      .cls-4 {
        clip-path: url(#clip-path-2);
      }

      .cls-5 {
        clip-path: url(#clip-path-3);
      }

      .cls-6 {
        clip-path: url(#clip-path-4);
      }
    </style>
    <clipPath id="clip-path">
      <rect class="cls-1" x="370.96" y="34.84" width="51.36" height="48.52"/>
    </clipPath>
    <clipPath id="clip-path-2">
      <rect class="cls-1" x="300.69" y="32.03" width="53.41" height="51.33"/>
    </clipPath>
    <clipPath id="clip-path-3">
      <rect class="cls-1" x="210.74" y="34.84" width="56.22" height="48.52"/>
    </clipPath>
    <clipPath id="clip-path-4">
      <rect class="cls-1" x="126.41" y="32.03" width="61.84" height="51.33"/>
    </clipPath>
  </defs>
  <g id="surface1">
    <path class="cls-2" d="M101.42,47.43c-1.8,7.7-6,16.55-12.38,25.34A115.43,115.43,0,0,1,78.74,85c-8.42,8.64-17.42,15.12-25.7,19A48.93,48.93,0,0,0,89,88a48.57,48.57,0,0,0,12.38-40.53"/>
    <path class="cls-2" d="M89,10.13c8.71-2.52,11.87,2.95,5.11,18.14A33.55,33.55,0,0,0,89,21.58a69.32,69.32,0,0,0-8.72-7.49A35.66,35.66,0,0,1,89,10.13Zm0,47.38c8.35-12.32,14.39-24.77,16.27-34.78a45.11,45.11,0,0,0,.72-6.34v-.72c-.08-4.82-1.66-8.28-5.83-10-2.88-.93-6.7-.72-11.16.65a54.94,54.94,0,0,0-12,5.83,48.91,48.91,0,0,0-61.2,10.3C3.36,36-.1,58,7.75,74.64l.07-.07C4.58,66.72,4.36,57.36,6.24,48.94a34.4,34.4,0,0,1,1.36-5c.15-.44.29-.79.44-1.22a15.43,15.43,0,0,1,1.15-2.45c5.11-10.8,14.18-17.07,21-13.9s8.35,13.82,3.31,25.56c-1.44,3-4.82,9.5-8.78,16.41-9.86,17.14-18.15,39.46-3.89,41.91,4.39.43,9.36-.79,14.69-3.31,18-7.28,39.1-28.15,53.5-49.39"/>
    <g class="cls-3">
      <path class="cls-2" d="M371.26,34.86l-.18,8.58h20.75V83.19h9.58V43.26h20.91v-8.4H371.26"/>
    </g>
    <g class="cls-4">
      <path class="cls-2" d="M333.9,57H312.32v-14H333.9c6,.18,8.92,3.43,8.92,6.85C343,53.89,340.07,56.8,333.9,57Zm1-22.26H302.2V83.19h10.12V65.54h15.25l7.37-.18c15.25.18,18.16-9.93,18.16-15.07,0-5-2.57-15.59-18.16-15.59"/>
    </g>
    <g class="cls-5">
      <path class="cls-2" d="M255.94,71.54,223.05,34.86h-12V83.19h9.6V46.69l33.06,36.5h11.65V34.86h-9.42V71.54"/>
    </g>
    <g class="cls-6">
      <path class="cls-2" d="M156.39,72.9,136.86,34.7H126.41l24.67,48.66h10.28l25-48.5H176.09l-19.7,38"/>
    </g>
  </g>
</svg>
