<svg id="Слой_1" data-name="Слой 1" xmlns="http://www.w3.org/2000/svg" viewBox="0 0 431.11 113.33">
  <defs>
    <style>
      .cls-1 {
        fill: #ec0080;
      }

      .cls-2 {
        fill: #8bc53f;
      }
    </style>
  </defs>
  <g>
    <path class="cls-1" d="M331.82,6.24h-3.69L305.61,41.8h19.27v7.56h6.94V41.8h4.76V34.52h-4.76Zm-6.94,28.28-7.12.06,7.12-12.1Z"/>
    <path class="cls-1" d="M361.62,24.16v7.28h8.74v8.24a14.18,14.18,0,0,1-4.2,2.15,15.26,15.26,0,0,1-4.59.7,14.43,14.43,0,0,1-5.77-1.15,14.68,14.68,0,0,1-7.87-7.87,14.78,14.78,0,0,1,0-11.43,14.7,14.7,0,0,1,7.87-7.86,14.42,14.42,0,0,1,5.76-1.15,14.88,14.88,0,0,1,10.25,4.09L377,12a23.2,23.2,0,0,0-7.14-4.65,21.71,21.71,0,0,0-8.32-1.62,21.49,21.49,0,0,0-8.62,1.74,22.68,22.68,0,0,0-7.06,4.73,21.91,21.91,0,0,0-4.76,7,21.52,21.52,0,0,0-1.74,8.62,21.57,21.57,0,0,0,1.74,8.63,22.18,22.18,0,0,0,4.76,7,22.74,22.74,0,0,0,7.06,4.73,21.48,21.48,0,0,0,8.62,1.73,21.71,21.71,0,0,0,8.32-1.62A23.2,23.2,0,0,0,377,43.65l.11-.33V24.16Z"/>
    <polygon class="cls-2" points="55.96 16.49 88.1 16.49 53.98 62.87 53.98 68.53 106.24 68.53 106.24 58.58 71.12 58.58 104.41 12.01 104.45 12 104.45 11.95 104.47 11.93 104.45 11.93 104.45 6.21 55.96 6.21 55.96 16.49"/>
    <path class="cls-2" d="M191.06,17.7h18c6.6-.07,12.07,2.82,11.57,11.78V68.53h11.68V28c.09-15.87-10.48-21.75-21.92-21.76H178.81V68.53h12.25Z"/>
    <path class="cls-2" d="M237.09,37.51c0,17.85,16.12,32.41,35.89,32.41a38.4,38.4,0,0,0,20.15-5.61l.09-.06V38.81H281.44V58.07A26.69,26.69,0,0,1,274,59.14c-13.42,0-24.37-9.88-24.37-22s10.95-22,24.37-22a26,26,0,0,1,14.62,4.42l4.65-8.78A38.43,38.43,0,0,0,273,5.11C253.21,5.11,237.09,19.67,237.09,37.51Z"/>
    <path class="cls-2" d="M173.3,37.58a32.47,32.47,0,1,0-35.13,32.34V58.48a21.09,21.09,0,1,1,5.34,0V69.92A32.52,32.52,0,0,0,173.3,37.58Z"/>
    <path class="cls-1" d="M178.81,107.4h3.61l1.45-3.3h7.67l1.45,3.3h3.6L187.7,87.08Zm6.5-6.6,2.39-5.49,2.39,5.49Z"/>
    <polygon class="cls-1" points="221.82 99.83 210.06 87.08 210.06 107.41 213.36 107.41 213.36 95.46 225.13 108.22 225.13 87.84 221.82 87.84 221.82 99.83"/>
    <polygon class="cls-1" points="230.21 107.41 242.4 107.41 242.4 104.1 233.51 104.1 233.51 99.28 241.39 99.28 241.39 95.97 233.51 95.97 233.51 91.14 242.4 91.14 242.4 87.84 230.21 87.84 230.21 107.41"/>
    <polygon class="cls-1" points="261.79 99.94 259.88 95.54 263.24 87.84 259.63 87.84 258.08 91.42 256.5 87.84 252.9 87.84 256.27 95.54 254.34 99.94 249.06 87.84 245.45 87.84 254.34 108.17 258.08 99.66 261.79 108.17 270.68 87.84 267.07 87.84 261.79 99.94"/>
    <path class="cls-1" d="M296.76,90.7a9.67,9.67,0,0,0-3.12-2.09,9.5,9.5,0,0,0-3.81-.77h-5.69v19.57h5.69a9.5,9.5,0,0,0,3.81-.76,9.77,9.77,0,0,0,5.21-5.21,9.84,9.84,0,0,0,0-7.63A9.73,9.73,0,0,0,296.76,90.7Zm-.95,9.45a6.4,6.4,0,0,1-1.39,2.06,6.46,6.46,0,0,1-4.58,1.89h-2.39v-13h2.39a6.32,6.32,0,0,1,2.53.51,6.57,6.57,0,0,1,3.44,3.44,6.32,6.32,0,0,1,.51,2.53A6.5,6.5,0,0,1,295.81,100.15Z"/>
    <path class="cls-1" d="M314.85,98.29A6.13,6.13,0,0,0,316.18,97a5.7,5.7,0,0,0,.72-5.68,5.67,5.67,0,0,0-1.23-1.83,5.78,5.78,0,0,0-1.83-1.23,5.67,5.67,0,0,0-2.21-.45h-7.69v19.57h3.3V99.28h2.36l4.06,8.13h3.82l-4.35-8.33A6,6,0,0,0,314.85,98.29ZM311.63,96h-4.39V91.15h4.39a2.28,2.28,0,0,1,.93.19,2.38,2.38,0,0,1,.77.52,2.14,2.14,0,0,1,.52.77,2.31,2.31,0,0,1,.19.93,2.26,2.26,0,0,1-.19.94,2.34,2.34,0,0,1-.52.76,2.55,2.55,0,0,1-.77.52A2.28,2.28,0,0,1,311.63,96Z"/>
    <polygon class="cls-1" points="321.8 107.41 333.99 107.41 333.99 104.1 325.1 104.1 325.1 99.28 332.98 99.28 332.98 95.97 325.1 95.97 325.1 91.14 333.99 91.14 333.99 87.84 321.8 87.84 321.8 107.41"/>
    <path class="cls-1" d="M337,107.4h3.61l1.45-3.3h7.67l1.45,3.3h3.61l-8.9-20.32Zm6.5-6.6,2.39-5.49,2.39,5.49Z"/>
    <polygon class="cls-1" points="358.51 87.08 358.51 107.41 361.81 107.41 361.81 97.17 367.82 104.97 373.83 97.17 373.83 107.41 377.13 107.41 377.13 87.08 367.82 99.81 358.51 87.08"/>
  </g>
</svg>
