<svg width="28" height="20" viewBox="0 0 28 20" fill="none" xmlns="http://www.w3.org/2000/svg">
<rect width="28" height="20" rx="2" fill="#3D3D3D"/>
<path d="M18.0448 10.7204C17.7904 10.3173 17.6066 9.87382 17.5013 9.40896V6.20184C17.4747 4.72067 16.2525 3.5415 14.7713 3.56807C14.7094 3.56919 14.6474 3.57244 14.5857 3.57783C12.704 3.57783 11.5629 4.41109 11.0975 6.12544C11.0553 6.28081 11.147 6.44104 11.3023 6.48332C11.3073 6.48469 11.3123 6.48589 11.3174 6.48698C11.9091 6.61736 12.5072 6.71661 13.1093 6.78437C13.2424 6.79298 13.3644 6.71013 13.4055 6.5832C13.5769 6.05372 13.707 5.91027 14.2942 5.91027C14.9752 5.91027 15.1403 6.26014 15.1653 7.08991C11.9448 7.26777 10.5039 8.16808 10.5039 9.99207C10.5039 11.3058 11.9145 12.3245 13.1279 12.3245C13.9645 12.3976 14.7952 12.1304 15.4324 11.5834C15.7492 11.8807 16.1134 12.1231 16.51 12.3006C16.5468 12.3164 16.5865 12.3245 16.6266 12.3245C16.704 12.3247 16.7783 12.294 16.833 12.2394L17.9993 11.0731C18.0927 10.9795 18.1114 10.8347 18.0448 10.7204ZM15.082 10.6388C14.8052 10.9481 14.417 11.1349 14.0026 11.1583C13.7367 11.1583 12.8679 11.0533 12.8364 9.70753C12.8335 9.43034 12.9448 9.16416 13.1443 8.97163C13.806 8.46284 14.6265 8.20465 15.4604 8.24272C15.6165 8.24256 15.7451 8.36545 15.752 8.52144C15.8358 9.28998 15.5926 10.0584 15.082 10.6388Z" fill="white"/>
<path d="M20.7832 12.4947C20.701 12.4737 18.7651 11.9757 17.8787 12.862C17.7669 12.9779 17.7701 13.1624 17.8859 13.2743C17.9989 13.3835 18.178 13.3835 18.291 13.2743C18.7575 12.8078 19.8228 12.8965 20.4048 13.0072C20.3546 13.6533 20.1587 14.6726 19.7301 14.8371C19.5789 14.8924 19.5012 15.0599 19.5566 15.2111C19.612 15.3623 19.7795 15.44 19.9307 15.3846C19.9332 15.3837 19.9357 15.3827 19.9383 15.3817C20.9191 15.0062 20.9954 13.0102 21.0007 12.7816C21.003 12.6473 20.9132 12.5288 20.7832 12.4947Z" fill="#FFC107"/>
<path d="M19.8337 13.9425C19.8337 13.6204 19.5726 13.3594 19.2506 13.3594C19.1318 13.3598 19.0161 13.3975 18.92 13.4673C14.9939 15.0282 11.5535 14.7443 7.43494 12.5197C7.29474 12.4405 7.11689 12.4899 7.0377 12.6302C6.97161 12.7472 6.99408 12.8942 7.09207 12.9862C9.13705 15.0009 11.403 16.0096 13.8673 16.0096C15.7824 15.9603 17.6574 15.4501 19.3334 14.5221C19.6214 14.4807 19.8349 14.2334 19.8337 13.9425Z" fill="#FFC107"/>
</svg>
