<svg width="28" height="20" viewBox="0 0 28 20" fill="none" xmlns="http://www.w3.org/2000/svg">
<rect width="28" height="20" rx="2" fill="#65459B"/>
<path d="M14 3C10.1552 3 7 6.1552 7 10C7 13.8448 10.1552 17 14 17C17.8448 17 21 13.8448 21 10C21 6.1552 17.8448 3 14 3ZM13.1797 15.2898C12.1195 15.1257 11.1645 14.6239 10.4076 13.932L13.1797 11.16V15.2898ZM13.1797 8.84002L9.37453 12.6452C8.92738 11.8651 8.64062 10.9636 8.64062 10C8.64062 7.33489 10.6254 5.10566 13.1797 4.71016V8.84002ZM14.8203 15.2898V11.16L17.5924 13.932C16.8355 14.6239 15.8805 15.1257 14.8203 15.2898ZM18.6255 12.6452L14.8203 8.84002V4.71016C17.3746 5.10566 19.3594 7.33489 19.3594 10C19.3594 10.9636 19.0726 11.8651 18.6255 12.6452V12.6452Z" fill="white"/>
</svg>
