<svg width="28" height="20" viewBox="0 0 28 20" fill="none" xmlns="http://www.w3.org/2000/svg">
<rect width="28" height="20" rx="2" fill="url(#paint0_linear_1344)"/>
<path d="M15.2363 7.10927C15.2363 7.12745 15.2363 7.14562 15.2372 7.16268L12.5941 11.0022C12.166 10.9827 11.7363 11.0578 11.329 11.2256C11.1494 11.2988 10.9811 11.3888 10.8232 11.4926L6.38805 9.66681C5.73309 9.39718 5.01345 9.87469 5.00941 10.583C5.00635 11.1199 5.0035 11.7339 5.00239 12.3008C5.00157 12.7208 5.2647 13.0955 5.65948 13.239L9.54773 14.6523C9.75374 15.573 10.3853 16.3805 11.3171 16.769C12.8416 17.4059 14.5994 16.68 15.2335 15.1548C15.3985 14.7562 15.4755 14.338 15.4644 13.9208L19.2462 11.2182C19.2768 11.2191 19.3083 11.22 19.3389 11.22C21.6021 11.22 23.4415 9.37502 23.4415 7.10927C23.4415 4.84334 21.6021 3 19.3389 3C17.0767 3 15.2363 4.84334 15.2363 7.10927ZM14.6021 14.8897C14.1113 16.0681 12.7571 16.6271 11.58 16.1367C11.037 15.9104 10.627 15.496 10.3905 15.0018L11.7261 15.5553C12.5941 15.9169 13.5901 15.5053 13.9509 14.6375C14.3129 13.7687 13.9022 12.7711 13.0346 12.4096L11.654 11.8375C12.1867 11.6354 12.7924 11.628 13.3582 11.8635C13.9287 12.1008 14.3713 12.5477 14.6058 13.1188C14.8404 13.6899 14.8395 14.3204 14.6021 14.8897ZM19.3389 9.84786C17.8323 9.84786 16.6057 8.6194 16.6057 7.10927C16.6057 5.60035 17.8323 4.37152 19.3389 4.37152C20.8464 4.37152 22.073 5.60035 22.073 7.10927C22.073 8.6194 20.8464 9.84786 19.3389 9.84786ZM17.2908 7.1051C17.2908 5.96908 18.2106 5.04768 19.3435 5.04768C20.4774 5.04768 21.3972 5.96908 21.3972 7.1051C21.3972 8.24122 20.4774 9.16178 19.3435 9.16178C18.2106 9.16178 17.2908 8.24122 17.2908 7.1051Z" fill="white"/>
<defs>
<linearGradient id="paint0_linear_1344" x1="14" y1="0" x2="14" y2="20" gradientUnits="userSpaceOnUse">
<stop stop-color="#0E1C30"/>
<stop offset="0.5" stop-color="#13396D"/>
<stop offset="1" stop-color="#137CAE"/>
</linearGradient>
</defs>
</svg>
