<svg width="28" height="20" viewBox="0 0 28 20" fill="none" xmlns="http://www.w3.org/2000/svg">
<rect width="28" height="20" rx="2" fill="#4B729F"/>
<g clip-path="url(#clip0)">
<path d="M18.6171 10.5997C18.3907 10.3139 18.4555 10.1867 18.6171 9.93125C18.62 9.92833 20.4884 7.3465 20.6809 6.47091L20.6821 6.47033C20.7777 6.15125 20.6821 5.91675 20.2195 5.91675H18.6888C18.2992 5.91675 18.1195 6.118 18.0232 6.34316C18.0232 6.34316 17.2439 8.20867 16.1414 9.41792C15.7856 9.76733 15.6211 9.87933 15.4268 9.87933C15.3312 9.87933 15.1824 9.76733 15.1824 9.44825V6.47033C15.1824 6.08766 15.0733 5.91675 14.7507 5.91675H12.3439C12.0995 5.91675 11.9542 6.09525 11.9542 6.2615C11.9542 6.62433 12.5055 6.70775 12.5627 7.72858V9.9435C12.5627 10.4288 12.4746 10.5181 12.2792 10.5181C11.7588 10.5181 10.4959 8.645 9.7475 6.50125C9.59642 6.08533 9.44883 5.91733 9.05625 5.91733H7.525C7.08808 5.91733 7 6.11858 7 6.34375C7 6.74158 7.52033 8.71967 9.41967 11.333C10.6855 13.1168 12.4682 14.0834 14.0898 14.0834C15.0646 14.0834 15.1836 13.8687 15.1836 13.4995C15.1836 11.795 15.0955 11.634 15.5837 11.634C15.8101 11.634 16.1997 11.746 17.1097 12.6064C18.1498 13.6267 18.3207 14.0834 18.9029 14.0834H20.4336C20.8699 14.0834 21.091 13.8687 20.9638 13.4452C20.6727 12.5545 18.7057 10.7222 18.6171 10.5997Z" fill="white"/>
</g>
<defs>
<clipPath id="clip0">
<rect width="14" height="14" fill="white" transform="translate(7 3)"/>
</clipPath>
</defs>
</svg>
