<svg width="28" height="20" viewBox="0 0 28 20" fill="none" xmlns="http://www.w3.org/2000/svg">
<rect width="28" height="20" rx="2" fill="url(#paint0_linear_1344)"/>
<path d="M12.9648 14.5664H11.4414L9.98828 9.45703C9.92578 9.23438 9.84766 8.91406 9.75391 8.49609C9.66016 8.07422 9.60352 7.78125 9.58398 7.61719C9.54492 7.86719 9.48047 8.19141 9.39062 8.58984C9.30469 8.98828 9.23242 9.28516 9.17383 9.48047L7.75586 14.5664H6.23242L5.125 10.2773L4 6H5.42969L6.6543 10.9922C6.8457 11.793 6.98242 12.5 7.06445 13.1133C7.10742 12.7812 7.17188 12.4102 7.25781 12C7.34375 11.5898 7.42188 11.2578 7.49219 11.0039L8.88672 6H10.2754L11.7051 11.0273C11.8418 11.4922 11.9863 12.1875 12.1387 13.1133C12.1973 12.5547 12.3379 11.8438 12.5605 10.9805L13.7793 6H15.1973L12.9648 14.5664Z" fill="white"/>
<path d="M16.416 6H18.959C20.1387 6 20.9902 6.17188 21.5137 6.51562C22.041 6.85938 22.3047 7.40234 22.3047 8.14453C22.3047 8.64453 22.1758 9.06055 21.918 9.39258C21.6602 9.72461 21.2891 9.93359 20.8047 10.0195V10.0781C21.4062 10.1914 21.8477 10.416 22.1289 10.752C22.4141 11.084 22.5566 11.5352 22.5566 12.1055C22.5566 12.875 22.2871 13.4785 21.748 13.916C21.2129 14.3496 20.4668 14.5664 19.5098 14.5664H16.416V6ZM17.8164 9.53906H19.1641C19.75 9.53906 20.1777 9.44727 20.4473 9.26367C20.7168 9.07617 20.8516 8.75977 20.8516 8.31445C20.8516 7.91211 20.7051 7.62109 20.4121 7.44141C20.123 7.26172 19.6621 7.17188 19.0293 7.17188H17.8164V9.53906ZM17.8164 10.6758V13.3887H19.3047C19.8906 13.3887 20.332 13.2773 20.6289 13.0547C20.9297 12.8281 21.0801 12.4727 21.0801 11.9883C21.0801 11.543 20.9277 11.2129 20.623 10.998C20.3184 10.7832 19.8555 10.6758 19.2344 10.6758H17.8164Z" fill="white"/>
<defs>
<linearGradient id="paint0_linear_1344" x1="0" y1="10" x2="28" y2="10" gradientUnits="userSpaceOnUse">
<stop stop-color="#F82182"/>
<stop offset="1" stop-color="#571483"/>
</linearGradient>
</defs>
</svg>
