<svg width="28" height="20" viewBox="0 0 28 20" fill="none" xmlns="http://www.w3.org/2000/svg">
<rect width="28" height="20" rx="2" fill="#5D6C83"/>
<path d="M16.8395 11.7502C16.9154 11.1668 16.9154 10.5835 16.9154 10.0002C16.9154 9.41683 16.8862 8.8335 16.8395 8.25016H20.1645C20.499 9.39286 20.499 10.6075 20.1645 11.7502H16.8395ZM15.5329 7.0835C15.1654 4.80266 14.4362 3.5835 13.9987 3.5835C13.5612 3.5835 12.832 4.80266 12.4645 7.0835H15.5329ZM12.4645 12.9168C12.8262 15.1977 13.5612 16.4168 13.9987 16.4168C14.4362 16.4168 15.1654 15.1977 15.5329 12.9168H12.4645ZM15.6729 8.25016H12.3245C12.2779 8.79266 12.2487 9.37016 12.2487 10.0002C12.2487 10.6302 12.2779 11.2077 12.3245 11.7502H15.6729C15.7195 11.2077 15.7487 10.6302 15.7487 10.0002C15.7487 9.37016 15.7487 8.79266 15.6729 8.25016ZM11.082 10.0002C11.082 9.41683 11.082 8.8335 11.1579 8.25016H7.83287C7.49842 9.39286 7.49842 10.6075 7.83287 11.7502H11.1579C11.1112 11.1668 11.082 10.5835 11.082 10.0002ZM11.292 12.9168H8.28787C8.69014 13.7003 9.2494 14.3926 9.93083 14.9506C10.6123 15.5086 11.4013 15.9203 12.2487 16.1602C11.76 15.1366 11.4371 14.0418 11.292 12.9168ZM16.7054 12.9168C16.5603 14.0418 16.2374 15.1366 15.7487 16.1602C16.5961 15.9203 17.3851 15.5086 18.0666 14.9506C18.748 14.3926 19.3073 13.7003 19.7095 12.9168H16.7054ZM16.7054 7.0835H19.7095C19.3073 6.3 18.748 5.60771 18.0666 5.04972C17.3851 4.49174 16.5961 4.08001 15.7487 3.84016C16.2374 4.86376 16.5603 5.95853 16.7054 7.0835ZM11.292 7.0835C11.4371 5.95853 11.76 4.86376 12.2487 3.84016C11.4013 4.08001 10.6123 4.49174 9.93083 5.04972C9.2494 5.60771 8.69014 6.3 8.28787 7.0835H11.292Z" fill="url(#paint0_linear)"/>
<defs>
<linearGradient id="paint0_linear" x1="11.6778" y1="3.5835" x2="17.4509" y2="5.84056" gradientUnits="userSpaceOnUse">
<stop stop-color="#08EE7F"/>
<stop offset="1" stop-color="#20CF92"/>
</linearGradient>
</defs>
</svg>
