<svg width="68" height="67" viewBox="0 0 68 67" fill="none" xmlns="http://www.w3.org/2000/svg">
<path d="M33.8859 66.3729H0.730469V33.2165C0.730469 15.0509 15.7063 0.0629883 33.8859 0.0629883C52.3385 0.0629883 67.0384 15.0509 67.0384 33.2165C67.0384 51.6721 52.3385 66.3729 33.8859 66.3729Z" fill="#20CF92"/>
<path d="M20.2316 45.0651C19.3334 45.0651 18.5959 45.8085 18.5959 46.7068V48.3426H20.2316C21.145 48.3426 21.8734 47.6202 21.8734 46.7068C21.8734 45.8085 21.145 45.0651 20.2316 45.0651ZM36.9261 45.0651C36.0137 45.0651 35.2843 45.8085 35.2843 46.7068V48.3426H36.9261C37.8243 48.3426 38.5558 47.6202 38.5558 46.7068C38.5558 45.8085 37.8243 45.0651 36.9261 45.0651ZM3.98828 45.2575V63.1066H10.6215C14.1766 63.0524 17.0563 60.1486 17.0563 56.5816C17.0563 52.9984 14.1706 50.1007 10.6155 50.0505H10.5133C9.2316 50.0505 8.04199 50.4185 7.02527 51.0548V45.2575H3.98828ZM24.9525 45.2635V50.4595H23.4731V53.1537H24.9525V63.1186H27.9955V53.1537H29.8177V50.4595H27.9955V45.2635H24.9525ZM37.0704 50.0325C33.2624 50.0465 30.3229 53.1365 30.3229 56.8943C30.3229 60.5868 33.3428 63.5756 37.0463 63.5756H37.0704C39.6197 63.5596 42.1138 61.9157 43.0181 59.805H39.4759C38.7994 60.36 37.9215 60.695 37.0704 60.695H37.0463C35.6653 60.695 34.0441 59.8154 33.5523 58.061H37.0704H43.4571C43.5223 57.6133 43.6014 57.1625 43.6014 56.7078C43.6014 53.1508 40.7077 50.0325 37.0824 50.0325H37.0704H37.0704ZM18.5959 50.4595V63.1186H21.6509V50.4595H18.5959ZM10.6215 52.853C12.656 52.8539 14.308 54.504 14.308 56.5395C14.308 58.5719 12.65 60.2259 10.6155 60.2259H6.91702V56.5455C6.91702 54.508 8.57304 52.853 10.6215 52.853ZM37.0704 52.859C38.7586 52.859 40.1779 53.9865 40.6426 55.5291H33.4982C33.9498 53.9865 35.3842 52.859 37.0704 52.859Z" fill="white"/>
</svg>
