<svg width="45" height="9" viewBox="0 0 45 9" fill="none" xmlns="http://www.w3.org/2000/svg">
<path d="M42.5732 0.103875L38.6174 5.19214L34.5007 0.103875H32.2142L37.5064 6.59303L36.1055 8.34279H38.1881L44.8007 0.103875H42.5732ZM24.7535 5.43904L27.2601 1.51549L29.6754 5.43904H24.7535ZM26.2027 0.0985069L21.05 8.31596L23.0896 8.33206L23.9752 6.89897H30.5718L31.4574 8.33206H33.5292L28.2906 0.0985069H26.2027ZM13.7182 0.0931396H11.9201V8.28912H11.9416V8.31059H20.041V6.81846H13.7182V0.0931396ZM8.25958 5.01502H2.67751V1.60137H8.26495C8.60309 1.99856 8.84462 2.71242 8.84462 3.3565C8.83389 3.95765 8.56552 4.6071 8.25958 5.01502ZM8.87683 0.109242H0.949219V8.30522H2.67751V6.48568H8.95197C8.95197 6.48568 10.4334 5.50345 10.4387 3.30283C10.4387 1.22029 8.87683 0.109242 8.87683 0.109242Z" fill="#595959"/>
</svg>
