<svg width="28" height="20" viewBox="0 0 28 20" fill="none" xmlns="http://www.w3.org/2000/svg">
<rect width="28" height="20" rx="2" fill="#5D6C83"/>
<path d="M17.2552 7.97778L15.0078 15.469L21.0008 7.97778H17.2552Z" fill="url(#paint0_linear)"/>
<path d="M10.7456 7.97778H7L12.993 15.469L10.7456 7.97778Z" fill="url(#paint1_linear)"/>
<path d="M20.8632 7.15208L17.8796 4.16846C17.8026 4.09154 17.6983 4.04834 17.5895 4.04834H16.0703L17.2342 7.15208H20.8632Z" fill="url(#paint2_linear)"/>
<path d="M10.7657 7.15208L11.9296 4.04834H10.4103C10.3016 4.04834 10.1972 4.09154 10.1203 4.16846L7.13672 7.15208H10.7657Z" fill="url(#paint3_linear)"/>
<path d="M16.3918 7.97778H11.6074L13.9996 15.9518L16.3918 7.97778Z" fill="url(#paint4_linear)"/>
<path d="M11.6484 7.15208H16.3511L15.1872 4.04834H12.8124L11.6484 7.15208Z" fill="url(#paint5_linear)"/>
<defs>
<linearGradient id="paint0_linear" x1="16.9205" y1="7.97778" x2="19.7516" y2="8.86326" gradientUnits="userSpaceOnUse">
<stop stop-color="#08EE7F"/>
<stop offset="1" stop-color="#20CF92"/>
</linearGradient>
<linearGradient id="paint1_linear" x1="8.91265" y1="7.97778" x2="11.7438" y2="8.86326" gradientUnits="userSpaceOnUse">
<stop stop-color="#08EE7F"/>
<stop offset="1" stop-color="#20CF92"/>
</linearGradient>
<linearGradient id="paint2_linear" x1="17.6" y1="4.04834" x2="19.4216" y2="5.14814" gradientUnits="userSpaceOnUse">
<stop stop-color="#08EE7F"/>
<stop offset="1" stop-color="#20CF92"/>
</linearGradient>
<linearGradient id="paint3_linear" x1="8.66635" y1="4.04834" x2="10.488" y2="5.14813" gradientUnits="userSpaceOnUse">
<stop stop-color="#08EE7F"/>
<stop offset="1" stop-color="#20CF92"/>
</linearGradient>
<linearGradient id="paint4_linear" x1="13.1344" y1="7.97778" x2="15.4862" y2="8.52947" gradientUnits="userSpaceOnUse">
<stop stop-color="#08EE7F"/>
<stop offset="1" stop-color="#20CF92"/>
</linearGradient>
<linearGradient id="paint5_linear" x1="13.1493" y1="4.04834" x2="14.9547" y2="5.11779" gradientUnits="userSpaceOnUse">
<stop stop-color="#08EE7F"/>
<stop offset="1" stop-color="#20CF92"/>
</linearGradient>
</defs>
</svg>
