<svg width="47" height="24" viewBox="0 0 47 24" fill="none" xmlns="http://www.w3.org/2000/svg">
<path d="M40.5 0.5C38.1 0.5 36.1 2.5 36.1 4.9C36.1 5.4 36.2 5.8 36.3 6.3L26.9 13.4C26.1 12.7 25.1 12.3 23.9 12.3C22.6 12.3 21.5 12.8 20.7 13.7L8.8 8.6C8.8 8.5 8.8 8.4 8.8 8.3C8.8 5.9 6.8 3.9 4.4 3.9C2 3.9 0 5.8 0 8.2C0 10.6 2 12.6 4.4 12.6C5.7 12.6 6.9 12 7.7 11.1L19.6 16.2C19.6 16.3 19.6 16.5 19.6 16.6C19.6 19 21.6 21 24 21C26.4 21 28.4 19 28.4 16.6C28.4 16.4 28.4 16.1 28.3 15.9L38 8.5C38.7 9 39.6 9.3 40.5 9.3C42.9 9.3 44.9 7.3 44.9 4.9C44.9 2.5 42.9 0.5 40.5 0.5ZM4.4 10.4C3.2 10.4 2.2 9.4 2.2 8.2C2.2 7 3.2 6 4.4 6C5.6 6 6.6 7 6.6 8.2C6.6 9.4 5.6 10.4 4.4 10.4ZM23.9 18.9C22.7 18.9 21.7 17.9 21.7 16.7C21.7 15.5 22.7 14.5 23.9 14.5C25.1 14.5 26.1 15.5 26.1 16.7C26.1 17.9 25.1 18.9 23.9 18.9ZM40.5 7.1C39.3 7.1 38.3 6.1 38.3 4.9C38.3 3.7 39.3 2.7 40.5 2.7C41.7 2.7 42.7 3.7 42.7 4.9C42.7 6.1 41.7 7.1 40.5 7.1Z" fill="url(#paint0_linear)"/>
<path d="M25.8008 4.4C25.8008 2 23.8008 0 21.4008 0C19.0008 0 17.0008 2 17.0008 4.4C17.0008 5 17.1008 5.6 17.3008 6.1L13.3008 9.7L16.1008 10.9L19.1008 8.2C19.7008 8.6 20.5008 8.8 21.3008 8.8C22.4008 8.8 23.3008 8.4 24.1008 7.8L28.5008 11.1L30.8008 9.3L25.6008 5.4C25.8008 5.1 25.8008 4.7 25.8008 4.4ZM21.4008 6.6C20.2008 6.6 19.2008 5.6 19.2008 4.4C19.2008 3.2 20.2008 2.2 21.4008 2.2C22.6008 2.2 23.6008 3.2 23.6008 4.4C23.6008 5.6 22.7008 6.6 21.4008 6.6Z" fill="#DEEBF4"/>
<path d="M41.6004 14.6C40.7004 14.6 39.8004 14.9 39.1004 15.4L34.7004 12L32.4004 13.8L37.5004 17.6C37.4004 18 37.3004 18.5 37.3004 19C37.3004 21.4 39.3004 23.4 41.7004 23.4C44.1004 23.4 46.1004 21.4 46.1004 19C46.1004 16.6 44.0004 14.6 41.6004 14.6ZM41.6004 21.2C40.4004 21.2 39.4004 20.2 39.4004 19C39.4004 17.8 40.4004 16.8 41.6004 16.8C42.8004 16.8 43.8004 17.8 43.8004 19C43.8004 20.2 42.8004 21.2 41.6004 21.2Z" fill="#DEEBF4"/>
<path d="M9.8 12.8999L6.6 15.7999C6 15.3999 5.2 15.1999 4.4 15.1999C2 15.1999 0 17.1999 0 19.5999C0 21.9999 2 23.9999 4.4 23.9999C6.8 23.9999 8.8 21.9999 8.8 19.5999C8.8 18.9999 8.7 18.3999 8.5 17.8999L12.7 14.0999L9.8 12.8999ZM4.4 21.7999C3.2 21.7999 2.2 20.7999 2.2 19.5999C2.2 18.3999 3.2 17.3999 4.4 17.3999C5.6 17.3999 6.6 18.3999 6.6 19.5999C6.6 20.7999 5.6 21.7999 4.4 21.7999Z" fill="#DEEBF4"/>
<defs>
<linearGradient id="paint0_linear" x1="14.3298" y1="0.5" x2="27.7647" y2="12.0042" gradientUnits="userSpaceOnUse">
<stop stop-color="#08EE7F"/>
<stop offset="1" stop-color="#20CF92"/>
</linearGradient>
</defs>
</svg>
