<svg width="94" height="28" viewBox="0 0 94 28" fill="none" xmlns="http://www.w3.org/2000/svg">
<g clip-path="url(#clip0)">
<path fill-rule="evenodd" clip-rule="evenodd" d="M58.571 21.8968C53.1666 25.8766 45.3333 28 38.5889 28C29.1323 28 20.6188 24.5055 14.1781 18.6936C13.6721 18.2366 14.1255 17.6137 14.7327 17.9696C21.6835 22.0101 30.2779 24.4408 39.1557 24.4408C45.143 24.4408 51.7295 23.2032 57.7856 20.6349C58.7005 20.2467 59.4657 21.2335 58.571 21.8968Z" fill="#FF9900"/>
<path fill-rule="evenodd" clip-rule="evenodd" d="M60.8167 19.3286C60.1285 18.4469 56.2503 18.912 54.5096 19.1183C53.9793 19.183 53.8983 18.7219 54.376 18.3903C57.4648 16.2184 62.5332 16.8453 63.1242 17.5733C63.7152 18.3053 62.9704 23.3812 60.0678 25.8038C59.6225 26.1759 59.1974 25.9777 59.3958 25.4843C60.0476 23.8584 61.509 20.2143 60.8167 19.3286Z" fill="#FF9900"/>
<path fill-rule="evenodd" clip-rule="evenodd" d="M54.6312 3.05745V0.946225C54.6312 0.626711 54.8741 0.412354 55.1656 0.412354H64.6263C64.9299 0.412354 65.1728 0.630756 65.1728 0.946225V2.75411C65.1687 3.05745 64.9137 3.45381 64.4603 4.0807L59.5579 11.0736C61.3796 11.0291 63.3025 11.3001 64.9542 12.2303C65.3266 12.4407 65.4278 12.748 65.4562 13.0514V15.3042C65.4562 15.6115 65.1161 15.9715 64.7599 15.7854C61.8492 14.2607 57.9831 14.0949 54.7648 15.8016C54.4369 15.9796 54.0928 15.6237 54.0928 15.3163V13.1768C54.0928 12.833 54.0968 12.2465 54.4409 11.7248L60.1206 3.58728H55.1777C54.8741 3.58728 54.6312 3.37292 54.6312 3.05745Z" fill="#122839"/>
<path fill-rule="evenodd" clip-rule="evenodd" d="M20.12 16.2304H17.2417C16.9664 16.2102 16.7478 16.0039 16.7275 15.741V0.982674C16.7275 0.687426 16.9745 0.452845 17.2821 0.452845H19.9661C20.2455 0.46497 20.4681 0.679335 20.4883 0.946271V2.87549H20.541C21.2413 1.01098 22.557 0.141418 24.3301 0.141418C26.1316 0.141418 27.257 1.01098 28.0666 2.87549C28.7629 1.01098 30.3458 0.141418 32.042 0.141418C33.2484 0.141418 34.5681 0.63889 35.3737 1.75517C36.2845 2.99682 36.0983 4.80066 36.0983 6.38206L36.0943 15.6965C36.0943 15.9918 35.8473 16.2304 35.5397 16.2304H32.6654C32.378 16.2102 32.1473 15.9796 32.1473 15.6965V7.87447C32.1473 7.25162 32.2039 5.69854 32.0663 5.10804C31.8517 4.11715 31.2081 3.83808 30.3741 3.83808C29.6778 3.83808 28.9491 4.30319 28.6536 5.04738C28.3581 5.79156 28.3864 7.03726 28.3864 7.87447V15.6965C28.3864 15.9918 28.1395 16.2304 27.8318 16.2304H24.9576C24.6661 16.2102 24.4394 15.9796 24.4394 15.6965L24.4354 7.87447C24.4354 6.22837 24.7066 3.80572 22.6623 3.80572C20.5936 3.80572 20.6746 6.1677 20.6746 7.87447V15.6965C20.6746 15.9918 20.4276 16.2304 20.12 16.2304" fill="#122839"/>
<path fill-rule="evenodd" clip-rule="evenodd" d="M73.318 0.141418C77.5889 0.141418 79.9004 3.80572 79.9004 8.46497C79.9004 12.9665 77.346 16.5378 73.318 16.5378C69.124 16.5378 66.8408 12.8735 66.8408 8.30723C66.8408 3.7127 69.1524 0.141418 73.318 0.141418ZM73.3423 3.15456C71.221 3.15456 71.0874 6.04232 71.0874 7.84212C71.0874 9.64596 71.0591 13.4963 73.318 13.4963C75.5486 13.4963 75.6538 10.3901 75.6538 8.49732C75.6538 7.25162 75.6012 5.76325 75.2247 4.58226C74.9009 3.55496 74.2572 3.15456 73.3423 3.15456Z" fill="#122839"/>
<path fill-rule="evenodd" clip-rule="evenodd" d="M85.4382 16.2304H82.572C82.2846 16.2102 82.0538 15.9796 82.0538 15.6965L82.0498 0.934137C82.0741 0.663157 82.3129 0.452845 82.6044 0.452845H85.2722C85.5232 0.46497 85.7296 0.634847 85.7863 0.865382V3.1222H85.8389C86.6445 1.10401 87.774 0.141418 89.7617 0.141418C91.0531 0.141418 92.3121 0.606535 93.1217 1.88055C93.8747 3.06154 93.8747 5.04738 93.8747 6.47508V15.7653C93.8423 16.0241 93.6035 16.2304 93.3201 16.2304H90.4337C90.1706 16.2102 89.952 16.016 89.9236 15.7653V7.74909C89.9236 6.13534 90.1098 3.77336 88.1221 3.77336C87.4218 3.77336 86.7781 4.24253 86.4583 4.95435C86.0535 5.85628 86.0009 6.75415 86.0009 7.74909V15.6965C85.9968 15.9918 85.7458 16.2304 85.4382 16.2304" fill="#122839"/>
<path fill-rule="evenodd" clip-rule="evenodd" d="M47.0895 9.18086C47.0895 10.3012 47.1178 11.2355 46.5511 12.2304C46.0936 13.0393 45.3649 13.5368 44.5593 13.5368C43.4541 13.5368 42.8064 12.6955 42.8064 11.4539C42.8064 9.00291 45.0046 8.55801 47.0895 8.55801V9.18086ZM49.9921 16.19C49.8018 16.3598 49.5265 16.372 49.312 16.2587C48.3566 15.466 48.1825 15.0979 47.6603 14.3416C46.0815 15.9513 44.9601 16.4326 42.9157 16.4326C40.4908 16.4326 38.6084 14.9402 38.6084 11.9513C38.6084 9.61767 39.8715 8.02818 41.677 7.25164C43.2396 6.56408 45.4216 6.44275 47.0895 6.25266V5.88056C47.0895 5.19704 47.1421 4.38814 46.7373 3.79765C46.3891 3.26782 45.7171 3.04942 45.122 3.04942C44.0249 3.04942 43.0493 3.6116 42.8105 4.77642C42.7619 5.03527 42.5716 5.29007 42.3085 5.3022L39.5193 5.00291C39.2845 4.95033 39.0213 4.76024 39.0901 4.40028C39.7298 1.01909 42.7902 -0.00012207 45.5268 -0.00012207C46.9275 -0.00012207 48.7573 0.371971 49.8625 1.43163C51.2632 2.738 51.1296 4.48117 51.1296 6.37803V10.8593C51.1296 12.2061 51.6883 12.7966 52.2145 13.5246C52.3967 13.7835 52.4372 14.0949 52.2024 14.289C51.6154 14.7784 50.5709 15.6884 49.9961 16.198L49.9921 16.1899" fill="#122839"/>
<path fill-rule="evenodd" clip-rule="evenodd" d="M9.35604 9.18123C9.35604 10.3016 9.38438 11.2358 8.81763 12.2308C8.36018 13.0397 7.63554 13.5371 6.8259 13.5371C5.72073 13.5371 5.07706 12.6959 5.07706 11.4542C5.07706 9.00327 7.27525 8.55838 9.35604 8.55838V9.18123ZM12.2586 16.1903C12.0684 16.3602 11.7931 16.3723 11.5785 16.2591C10.6231 15.4664 10.4531 15.0983 9.92684 14.342C8.34803 15.9517 7.23072 16.433 5.18232 16.433C2.76147 16.433 0.875 14.9406 0.875 11.9517C0.875 9.61804 2.1421 8.02855 3.94356 7.25201C5.50617 6.56445 7.68817 6.44311 9.35604 6.25302V5.88093C9.35604 5.19741 9.40867 4.38851 9.0079 3.79802C8.6557 3.26819 7.98369 3.04979 7.39265 3.04979C6.29558 3.04979 5.31591 3.61197 5.07706 4.77678C5.02848 5.03563 4.83822 5.29043 4.57913 5.30257L1.78585 5.00327C1.55105 4.9507 1.29197 4.7606 1.35674 4.40065C2.00041 1.01946 5.05682 0.000244141 7.79343 0.000244141C9.19411 0.000244141 11.0239 0.372338 12.1291 1.43199C13.5298 2.73836 13.3962 4.48154 13.3962 6.3784V10.8597C13.3962 12.2065 13.9548 12.797 14.4811 13.525C14.6673 13.7839 14.7078 14.0953 14.473 14.2894C13.886 14.7788 12.8416 15.6888 12.2667 16.1984L12.2586 16.1903" fill="#122839"/>
</g>
<defs>
<clipPath id="clip0">
<rect width="93" height="28" fill="white" transform="translate(0.875)"/>
</clipPath>
</defs>
</svg>
