<svg width="77" height="26" viewBox="0 0 77 26" fill="none" xmlns="http://www.w3.org/2000/svg">
<g clip-path="url(#clip0)">
<path d="M33.217 13.3335C33.217 16.9424 30.4257 19.6018 27.0001 19.6018C23.5745 19.6018 20.7832 16.9424 20.7832 13.3335C20.7832 9.69916 23.5745 7.06525 27.0001 7.06525C30.4257 7.06525 33.217 9.69916 33.217 13.3335ZM30.4956 13.3335C30.4956 11.0783 28.8778 9.53525 27.0001 9.53525C25.1225 9.53525 23.5047 11.0783 23.5047 13.3335C23.5047 15.5661 25.1225 17.1318 27.0001 17.1318C28.8778 17.1318 30.4956 15.5633 30.4956 13.3335Z" fill="#EA4335"/>
<path d="M46.6282 13.3335C46.6282 16.9424 43.8368 19.6018 40.4113 19.6018C36.9857 19.6018 34.1943 16.9424 34.1943 13.3335C34.1943 9.70199 36.9857 7.06525 40.4113 7.06525C43.8368 7.06525 46.6282 9.69916 46.6282 13.3335ZM43.9067 13.3335C43.9067 11.0783 42.2889 9.53525 40.4113 9.53525C38.5336 9.53525 36.9158 11.0783 36.9158 13.3335C36.9158 15.5661 38.5336 17.1318 40.4113 17.1318C42.2889 17.1318 43.9067 15.5633 43.9067 13.3335Z" fill="#FBBC05"/>
<path d="M59.4822 7.44394V18.6974C59.4822 23.3266 56.783 25.2172 53.5922 25.2172C50.5885 25.2172 48.7807 23.1852 48.0989 21.5235L50.4683 20.5259C50.8902 21.5461 51.9241 22.75 53.5894 22.75C55.6319 22.75 56.8976 21.4755 56.8976 19.0761V18.1746H56.8026C56.1935 18.9348 55.0199 19.5989 53.5391 19.5989C50.4404 19.5989 47.6016 16.8689 47.6016 13.3561C47.6016 9.81785 50.4404 7.06525 53.5391 7.06525C55.0172 7.06525 56.1907 7.72938 56.8026 8.46699H56.8976V7.44677H59.4822V7.44394ZM57.0904 13.3561C57.0904 11.1489 55.6347 9.53525 53.7822 9.53525C51.9045 9.53525 50.3314 11.1489 50.3314 13.3561C50.3314 15.5407 51.9045 17.1318 53.7822 17.1318C55.6347 17.1318 57.0904 15.5407 57.0904 13.3561Z" fill="#4285F4"/>
<path d="M63.7423 0.8479V19.2175H61.0879V0.8479H63.7423Z" fill="#34A853"/>
<path d="M74.0868 15.3966L76.1991 16.8209C75.5174 17.8411 73.8744 19.599 71.0356 19.599C67.515 19.599 64.8857 16.8464 64.8857 13.3307C64.8857 9.60309 67.5374 7.06244 70.731 7.06244C73.9471 7.06244 75.5202 9.65113 76.0343 11.05L76.3165 11.7622L68.0319 15.2327C68.6662 16.4903 69.6525 17.1318 71.0356 17.1318C72.4215 17.1318 73.3827 16.4422 74.0868 15.3966ZM67.5849 13.1414L73.1228 10.8155C72.8182 10.0327 71.9018 9.48722 70.8232 9.48722C69.4402 9.48722 67.515 10.7222 67.5849 13.1414Z" fill="#EA4335"/>
<path d="M10.7354 11.7022V9.04286H19.5956C19.6822 9.50633 19.7269 10.0546 19.7269 10.6481C19.7269 12.6433 19.1876 15.1105 17.4497 16.8683C15.7593 18.6487 13.5994 19.5983 10.7382 19.5983C5.435 19.5983 0.975586 15.2292 0.975586 9.86525C0.975586 4.50133 5.435 0.132202 10.7382 0.132202C13.6721 0.132202 15.7621 1.29655 17.3324 2.81416L15.4771 4.69068C14.351 3.62242 12.8254 2.79155 10.7354 2.79155C6.86279 2.79155 3.83397 5.94829 3.83397 9.86525C3.83397 13.7822 6.86279 16.9389 10.7354 16.9389C13.2474 16.9389 14.6779 15.9187 15.5944 14.9918C16.3376 14.24 16.8266 13.1661 17.0194 11.6994L10.7354 11.7022Z" fill="#4285F4"/>
</g>
<defs>
<clipPath id="clip0">
<rect width="76" height="26" fill="white" transform="translate(0.875)"/>
</clipPath>
</defs>
</svg>
