<svg width="90" height="90" viewBox="0 0 90 90" fill="none" xmlns="http://www.w3.org/2000/svg">
<rect width="90" height="90" rx="5" fill="#0A17A7"/>
<rect width="84" height="60" rx="2" fill="white"/>
<mask id="mask0" style="mask-type:alpha" maskUnits="userSpaceOnUse" x="0" y="0" width="90" height="90">
<rect width="90" height="90" rx="2" fill="white"/>
</mask>
<g mask="url(#mask0)">
<rect width="130" height="60" fill="#0A17A7"/>
<path d="M0 -0.333333H-0.901086L-0.21693 0.253086L13.6667 12.1533V15.8285L-0.193746 25.7288L-0.333333 25.8285V26V28V28.6014L0.176666 28.2827L16.0956 18.3333H19.8932L33.7193 28.2092C33.8324 28.2899 33.9679 28.3333 34.1068 28.3333H35.0989C35.7178 28.3333 36.0027 27.5633 35.5328 27.1605L22.3333 15.8467V12.1715L36.0542 2.37095C36.2294 2.24581 36.3333 2.04376 36.3333 1.82846V0V-0.601416L35.8233 -0.282666L19.9044 9.66667H16.1068L2.19375 -0.271244L2.10682 -0.333333H2H0Z" fill="#FF2E3B" stroke="white" stroke-width="0.666667"/>
<path fill-rule="evenodd" clip-rule="evenodd" d="M0 10V18H14V29.3333C14 29.7015 14.2985 30 14.6667 30H21.3333C21.7015 30 22 29.7015 22 29.3333V18H37.3333C37.7015 18 38 17.7015 38 17.3333V10.6667C38 10.2985 37.7015 10 37.3333 10H22V0H14V10H0Z" fill="url(#paint0_linear)"/>
<path fill-rule="evenodd" clip-rule="evenodd" d="M0 12H16V10V0H20V10V12H36V16H20V18V28H16V18V16H0V12Z" fill="url(#paint1_linear)"/>
<path fill-rule="evenodd" clip-rule="evenodd" d="M26 51L22.4733 52.8541L23.1468 48.9271L20.2937 46.1459L24.2366 45.5729L26 42L27.7634 45.5729L31.7063 46.1459L28.8532 48.9271L29.5267 52.8541L26 51Z" fill="white"/>
<path fill-rule="evenodd" clip-rule="evenodd" d="M76 67L73.1716 67.8284L74 65L73.1716 62.1716L76 63L78.8284 62.1716L78 65L78.8284 67.8284L76 67Z" fill="white"/>
<path fill-rule="evenodd" clip-rule="evenodd" d="M80 43.9999L77.1716 44.8283L78 41.9999L77.1716 39.1715L80 39.9999L82.8284 39.1715L82 41.9999L82.8284 44.8283L80 43.9999Z" fill="white"/>
<path fill-rule="evenodd" clip-rule="evenodd" d="M52 45.9999L49.1716 46.8283L50 43.9999L49.1716 41.1715L52 41.9999L54.8284 41.1715L54 43.9999L54.8284 46.8283L52 45.9999Z" fill="white"/>
<path fill-rule="evenodd" clip-rule="evenodd" d="M66 24L63.1716 24.8284L64 22L63.1716 19.1716L66 20L68.8284 19.1716L68 22L68.8284 24.8284L66 24Z" fill="white"/>
<path fill-rule="evenodd" clip-rule="evenodd" d="M46 74.9999L44.5858 75.4141L45 73.9999L44.5858 72.5857L46 72.9999L47.4142 72.5857L47 73.9999L47.4142 75.4141L46 74.9999Z" fill="white"/>
</g>
<defs>
<linearGradient id="paint0_linear" x1="0" y1="0" x2="0" y2="30" gradientUnits="userSpaceOnUse">
<stop stop-color="white"/>
<stop offset="1" stop-color="#F0F0F0"/>
</linearGradient>
<linearGradient id="paint1_linear" x1="0" y1="0" x2="0" y2="28" gradientUnits="userSpaceOnUse">
<stop stop-color="#FF2E3B"/>
<stop offset="1" stop-color="#FC0D1B"/>
</linearGradient>
</defs>
</svg>
