<svg width="90" height="90" viewBox="0 0 90 90" fill="none" xmlns="http://www.w3.org/2000/svg">
<rect width="90" height="90" rx="5" fill="#FF0000"/>
<path fill-rule="evenodd" clip-rule="evenodd" d="M40.3333 49.6667H31.3333C31.1492 49.6667 31 49.5174 31 49.3333V40.6667C31 40.4826 31.1492 40.3333 31.3333 40.3333H40.3333V31.3333C40.3333 31.1492 40.4826 31 40.6667 31H49.3333C49.5174 31 49.6667 31.1492 49.6667 31.3333V40.3333H58.6667C58.8508 40.3333 59 40.4826 59 40.6667V49.3333C59 49.5174 58.8508 49.6667 58.6667 49.6667H49.6667V58.6667C49.6667 58.8508 49.5174 59 49.3333 59H40.6667C40.4826 59 40.3333 58.8508 40.3333 58.6667V49.6667Z" fill="white"/>
</svg>
