<svg width="90" height="90" viewBox="0 0 90 90" fill="none" xmlns="http://www.w3.org/2000/svg">
<rect width="90" height="90" rx="5" fill="white"/>
<g clip-path="url(#clip0)">
<path d="M45.0019 34.4608L39.6558 41.3443L34.3965 34.5726C34.5619 34.4999 34.7425 34.4608 34.9284 34.4608H45.0019Z" fill="#B1E4F9"/>
<path d="M55.6054 34.5726L50.346 41.3443L45 34.4608H55.0735C55.2594 34.4608 55.44 34.4998 55.6054 34.5726Z" fill="#B1E4F9"/>
<path d="M61.0007 41.3443H50.3477L55.607 34.5726H55.6077C55.793 34.6539 55.9583 34.7776 56.0907 34.9364L60.6944 40.4498C60.9107 40.7085 61.0126 41.028 61.0007 41.3443Z" fill="#75CEF9"/>
<path d="M45.0005 34.4611L39.6543 41.3444H50.3468L45.0005 34.4611Z" fill="#90D8F9"/>
<path d="M39.6539 41.3443H29.0009C28.989 41.028 29.0909 40.7085 29.3073 40.4498L33.911 34.9364C34.0433 34.7777 34.2087 34.6539 34.3939 34.5726H34.3946L39.6539 41.3443Z" fill="#E4F6FF"/>
<path d="M50.3444 41.3443L45.1903 58.4184C45.0633 58.4369 44.9336 58.4369 44.8066 58.4184L39.6523 41.3443H50.3444Z" fill="#75CEF9"/>
<path d="M44.8072 58.4184C44.5208 58.3767 44.2456 58.241 44.0319 58.0115C44.0312 58.0108 44.0299 58.0095 44.0293 58.0089L29.352 42.1984C29.35 42.1964 29.3487 42.1944 29.3467 42.1924C29.1264 41.9523 29.0099 41.6499 29 41.3443H39.653L44.8072 58.4184Z" fill="#B1E4F9"/>
<path d="M60.9986 41.3443C60.9887 41.6499 60.8722 41.9523 60.6519 42.1924C60.6499 42.1944 60.6486 42.1964 60.6466 42.1984L45.9693 58.0089C45.9687 58.0095 45.9673 58.0109 45.9667 58.0115C45.753 58.241 45.4778 58.3767 45.1914 58.4184L50.3456 41.3443H60.9986Z" fill="#6BBEF6"/>
<path d="M55.8191 48.2478L56.2882 48.0132C56.4833 47.9157 56.4833 47.6374 56.2882 47.5399L55.8191 47.3053C55.5921 47.1919 55.4147 46.9991 55.3206 46.7636L54.9356 45.8012C54.8469 45.5794 54.5329 45.5794 54.4442 45.8012L54.0593 46.7636C53.9651 46.9991 53.7877 47.1919 53.5608 47.3053L53.0916 47.5399C52.8965 47.6374 52.8965 47.9157 53.0916 48.0132L53.5608 48.2478C53.7877 48.3612 53.9651 48.5541 54.0593 48.7896L54.4442 49.7519C54.5329 49.9737 54.8469 49.9737 54.9356 49.7519L55.3206 48.7896C55.4147 48.5541 55.5921 48.3612 55.8191 48.2478Z" fill="#FFE07D"/>
<path d="M39.9812 53.7611L40.4503 53.5265C40.6454 53.429 40.6454 53.1507 40.4503 53.0532L39.9812 52.8186C39.7542 52.7052 39.5768 52.5124 39.4827 52.2769L39.0977 51.3146C39.009 51.0927 38.695 51.0927 38.6063 51.3146L38.2214 52.2769C38.1272 52.5124 37.9498 52.7052 37.7229 52.8186L37.2537 53.0532C37.0587 53.1507 37.0587 53.429 37.2537 53.5265L37.7229 53.7611C37.9498 53.8745 38.1272 54.0674 38.2214 54.3029L38.6063 55.2652C38.695 55.487 39.009 55.487 39.0977 55.2652L39.4827 54.3029C39.5769 54.0674 39.7543 53.8745 39.9812 53.7611Z" fill="#FFE07D"/>
<path d="M36.5667 35.0692L37.3095 34.6977C37.5045 34.6002 37.5045 34.3219 37.3095 34.2244L36.5667 33.8529C36.2738 33.7065 36.045 33.4578 35.9234 33.1539L35.3554 31.7339C35.2667 31.5121 34.9527 31.5121 34.864 31.7339L34.296 33.1539C34.1745 33.4578 33.9456 33.7065 33.6528 33.8529L32.91 34.2244C32.7149 34.3219 32.7149 34.6002 32.91 34.6977L33.6528 35.0692C33.9456 35.2155 34.1745 35.4643 34.296 35.7682L34.864 37.1882C34.9527 37.41 35.2667 37.41 35.3554 37.1882L35.9234 35.7682C36.045 35.4643 36.2739 35.2155 36.5667 35.0692Z" fill="#FFE07D"/>
</g>
<defs>
<clipPath id="clip0">
<rect width="32" height="32" fill="white" transform="translate(29 29)"/>
</clipPath>
</defs>
</svg>
