<svg width="90" height="90" viewBox="0 0 90 90" fill="none" xmlns="http://www.w3.org/2000/svg">
<rect width="90" height="90" rx="5" fill="white"/>
<path fill-rule="evenodd" clip-rule="evenodd" d="M44.9974 53.3182C49.5912 53.3182 53.3151 49.5942 53.3151 45.0005C53.3151 40.4067 49.5912 36.6827 44.9974 36.6827C40.4037 36.6827 36.6797 40.4067 36.6797 45.0005C36.6797 49.5942 40.4037 53.3182 44.9974 53.3182Z" fill="#E01B41"/>
<mask id="mask0" style="mask-type:alpha" maskUnits="userSpaceOnUse" x="36" y="36" width="18" height="18">
<path fill-rule="evenodd" clip-rule="evenodd" d="M44.9974 53.3182C49.5912 53.3182 53.3151 49.5942 53.3151 45.0005C53.3151 40.4067 49.5912 36.6827 44.9974 36.6827C40.4037 36.6827 36.6797 40.4067 36.6797 45.0005C36.6797 49.5942 40.4037 53.3182 44.9974 53.3182Z" fill="white"/>
</mask>
<g mask="url(#mask0)">
<path fill-rule="evenodd" clip-rule="evenodd" d="M36.6812 46.1886C39.0577 48.4165 42.6224 49.7533 44.9989 46.1886C47.3754 42.6238 52.1284 42.6238 53.3167 46.1886C54.5049 49.7533 53.3167 53.318 53.3167 53.318H36.6812C36.6812 53.318 34.3047 43.9606 36.6812 46.1886Z" fill="#0E4B9C"/>
</g>
<path opacity="0.75" fill-rule="evenodd" clip-rule="evenodd" d="M31.0503 33.5154C31.2144 33.2313 31.5777 33.1339 31.8619 33.298L32.8909 33.8921C33.1751 34.0561 33.2725 34.4195 33.1084 34.7037L30.1378 39.8489C29.9737 40.1331 29.6104 40.2304 29.3262 40.0664L28.2972 39.4723C28.013 39.3082 27.9156 38.9448 28.0797 38.6607L31.0503 33.5154ZM57.1075 33.8922C56.8233 34.0563 56.7259 34.4196 56.89 34.7038L59.8606 39.8491C60.0247 40.1332 60.388 40.2306 60.6722 40.0665L61.7013 39.4724C61.9854 39.3083 62.0828 38.945 61.9187 38.6608L58.9481 33.5156C58.784 33.2314 58.4207 33.134 58.1365 33.2981L57.1075 33.8922ZM54.0231 35.6746C53.739 35.8387 53.6416 36.202 53.8057 36.4862L56.7763 41.6314C56.9403 41.9156 57.3037 42.013 57.5879 41.8489L58.6169 41.2548C58.9011 41.0907 58.9984 40.7274 58.8344 40.4432L55.8638 35.2979C55.6997 35.0138 55.3364 34.9164 55.0522 35.0805L54.0231 35.6746ZM28.0797 51.3391C27.9156 51.0549 28.013 50.6916 28.2972 50.5275L29.3262 49.9334C29.6104 49.7693 29.9737 49.8667 30.1378 50.1509L33.1084 55.2961C33.2725 55.5803 33.1751 55.9436 32.8909 56.1077L31.8619 56.7018C31.5777 56.8659 31.2144 56.7685 31.0503 56.4844L28.0797 51.3391ZM31.3815 48.7451C31.0973 48.9092 31 49.2726 31.164 49.5567L34.1346 54.702C34.2987 54.9862 34.6621 55.0835 34.9462 54.9195L35.9753 54.3253C36.2594 54.1613 36.3568 53.7979 36.1927 53.5137L33.2221 48.3685C33.0581 48.0843 32.6947 47.987 32.4105 48.151L31.3815 48.7451ZM56.7763 48.3688C56.9403 48.0846 57.3037 47.9873 57.5879 48.1513L58.6169 48.7454C58.9011 48.9095 58.9984 49.2729 58.8344 49.557L55.8638 54.7023C55.6997 54.9864 55.3364 55.0838 55.0522 54.9197L54.0231 54.3256C53.739 54.1616 53.6416 53.7982 53.8057 53.514L56.7763 48.3688ZM60.6722 49.9337C60.388 49.7696 60.0247 49.867 59.8606 50.1511L56.89 55.2964C56.7259 55.5806 56.8233 55.9439 57.1075 56.108L58.1365 56.7021C58.4207 56.8662 58.784 56.7688 58.9481 56.4846L61.9187 51.3394C62.0828 51.0552 61.9854 50.6919 61.7013 50.5278L60.6722 49.9337ZM34.9462 35.0803C34.6621 34.9163 34.2987 35.0136 34.1346 35.2978L31.164 40.443C31 40.7272 31.0973 41.0906 31.3815 41.2546L32.4105 41.8488C32.6947 42.0128 33.0581 41.9155 33.2221 41.6313L36.1927 36.486C36.3568 36.2019 36.2594 35.8385 35.9753 35.6744L34.9462 35.0803Z" fill="#262626"/>
</svg>
