<svg width="90" height="90" viewBox="0 0 90 90" fill="none" xmlns="http://www.w3.org/2000/svg">
<rect width="90" height="90" rx="5" fill="white"/>
<path d="M48.6526 29H43.6457C42.9089 29 42.3105 29.5983 42.3105 30.3352V30.7634C42.3105 31.5003 42.9089 32.0986 43.6457 32.0986H48.6526C49.3894 32.0986 49.9878 31.5003 49.9878 30.7634V30.3352C49.9878 29.5983 49.3894 29 48.6526 29Z" fill="#40596B"/>
<path d="M60.0692 46.6659C59.8677 39.1398 53.7145 33.1063 46.1444 33.1063C42.3845 33.1063 38.9899 34.5926 36.4833 37.0048L39.4181 39.9459C41.1753 38.2833 43.537 37.263 46.1444 37.263C51.4095 37.263 55.711 41.4511 55.9125 46.6659C55.9188 46.7981 55.9314 46.9241 55.9314 47.0563C55.9314 49.6574 54.9049 52.0254 53.2422 53.7763C51.4599 55.6657 48.9407 56.8497 46.1444 56.8497C40.7407 56.8497 36.3447 52.46 36.3447 47.0563C36.3447 46.9304 36.3573 46.8107 36.3636 46.6911H38.6624L34.2853 40.6702L29.9082 46.6911H32.2196C32.2133 46.817 32.2007 46.9367 32.2007 47.0563C32.2007 54.7588 38.4483 61 46.1507 61C50.0932 61 53.6579 59.3563 56.1896 56.7174C58.6018 54.2108 60.0944 50.8099 60.0944 47.0563C60.0881 46.9178 60.0755 46.7918 60.0692 46.6659Z" fill="#40596B"/>
<path d="M44.5566 32.0923V33.207C45.0794 33.1503 45.6084 33.1063 46.15 33.1063C46.6917 33.1063 47.2207 33.144 47.7497 33.207V32.0923H44.5566Z" fill="#334A5E"/>
<path d="M53.5125 47.0563C53.5125 50.8477 50.4327 53.9337 46.6351 53.9337C44.8653 53.9337 43.2531 53.2535 42.0312 52.1514L46.6351 47.5475V40.1726C48.6567 40.1726 50.4705 41.0543 51.7364 42.4462C52.8386 43.6743 53.5125 45.2803 53.5125 47.0563Z" fill="#84DBFF"/>
</svg>
