<svg width="90" height="90" viewBox="0 0 90 90" fill="none" xmlns="http://www.w3.org/2000/svg">
<g clip-path="url(#clip0)">
<rect width="90" height="90" rx="5" fill="white"/>
<rect width="180" height="90" rx="7.5" fill="white"/>
<rect width="180" height="90" rx="3" fill="white"/>
<mask id="mask0" style="mask-type:alpha" maskUnits="userSpaceOnUse" x="0" y="0" width="180" height="90">
<rect width="180" height="90" rx="3" fill="white"/>
</mask>
<g mask="url(#mask0)">
<path fill-rule="evenodd" clip-rule="evenodd" d="M180 0H0V6H180V0ZM180 11.9998H0V17.9998H180V11.9998ZM0 24.0004H180V30.0004H0V24.0004ZM180 36.0002H0V42.0002H180V36.0002ZM0 48H180V54H0V48ZM180 59.9998H0V65.9998H180V59.9998ZM0 72.0004H180V78.0004H0V72.0004ZM180 84H0V90H180V84Z" fill="#D02F44"/>
<rect width="52.5" height="42" fill="#46467F"/>
<g filter="url(#filter0_d)">
<path fill-rule="evenodd" clip-rule="evenodd" d="M11.7874 9C11.7874 10.6569 10.4682 12 8.84096 12C7.21369 12 5.89453 10.6569 5.89453 9C5.89453 7.34315 7.21369 6 8.84096 6C10.4682 6 11.7874 7.34315 11.7874 9ZM23.5765 9C23.5765 10.6569 22.2573 12 20.63 12C19.0028 12 17.6836 10.6569 17.6836 9C17.6836 7.34315 19.0028 6 20.63 6C22.2573 6 23.5765 7.34315 23.5765 9ZM32.4132 12C34.0405 12 35.3597 10.6569 35.3597 9C35.3597 7.34315 34.0405 6 32.4132 6C30.786 6 29.4668 7.34315 29.4668 9C29.4668 10.6569 30.786 12 32.4132 12ZM47.1487 9C47.1487 10.6569 45.8296 12 44.2023 12C42.575 12 41.2559 10.6569 41.2559 9C41.2559 7.34315 42.575 6 44.2023 6C45.8296 6 47.1487 7.34315 47.1487 9ZM14.7355 18C16.3628 18 17.6819 16.6569 17.6819 15C17.6819 13.3431 16.3628 12 14.7355 12C13.1082 12 11.7891 13.3431 11.7891 15C11.7891 16.6569 13.1082 18 14.7355 18ZM29.4651 15C29.4651 16.6569 28.146 18 26.5187 18C24.8914 18 23.5723 16.6569 23.5723 15C23.5723 13.3431 24.8914 12 26.5187 12C28.146 12 29.4651 13.3431 29.4651 15ZM38.3078 18C39.935 18 41.2542 16.6569 41.2542 15C41.2542 13.3431 39.935 12 38.3078 12C36.6805 12 35.3613 13.3431 35.3613 15C35.3613 16.6569 36.6805 18 38.3078 18ZM47.1487 21.0002C47.1487 22.657 45.8296 24.0002 44.2023 24.0002C42.575 24.0002 41.2559 22.657 41.2559 21.0002C41.2559 19.3433 42.575 18.0002 44.2023 18.0002C45.8296 18.0002 47.1487 19.3433 47.1487 21.0002ZM32.4132 24.0002C34.0405 24.0002 35.3597 22.657 35.3597 21.0002C35.3597 19.3433 34.0405 18.0002 32.4132 18.0002C30.786 18.0002 29.4668 19.3433 29.4668 21.0002C29.4668 22.657 30.786 24.0002 32.4132 24.0002ZM23.5765 21.0002C23.5765 22.657 22.2573 24.0002 20.63 24.0002C19.0028 24.0002 17.6836 22.657 17.6836 21.0002C17.6836 19.3433 19.0028 18.0002 20.63 18.0002C22.2573 18.0002 23.5765 19.3433 23.5765 21.0002ZM8.84096 24.0002C10.4682 24.0002 11.7874 22.657 11.7874 21.0002C11.7874 19.3433 10.4682 18.0002 8.84096 18.0002C7.21369 18.0002 5.89453 19.3433 5.89453 21.0002C5.89453 22.657 7.21369 24.0002 8.84096 24.0002ZM17.6819 26.9996C17.6819 28.6565 16.3628 29.9996 14.7355 29.9996C13.1082 29.9996 11.7891 28.6565 11.7891 26.9996C11.7891 25.3428 13.1082 23.9996 14.7355 23.9996C16.3628 23.9996 17.6819 25.3428 17.6819 26.9996ZM26.5187 29.9996C28.146 29.9996 29.4651 28.6565 29.4651 26.9996C29.4651 25.3428 28.146 23.9996 26.5187 23.9996C24.8914 23.9996 23.5723 25.3428 23.5723 26.9996C23.5723 28.6565 24.8914 29.9996 26.5187 29.9996ZM41.2542 26.9996C41.2542 28.6565 39.935 29.9996 38.3078 29.9996C36.6805 29.9996 35.3613 28.6565 35.3613 26.9996C35.3613 25.3428 36.6805 23.9996 38.3078 23.9996C39.935 23.9996 41.2542 25.3428 41.2542 26.9996ZM44.2023 36.0004C45.8296 36.0004 47.1487 34.6572 47.1487 33.0004C47.1487 31.3435 45.8296 30.0004 44.2023 30.0004C42.575 30.0004 41.2559 31.3435 41.2559 33.0004C41.2559 34.6572 42.575 36.0004 44.2023 36.0004ZM35.3597 33.0004C35.3597 34.6572 34.0405 36.0004 32.4132 36.0004C30.786 36.0004 29.4668 34.6572 29.4668 33.0004C29.4668 31.3435 30.786 30.0004 32.4132 30.0004C34.0405 30.0004 35.3597 31.3435 35.3597 33.0004ZM20.63 36.0004C22.2573 36.0004 23.5765 34.6572 23.5765 33.0004C23.5765 31.3435 22.2573 30.0004 20.63 30.0004C19.0028 30.0004 17.6836 31.3435 17.6836 33.0004C17.6836 34.6572 19.0028 36.0004 20.63 36.0004ZM11.7874 33.0004C11.7874 34.6572 10.4682 36.0004 8.84096 36.0004C7.21369 36.0004 5.89453 34.6572 5.89453 33.0004C5.89453 31.3435 7.21369 30.0004 8.84096 30.0004C10.4682 30.0004 11.7874 31.3435 11.7874 33.0004Z" fill="url(#paint0_linear)"/>
</g>
</g>
</g>
<defs>
<filter id="filter0_d" x="5.89453" y="6" width="41.2542" height="31.5004" filterUnits="userSpaceOnUse" color-interpolation-filters="sRGB">
<feFlood flood-opacity="0" result="BackgroundImageFix"/>
<feColorMatrix in="SourceAlpha" type="matrix" values="0 0 0 0 0 0 0 0 0 0 0 0 0 0 0 0 0 0 127 0" result="hardAlpha"/>
<feOffset dy="1.5"/>
<feColorMatrix type="matrix" values="0 0 0 0 0 0 0 0 0 0 0 0 0 0 0 0 0 0 0.06 0"/>
<feBlend mode="normal" in2="BackgroundImageFix" result="effect1_dropShadow"/>
<feBlend mode="normal" in="SourceGraphic" in2="effect1_dropShadow" result="shape"/>
</filter>
<linearGradient id="paint0_linear" x1="5.89453" y1="6" x2="5.89453" y2="36.0004" gradientUnits="userSpaceOnUse">
<stop stop-color="white"/>
<stop offset="1" stop-color="#F0F0F0"/>
</linearGradient>
<clipPath id="clip0">
<rect width="90" height="90" rx="5" fill="white"/>
</clipPath>
</defs>
</svg>
