<svg width="24" height="24" viewBox="0 0 24 24" fill="none" xmlns="http://www.w3.org/2000/svg">
<g clip-path="url(#clip0)">
<path d="M16.832 17.4846H14.0664C13.5486 17.4846 13.1289 17.9043 13.1289 18.4221C13.1289 18.9399 13.5486 19.3596 14.0664 19.3596H16.832C17.3498 19.3596 17.7695 18.9399 17.7695 18.4221C17.7695 17.9043 17.3498 17.4846 16.832 17.4846Z" fill="url(#paint0_linear)"/>
<path d="M16.832 11.8127H14.0664C13.5486 11.8127 13.1289 12.2325 13.1289 12.7502C13.1289 13.268 13.5486 13.6877 14.0664 13.6877H16.832C17.3498 13.6877 17.7695 13.268 17.7695 12.7502C17.7695 12.2325 17.3498 11.8127 16.832 11.8127Z" fill="url(#paint1_linear)"/>
<path d="M20.5768 16.5002C21.0946 16.5002 21.5143 16.0805 21.5143 15.5627V3.75024C21.5143 1.68249 19.8321 0.000244141 17.7643 0.000244141H6.23828C4.17053 0.000244141 2.48828 1.68249 2.48828 3.75024V20.2502C2.48828 22.318 4.17053 24.0002 6.23828 24.0002H17.7643C19.8321 24.0002 21.5143 22.318 21.5143 20.2502C21.5143 19.7325 21.0946 19.3127 20.5768 19.3127C20.059 19.3127 19.6393 19.7325 19.6393 20.2502C19.6393 21.2841 18.7982 22.1252 17.7643 22.1252H6.23828C5.20441 22.1252 4.36328 21.2841 4.36328 20.2502V3.75024C4.36328 2.71637 5.20441 1.87524 6.23828 1.87524H17.7643C18.7982 1.87524 19.6393 2.71637 19.6393 3.75024V15.5627C19.6393 16.0805 20.059 16.5002 20.5768 16.5002Z" fill="url(#paint2_linear)"/>
<path d="M11.9916 3.73064C11.5925 3.40092 11.0016 3.45707 10.6718 3.85626L8.64658 6.3075L7.84745 5.48685C7.48628 5.11593 6.8927 5.10801 6.52173 5.46923C6.15081 5.83045 6.14289 6.42398 6.50411 6.79495L7.50976 7.82775C7.51806 7.83628 7.5265 7.84462 7.53512 7.85282C7.83902 8.14209 8.24463 8.30296 8.66186 8.30296C8.69767 8.30287 8.73372 8.3017 8.76972 8.29926C9.22183 8.26912 9.64403 8.05031 9.92936 7.6986L12.1173 5.0505C12.4471 4.65131 12.3908 4.0604 11.9916 3.73064Z" fill="url(#paint3_linear)"/>
<path d="M11.9916 15.1624C11.5925 14.8327 11.0016 14.8889 10.6718 15.288L8.64601 17.7399L7.84562 16.9225C7.48332 16.5526 6.88979 16.5464 6.51985 16.9086C6.14991 17.2709 6.14372 17.8644 6.50593 18.2344L7.51158 19.2614C7.51927 19.2692 7.5271 19.2769 7.53507 19.2845C7.83896 19.5738 8.24462 19.7347 8.66185 19.7347C8.69771 19.7346 8.73371 19.7334 8.76971 19.731C9.22178 19.7009 9.64398 19.4821 9.92936 19.1304L12.1173 16.4822C12.4471 16.0831 12.3908 15.4921 11.9916 15.1624Z" fill="url(#paint4_linear)"/>
<path d="M16.832 6.04712H14.0664C13.5486 6.04712 13.1289 6.46684 13.1289 6.98462C13.1289 7.5024 13.5486 7.92212 14.0664 7.92212H16.832C17.3498 7.92212 17.7695 7.5024 17.7695 6.98462C17.7695 6.46684 17.3498 6.04712 16.832 6.04712Z" fill="url(#paint5_linear)"/>
<path d="M11.9916 9.49041C11.5925 9.16064 11.0016 9.21689 10.6718 9.61603L8.64601 12.0679L7.84562 11.2505C7.48332 10.8806 6.88979 10.8744 6.51985 11.2366C6.14991 11.5989 6.14372 12.1925 6.50593 12.5624L7.51158 13.5894C7.51927 13.5972 7.5271 13.6049 7.53507 13.6125C7.83896 13.9018 8.24462 14.0627 8.66185 14.0627C8.69771 14.0626 8.73371 14.0615 8.76971 14.0591C9.22178 14.0289 9.64398 13.8101 9.92936 13.4584L12.1173 10.8103C12.4471 10.4111 12.3908 9.82017 11.9916 9.49041Z" fill="url(#paint6_linear)"/>
</g>
<defs>
<linearGradient id="paint0_linear" x1="14.61" y1="17.4846" x2="15.8529" y2="18.6873" gradientUnits="userSpaceOnUse">
<stop stop-color="#08EE7F"/>
<stop offset="1" stop-color="#20CF92"/>
</linearGradient>
<linearGradient id="paint1_linear" x1="14.61" y1="11.8127" x2="15.8529" y2="13.0154" gradientUnits="userSpaceOnUse">
<stop stop-color="#08EE7F"/>
<stop offset="1" stop-color="#20CF92"/>
</linearGradient>
<linearGradient id="paint2_linear" x1="8.56042" y1="0.000243945" x2="17.5629" y2="2.7904" gradientUnits="userSpaceOnUse">
<stop stop-color="#08EE7F"/>
<stop offset="1" stop-color="#20CF92"/>
</linearGradient>
<linearGradient id="paint3_linear" x1="8.18311" y1="3.51587" x2="10.7161" y2="4.77646" gradientUnits="userSpaceOnUse">
<stop stop-color="#08EE7F"/>
<stop offset="1" stop-color="#20CF92"/>
</linearGradient>
<linearGradient id="paint4_linear" x1="8.1831" y1="14.9476" x2="10.7161" y2="16.2082" gradientUnits="userSpaceOnUse">
<stop stop-color="#08EE7F"/>
<stop offset="1" stop-color="#20CF92"/>
</linearGradient>
<linearGradient id="paint5_linear" x1="14.61" y1="6.04712" x2="15.8529" y2="7.24982" gradientUnits="userSpaceOnUse">
<stop stop-color="#08EE7F"/>
<stop offset="1" stop-color="#20CF92"/>
</linearGradient>
<linearGradient id="paint6_linear" x1="8.1831" y1="9.27563" x2="10.7161" y2="10.5362" gradientUnits="userSpaceOnUse">
<stop stop-color="#08EE7F"/>
<stop offset="1" stop-color="#20CF92"/>
</linearGradient>
<clipPath id="clip0">
<rect width="24" height="24" fill="white" transform="translate(0 0.000244141)"/>
</clipPath>
</defs>
</svg>
