<svg width="24" height="21" viewBox="0 0 24 21" fill="none" xmlns="http://www.w3.org/2000/svg">
<path d="M0.922081 12.6818C1.19899 12.6818 1.47314 12.5581 1.65405 12.3218L2.05558 11.8003C2.65648 15.3651 5.15332 18.4148 8.69781 19.6452C9.78885 20.0237 10.9085 20.2055 12.0134 20.2055C15.3216 20.2055 18.5052 18.5736 20.4112 15.7001C20.6928 15.2755 20.5765 14.7023 20.1519 14.4208C19.7254 14.1374 19.155 14.2556 18.8716 14.6802C16.7957 17.813 12.8607 19.1385 9.30425 17.9016C6.35328 16.877 4.29489 14.3082 3.85552 11.3249L4.64564 11.9332C5.05086 12.2424 5.62961 12.1685 5.93975 11.7643C6.25082 11.36 6.17605 10.7812 5.77176 10.4701C5.77176 10.4701 3.58876 8.78928 3.58322 8.78559C3.12446 8.43206 2.47187 8.23361 2.0565 8.77544L0.191952 11.1966C-0.119114 11.6009 -0.0443473 12.1796 0.359946 12.4907C0.527017 12.619 0.725472 12.6818 0.922081 12.6818Z" fill="url(#paint0_linear)"/>
<path d="M3.84857 5.80047C4.27224 6.082 4.84545 5.9657 5.12883 5.5411C7.20476 2.40921 11.1434 1.08371 14.6962 2.31967C17.6472 3.34425 19.7055 5.91308 20.1449 8.89636L19.3548 8.28808C18.9496 7.97793 18.3708 8.05178 18.0607 8.45699C17.7496 8.86129 17.8244 9.44004 18.2287 9.7511C18.2287 9.7511 20.4117 11.431 20.4172 11.4357C20.8843 11.7947 21.5221 11.9959 21.9439 11.4458L23.8085 9.02467C24.1195 8.62037 24.0448 8.04162 23.6405 7.73056C23.2362 7.41949 22.6565 7.49518 22.3464 7.89947L21.9449 8.42099C21.344 4.8562 18.8471 1.80646 15.3026 0.576039C10.9459 -0.935908 6.13125 0.685882 3.58919 4.52021C3.30766 4.94573 3.42397 5.51802 3.84857 5.80047Z" fill="url(#paint1_linear)"/>
<defs>
<linearGradient id="paint0_linear" x1="6.56326" y1="8.44031" x2="13.8334" y2="13.4085" gradientUnits="userSpaceOnUse">
<stop stop-color="#08EE7F"/>
<stop offset="1" stop-color="#20CF92"/>
</linearGradient>
<linearGradient id="paint1_linear" x1="9.99881" y1="0.0152587" x2="17.2712" y2="4.9826" gradientUnits="userSpaceOnUse">
<stop stop-color="#08EE7F"/>
<stop offset="1" stop-color="#20CF92"/>
</linearGradient>
</defs>
</svg>
