<svg width="32" height="32" viewBox="0 0 32 32" fill="none" xmlns="http://www.w3.org/2000/svg">
<g clip-path="url(#clip0)">
<path d="M16.0003 15.4839C11.4471 15.4839 7.74219 19.1888 7.74219 23.742C7.74219 28.2951 11.4471 32 16.0003 32C20.5534 32 24.2583 28.2951 24.2583 23.742C24.2583 19.1888 20.5534 15.4839 16.0003 15.4839ZM16.0003 30.9678C12.1903 30.9678 9.06704 28.0015 8.80066 24.2581H10.3228V23.2258H8.80066C8.91482 21.6217 9.55166 20.1631 10.5459 19.0174L11.621 20.0925L12.3508 19.3627L11.2757 18.2876C12.4214 17.2934 13.8805 16.6565 15.4841 16.5424V18.0645H16.5164V16.5424C18.1205 16.6565 19.5791 17.2934 20.7248 18.2876L19.6497 19.3627L20.3795 20.0925L21.4546 19.0174C22.4488 20.1631 23.0857 21.6222 23.1998 23.2258H21.6777V24.2581H23.1998C22.9335 28.0015 19.8102 30.9678 16.0003 30.9678Z" fill="#38527A"/>
<path d="M17.5484 21.9798L16.0001 20.4314L14.4517 21.9798V26.5136C14.1213 26.8898 13.9355 27.3724 13.9355 27.8709C13.9355 29.0095 14.8615 29.9354 16.0001 29.9354C17.1387 29.9354 18.0646 29.0095 18.0646 27.8709C18.0646 27.3724 17.8788 26.8898 17.5484 26.5136V21.9798ZM16.0001 28.9032C15.4308 28.9032 14.9678 28.4402 14.9678 27.8709C14.9678 27.5798 15.0905 27.3084 15.3136 27.1076L15.4839 26.9538V22.4072L16.0001 21.8911L16.5162 22.4072V26.9538L16.6866 27.1076C16.9096 27.3084 17.0323 27.5798 17.0323 27.8709C17.0323 28.4402 16.5694 28.9032 16.0001 28.9032Z" fill="#38527A"/>
<path d="M5.67698 17.5483H4.64472V26.3225H5.31559L3.61246 29.3883L1.90934 26.3225H2.5802V17.5483H1.54795V25.2903H0.154297L3.61246 31.5148L7.07063 25.2903H5.67698V17.5483Z" fill="#38527A"/>
<path d="M24.9297 22.1935H26.3233V29.9355H27.3556V21.1613H26.6847L28.3879 18.0955L30.091 21.1613H29.4201V29.9355H30.4524V22.1935H31.846L28.3879 15.969L24.9297 22.1935Z" fill="#38527A"/>
<path d="M26.8379 6.1936H27.8701V7.22586H26.8379V6.1936Z" fill="url(#paint0_linear)"/>
<path d="M24.7734 6.1936H25.8057V7.22586H24.7734V6.1936Z" fill="url(#paint1_linear)"/>
<path d="M22.709 6.1936H23.7412V7.22586H22.709V6.1936Z" fill="url(#paint2_linear)"/>
<path d="M4.12891 6.1936H5.16116V7.22586H4.12891V6.1936Z" fill="url(#paint3_linear)"/>
<path d="M6.19336 6.1936H7.22562V7.22586H6.19336V6.1936Z" fill="url(#paint4_linear)"/>
<path d="M8.25781 6.1936H9.29007V7.22586H8.25781V6.1936Z" fill="url(#paint5_linear)"/>
<path d="M6.69884 13.4194C8.02621 13.4194 9.31149 13.0302 10.4146 12.2941L16 8.57031L21.5854 12.2941C22.689 13.0302 23.9743 13.4194 25.3012 13.4194C28.9952 13.4194 32 10.4042 32 6.69884C32 3.00479 28.9952 0 25.3012 0C23.9738 0 22.6885 0.389113 21.5854 1.12525L16 4.84904L10.4146 1.12525C9.31099 0.389113 8.02571 0 6.69884 0C3.00479 0 0 3.01512 0 6.72051C0 10.4146 3.00479 13.4194 6.69884 13.4194ZM6.69884 1.03226C7.82182 1.03226 8.90827 1.36164 9.84199 1.98412L15.0693 5.46951L14.1394 6.08921L9.26966 2.84274C8.5058 2.33342 7.61694 2.06452 6.69884 2.06452C4.1434 2.06452 2.06452 4.15323 2.06452 6.72051C2.06452 9.27646 4.1434 11.3548 6.69884 11.3548C7.61744 11.3548 8.5063 11.0859 9.26915 10.5766L22.1585 1.98412C23.0917 1.36164 24.1787 1.03226 25.3012 1.03226C28.4259 1.03226 30.9677 3.57409 30.9677 6.69884C30.9677 9.83543 28.4259 12.3871 25.3012 12.3871C24.1782 12.3871 23.0917 12.0577 22.158 11.4352L16.9307 7.94985L17.8606 7.33014L22.7303 10.5766C23.4942 11.0859 24.3831 11.3548 25.3012 11.3548C27.8566 11.3548 29.9355 9.26613 29.9355 6.69884C29.9355 4.14289 27.8566 2.06452 25.3012 2.06452C24.3826 2.06452 23.4937 2.33342 22.7308 2.84274L9.84148 11.4352C8.90827 12.0577 7.82132 12.3871 6.69884 12.3871C3.57409 12.3871 1.03226 9.84526 1.03226 6.72051C1.03226 3.58392 3.57409 1.03226 6.69884 1.03226ZM13.2087 6.70968L8.69632 9.71774C8.10333 10.1137 7.41255 10.3226 6.69884 10.3226C4.7122 10.3226 3.09677 8.70665 3.09677 6.72051C3.09677 4.72203 4.7122 3.09677 6.69884 3.09677C7.41255 3.09677 8.10383 3.3057 8.69682 3.70161L13.2087 6.70968ZM18.7913 6.70968L23.3037 3.70161C23.8967 3.3057 24.5874 3.09677 25.3012 3.09677C27.2878 3.09677 28.9032 4.7127 28.9032 6.69884C28.9032 8.69733 27.2878 10.3226 25.3012 10.3226C24.5874 10.3226 23.8962 10.1137 23.3032 9.71774L18.7913 6.70968Z" fill="url(#paint6_linear)"/>
</g>
<defs>
<linearGradient id="paint0_linear" x1="27.1673" y1="6.1936" x2="27.6317" y2="6.37515" gradientUnits="userSpaceOnUse">
<stop stop-color="#08EE7F"/>
<stop offset="1" stop-color="#20CF92"/>
</linearGradient>
<linearGradient id="paint1_linear" x1="25.1029" y1="6.1936" x2="25.5673" y2="6.37515" gradientUnits="userSpaceOnUse">
<stop stop-color="#08EE7F"/>
<stop offset="1" stop-color="#20CF92"/>
</linearGradient>
<linearGradient id="paint2_linear" x1="23.0384" y1="6.1936" x2="23.5028" y2="6.37515" gradientUnits="userSpaceOnUse">
<stop stop-color="#08EE7F"/>
<stop offset="1" stop-color="#20CF92"/>
</linearGradient>
<linearGradient id="paint3_linear" x1="4.45835" y1="6.1936" x2="4.92272" y2="6.37515" gradientUnits="userSpaceOnUse">
<stop stop-color="#08EE7F"/>
<stop offset="1" stop-color="#20CF92"/>
</linearGradient>
<linearGradient id="paint4_linear" x1="6.5228" y1="6.1936" x2="6.98717" y2="6.37515" gradientUnits="userSpaceOnUse">
<stop stop-color="#08EE7F"/>
<stop offset="1" stop-color="#20CF92"/>
</linearGradient>
<linearGradient id="paint5_linear" x1="8.58726" y1="6.1936" x2="9.05163" y2="6.37515" gradientUnits="userSpaceOnUse">
<stop stop-color="#08EE7F"/>
<stop offset="1" stop-color="#20CF92"/>
</linearGradient>
<linearGradient id="paint6_linear" x1="10.2128" y1="-1.09634e-07" x2="19.0915" y2="8.27751" gradientUnits="userSpaceOnUse">
<stop stop-color="#08EE7F"/>
<stop offset="1" stop-color="#20CF92"/>
</linearGradient>
<clipPath id="clip0">
<rect width="32" height="32" fill="white"/>
</clipPath>
</defs>
</svg>
