<svg width="51" height="51" viewBox="0 0 51 51" fill="none" xmlns="http://www.w3.org/2000/svg">
<path d="M6.59062 2.92977C6.18719 2.92977 5.86013 3.25868 5.86013 3.66436C5.86013 4.07003 6.18719 4.39895 6.59062 4.39895C6.99405 4.39895 7.32111 4.07003 7.32111 3.66436C7.32101 3.25868 6.99395 2.92977 6.59062 2.92977ZM9.52039 2.92977C9.11696 2.92977 8.7899 3.25868 8.7899 3.66436C8.7899 4.07003 9.11696 4.39895 9.52039 4.39895C9.92382 4.39895 10.2509 4.07003 10.2509 3.66436C10.2508 3.25868 9.92372 2.92977 9.52039 2.92977ZM38.0749 31.1752C39.7739 31.6304 41.5566 31.3928 43.0933 30.4979C46.2332 28.6693 47.336 24.6454 45.5515 21.5278C44.6941 20.0298 43.2993 18.9577 41.6244 18.5089C39.9216 18.0525 38.1393 18.2932 36.6059 19.1862C33.466 21.0147 32.3632 25.0387 34.1477 28.1562C35.0051 29.6542 36.3998 30.7263 38.0749 31.1752ZM37.343 20.452C38.5379 19.7562 39.9251 19.5702 41.2452 19.9239C42.5403 20.2709 43.6181 21.099 44.2801 22.2555C45.6663 24.6773 44.8032 27.8069 42.3561 29.232C41.1627 29.9271 39.7769 30.1147 38.454 29.7602C37.1588 29.4132 36.081 28.5851 35.4189 27.4285C34.0328 25.0067 34.8959 21.8771 37.343 20.452ZM24.9536 20.0083C26.3448 20.0083 27.4764 18.8626 27.4764 17.4543C27.4764 16.0459 26.3447 14.9003 24.9536 14.9003H18.6154C17.2242 14.9003 16.0924 16.0459 16.0924 17.4543V24.0933C16.0924 24.4978 16.4204 24.8258 16.8249 24.8258C17.2294 24.8258 17.5573 24.4978 17.5573 24.0933V17.4543C17.5573 16.8538 18.032 16.3652 18.6154 16.3652H24.9536C25.537 16.3652 26.0116 16.8538 26.0116 17.4543C26.0116 18.0548 25.5369 18.5434 24.9536 18.5434H20.4058C20.0013 18.5434 19.6734 18.8713 19.6734 19.2758V23.2845C19.6734 23.689 20.0013 24.017 20.4058 24.017H24.4863C25.0697 24.017 25.5443 24.5056 25.5443 25.1061C25.5443 25.7066 25.0696 26.1952 24.4863 26.1952H20.4058C20.0013 26.1952 19.6734 26.5231 19.6734 26.9276V30.9362C19.6734 31.3407 20.0013 31.6686 20.4058 31.6686H24.9536C25.537 31.6686 26.0116 32.1572 26.0116 32.7577C26.0116 33.3582 25.5369 33.8468 24.9536 33.8468H18.6154C18.032 33.8468 17.5573 33.3582 17.5573 32.7577V27.5115C17.5573 27.107 17.2294 26.7791 16.8249 26.7791C16.4204 26.7791 16.0924 27.107 16.0924 27.5115V32.7577C16.0924 34.166 17.2242 35.3117 18.6154 35.3117H24.9536C26.3448 35.3117 27.4764 34.1661 27.4764 32.7577C27.4764 31.3494 26.3447 30.2038 24.9536 30.2038H21.1383V27.66H24.4863C25.8775 27.66 27.0091 26.5144 27.0091 25.1061C27.0091 23.6978 25.8774 22.5521 24.4863 22.5521H21.1383V20.0083H24.9536ZM46.3398 34.749C45.9353 34.749 45.6073 35.0769 45.6073 35.4814V42.1935C45.6073 43.2678 44.7333 44.1418 43.659 44.1418H33.0001L36.0125 38.9241C36.2802 38.4605 36.3513 37.9204 36.2127 37.4033C36.1402 37.1324 36.0134 36.8857 35.8436 36.6728L37.024 34.6281C37.0481 34.6347 37.072 34.642 37.0962 34.6484C39.7269 35.3528 42.4886 34.9848 44.8683 33.5991C49.733 30.7662 51.4426 24.5339 48.6794 19.7063C47.3529 17.3889 45.1949 15.73 42.6029 15.0356C39.966 14.3291 37.206 14.7018 34.8307 16.085C29.9662 18.9179 28.2565 25.1501 31.0197 29.9777C31.4934 30.805 32.0734 31.5479 32.7408 32.1936L31.5763 34.2107C30.7856 34.0926 29.9657 34.4554 29.5423 35.1887L24.3732 44.1418H6.34355C5.2693 44.1418 4.39525 43.2678 4.39525 42.1935V34.9801C5.21617 35.1971 6.06434 35.3117 6.90704 35.3117C8.58687 35.3117 10.2132 34.767 11.4865 33.7778C12.783 32.7706 13.6441 31.3783 13.9111 29.8572C14.2274 28.0553 13.6268 26.1567 12.3046 24.7786C11.2471 23.6763 9.76659 22.8659 7.90404 22.3697C7.03312 22.1376 6.12372 21.9341 5.45944 21.4385C5.18844 21.2362 5.02447 20.914 5.07828 20.689C5.16353 20.3326 5.70788 19.9889 6.14315 19.9034C6.99835 19.7354 7.90599 20.0663 8.37104 20.2785C9.40349 20.7494 10.6291 20.4677 11.3514 19.5934C11.8635 18.9736 12.0538 18.1669 11.8733 17.3801C11.6936 16.5968 11.1746 15.9574 10.4494 15.6254C9.0361 14.9784 6.84493 14.3657 4.39525 15.0857V7.32657H17.4255C18.7987 7.32657 19.9158 6.20945 19.9158 4.83626V2.4903C19.9158 1.92486 20.3758 1.46488 20.9412 1.46488H29.0614C29.6268 1.46488 30.0868 1.92486 30.0868 2.4903V4.83626C30.0868 6.20945 31.2039 7.32657 32.5771 7.32657H45.6073V14.0081C45.6073 14.4126 45.9353 14.7405 46.3398 14.7405C46.7443 14.7405 47.0722 14.4126 47.0722 14.0081V3.41318C47.0722 1.53119 45.541 0 43.659 0H6.34355C4.46156 0 2.93037 1.53119 2.93037 3.41318V15.7398C1.48658 16.6373 0.429224 18.1418 0.101676 19.8669C-0.279487 21.8755 0.424634 23.832 1.98522 25.1004C2.29265 25.3502 2.60917 25.5684 2.93037 25.7638V29.1326C2.32439 29.1611 1.73346 29.4031 1.27729 29.8487C0.714193 30.3985 0.439283 31.1631 0.522977 31.9464C0.605694 32.7203 1.02934 33.4003 1.68512 33.812C2.08132 34.0607 2.49852 34.2801 2.93037 34.4697V42.1934C2.93037 44.0754 4.46156 45.6066 6.34355 45.6066H23.7819C23.686 46.1402 23.708 46.6929 23.8524 47.2321C24.1107 48.1959 24.7288 49.0014 25.5929 49.5003C26.1797 49.8391 26.821 50.0001 27.4544 50C28.7463 49.9999 30.0045 49.33 30.6957 48.133L32.1543 45.6065H43.6589C45.5409 45.6065 47.0721 44.0753 47.0721 42.1933V35.4812C47.0722 35.0769 46.7443 34.749 46.3398 34.749ZM43.659 1.46488C44.7333 1.46488 45.6073 2.33893 45.6073 3.41318V5.86168H32.5771C32.0116 5.86168 31.5517 5.40171 31.5517 4.83626V2.4903C31.5517 2.12486 31.4719 1.77788 31.3299 1.46488H43.659ZM4.39525 3.41318C4.39525 2.33893 5.2693 1.46488 6.34355 1.46488H18.6727C18.5307 1.77788 18.4509 2.12486 18.4509 2.4903V4.83626C18.4509 5.40171 17.9909 5.86168 17.4255 5.86168H4.39525V3.41318ZM2.46395 32.5713C2.1908 32.3998 2.01433 32.1153 1.97956 31.7907C1.94391 31.4567 2.06091 31.1309 2.30076 30.8967C2.50555 30.6967 2.77567 30.5936 3.05049 30.5936C3.24981 30.5936 3.45157 30.6479 3.63273 30.7588C4.59106 31.3455 5.75388 31.6686 6.90694 31.6686C8.88707 31.6686 10.1772 30.4054 10.3858 29.2169C10.6045 27.971 9.68495 26.8642 7.86302 26.1805C7.4968 26.0431 7.12081 25.9184 6.71778 25.7846C5.47585 25.3727 4.06829 24.9057 2.90908 23.9637C1.77321 23.0405 1.26167 21.6111 1.54088 20.1402C1.8652 18.4315 3.11904 17.0074 4.7352 16.5122C6.78086 15.8854 8.64029 16.4085 9.83974 16.9574C10.1477 17.0983 10.3685 17.3719 10.4455 17.7077C10.5233 18.0472 10.4419 18.3944 10.2222 18.6605C9.9162 19.0307 9.41658 19.1454 8.97907 18.9457C8.35405 18.6607 7.11769 18.2191 5.86101 18.466C4.94468 18.6459 3.89211 19.3504 3.65363 20.3486C3.4631 21.1457 3.83674 22.0556 4.58354 22.6127C5.49255 23.2909 6.51972 23.5169 7.52688 23.7852C9.12653 24.2114 10.3783 24.8869 11.2475 25.7929C12.2477 26.8354 12.7041 28.2602 12.4682 29.604C12.2643 30.7661 11.5964 31.8375 10.5878 32.6211C9.57029 33.4116 8.26303 33.8469 6.90704 33.8469C5.35202 33.8468 3.77414 33.3939 2.46395 32.5713ZM4.39525 29.508V26.5023C5.0315 26.7685 5.66345 26.9782 6.26151 27.1766C6.6458 27.3041 7.0087 27.4246 7.34836 27.552C8.14574 27.8512 9.04186 28.4005 8.94303 28.9637C8.85533 29.4638 8.1475 30.2038 6.90704 30.2038C6.0201 30.2038 5.12896 29.9572 4.39769 29.5095C4.39691 29.5089 4.39603 29.5085 4.39525 29.508ZM32.2911 29.25C29.9261 25.1182 31.3961 19.7803 35.568 17.3509C37.6033 16.1657 39.967 15.8459 42.2238 16.4505C44.4358 17.0432 46.277 18.4579 47.4079 20.434C49.773 24.5658 48.303 29.9037 44.1311 32.3332C42.0959 33.5184 39.7322 33.8381 37.4754 33.2334C36.2393 32.9023 35.1193 32.3139 34.174 31.5148C34.1587 31.5004 34.1425 31.4866 34.1258 31.4733C33.4003 30.8506 32.7793 30.103 32.2911 29.25ZM35.6209 34.1287L34.6445 35.82L32.9152 34.8217L33.8842 33.1431C34.4254 33.5271 35.0063 33.8574 35.6209 34.1287ZM31.0942 44.513C31.0912 44.5184 31.088 44.5235 31.085 44.529L29.4271 47.4007C28.8011 48.4849 27.4096 48.8578 26.3253 48.2318C25.8001 47.9286 25.4243 47.4389 25.2674 46.853C25.1105 46.2672 25.1909 45.6553 25.4943 45.13L30.811 35.9211C30.9108 35.7482 31.0925 35.6516 31.279 35.6516C31.3704 35.6516 31.4631 35.6748 31.5477 35.7237L31.5619 35.7319C31.5634 35.7327 31.5648 35.7337 31.5663 35.7345L34.5465 37.455C34.6712 37.5271 34.7604 37.6434 34.7977 37.7826C34.835 37.9217 34.8159 38.0671 34.7438 38.1918L31.0942 44.513ZM12.4502 2.92977C12.0467 2.92977 11.7197 3.25868 11.7197 3.66436C11.7197 4.07003 12.0467 4.39895 12.4502 4.39895C12.8536 4.39895 13.1806 4.07003 13.1806 3.66436C13.1805 3.25868 12.8535 2.92977 12.4502 2.92977Z" fill="#424F63"/>
<path d="M41.4829 19.0402L41.4829 19.0402C43.0171 19.4513 44.2909 20.431 45.0751 21.8011C46.7065 24.6513 45.7013 28.3432 42.8174 30.0226C41.4068 30.8441 39.7748 31.061 38.2181 30.6439C36.6839 30.2328 35.4101 29.2531 34.626 27.8831L34.626 27.883C32.9945 25.0328 33.9997 21.341 36.8836 19.6615C38.2913 18.8417 39.9228 18.6221 41.4829 19.0402ZM44.7584 21.9823L44.7584 21.9823C44.023 20.6978 42.8243 19.7773 41.3884 19.3927C39.9257 19.0007 38.3877 19.2078 37.0672 19.9768C34.3654 21.5501 33.4025 25.0112 34.9425 27.7017L34.9425 27.7017C35.6779 28.9864 36.8768 29.9068 38.3125 30.2915C39.7784 30.6843 41.3149 30.4755 42.6337 29.7074C45.3354 28.134 46.2984 24.6729 44.7584 21.9823ZM35.2921 16.8756C30.8653 19.4535 29.2961 25.123 31.8147 29.5233C32.3341 30.4308 32.9954 31.2271 33.7685 31.8907C33.7737 31.8952 33.779 31.8995 33.7844 31.9038C33.7912 31.9092 33.7953 31.9129 33.7976 31.9151C33.8049 31.9219 33.8123 31.9285 33.8199 31.9349C34.8275 32.7866 36.0202 33.4128 37.3339 33.7647C39.7336 34.4077 42.2481 34.0668 44.4088 32.8085C48.8356 30.2306 50.4048 24.561 47.8862 20.1608C46.6819 18.0567 44.7197 16.5497 42.3671 15.9193L42.3671 15.9193C39.9674 15.2764 37.4529 15.6173 35.2921 16.8756L35.2921 16.8756ZM36.0981 34.4037C36.1762 34.2684 36.1931 34.1063 36.1446 33.9579C36.0961 33.8094 35.9868 33.6886 35.8439 33.6255C35.2631 33.3692 34.7144 33.0572 34.2034 32.6946C34.0772 32.605 33.919 32.5728 33.7678 32.6058C33.6165 32.6388 33.4862 32.7341 33.4088 32.8681L32.4398 34.5467C32.3668 34.673 32.3471 34.8231 32.3848 34.964C32.4226 35.1049 32.5148 35.2251 32.6411 35.298L34.3704 36.2964C34.4968 36.3693 34.6469 36.3891 34.7878 36.3513C34.9287 36.3135 35.0488 36.2214 35.1217 36.095L36.0981 34.4037ZM31.5623 44.804L31.5641 44.8006L31.565 44.799L31.5655 44.7983L31.5671 44.7956L31.5714 44.7881L31.5743 44.7831L35.2209 38.467C35.221 38.4669 35.221 38.4669 35.2211 38.4668C35.3661 38.2157 35.405 37.9202 35.3299 37.6402C35.2548 37.3602 35.0734 37.1238 34.8226 36.9789L34.8224 36.9787L31.8425 35.2583L31.8422 35.2582L31.8385 35.256L31.8381 35.2558L31.8243 35.2478L31.8238 35.2475C31.653 35.1488 31.4649 35.1016 31.2799 35.1016C30.9056 35.1016 30.538 35.2956 30.3356 35.6461L30.3356 35.6461L25.0189 44.855C25.0189 44.855 25.0189 44.855 25.0189 44.8551C24.6425 45.5067 24.5424 46.2687 24.737 46.9954C24.9317 47.7222 25.3997 48.332 26.0512 48.7081L26.3262 48.2318L26.0513 48.7081C27.3986 49.486 29.1264 49.023 29.9043 47.6758L29.428 47.4007L29.9043 47.6757L31.5623 44.804Z" stroke="#6CEF85" stroke-width="1.1" stroke-linecap="round" stroke-linejoin="round"/>
</svg>
