<svg width="47" height="50" viewBox="0 0 47 50" fill="none" xmlns="http://www.w3.org/2000/svg">
<g filter="url(#filter0_ii)">
<path d="M46.7881 12.2487L34.9301 0.214551C34.7995 0.096875 34.66 0.003125 34.4197 0H14.4529C12.4632 0 10.8444 1.64277 10.8444 3.66211V12.4052H9.18369C8.66946 12.4052 8.25126 12.8297 8.25126 13.3515V14.6029C7.38216 14.9465 6.57607 15.4203 5.84707 16.0162L4.78243 15.3911C4.5666 15.2643 4.31497 15.2307 4.07411 15.2961C3.83326 15.3616 3.63196 15.5185 3.50744 15.7377L1.12432 19.9356C0.867975 20.387 1.02088 20.9665 1.46525 21.2273L2.53152 21.8534C2.46137 22.3203 2.42596 22.7941 2.42596 23.2666C2.42596 23.739 2.46137 24.2127 2.53152 24.6798L1.46534 25.3059C1.02097 25.5667 0.867975 26.1462 1.12422 26.5974L3.50744 30.7953C3.63196 31.0146 3.83326 31.1715 4.07411 31.237C4.31497 31.3024 4.5666 31.2688 4.78233 31.142L5.84707 30.5168C6.57617 31.1128 7.38235 31.5867 8.25136 31.9302V33.1816C8.25136 33.7034 8.66965 34.1279 9.18369 34.1279H13.9495C14.4636 34.1279 14.8818 33.7034 14.8818 33.1816V31.9302C15.7509 31.5866 16.5571 31.1128 17.2861 30.5169L18.3509 31.1421C18.5667 31.2687 18.8182 31.3025 19.0592 31.2369C19.3 31.1714 19.5012 31.0145 19.6257 30.7953L22.0088 26.5975C22.2652 26.1461 22.1122 25.5667 21.6679 25.3059L20.6016 24.6797C20.6718 24.2128 20.7072 23.739 20.7072 23.2665C20.7072 22.7941 20.6718 22.3204 20.6016 21.8533L21.6678 21.2272C22.1123 20.9664 22.2652 20.3869 22.0089 19.9356L19.6257 15.7377C19.5012 15.5185 19.3 15.3615 19.0592 15.2961C18.8182 15.2305 18.5667 15.2643 18.3507 15.391L17.2861 16.0162C16.5571 15.4203 15.751 14.9465 14.8818 14.6029V13.3515C14.8818 12.8297 14.4635 12.4052 13.9495 12.4052H12.2877V3.66211C12.2877 2.45049 13.259 1.46484 14.4528 1.46484H33.6978V4.39453H26.984C26.5853 4.39453 26.2623 4.72246 26.2623 5.12695C26.2623 5.53145 26.5853 5.85938 26.984 5.85938H33.6978V9.83711C33.6978 9.86221 33.6992 9.88711 33.6997 9.91211H16.9865C16.8538 9.91211 16.746 9.80254 16.746 9.66797V6.10352C16.746 5.96895 16.8538 5.85938 16.9865 5.85938H23.6161C24.0147 5.85938 24.3378 5.53145 24.3378 5.12695C24.3378 4.72246 24.0147 4.39453 23.6161 4.39453H16.9865C16.058 4.39453 15.3026 5.16123 15.3026 6.10352V9.66797C15.3026 10.6103 16.058 11.377 16.9865 11.377H34.0336C34.6077 12.6288 35.8585 13.4992 37.3064 13.4992H45.5559V46.3379C45.5559 47.5495 44.5846 48.5352 43.3908 48.5352H14.4529C13.2591 48.5352 12.2878 47.5495 12.2878 46.3379V36.8135C12.2878 36.409 11.9648 36.0811 11.5661 36.0811C11.1675 36.0811 10.8444 36.409 10.8444 36.8135V46.3379C10.8444 48.3572 12.4632 50 14.4529 50H43.3908C45.3806 50 46.9993 48.3572 46.9993 46.3379V12.7687C47.0084 12.6907 46.931 12.3878 46.7881 12.2487ZM13.4385 13.87V14.9661C13.4385 15.3693 13.6917 15.7287 14.0684 15.8602C15.0079 16.1885 15.866 16.6929 16.6186 17.3595C16.9196 17.6261 17.3535 17.6691 17.6984 17.4666L18.6307 16.9191L20.5038 20.2187L19.57 20.7669C19.2264 20.9686 19.0466 21.3705 19.1224 21.7663C19.2164 22.2587 19.264 22.7635 19.264 23.2667C19.264 23.7698 19.2164 24.2746 19.1225 24.7664C19.0466 25.1629 19.2264 25.5646 19.5699 25.7663L20.5038 26.3146L18.6307 29.6141L17.6985 29.0667C17.3537 28.8642 16.9196 28.9072 16.6186 29.1739C15.8659 29.8404 15.0079 30.3448 14.0682 30.6732C13.6916 30.805 13.4385 31.1642 13.4385 31.5672V32.6633H9.69474V31.5672C9.69474 31.1642 9.44167 30.8049 9.06485 30.6731C8.1254 30.3449 7.26736 29.8405 6.51468 29.1738C6.2135 28.9071 5.77952 28.8643 5.43474 29.0667L4.50251 29.6141L2.62948 26.3146L3.56354 25.7662C3.90687 25.5645 4.08672 25.1626 4.0108 24.7671C3.91688 24.2747 3.86925 23.7698 3.86925 23.2667C3.86925 22.7636 3.91688 22.2587 4.0107 21.767C4.08662 21.3707 3.90697 20.9689 3.56335 20.767L2.62948 20.2187L4.50251 16.9192L5.43503 17.4668C5.77971 17.669 6.21369 17.626 6.51478 17.3595C7.26736 16.6929 8.12531 16.1885 9.06466 15.8603C9.44148 15.7287 9.69465 15.3694 9.69465 14.9661V13.87H13.4385ZM37.3064 12.0344C36.3204 12.0344 35.4869 11.3618 35.2263 10.4452C35.224 10.4369 35.2219 10.4286 35.2193 10.4205C35.1688 10.2346 35.1413 10.0391 35.1413 9.83711V5.12891C35.1413 5.12822 35.1414 5.12764 35.1414 5.12695C35.1414 5.12627 35.1413 5.12568 35.1413 5.125V2.50049L44.5354 12.0343H37.3064V12.0344ZM6.92576 23.2666C6.92576 25.8637 9.00769 27.9765 11.5666 27.9765C14.1255 27.9765 16.2075 25.8637 16.2075 23.2666C16.2075 20.6695 14.1255 18.5567 11.5666 18.5567C9.00769 18.5567 6.92576 20.6695 6.92576 23.2666ZM14.7642 23.2666C14.7642 25.056 13.3299 26.5116 11.5667 26.5116C9.80358 26.5116 8.36914 25.056 8.36914 23.2666C8.36914 21.4772 9.80348 20.0216 11.5666 20.0216C13.3298 20.0216 14.7642 21.4772 14.7642 23.2666ZM41.9476 20.6055H26.1284C25.7298 20.6055 25.4067 20.9334 25.4067 21.3379C25.4067 21.7424 25.7298 22.0703 26.1284 22.0703H41.9475C42.3462 22.0703 42.6692 21.7424 42.6692 21.3379C42.6692 20.9334 42.3462 20.6055 41.9476 20.6055ZM19.6332 34.5215C19.6332 34.926 19.9562 35.2539 20.3549 35.2539H41.9475C42.3462 35.2539 42.6692 34.926 42.6692 34.5215C42.6692 34.117 42.3462 33.7891 41.9475 33.7891H20.3549C19.9563 33.7891 19.6332 34.117 19.6332 34.5215ZM15.3031 38.916C15.3031 39.3205 15.6261 39.6484 16.0247 39.6484H41.9475C42.3462 39.6484 42.6692 39.3205 42.6692 38.916C42.6692 38.5115 42.3462 38.1836 41.9475 38.1836H16.0247C15.6262 38.1836 15.3031 38.5115 15.3031 38.916ZM16.0247 44.043H41.9475C42.3462 44.043 42.6692 43.715 42.6692 43.3105C42.6692 42.9061 42.3462 42.5781 41.9475 42.5781H16.0247C15.6261 42.5781 15.3031 42.9061 15.3031 43.3105C15.3031 43.715 15.6262 44.043 16.0247 44.043ZM41.9476 16.2109H25.1199C24.7212 16.2109 24.3982 16.5389 24.3982 16.9434C24.3982 17.3479 24.7212 17.6758 25.1199 17.6758H41.9476C42.3463 17.6758 42.6693 17.3479 42.6693 16.9434C42.6693 16.5389 42.3462 16.2109 41.9476 16.2109ZM23.9634 30.127C23.9634 30.5314 24.2864 30.8594 24.685 30.8594H41.9475C42.3462 30.8594 42.6692 30.5314 42.6692 30.127C42.6692 29.7225 42.3462 29.3945 41.9475 29.3945H24.685C24.2865 29.3945 23.9634 29.7225 23.9634 30.127ZM41.9476 25H26.1284C25.7298 25 25.4067 25.3279 25.4067 25.7324C25.4067 26.1369 25.7298 26.4648 26.1284 26.4648H41.9475C42.3462 26.4648 42.6692 26.1369 42.6692 25.7324C42.6692 25.3279 42.3462 25 41.9476 25Z" fill="#424F63"/>
</g>
<path d="M13.4385 13.27C13.7699 13.27 14.0385 13.5386 14.0385 13.87V14.9661C14.0385 15.1179 14.1338 15.2475 14.2661 15.2936L14.2663 15.2937C15.2802 15.648 16.206 16.1925 17.0163 16.9102C17.1245 17.006 17.2754 17.0192 17.3946 16.9492L17.3946 16.9492L18.3269 16.4017C18.4655 16.3204 18.6308 16.298 18.786 16.3396C18.9412 16.3811 19.0732 16.4832 19.1525 16.6229L21.0256 19.9224C21.1875 20.2076 21.0904 20.57 20.8075 20.736L19.8738 21.2843L19.8737 21.2843C19.7529 21.3552 19.6828 21.5026 19.7117 21.6534L19.7118 21.6539C19.8128 22.1834 19.864 22.7259 19.864 23.2667C19.864 23.8074 19.8128 24.3498 19.7119 24.8788L19.7118 24.8792C19.6828 25.0309 19.753 25.178 19.8736 25.2489L19.8737 25.2489L20.8076 25.7972C21.0904 25.9633 21.1875 26.3256 21.0255 26.6108L19.1525 29.9102C19.0732 30.05 18.9412 30.152 18.786 30.1936C18.6308 30.2352 18.4655 30.2128 18.3269 30.1314L17.3947 29.5841L17.3946 29.584C17.2755 29.5141 17.1244 29.5273 17.0165 29.623L17.0163 29.6231C16.2059 30.3407 15.2803 30.8852 14.2663 31.2396C14.1336 31.286 14.0385 31.4158 14.0385 31.5672V32.6633C14.0385 32.9946 13.7699 33.2633 13.4385 33.2633H9.69474C9.36337 33.2633 9.09474 32.9946 9.09474 32.6633V31.5672C9.09474 31.4157 8.99968 31.2859 8.86684 31.2395C7.85305 30.8853 6.92729 30.3408 6.11685 29.6229C6.00874 29.5273 5.85775 29.5141 5.73855 29.5841L5.43474 29.0667L5.73854 29.5841L4.80631 30.1314C4.66777 30.2128 4.50241 30.2352 4.34723 30.1936C4.19206 30.152 4.06003 30.05 3.98073 29.9102L2.10769 26.6108C1.94579 26.3256 2.04287 25.9633 2.32568 25.7972L3.25956 25.2489L13.4385 13.27ZM13.4385 13.27H9.69465C9.36328 13.27 9.09465 13.5386 9.09465 13.87V14.9661C9.09465 15.1179 8.99946 15.2475 8.86691 15.2938L8.86675 15.2938M13.4385 13.27L8.86675 15.2938M3.42156 24.8802L3.42142 24.8795C3.32041 24.3499 3.26925 23.8074 3.26925 23.2667C3.26925 22.726 3.32041 22.1835 3.42133 21.6545L3.42142 21.6541C3.4504 21.5028 3.38048 21.3556 3.25955 21.2844L3.42156 24.8802ZM3.42156 24.8802C3.45035 25.0302 3.38067 25.1776 3.25975 25.2488L3.42156 24.8802ZM8.86675 15.2938C7.85307 15.648 6.92743 16.1925 6.11711 16.9102L8.86675 15.2938ZM2.32568 20.736L3.25934 21.2842L6.11695 16.9103C6.00878 17.0059 5.85776 17.0191 5.73884 16.9494C5.73878 16.9493 5.73873 16.9493 5.73868 16.9493L4.80632 16.4018C4.66778 16.3205 4.50241 16.2981 4.34724 16.3397C4.19206 16.3812 4.06004 16.4833 3.98073 16.623L2.10769 19.9224C1.94579 20.2076 2.04287 20.57 2.32568 20.736ZM11.5666 27.3764C9.34737 27.3764 7.52576 25.5406 7.52576 23.2666C7.52576 20.9925 9.34737 19.1567 11.5666 19.1567C13.7859 19.1567 15.6075 20.9925 15.6075 23.2666C15.6075 25.5406 13.7859 27.3764 11.5666 27.3764ZM11.5667 27.1116C13.6695 27.1116 15.3642 25.3789 15.3642 23.2666C15.3642 21.1542 13.6694 19.4216 11.5666 19.4216C9.46379 19.4216 7.76914 21.1542 7.76914 23.2666C7.76914 25.3789 9.46391 27.1116 11.5667 27.1116Z" stroke="#6CEF85" stroke-width="1.2" stroke-linecap="round" stroke-linejoin="round"/>
<defs>
<filter id="filter0_ii" x="0.5" y="-0.5" width="47.5" height="51.5" filterUnits="userSpaceOnUse" color-interpolation-filters="sRGB">
<feFlood flood-opacity="0" result="BackgroundImageFix"/>
<feBlend mode="normal" in="SourceGraphic" in2="BackgroundImageFix" result="shape"/>
<feColorMatrix in="SourceAlpha" type="matrix" values="0 0 0 0 0 0 0 0 0 0 0 0 0 0 0 0 0 0 127 0" result="hardAlpha"/>
<feOffset dx="-0.5" dy="-0.5"/>
<feGaussianBlur stdDeviation="0.25"/>
<feComposite in2="hardAlpha" operator="arithmetic" k2="-1" k3="1"/>
<feColorMatrix type="matrix" values="0 0 0 0 1 0 0 0 0 1 0 0 0 0 1 0 0 0 0.1 0"/>
<feBlend mode="normal" in2="shape" result="effect1_innerShadow"/>
<feColorMatrix in="SourceAlpha" type="matrix" values="0 0 0 0 0 0 0 0 0 0 0 0 0 0 0 0 0 0 127 0" result="hardAlpha"/>
<feOffset dx="1" dy="1"/>
<feGaussianBlur stdDeviation="0.5"/>
<feComposite in2="hardAlpha" operator="arithmetic" k2="-1" k3="1"/>
<feColorMatrix type="matrix" values="0 0 0 0 0.113021 0 0 0 0 0.129167 0 0 0 0 0.145312 0 0 0 0.25 0"/>
<feBlend mode="normal" in2="effect1_innerShadow" result="effect2_innerShadow"/>
</filter>
</defs>
</svg>
